<?xml version="1.0" encoding="utf-8"?>
<!-- Generator: Adobe Illustrator 19.2.1, SVG Export Plug-In . SVG Version: 6.00 Build 0)  -->
<svg version="1.1" id="layer" xmlns="http://www.w3.org/2000/svg" xmlns:xlink="http://www.w3.org/1999/xlink" x="0px" y="0px"
	 viewBox="0 0 652 652" style="enable-background:new 0 0 652 652;" xml:space="preserve">
<style type="text/css">
	.st0{fill:#DF0025;}
	.st1{fill:#231815;}
	.st2{fill:#888888;}
</style>
<path class="st0" d="M112.8,318.7l12-20.8H93.6v-31.2l-20.9,12l-20.8-12v31.2H20.8l12,20.9l-12,20.8H52v31.2l20.8-12.1l20.9,12
	v-31.2h31.2L112.8,318.7z M106.8,329.2H83.2v23.6l-10.5-6l-10.4,6l0-23.6l-23.6,0l6-10.4l-6-10.5h23.6l0-23.6l10.4,6l10.5-6v23.6
	l23.6,0l-6,10.4L106.8,329.2z"/>
<path class="st1" d="M157.7,314.3c0-7.9,0-9.3-0.1-11c-0.1-1.8-0.6-2.3-2.3-2.8c-0.4-0.1-1.3-0.2-2.1-0.2c-0.6,0-0.9-0.2-0.9-0.5
	s0.4-0.5,1.2-0.5c2.8,0,6.2,0.1,7.3,0.1c1.8,0,6.7-0.1,8.4-0.1c3.4,0,7.3,0.3,10.2,2.2c1.5,1,3.8,3.7,3.8,7.1
	c0,3.8-2.2,7.3-7.4,11.5c4.8,5.9,8.5,10.5,11.8,13.8c3,3,4.9,3.2,5.7,3.4c0.5,0.1,0.8,0.1,1.3,0.1c0.4,0,0.7,0.3,0.7,0.6
	c0,0.4-0.4,0.5-1,0.5h-5.1c-3,0-4.5-0.3-5.9-1c-2.3-1.2-4.3-3.6-7.3-7.6c-2.1-2.8-4.4-6.3-5.1-7.1c-0.3-0.3-0.6-0.4-1-0.4l-4.8-0.1
	c-0.2,0-0.4,0.1-0.4,0.4v0.7c0,4.8,0.1,8.8,0.3,11c0.2,1.5,0.4,2.5,2.1,2.7c0.8,0.1,2,0.2,2.6,0.2c0.4,0,0.7,0.3,0.7,0.6
	c0,0.4-0.4,0.5-1.1,0.5c-3.1,0-7.6-0.2-8.3-0.2c-1,0-4.5,0.2-6.6,0.2c-0.7,0-1-0.2-1-0.5c0-0.2,0.2-0.6,0.8-0.6
	c0.8,0,1.4-0.1,1.9-0.2c1.1-0.2,1.4-1.2,1.6-2.7c0.2-2.2,0.2-6.3,0.2-11V314.3z M164.5,318.4c0,0.6,0.1,0.7,0.5,0.9
	c1.2,0.4,2.7,0.5,4.1,0.5c2.1,0,2.9-0.2,3.8-0.9c1.6-1.2,3.5-3.4,3.5-7.7c0-7.3-5-9.2-8.2-9.2c-1.3,0-2.6,0.1-3.2,0.2
	c-0.4,0.1-0.5,0.3-0.5,0.7V318.4z"/>
<path class="st1" d="M200.5,314.3c0-7.9,0-9.3-0.1-11c-0.1-1.8-0.6-2.3-2.3-2.8c-0.4-0.1-1.3-0.2-2.1-0.2c-0.6,0-0.9-0.2-0.9-0.6
	c0-0.4,0.4-0.5,1.2-0.5c2.8,0,6.2,0.1,7.7,0.1c1.7,0,13.6,0.1,14.6,0c1-0.1,1.8-0.2,2.3-0.3c0.3-0.1,0.6-0.2,0.9-0.2
	c0.3,0,0.4,0.2,0.4,0.5c0,0.4-0.3,1-0.4,3.3c-0.1,0.6-0.2,2.8-0.3,3.4c-0.1,0.2-0.2,0.9-0.6,0.9c-0.4,0-0.4-0.2-0.4-0.7
	c0-0.4-0.1-1.3-0.4-1.9c-0.4-0.9-0.9-1.6-3.5-1.9c-0.9-0.1-7.3-0.2-8.4-0.2c-0.2,0-0.4,0.2-0.4,0.5v12.8c0,0.3,0.1,0.5,0.4,0.5
	c1.2,0,8.2,0,9.4-0.1c1.3-0.1,2.1-0.2,2.6-0.8c0.4-0.4,0.6-0.7,0.9-0.7c0.2,0,0.4,0.2,0.4,0.6c0,0.3-0.1,1.2-0.4,3.8
	c-0.1,1-0.2,3.1-0.2,3.5c0,0.4-0.1,1.2-0.5,1.2c-0.4,0-0.5-0.2-0.5-0.4c-0.1-0.5-0.1-1.2-0.2-1.9c-0.3-1-1-1.8-3-2
	c-1-0.1-7.1-0.2-8.4-0.2c-0.2,0-0.3,0.2-0.3,0.6v4.1c0,1.8-0.1,6.2,0,7.7c0.1,3.5,1.8,4.3,7.3,4.3c1.4,0,3.7-0.1,5.1-0.7
	c1.3-0.6,2-1.7,2.3-3.8c0.1-0.5,0.2-0.8,0.6-0.8c0.4,0,0.5,0.7,0.5,1.2c0,1.2-0.4,4.7-0.7,5.7c-0.4,1.3-0.8,1.3-2.9,1.3
	c-4,0-7.3-0.1-9.9-0.2c-2.6-0.1-4.6-0.1-6.2-0.1c-0.6,0-1.8,0.1-3,0.1c-1.3,0.1-2.6,0.1-3.7,0.1c-0.7,0-1-0.2-1-0.6
	c0-0.2,0.2-0.5,0.9-0.5c0.8,0,1.4-0.1,1.9-0.2c1.1-0.2,1.4-1.2,1.6-2.7c0.2-2.2,0.2-6.3,0.2-11V314.3z"/>
<path class="st1" d="M269.3,335.1c0,1.4,0,1.5-0.7,1.8c-3.6,1.8-8.9,2.3-13.1,2.3c-13.2,0-24.8-6-24.8-20.3c0-8.3,4.5-14.1,9.4-17
	c5.1-3,9.9-3.4,14.4-3.4c3.7,0,8.4,0.6,9.5,0.9c1.1,0.2,3,0.5,4.3,0.6c0.6,0.1,0.7,0.2,0.7,0.6c0,0.6-0.4,2-0.4,8.5
	c0,0.8-0.3,1.2-0.7,1.2c-0.4,0-0.5-0.2-0.6-0.7c-0.1-1.2-0.4-2.8-1.8-4.3c-1.6-1.6-5.6-4-11.6-4c-2.9,0-6.6,0.1-10.4,3
	c-3,2.4-4.9,6.3-4.9,12.6c0,11.2,7.2,19.3,18.7,19.3c1.4,0,2.5,0,3.8-0.6c0.8-0.4,1-0.9,1-1.8v-4.8c0-2.6,0-4.5-0.1-6.1
	c-0.1-1.8-0.6-2.3-2.3-2.8c-0.4-0.1-1.3-0.2-2.1-0.2c-0.5,0-0.9-0.2-0.9-0.6c0-0.4,0.4-0.5,1.2-0.5c2.8,0,6.6,0.1,8.2,0.1
	c1.7,0,4.5-0.1,6.3-0.1c0.7,0,1.1,0.1,1.1,0.5c0,0.3-0.3,0.6-0.7,0.6c-0.4,0-0.9,0.1-1.5,0.2c-1.5,0.2-2,1-2.1,2.8
	c-0.1,1.6-0.1,3.7-0.1,6.2V335.1z"/>
<path class="st1" d="M285.3,314.3c0-7.9,0-9.3-0.1-11c-0.1-1.8-0.7-2.4-1.8-2.7c-0.6-0.2-1.3-0.2-2-0.2c-0.6,0-0.9-0.1-0.9-0.6
	c0-0.3,0.4-0.4,1.3-0.4c2,0,5.7,0.1,7.2,0.1c1.3,0,4.8-0.1,6.9-0.1c0.7,0,1.1,0.1,1.1,0.4c0,0.5-0.3,0.6-0.8,0.6
	c-0.6,0-1,0.1-1.6,0.2c-1.5,0.2-1.9,1-2,2.8c-0.1,1.6-0.1,3.1-0.1,11v9.2c0,5,0,9.1,0.2,11.3c0.2,1.4,0.6,2.2,2.1,2.4
	c0.7,0.1,2,0.2,2.7,0.2c0.6,0,0.9,0.3,0.9,0.5c0,0.4-0.4,0.6-1,0.6c-3.5,0-7.2-0.2-8.7-0.2c-1.2,0-4.9,0.2-7,0.2c-0.7,0-1-0.2-1-0.6
	c0-0.2,0.2-0.5,0.9-0.5c0.8,0,1.4-0.1,1.9-0.2c1.1-0.2,1.4-1,1.6-2.5c0.2-2.1,0.2-6.3,0.2-11.3V314.3z"/>
<path class="st1" d="M314.4,331.5c0.1,4,0.8,5.2,1.8,5.6c0.9,0.3,2,0.4,2.8,0.4c0.6,0,0.9,0.2,0.9,0.5c0,0.4-0.5,0.6-1.2,0.6
	c-3.5,0-6-0.2-7-0.2c-0.5,0-3.1,0.2-5.8,0.2c-0.7,0-1.2-0.1-1.2-0.6c0-0.3,0.4-0.5,0.9-0.5c0.7,0,1.7-0.1,2.4-0.2
	c1.4-0.4,1.6-1.8,1.7-6.3l0.5-30.7c0-1,0.4-1.8,0.9-1.8c0.7,0,1.4,0.8,2.3,1.7c0.7,0.7,8.7,8.9,16.5,16.5
	c3.7,3.6,10.8,10.9,11.6,11.6h0.2l-0.5-23c-0.1-3.2-0.5-4.1-1.8-4.6c-0.8-0.3-2.1-0.3-2.8-0.3c-0.7,0-0.9-0.2-0.9-0.6
	c0-0.4,0.5-0.5,1.3-0.5c2.8,0,5.7,0.1,6.8,0.1c0.6,0,2.6-0.1,5.2-0.1c0.7,0,1.2,0.1,1.2,0.5c0,0.3-0.3,0.6-0.9,0.6
	c-0.5,0-1,0-1.6,0.2c-1.5,0.4-1.9,1.3-2,4.3l-0.6,32.7c0,1.2-0.4,1.6-0.8,1.6c-0.9,0-1.6-0.5-2.2-1.1c-3.4-3.1-10.1-9.5-15.7-14.9
	c-5.9-5.6-11.5-11.9-12.6-12.8h-0.2L314.4,331.5z"/>
<path class="st1" d="M365.6,325.5c-0.3,0-0.4,0.1-0.5,0.4l-2.9,7c-0.6,1.3-0.8,2.6-0.8,3.2c0,0.9,0.5,1.5,2.1,1.5h0.8
	c0.7,0,0.8,0.2,0.8,0.6c0,0.4-0.3,0.5-0.9,0.5c-1.8,0-4.3-0.2-6-0.2c-0.6,0-3.4,0.2-6.2,0.2c-0.7,0-1-0.1-1-0.5
	c0-0.3,0.2-0.6,0.6-0.6c0.5,0,1.1-0.1,1.6-0.1c2.4-0.4,3.4-1.9,4.5-4.6l14-32.6c0.6-1.5,1-2.1,1.6-2.1c0.8,0,1,0.5,1.6,1.6
	c1.3,2.9,10.2,24.1,13.7,31.9c2.1,4.7,3.6,5.4,4.6,5.6c0.8,0.1,1.4,0.2,2,0.2c0.5,0,0.7,0.2,0.7,0.6c0,0.4-0.3,0.5-2.3,0.5
	c-1.9,0-5.8,0-10.3-0.1c-1-0.1-1.6-0.1-1.6-0.4c0-0.3,0.1-0.5,0.7-0.6c0.4-0.1,0.7-0.5,0.5-1.2l-4.1-10.4c-0.1-0.3-0.3-0.4-0.5-0.4
	H365.6z M377.1,322.6c0.2,0,0.3-0.1,0.2-0.3l-5.1-13.2c-0.1-0.2-0.1-0.5-0.2-0.5c-0.2,0-0.2,0.3-0.3,0.5l-5.2,13.1
	c-0.1,0.2,0,0.4,0.2,0.4H377.1z"/>
<path class="st1" d="M424.1,299.5c0.1-0.9,0.6-1.3,1-1.3c0.5,0,0.9,0.2,1.6,1.6l14.4,28.9l14.4-29.3c0.4-0.9,0.9-1.3,1.4-1.3
	c0.4,0,1,0.5,1.2,1.6l4.9,32c0.5,3.2,1,4.6,2.6,5.1c1.5,0.4,2.4,0.5,3.1,0.5c0.5,0,0.9,0.2,0.9,0.5c0,0.4-0.6,0.6-1.4,0.6
	c-1.3,0-9-0.2-11.1-0.4c-1.3-0.1-1.6-0.3-1.6-0.6c0-0.2,0.2-0.4,0.6-0.5c0.3-0.1,0.4-0.7,0.2-2.2l-3-22.4h-0.2l-11.5,23.2
	c-1.2,2.4-1.5,2.9-2.1,2.9c-0.7,0-1.3-1-2.1-2.6c-1.3-2.4-5.5-10.3-6.2-11.8c-0.4-1-3.6-7.5-5.4-11.1h-0.2l-2.6,20.2
	c-0.1,0.9-0.2,1.6-0.2,2.4c0,1,0.7,1.3,1.6,1.5c0.9,0.2,1.4,0.2,1.9,0.2s0.9,0.2,0.9,0.5c0,0.5-0.5,0.6-1.3,0.6
	c-2.3,0-4.7-0.2-5.7-0.2c-1,0-3.6,0.2-5.3,0.2c-0.6,0-1-0.1-1-0.6c0-0.2,0.3-0.5,0.9-0.5c0.4,0,0.8,0,1.6-0.1c1.5-0.2,2-2.3,2.2-4
	L424.1,299.5z"/>
<path class="st1" d="M482.3,325.5c-0.3,0-0.4,0.1-0.5,0.4l-2.9,7c-0.5,1.3-0.8,2.6-0.8,3.2c0,0.9,0.5,1.5,2.1,1.5h0.8
	c0.7,0,0.8,0.2,0.8,0.6c0,0.4-0.3,0.5-0.9,0.5c-1.8,0-4.3-0.2-6-0.2c-0.5,0-3.4,0.2-6.2,0.2c-0.7,0-1-0.1-1-0.5
	c0-0.3,0.2-0.6,0.6-0.6c0.5,0,1.1-0.1,1.6-0.1c2.4-0.4,3.4-1.9,4.5-4.6l14-32.6c0.6-1.5,1-2.1,1.6-2.1c0.8,0,1,0.5,1.6,1.6
	c1.3,2.9,10.2,24.1,13.7,31.9c2.1,4.7,3.6,5.4,4.6,5.6c0.8,0.1,1.4,0.2,2,0.2c0.5,0,0.7,0.2,0.7,0.6c0,0.4-0.3,0.5-2.3,0.5
	c-1.9,0-5.8,0-10.3-0.1c-1-0.1-1.6-0.1-1.6-0.4c0-0.3,0.1-0.5,0.7-0.6c0.4-0.1,0.7-0.5,0.5-1.2l-4.1-10.4c-0.1-0.3-0.3-0.4-0.5-0.4
	H482.3z M493.7,322.6c0.2,0,0.3-0.1,0.2-0.3l-5.1-13.2c-0.1-0.2-0.1-0.5-0.2-0.5c-0.2,0-0.2,0.3-0.3,0.5l-5.2,13.1
	c-0.1,0.2,0,0.4,0.2,0.4H493.7z"/>
<path class="st1" d="M519.5,314.3c0-7.9,0-9.3-0.1-11c-0.1-1.8-0.6-2.3-2.3-2.8c-0.4-0.1-1.3-0.2-2.1-0.2c-0.6,0-0.9-0.2-0.9-0.5
	s0.4-0.5,1.2-0.5c2.8,0,6.2,0.1,7.3,0.1c1.8,0,6.7-0.1,8.4-0.1c3.4,0,7.3,0.3,10.2,2.2c1.5,1,3.8,3.7,3.8,7.1
	c0,3.8-2.2,7.3-7.4,11.5c4.8,5.9,8.5,10.5,11.8,13.8c3,3,4.9,3.2,5.7,3.4c0.6,0.1,0.9,0.1,1.3,0.1c0.4,0,0.7,0.3,0.7,0.6
	c0,0.4-0.4,0.5-1,0.5h-5.1c-3,0-4.4-0.3-5.9-1c-2.3-1.2-4.3-3.6-7.3-7.6c-2.1-2.8-4.4-6.3-5.1-7.1c-0.3-0.3-0.6-0.4-1-0.4l-4.8-0.1
	c-0.2,0-0.4,0.1-0.4,0.4v0.7c0,4.8,0.1,8.8,0.3,11c0.2,1.5,0.4,2.5,2.1,2.7c0.8,0.1,2,0.2,2.6,0.2c0.4,0,0.7,0.3,0.7,0.6
	c0,0.4-0.4,0.5-1.1,0.5c-3.1,0-7.6-0.2-8.4-0.2c-1,0-4.5,0.2-6.6,0.2c-0.7,0-1-0.2-1-0.5c0-0.2,0.2-0.6,0.9-0.6
	c0.8,0,1.4-0.1,1.9-0.2c1.1-0.2,1.4-1.2,1.6-2.7c0.2-2.2,0.2-6.3,0.2-11V314.3z M526.3,318.4c0,0.6,0.1,0.7,0.5,0.9
	c1.2,0.4,2.7,0.5,4.1,0.5c2.1,0,2.9-0.2,3.8-0.9c1.6-1.2,3.5-3.4,3.5-7.7c0-7.3-5-9.2-8.2-9.2c-1.3,0-2.6,0.1-3.2,0.2
	c-0.4,0.1-0.5,0.3-0.5,0.7V318.4z"/>
<path class="st1" d="M562.3,314.3c0-7.9,0-9.3-0.1-11c-0.1-1.8-0.7-2.4-1.8-2.7c-0.6-0.2-1.3-0.2-2-0.2c-0.5,0-0.8-0.1-0.8-0.6
	c0-0.3,0.4-0.4,1.3-0.4c2,0,5.7,0.1,7.2,0.1c1.3,0,4.8-0.1,6.9-0.1c0.7,0,1.1,0.1,1.1,0.4c0,0.5-0.3,0.6-0.9,0.6
	c-0.5,0-1,0.1-1.6,0.2c-1.5,0.2-1.9,1-2,2.8c-0.1,1.6-0.1,3.1-0.1,11v9.2c0,5,0,9.1,0.2,11.3c0.2,1.4,0.6,2.2,2.1,2.4
	c0.7,0.1,2,0.2,2.7,0.2c0.6,0,0.9,0.3,0.9,0.5c0,0.4-0.4,0.6-1,0.6c-3.5,0-7.2-0.2-8.7-0.2c-1.2,0-4.9,0.2-7,0.2c-0.7,0-1-0.2-1-0.6
	c0-0.2,0.2-0.5,0.9-0.5c0.8,0,1.4-0.1,1.9-0.2c1.1-0.2,1.4-1,1.6-2.5c0.2-2.1,0.2-6.3,0.2-11.3V314.3z"/>
<path class="st1" d="M590.4,325.5c-0.3,0-0.4,0.1-0.5,0.4l-2.9,7c-0.5,1.3-0.8,2.6-0.8,3.2c0,0.9,0.5,1.5,2.1,1.5h0.8
	c0.7,0,0.8,0.2,0.8,0.6c0,0.4-0.3,0.5-0.9,0.5c-1.8,0-4.3-0.2-6-0.2c-0.5,0-3.4,0.2-6.2,0.2c-0.7,0-1-0.1-1-0.5
	c0-0.3,0.2-0.6,0.6-0.6c0.5,0,1.1-0.1,1.6-0.1c2.4-0.4,3.4-1.9,4.5-4.6l14-32.6c0.6-1.5,1-2.1,1.6-2.1c0.8,0,1,0.5,1.6,1.6
	c1.3,2.9,10.2,24.1,13.7,31.9c2.1,4.7,3.6,5.4,4.6,5.6c0.8,0.1,1.4,0.2,2,0.2c0.5,0,0.7,0.2,0.7,0.6c0,0.4-0.3,0.5-2.3,0.5
	c-1.9,0-5.8,0-10.3-0.1c-1-0.1-1.6-0.1-1.6-0.4c0-0.3,0.1-0.5,0.7-0.6c0.4-0.1,0.7-0.5,0.5-1.2l-4.1-10.4c-0.1-0.3-0.3-0.4-0.6-0.4
	H590.4z M601.8,322.6c0.2,0,0.3-0.1,0.2-0.3l-5.1-13.2c-0.1-0.2-0.1-0.5-0.2-0.5c-0.2,0-0.2,0.3-0.3,0.5l-5.2,13.1
	c-0.1,0.2,0,0.4,0.2,0.4H601.8z"/>
<path class="st2" d="M155,357.6c0-4.1,0-4.9,0-5.7c-0.1-0.9-0.3-1.4-1.2-1.5c-0.2-0.1-0.7-0.1-1.1-0.1c-0.3,0-0.5-0.1-0.5-0.3
	c0-0.2,0.2-0.2,0.6-0.2c1.4,0,3.1,0.1,3.7,0.1c0.9,0,3-0.1,3.8-0.1c1.7,0,3.5,0.2,5,1.2c0.8,0.5,1.8,1.9,1.8,3.7
	c0,2-0.8,3.8-3.6,6.1c2.4,3,4.3,5.5,5.9,7.1c1.5,1.6,2.6,1.8,3,1.8c0.3,0.1,0.5,0.1,0.8,0.1c0.2,0,0.3,0.1,0.3,0.2
	c0,0.2-0.2,0.3-0.5,0.3h-2.6c-1.5,0-2.2-0.1-2.9-0.5c-1.2-0.6-2.2-1.9-3.7-4c-1.1-1.5-2.3-3.3-2.7-3.7c-0.1-0.2-0.3-0.2-0.5-0.2
	l-2.4-0.1c-0.1,0-0.2,0.1-0.2,0.2v0.4c0,2.5,0,4.7,0.1,5.8c0.1,0.8,0.2,1.4,1.1,1.5c0.4,0.1,1,0.1,1.3,0.1c0.2,0,0.3,0.1,0.3,0.2
	c0,0.2-0.2,0.3-0.5,0.3c-1.6,0-3.6-0.1-4-0.1c-0.5,0-2.2,0.1-3.3,0.1c-0.4,0-0.5-0.1-0.5-0.3c0-0.1,0.1-0.2,0.4-0.2
	c0.4,0,0.7,0,1-0.1c0.5-0.1,0.7-0.7,0.8-1.5c0.1-1.1,0.1-3.3,0.1-5.8V357.6z M158.2,359.8c0,0.3,0.1,0.4,0.2,0.5
	c0.6,0.2,1.4,0.3,2.1,0.3c1.1,0,1.4-0.1,1.9-0.5c0.8-0.6,1.6-1.8,1.6-4.1c0-3.8-2.5-5-4.1-5c-0.7,0-1.2,0-1.4,0.1
	c-0.2,0.1-0.2,0.2-0.2,0.4V359.8z"/>
<path class="st2" d="M175.4,357.6c0-4.1,0-4.9-0.1-5.7c-0.1-0.9-0.3-1.4-1.2-1.5c-0.2-0.1-0.7-0.1-1.1-0.1c-0.3,0-0.5-0.1-0.5-0.2
	c0-0.2,0.2-0.2,0.6-0.2c0.7,0,1.5,0,2.2,0c0.7,0,1.3,0.1,1.7,0.1c0.9,0,6.3,0,6.8,0c0.5-0.1,1-0.1,1.2-0.2c0.1,0,0.3-0.1,0.4-0.1
	c0.1,0,0.2,0.1,0.2,0.2c0,0.2-0.1,0.5-0.2,1.8c0,0.3-0.1,1.5-0.1,1.8c0,0.1-0.1,0.3-0.3,0.3c-0.2,0-0.3-0.1-0.3-0.4
	c0-0.2,0-0.6-0.2-1c-0.2-0.5-0.5-0.8-1.8-1c-0.5-0.1-3.3-0.1-3.8-0.1c-0.1,0-0.2,0.1-0.2,0.3l0,6.9c0,0.2,0,0.3,0.2,0.3
	c0.6,0,3.7,0,4.3-0.1c0.7-0.1,1.1-0.1,1.3-0.4c0.2-0.2,0.3-0.4,0.4-0.4c0.1,0,0.2,0.1,0.2,0.2c0,0.2-0.1,0.6-0.2,2
	c0,0.5-0.1,1.6-0.1,1.8c0,0.2,0,0.5-0.2,0.5c-0.2,0-0.2-0.1-0.2-0.2c0-0.3,0-0.6-0.1-1c-0.1-0.5-0.5-0.9-1.5-1
	c-0.5-0.1-3.2-0.1-3.8-0.1c-0.1,0-0.2,0.1-0.2,0.3v2.1c0,0.9,0,3.4,0,4.2c0.1,1.9,0.5,2.3,3.2,2.3c0.7,0,1.8,0,2.5-0.3
	c0.7-0.3,1-0.9,1.2-2c0.1-0.3,0.1-0.4,0.3-0.4c0.2,0,0.2,0.2,0.2,0.5c0,0.6-0.2,2.5-0.4,3c-0.2,0.7-0.4,0.7-1.5,0.7
	c-2,0-3.5-0.1-4.7-0.1c-1.2-0.1-2-0.1-2.8-0.1c-0.3,0-0.9,0-1.5,0c-0.6,0-1.3,0.1-1.9,0.1c-0.3,0-0.5-0.1-0.5-0.3
	c0-0.1,0.1-0.2,0.4-0.2c0.4,0,0.7-0.1,1-0.1c0.5-0.1,0.7-0.7,0.8-1.5c0.1-1.1,0.1-3.3,0.1-5.8V357.6z"/>
<path class="st2" d="M196.1,351.3l-4,0.1c-1.6,0.1-2.2,0.2-2.6,0.8c-0.3,0.4-0.4,0.7-0.5,1c-0.1,0.2-0.1,0.3-0.3,0.3
	c-0.2,0-0.2-0.1-0.2-0.4c0-0.4,0.5-2.9,0.6-3.1c0.1-0.4,0.2-0.5,0.3-0.5c0.2,0,0.5,0.3,1.2,0.3c0.8,0.1,1.8,0.1,2.7,0.1l10.7,0
	c0.9,0,1.5-0.1,1.9-0.1c0.4-0.1,0.6-0.1,0.7-0.1c0.2,0,0.2,0.2,0.2,0.6c0,0.6-0.1,2.4-0.1,3.1c0,0.3-0.1,0.4-0.2,0.4
	c-0.2,0-0.3-0.1-0.3-0.5l0-0.3c-0.1-0.7-0.8-1.5-3.2-1.5l-3.4-0.1v11.1c0,2.5,0,4.6,0.1,5.8c0.1,0.8,0.2,1.4,1.1,1.5
	c0.4,0.1,1,0.1,1.4,0.1c0.3,0,0.4,0.1,0.4,0.2c0,0.2-0.2,0.3-0.5,0.3c-1.8,0-3.5-0.1-4.3-0.1c-0.6,0-2.3,0.1-3.4,0.1
	c-0.4,0-0.5-0.1-0.5-0.3c0-0.1,0.1-0.2,0.4-0.2c0.4,0,0.7-0.1,1-0.1c0.5-0.1,0.7-0.7,0.8-1.5c0.1-1.1,0.1-3.3,0.1-5.8V351.3z
	 M199,374.5c-0.3,0.7-1.1,2.2-1.8,3.1c-0.2,0.1-0.3,0.3-0.4,0.3c-0.1,0-0.2-0.1-0.2-0.2c0-0.1,0.1-0.3,0.2-0.4
	c0.5-0.8,0.7-1.5,0.7-2c0-1.3-1-1.7-1-2c0-0.8,1-1.6,1.7-1.6c0.2,0,0.3,0.1,0.6,0.6c0.4,0.6,0.5,0.9,0.5,1.2
	C199.3,373.6,199.1,374.1,199,374.5"/>
<path class="st2" d="M211.8,357.6c0-4.1,0-4.9-0.1-5.7c-0.1-0.9-0.3-1.4-1.2-1.6c-0.2,0-0.7-0.1-1.1-0.1c-0.3,0-0.5-0.1-0.5-0.2
	c0-0.2,0.2-0.2,0.6-0.2c0.7,0,1.5,0,2.2,0c0.7,0,1.3,0.1,1.7,0.1c0.9,0,6.3,0,6.8,0c0.5-0.1,0.9-0.1,1.2-0.2c0.1,0,0.3-0.1,0.4-0.1
	c0.1,0,0.2,0.1,0.2,0.3c0,0.2-0.1,0.5-0.2,1.8c0,0.3-0.1,1.5-0.1,1.8c0,0.1-0.1,0.3-0.3,0.3c-0.2,0-0.2-0.1-0.2-0.4
	c0-0.2,0-0.7-0.2-1c-0.2-0.5-0.5-0.8-1.8-1c-0.5-0.1-3.3-0.1-3.8-0.1c-0.1,0-0.2,0.1-0.2,0.3v6.8c0,0.2,0,0.3,0.2,0.3
	c0.6,0,3.7,0,4.3-0.1c0.7-0.1,1.1-0.1,1.3-0.4c0.2-0.2,0.3-0.4,0.4-0.4c0.1,0,0.2,0.1,0.2,0.2c0,0.2-0.1,0.6-0.2,2
	c0,0.5-0.1,1.6-0.1,1.8c0,0.2,0,0.5-0.2,0.5c-0.2,0-0.2-0.1-0.2-0.2c0-0.3,0-0.6-0.1-1c-0.1-0.5-0.5-0.9-1.5-1.1
	c-0.5-0.1-3.2-0.1-3.8-0.1c-0.1,0-0.2,0.1-0.2,0.3v2.1c0,0.9,0,3.4,0,4.2c0.1,1.9,0.5,2.3,3.3,2.3c0.7,0,1.8,0,2.5-0.3
	c0.7-0.3,1-0.9,1.2-2c0.1-0.3,0.1-0.4,0.3-0.4c0.2,0,0.2,0.2,0.2,0.5c0,0.6-0.2,2.5-0.3,3c-0.2,0.7-0.4,0.7-1.5,0.7
	c-2,0-3.5-0.1-4.7-0.1c-1.2-0.1-2-0.1-2.8-0.1c-0.3,0-0.9,0-1.5,0c-0.6,0-1.3,0.1-1.9,0.1c-0.4,0-0.5-0.1-0.5-0.3
	c0-0.1,0.1-0.2,0.4-0.2c0.4,0,0.7-0.1,1-0.1c0.5-0.1,0.7-0.7,0.8-1.5c0.1-1.1,0.1-3.3,0.1-5.8V357.6z"/>
<path class="st2" d="M230,363.2c-0.1,0-0.2,0.1-0.2,0.2l-1.5,3.9c-0.3,0.7-0.4,1.3-0.4,1.6c0,0.5,0.2,0.8,1.1,0.8h0.4
	c0.3,0,0.4,0.1,0.4,0.2c0,0.2-0.2,0.3-0.5,0.3c-0.9,0-2-0.1-2.9-0.1c-0.3,0-1.8,0.1-3.2,0.1c-0.4,0-0.5-0.1-0.5-0.3
	c0-0.2,0.1-0.2,0.3-0.2c0.2,0,0.6,0,0.8-0.1c1.2-0.2,1.8-1.1,2.3-2.4l6.8-17c0.3-0.8,0.5-1.1,0.8-1.1c0.2,0,0.4,0.2,0.7,0.9
	c0.7,1.5,5,12.5,6.7,16.7c1,2.4,1.8,2.8,2.4,2.9c0.4,0.1,0.8,0.1,1.1,0.1c0.2,0,0.4,0,0.4,0.2c0,0.2-0.2,0.3-1.3,0.3
	c-1,0-3,0-5.1-0.1c-0.5,0-0.8,0-0.8-0.2c0-0.2,0.1-0.2,0.4-0.2c0.2-0.1,0.4-0.3,0.2-0.6l-2.2-5.7c-0.1-0.1-0.1-0.2-0.3-0.2H230z
	 M235.5,361.8c0.1,0,0.2-0.1,0.1-0.2l-2.4-6.7c0-0.1,0-0.2-0.1-0.2c-0.1,0-0.1,0.1-0.2,0.2l-2.5,6.7c0,0.1,0,0.2,0.1,0.2H235.5z"/>
<path class="st2" d="M246.5,357.6c0-4.1,0-4.9-0.1-5.7c-0.1-0.9-0.3-1.4-1.2-1.5c-0.2-0.1-0.7-0.1-1.1-0.1c-0.3,0-0.5-0.1-0.5-0.2
	c0-0.2,0.2-0.2,0.6-0.2c1.4,0,3.1,0.1,4,0.1c0.6,0,2.3-0.1,3.3-0.1c0.4,0,0.6,0.1,0.6,0.2c0,0.2-0.2,0.2-0.4,0.2
	c-0.3,0-0.4,0-0.8,0.1c-0.7,0.1-1,0.6-1,1.5c-0.1,0.9-0.1,1.6-0.1,5.7v3.8c0,3.9,0.8,5.6,2.1,6.7c1.2,1,2.5,1.1,3.4,1.1
	c1.2,0,2.7-0.4,3.7-1.5c1.5-1.5,1.6-3.9,1.6-6.7v-3.4c0-4.1,0-4.9-0.1-5.7c0-0.9-0.3-1.4-1.2-1.5c-0.2-0.1-0.7-0.1-1-0.1
	c-0.3,0-0.5-0.1-0.5-0.2c0-0.2,0.2-0.2,0.6-0.2c1.4,0,3.1,0.1,3.1,0.1c0.3,0,2-0.1,3.1-0.1c0.4,0,0.6,0.1,0.6,0.2
	c0,0.2-0.2,0.2-0.5,0.2c-0.3,0-0.5,0-0.8,0.1c-0.7,0.1-0.9,0.6-1,1.5c-0.1,0.9-0.1,1.6-0.1,5.7v2.9c0,3-0.3,6.2-2.6,8.1
	c-1.9,1.7-3.9,2-5.6,2c-1.4,0-4-0.1-6-1.9c-1.4-1.2-2.4-3.2-2.4-7.2L246.5,357.6z"/>
<path class="st2" d="M271.5,363.2c-0.1,0-0.2,0.1-0.2,0.2l-1.5,3.9c-0.3,0.7-0.4,1.3-0.4,1.6c0,0.5,0.3,0.8,1.1,0.8h0.4
	c0.3,0,0.4,0,0.4,0.2c0,0.2-0.2,0.3-0.5,0.3c-0.9,0-2-0.1-2.9-0.1c-0.3,0-1.8,0.1-3.2,0.1c-0.3,0-0.5-0.1-0.5-0.3
	c0-0.2,0.1-0.2,0.3-0.2c0.2,0,0.6,0,0.8-0.1c1.2-0.2,1.8-1.1,2.3-2.4l6.8-17c0.3-0.8,0.5-1.1,0.8-1.1c0.2,0,0.4,0.2,0.7,0.9
	c0.7,1.5,5,12.5,6.7,16.6c1,2.4,1.8,2.8,2.4,3c0.4,0.1,0.8,0.1,1.1,0.1c0.2,0,0.4,0,0.4,0.2c0,0.2-0.3,0.3-1.2,0.3c-1,0-3,0-5.1,0
	c-0.5,0-0.8,0-0.8-0.2c0-0.2,0.1-0.2,0.4-0.2c0.2-0.1,0.4-0.3,0.2-0.6l-2.2-5.7c-0.1-0.1-0.1-0.2-0.3-0.2H271.5z M277,361.8
	c0.1,0,0.2-0.1,0.1-0.2l-2.4-6.7c0-0.1-0.1-0.2-0.1-0.2c-0.1,0-0.1,0.1-0.2,0.2l-2.5,6.7c0,0.1,0,0.2,0.1,0.2H277z"/>
<path class="st2" d="M297.5,357.7c0-4.1,0-4.9-0.1-5.7c-0.1-0.9-0.3-1.3-1.2-1.5c-0.2-0.1-0.7-0.1-1.1-0.1c-0.3,0-0.5,0-0.5-0.2
	c0-0.2,0.2-0.2,0.6-0.2c1.4,0,3.1,0.1,3.9,0.1c1.1,0,2.7-0.1,3.9-0.1c3.4,0,4.6,1.1,5,1.5c0.6,0.6,1.3,1.8,1.3,3.2
	c0,3.8-2.8,6.5-6.7,6.5c-0.1,0-0.4,0-0.6,0c-0.1,0-0.3-0.1-0.3-0.3c0-0.2,0.2-0.3,0.8-0.3c1.5,0,3.6-1.7,3.6-4.5
	c0-0.9-0.1-2.7-1.6-4c-1-0.9-2.1-1.1-2.7-1.1c-0.4,0-0.8,0-1.1,0.1c-0.1,0.1-0.2,0.2-0.2,0.5v10.8c0,2.5,0,4.6,0.1,5.8
	c0.1,0.8,0.2,1.4,1.1,1.5c0.4,0.1,1,0.1,1.4,0.1c0.3,0,0.4,0.1,0.4,0.2c0,0.2-0.2,0.3-0.5,0.3c-1.8,0-3.5-0.1-4.2-0.1
	c-0.6,0-2.3,0.1-3.4,0.1c-0.4,0-0.5-0.1-0.5-0.3c0-0.1,0.1-0.2,0.4-0.2c0.4,0,0.7-0.1,1-0.1c0.5-0.1,0.7-0.7,0.8-1.5
	c0.1-1.1,0.1-3.3,0.1-5.8V357.7z"/>
<path class="st2" d="M315.2,357.7c0-4.1,0-4.9,0-5.7c-0.1-0.9-0.3-1.4-1.2-1.6c-0.2-0.1-0.7-0.1-1.1-0.1c-0.3,0-0.5-0.1-0.5-0.3
	c0-0.2,0.2-0.2,0.6-0.2c1.4,0,3.1,0.1,3.7,0.1c0.9,0,3-0.1,3.8-0.1c1.7,0,3.5,0.2,5,1.2c0.8,0.5,1.8,1.9,1.8,3.7
	c0,2-0.8,3.8-3.6,6.1c2.4,3,4.3,5.4,5.9,7.1c1.5,1.6,2.6,1.8,3,1.8c0.3,0.1,0.5,0.1,0.8,0.1c0.2,0,0.3,0.1,0.3,0.2
	c0,0.2-0.2,0.3-0.5,0.3h-2.6c-1.5,0-2.2-0.1-2.9-0.5c-1.2-0.6-2.2-1.9-3.7-4c-1.1-1.5-2.3-3.3-2.7-3.7c-0.1-0.2-0.3-0.2-0.5-0.2
	l-2.4-0.1c-0.1,0-0.2,0.1-0.2,0.2v0.4c0,2.5,0,4.6,0.1,5.8c0.1,0.8,0.2,1.4,1.1,1.5c0.4,0,1,0.1,1.3,0.1c0.2,0,0.3,0.1,0.3,0.2
	c0,0.2-0.2,0.3-0.5,0.3c-1.6,0-3.6-0.1-4-0.1c-0.5,0-2.2,0.1-3.3,0.1c-0.3,0-0.5-0.1-0.5-0.3c0-0.1,0.1-0.2,0.4-0.2
	c0.4,0,0.7-0.1,1-0.1c0.5-0.1,0.7-0.7,0.8-1.5c0.1-1.1,0.1-3.3,0.1-5.8V357.7z M318.4,359.8c0,0.3,0.1,0.4,0.2,0.5
	c0.6,0.2,1.4,0.3,2.1,0.3c1.1,0,1.4-0.1,1.9-0.5c0.8-0.6,1.6-1.8,1.6-4.1c0-3.8-2.5-5-4.1-5c-0.7,0-1.2,0-1.4,0.1
	c-0.2,0.1-0.2,0.2-0.2,0.4V359.8z"/>
<path class="st2" d="M335.7,357.7c0-4.1,0-4.9-0.1-5.7c-0.1-0.9-0.3-1.4-0.9-1.5c-0.3-0.1-0.7-0.1-1-0.1c-0.3,0-0.4-0.1-0.4-0.3
	c0-0.2,0.2-0.2,0.7-0.2c1,0,2.7,0.1,3.5,0.1c0.7,0,2.3-0.1,3.3-0.1c0.4,0,0.6,0,0.6,0.2c0,0.2-0.2,0.3-0.4,0.3c-0.3,0-0.5,0-0.8,0.1
	c-0.7,0.1-0.9,0.6-1,1.5c-0.1,0.9-0.1,1.6-0.1,5.7v4.8c0,2.6,0,4.8,0.1,5.9c0.1,0.7,0.3,1.2,1.1,1.3c0.4,0.1,1,0.1,1.4,0.1
	c0.3,0,0.4,0.1,0.4,0.2c0,0.2-0.2,0.3-0.5,0.3c-1.8,0-3.5-0.1-4.2-0.1c-0.6,0-2.3,0.1-3.4,0.1c-0.4,0-0.5-0.1-0.5-0.3
	c0-0.1,0.1-0.2,0.4-0.2c0.4,0,0.7-0.1,1-0.1c0.5-0.1,0.7-0.6,0.8-1.4c0.1-1.1,0.1-3.3,0.1-5.9L335.7,357.7z"/>
<path class="st2" d="M345.4,352.5c-0.6-1.5-1.1-1.8-2.1-2.1c-0.4-0.1-0.8-0.1-1.1-0.1c-0.2,0-0.3-0.1-0.3-0.2c0-0.2,0.3-0.2,0.7-0.2
	c1.4,0,3,0.1,3.9,0.1c0.7,0,2-0.1,3.3-0.1c0.3,0,0.6,0,0.6,0.2c0,0.2-0.2,0.2-0.4,0.2c-0.4,0-0.8,0-1.1,0.2
	c-0.2,0.1-0.3,0.3-0.3,0.6c0,0.4,0.2,1.1,0.6,2.1l4.6,12.3h0.1c1.2-3,4.7-11.7,5.3-13.5c0.1-0.3,0.2-0.8,0.2-1
	c0-0.2-0.1-0.4-0.3-0.5c-0.3-0.1-0.7-0.1-1.1-0.1c-0.2,0-0.5,0-0.5-0.2c0-0.2,0.2-0.3,0.7-0.3c1.4,0,2.5,0.1,2.9,0.1
	c0.5,0,1.7-0.1,2.5-0.1c0.3,0,0.6,0,0.6,0.2c0,0.2-0.2,0.2-0.4,0.2c-0.3,0-0.8,0-1.3,0.3c-0.4,0.2-0.8,0.7-1.5,2.4
	c-1,2.5-1.8,4-3.2,7.3c-1.7,4-3,6.9-3.6,8.3c-0.7,1.6-0.9,2-1.2,2c-0.4,0-0.5-0.4-1-1.7L345.4,352.5z"/>
<path class="st2" d="M367.1,363.2c-0.1,0-0.2,0.1-0.2,0.2l-1.5,3.9c-0.3,0.7-0.4,1.3-0.4,1.7c0,0.5,0.2,0.8,1.1,0.8h0.4
	c0.3,0,0.4,0.1,0.4,0.2c0,0.2-0.2,0.3-0.5,0.3c-0.9,0-2-0.1-2.9-0.1c-0.3,0-1.8,0.1-3.2,0.1c-0.4,0-0.5-0.1-0.5-0.3
	c0-0.2,0.1-0.2,0.3-0.2c0.3,0,0.6,0,0.8-0.1c1.2-0.2,1.8-1.1,2.3-2.4l6.8-17c0.3-0.8,0.5-1.1,0.8-1.1c0.2,0,0.4,0.2,0.7,0.9
	c0.6,1.5,5,12.5,6.7,16.7c1,2.4,1.8,2.8,2.4,3c0.4,0.1,0.8,0.1,1.1,0.1c0.2,0,0.4,0,0.4,0.2c0,0.2-0.2,0.3-1.2,0.3c-1,0-3,0-5.1-0.1
	c-0.5,0-0.8,0-0.8-0.2c0-0.2,0.1-0.2,0.4-0.2c0.2-0.1,0.4-0.3,0.2-0.6l-2.2-5.7c0-0.1-0.1-0.2-0.3-0.2H367.1z M372.6,361.9
	c0.1,0,0.2-0.1,0.1-0.2l-2.4-6.7c0-0.1,0-0.2-0.1-0.2c-0.1,0-0.1,0.1-0.2,0.2l-2.5,6.7c0,0.1,0,0.2,0.1,0.2H372.6z"/>
<path class="st2" d="M386.8,351.3l-4,0.1c-1.6,0.1-2.2,0.2-2.6,0.8c-0.3,0.4-0.4,0.7-0.5,0.9c-0.1,0.2-0.1,0.3-0.3,0.3
	c-0.2,0-0.2-0.1-0.2-0.4c0-0.4,0.5-2.9,0.6-3.1c0.1-0.4,0.2-0.5,0.3-0.5c0.2,0,0.5,0.3,1.2,0.3c0.8,0.1,1.8,0.1,2.7,0.1h10.7
	c0.9,0,1.5-0.1,1.9-0.1c0.4-0.1,0.6-0.1,0.7-0.1c0.2,0,0.2,0.2,0.2,0.6c0,0.6-0.1,2.4-0.1,3.1c0,0.3-0.1,0.4-0.2,0.4
	c-0.2,0-0.3-0.1-0.3-0.5l0-0.3c0-0.7-0.8-1.5-3.2-1.5l-3.4-0.1v11.1c0,2.5,0,4.6,0.1,5.8c0.1,0.8,0.2,1.4,1.1,1.5
	c0.4,0,1,0.1,1.4,0.1c0.3,0,0.4,0.1,0.4,0.2c0,0.2-0.2,0.3-0.5,0.3c-1.8,0-3.5-0.1-4.2-0.1c-0.6,0-2.3,0.1-3.4,0.1
	c-0.4,0-0.5-0.1-0.5-0.3c0-0.1,0.1-0.2,0.4-0.2c0.4,0,0.7-0.1,1-0.1c0.5-0.1,0.7-0.7,0.8-1.5c0.1-1.1,0.1-3.3,0.1-5.8V351.3z"/>
<path class="st2" d="M401.9,363.2c-0.1,0-0.2,0.1-0.2,0.2l-1.5,3.9c-0.3,0.7-0.4,1.3-0.4,1.7c0,0.5,0.2,0.8,1.1,0.8h0.4
	c0.3,0,0.4,0.1,0.4,0.2c0,0.2-0.2,0.3-0.5,0.3c-0.9,0-2-0.1-2.9-0.1c-0.3,0-1.8,0.1-3.2,0.1c-0.4,0-0.5-0.1-0.5-0.3
	c0-0.2,0.1-0.2,0.3-0.2c0.2,0,0.6,0,0.8-0.1c1.2-0.2,1.8-1.1,2.3-2.4l6.8-17c0.3-0.8,0.5-1.1,0.8-1.1c0.2,0,0.4,0.2,0.7,0.9
	c0.6,1.5,5,12.5,6.7,16.7c1,2.4,1.8,2.8,2.4,2.9c0.4,0.1,0.8,0.1,1.1,0.1c0.2,0,0.4,0,0.4,0.2c0,0.2-0.2,0.3-1.2,0.3
	c-1,0-3,0-5.1-0.1c-0.5,0-0.8,0-0.8-0.2c0-0.2,0.1-0.2,0.4-0.2c0.2-0.1,0.4-0.3,0.2-0.6l-2.2-5.7c-0.1-0.1-0.1-0.2-0.3-0.2H401.9z
	 M401.9,345l0.9-0.7c0.2-0.2,0.3-0.2,0.4-0.2c0.2,0,0.3,0.4,0.6,0.6c1,1.1,1.8,1.2,2.5,1.2c1.2,0,2.1-0.6,2.4-0.8c0.8-0.7,1-1,1.2-1
	c0.1,0,0.2,0.1,0.2,0.2c0,0.4-1.1,1.6-1.7,2c-0.9,0.6-1.6,0.9-2.9,0.9c-0.8,0-1.9-0.3-2.7-1c-0.4-0.3-1-0.9-1-1.1
	C401.7,345.1,401.9,345.1,401.9,345 M407.4,361.9c0.1,0,0.2-0.1,0.1-0.2l-2.4-6.7c0-0.1-0.1-0.2-0.1-0.2c-0.1,0-0.1,0.1-0.2,0.2
	l-2.5,6.7c0,0.1,0,0.2,0.1,0.2H407.4z"/>
<path class="st2" d="M427.9,357.7c0-4.1,0-4.9-0.1-5.7c0-0.9-0.3-1.4-1.2-1.5c-0.2-0.1-0.7-0.1-1.1-0.1c-0.3,0-0.5-0.1-0.5-0.2
	c0-0.2,0.2-0.2,0.6-0.2c1.4,0,3.1,0.1,3.9,0.1c0.8,0,2.5-0.1,4.2-0.1c3.4,0,7.9,0,10.9,3.1c1.3,1.4,2.6,3.7,2.6,6.9
	c0,3.4-1.4,6-3,7.6c-1.2,1.3-4.1,3.2-9.1,3.2c-1,0-2.1-0.1-3.1-0.2c-1-0.1-2-0.2-2.6-0.2c-0.3,0-0.9,0-1.5,0c-0.6,0-1.3,0.1-1.9,0.1
	c-0.4,0-0.5-0.1-0.5-0.3c0-0.1,0.1-0.2,0.4-0.2c0.4,0,0.7-0.1,1-0.1c0.5-0.1,0.7-0.7,0.8-1.5c0.1-1.1,0.1-3.3,0.1-5.8V357.7z
	 M431.3,360.7c0,2.9,0,5,0.1,5.5c0,0.7,0.1,1.8,0.3,2c0.4,0.5,1.4,1.1,3.6,1.1c2.8,0,4.6-0.5,6.2-2c1.7-1.5,2.3-3.9,2.3-6.7
	c0-3.4-1.4-5.7-2.6-6.8c-2.5-2.4-5.6-2.7-7.7-2.7c-0.5,0-1.5,0.1-1.8,0.2c-0.2,0.1-0.3,0.2-0.3,0.5c0,0.9,0,3.3,0,5.4V360.7z"/>
<path class="st2" d="M453,357.7c0-4.1,0-4.9,0-5.7c-0.1-0.9-0.3-1.4-1.2-1.5c-0.2-0.1-0.7-0.1-1.1-0.1c-0.3,0-0.5,0-0.5-0.2
	c0-0.2,0.2-0.2,0.6-0.2c0.7,0,1.5,0,2.2,0c0.7,0,1.3,0.1,1.7,0.1c0.9,0,6.3,0,6.8,0c0.5-0.1,0.9-0.1,1.2-0.2c0.1,0,0.3-0.1,0.4-0.1
	c0.1,0,0.2,0.1,0.2,0.2c0,0.2-0.1,0.5-0.2,1.8c0,0.3-0.1,1.5-0.1,1.8c0,0.1-0.1,0.3-0.3,0.3c-0.2,0-0.2-0.1-0.2-0.4
	c0-0.2,0-0.7-0.2-1c-0.2-0.5-0.5-0.8-1.8-1c-0.5,0-3.3-0.1-3.8-0.1c-0.1,0-0.2,0.1-0.2,0.3v6.9c0,0.2,0,0.3,0.2,0.3
	c0.6,0,3.7,0,4.3,0c0.7-0.1,1.1-0.1,1.3-0.4c0.2-0.2,0.3-0.4,0.4-0.4c0.1,0,0.2,0.1,0.2,0.2c0,0.2-0.1,0.6-0.2,2
	c0,0.5-0.1,1.6-0.1,1.8c0,0.2,0,0.5-0.2,0.5c-0.2,0-0.2-0.1-0.2-0.3c0-0.3,0-0.6-0.1-1c-0.1-0.5-0.5-0.9-1.5-1.1
	c-0.5-0.1-3.2-0.1-3.8-0.1c-0.1,0-0.2,0.1-0.2,0.3v2.1c0,0.9,0,3.4,0,4.2c0.1,1.9,0.5,2.3,3.2,2.3c0.7,0,1.8,0,2.5-0.3
	c0.7-0.3,1-0.9,1.2-2c0.1-0.3,0.1-0.4,0.3-0.4c0.2,0,0.2,0.2,0.2,0.5c0,0.6-0.2,2.5-0.4,3c-0.2,0.7-0.4,0.7-1.5,0.7
	c-2,0-3.5-0.1-4.7-0.1c-1.2-0.1-2-0.1-2.8-0.1c-0.3,0-0.9,0-1.5,0c-0.6,0-1.3,0.1-1.9,0.1c-0.4,0-0.5-0.1-0.5-0.3
	c0-0.1,0.1-0.2,0.4-0.2c0.4,0,0.7-0.1,1-0.1c0.5-0.1,0.7-0.7,0.8-1.5c0.1-1.1,0.1-3.3,0.1-5.8V357.7z"/>
<path class="st2" d="M476.7,370c-0.4-0.2-0.5-0.3-0.5-0.9c0-1.5,0.1-3.1,0.1-3.5c0-0.4,0.1-0.7,0.3-0.7c0.2,0,0.3,0.2,0.3,0.5
	c0,0.4,0.1,0.9,0.2,1.4c0.6,2,2.2,2.7,3.9,2.7c2.4,0,3.6-1.7,3.6-3.1c0-1.3-0.4-2.6-2.7-4.3l-1.2-1c-3-2.3-4-4.2-4-6.4
	c0-3,2.5-5.1,6.3-5.1c1.8,0,2.9,0.3,3.6,0.5c0.2,0.1,0.4,0.1,0.4,0.3c0,0.4-0.1,1.1-0.1,3.2c0,0.6-0.1,0.8-0.3,0.8
	c-0.2,0-0.3-0.2-0.3-0.5c0-0.2-0.1-1.1-0.7-1.8c-0.4-0.5-1.2-1.3-3-1.3c-2,0-3.2,1.2-3.2,2.8c0,1.2,0.6,2.2,2.9,3.9l0.8,0.6
	c3.3,2.4,4.4,4.3,4.4,6.9c0,1.6-0.6,3.4-2.5,4.7c-1.4,0.9-2.9,1.1-4.3,1.1C479.1,370.7,477.9,370.5,476.7,370"/>
<path class="st2" d="M495.1,363.2c-0.1,0-0.2,0.1-0.2,0.2l-1.5,3.9c-0.3,0.7-0.4,1.3-0.4,1.7c0,0.5,0.3,0.8,1.1,0.8h0.4
	c0.3,0,0.4,0.1,0.4,0.2c0,0.2-0.2,0.3-0.5,0.3c-0.9,0-2-0.1-2.9-0.1c-0.3,0-1.8,0.1-3.2,0.1c-0.4,0-0.5-0.1-0.5-0.3
	c0-0.2,0.1-0.2,0.3-0.2c0.2,0,0.6,0,0.8,0c1.2-0.2,1.8-1.1,2.3-2.4l6.8-17c0.3-0.8,0.5-1.1,0.8-1.1c0.2,0,0.4,0.3,0.7,0.9
	c0.7,1.5,5,12.5,6.7,16.7c1,2.4,1.8,2.8,2.4,3c0.4,0.1,0.8,0.1,1.1,0.1c0.2,0,0.4,0,0.4,0.2c0,0.2-0.2,0.3-1.2,0.3
	c-1,0-2.9,0-5.1-0.1c-0.5,0-0.8,0-0.8-0.2c0-0.2,0.1-0.2,0.4-0.2c0.2-0.1,0.4-0.3,0.2-0.6l-2.2-5.7c0-0.1-0.1-0.2-0.3-0.2
	L495.1,363.2z M495.1,345l0.9-0.7c0.2-0.2,0.3-0.2,0.4-0.2c0.2,0,0.3,0.3,0.6,0.6c0.9,1.1,1.8,1.2,2.5,1.2c1.2,0,2.1-0.6,2.4-0.8
	c0.8-0.7,1-1,1.2-1c0.1,0,0.2,0.1,0.2,0.2c0,0.4-1.1,1.6-1.7,2c-0.9,0.6-1.6,0.9-2.9,0.9c-0.8,0-1.9-0.3-2.7-1c-0.4-0.3-1-0.9-1-1.1
	C494.9,345.1,495,345.1,495.1,345 M500.6,361.9c0.1,0,0.2-0.1,0.1-0.2l-2.4-6.7c0-0.1-0.1-0.2-0.1-0.2c-0.1,0-0.1,0.1-0.2,0.2
	l-2.5,6.7c0,0.1,0,0.2,0.1,0.2H500.6z"/>
<path class="st2" d="M514.5,366.6c0.1,2.1,0.4,2.8,0.9,3c0.5,0.2,1,0.2,1.4,0.2c0.3,0,0.5,0.1,0.5,0.2c0,0.2-0.2,0.3-0.6,0.3
	c-1.8,0-2.8-0.1-3.4-0.1c-0.2,0-1.5,0.1-2.9,0.1c-0.3,0-0.6,0-0.6-0.3c0-0.2,0.2-0.2,0.4-0.2c0.4,0,0.8,0,1.2-0.1
	c0.7-0.2,0.8-1,0.8-3.4l0.2-16c0-0.5,0.1-0.9,0.4-0.9c0.3,0,0.5,0.4,1,0.8c0.3,0.3,4.4,4.8,8.4,8.7c1.8,1.8,5.5,5.7,6,6.2h0.1
	l-0.3-12.2c0-1.7-0.3-2.2-0.9-2.4c-0.4-0.2-1.1-0.2-1.4-0.2c-0.3,0-0.4-0.1-0.4-0.2c0-0.2,0.3-0.2,0.7-0.2c1.4,0,2.7,0.1,3.3,0.1
	c0.3,0,1.3-0.1,2.7-0.1c0.4,0,0.6,0,0.6,0.2c0,0.2-0.2,0.2-0.5,0.2c-0.3,0-0.5,0-0.8,0.1c-0.8,0.2-1,0.8-1,2.3l-0.3,17.1
	c0,0.6-0.1,0.8-0.3,0.8c-0.3,0-0.6-0.3-0.9-0.6c-1.7-1.6-5.2-5.2-8-8c-2.9-2.9-5.9-6.3-6.4-6.8h-0.1L514.5,366.6z"/>
<path class="st2" d="M539.7,363.3c-0.1,0-0.2,0.1-0.2,0.2l-1.5,3.9c-0.3,0.7-0.4,1.3-0.4,1.7c0,0.5,0.2,0.8,1.1,0.8h0.4
	c0.3,0,0.4,0.1,0.4,0.2c0,0.2-0.2,0.3-0.5,0.3c-0.9,0-2-0.1-2.9-0.1c-0.3,0-1.8,0.1-3.2,0.1c-0.3,0-0.5-0.1-0.5-0.3
	c0-0.2,0.1-0.2,0.3-0.2c0.2,0,0.6,0,0.8-0.1c1.2-0.2,1.8-1.1,2.3-2.4l6.8-17c0.3-0.8,0.5-1.1,0.8-1.1c0.2,0,0.4,0.2,0.7,0.9
	c0.6,1.5,5,12.5,6.7,16.7c1,2.4,1.8,2.8,2.4,3c0.4,0.1,0.8,0.1,1.1,0.1c0.2,0,0.4,0,0.4,0.2c0,0.2-0.2,0.3-1.2,0.3
	c-1,0-2.9,0-5.1-0.1c-0.5,0-0.8,0-0.8-0.2c0-0.2,0.1-0.2,0.4-0.2c0.2-0.1,0.4-0.3,0.2-0.6l-2.2-5.7c-0.1-0.1-0.1-0.2-0.3-0.2
	L539.7,363.3z M539.7,345l0.9-0.7c0.2-0.2,0.3-0.2,0.4-0.2c0.2,0,0.3,0.3,0.6,0.6c1,1.1,1.8,1.2,2.5,1.2c1.2,0,2.1-0.6,2.4-0.8
	c0.8-0.7,1-1,1.2-1c0.1,0,0.2,0.1,0.2,0.2c0,0.4-1.1,1.6-1.7,2c-0.9,0.6-1.6,0.9-2.9,0.9c-0.8,0-1.9-0.3-2.7-1c-0.4-0.3-1-0.9-1-1.1
	C539.5,345.1,539.6,345.1,539.7,345 M545.2,361.9c0.1,0,0.2-0.1,0.1-0.2l-2.4-6.7c0-0.1,0-0.2-0.1-0.2c-0.1,0-0.1,0.1-0.2,0.2
	l-2.5,6.7c0,0.1,0,0.2,0.1,0.2L545.2,361.9z"/>
<path class="st2" d="M559.4,351.4l-4,0.1c-1.6,0.1-2.2,0.2-2.6,0.8c-0.3,0.4-0.4,0.7-0.5,0.9s-0.1,0.3-0.3,0.3
	c-0.2,0-0.2-0.1-0.2-0.4c0-0.4,0.5-2.9,0.6-3.1c0.1-0.3,0.2-0.5,0.3-0.5c0.2,0,0.5,0.3,1.2,0.3c0.8,0.1,1.8,0.1,2.7,0.1l10.7,0
	c0.9,0,1.5-0.1,1.9-0.1c0.4-0.1,0.6-0.1,0.7-0.1c0.2,0,0.2,0.2,0.2,0.6c0,0.6-0.1,2.4-0.1,3.2c0,0.3-0.1,0.4-0.2,0.4
	c-0.2,0-0.3-0.1-0.3-0.5l0-0.3c0-0.7-0.8-1.5-3.2-1.5l-3.4-0.1l0,11.1c0,2.5,0,4.6,0.1,5.8c0.1,0.8,0.2,1.4,1.1,1.5
	c0.4,0.1,1,0.1,1.4,0.1c0.3,0,0.4,0.1,0.4,0.2c0,0.2-0.2,0.3-0.5,0.3c-1.8,0-3.5-0.1-4.3-0.1c-0.6,0-2.3,0.1-3.4,0.1
	c-0.4,0-0.5-0.1-0.5-0.3c0-0.1,0.1-0.2,0.4-0.2c0.4,0,0.7,0,1-0.1c0.6-0.1,0.7-0.7,0.8-1.5c0.1-1.1,0.1-3.3,0.1-5.8V351.4z"/>
<path class="st2" d="M574.5,363.3c-0.1,0-0.2,0.1-0.2,0.2l-1.5,3.9c-0.3,0.7-0.4,1.3-0.4,1.7c0,0.5,0.2,0.8,1.1,0.8h0.4
	c0.3,0,0.4,0.1,0.4,0.2c0,0.2-0.2,0.3-0.5,0.3c-0.9,0-2-0.1-2.9-0.1c-0.3,0-1.8,0.1-3.2,0.1c-0.3,0-0.5-0.1-0.5-0.3
	c0-0.2,0.1-0.2,0.3-0.2c0.2,0,0.6,0,0.8,0c1.2-0.2,1.8-1.1,2.3-2.4l6.8-17c0.3-0.8,0.5-1.1,0.8-1.1c0.2,0,0.4,0.2,0.7,0.9
	c0.6,1.5,5,12.5,6.7,16.6c1,2.4,1.8,2.8,2.4,3c0.4,0.1,0.8,0.1,1.1,0.1c0.2,0,0.3,0,0.3,0.2c0,0.2-0.2,0.3-1.2,0.3
	c-1,0-2.9,0-5.1-0.1c-0.5,0-0.8,0-0.8-0.2c0-0.2,0.1-0.2,0.4-0.2c0.2-0.1,0.4-0.3,0.2-0.6l-2.2-5.7c-0.1-0.1-0.1-0.2-0.3-0.2H574.5z
	 M580,361.9c0.1,0,0.2-0.1,0.1-0.2l-2.4-6.7c0-0.1,0-0.2-0.1-0.2c-0.1,0-0.1,0.1-0.2,0.2l-2.5,6.7c0,0.1,0,0.2,0.1,0.2H580z"/>
<path class="st2" d="M594.2,351.4l-4,0.1c-1.6,0-2.2,0.2-2.6,0.8c-0.3,0.4-0.4,0.7-0.5,1c-0.1,0.2-0.1,0.3-0.3,0.3
	c-0.2,0-0.2-0.1-0.2-0.4c0-0.4,0.5-2.9,0.6-3.1c0.1-0.4,0.2-0.5,0.3-0.5c0.2,0,0.5,0.3,1.2,0.3c0.8,0.1,1.8,0.1,2.7,0.1l10.7,0
	c0.9,0,1.5-0.1,1.9-0.1c0.4-0.1,0.6-0.1,0.7-0.1c0.2,0,0.2,0.2,0.2,0.6c0,0.6-0.1,2.4-0.1,3.1c0,0.3-0.1,0.4-0.2,0.4
	c-0.2,0-0.3-0.1-0.3-0.5l0-0.3c-0.1-0.7-0.8-1.5-3.2-1.5l-3.4-0.1l0,11.1c0,2.5,0,4.6,0.1,5.8c0.1,0.8,0.2,1.4,1.1,1.5
	c0.4,0.1,1,0.1,1.4,0.1c0.3,0,0.4,0.1,0.4,0.2c0,0.2-0.2,0.3-0.5,0.3c-1.8,0-3.5-0.1-4.3-0.1c-0.6,0-2.3,0.1-3.4,0.1
	c-0.3,0-0.5-0.1-0.5-0.3c0-0.1,0.1-0.2,0.4-0.2c0.4,0,0.7,0,1-0.1c0.5-0.1,0.7-0.7,0.8-1.5c0.1-1.1,0.1-3.3,0.1-5.8V351.4z"/>
<path class="st2" d="M609.8,357.7c0-4.1,0-4.9-0.1-5.7c0-0.9-0.3-1.4-1.2-1.5c-0.2-0.1-0.7-0.1-1.1-0.1c-0.3,0-0.5-0.1-0.5-0.2
	c0-0.2,0.2-0.3,0.6-0.3c0.7,0,1.5,0,2.2,0c0.7,0,1.3,0.1,1.7,0.1c0.9,0,6.3,0,6.8,0c0.5-0.1,0.9-0.1,1.2-0.2c0.1,0,0.3-0.1,0.4-0.1
	c0.1,0,0.2,0.1,0.2,0.2c0,0.2-0.1,0.5-0.2,1.8c0,0.3-0.1,1.5-0.1,1.8c0,0.1-0.1,0.3-0.3,0.3c-0.2,0-0.2-0.1-0.2-0.4
	c0-0.2,0-0.7-0.2-1c-0.2-0.5-0.5-0.8-1.8-1c-0.5-0.1-3.3-0.1-3.9-0.1c-0.1,0-0.2,0.1-0.2,0.3v6.9c0,0.2,0,0.3,0.2,0.3
	c0.6,0,3.7,0,4.3-0.1c0.7-0.1,1.1-0.1,1.3-0.4c0.2-0.2,0.3-0.4,0.4-0.4c0.1,0,0.2,0.1,0.2,0.2c0,0.2-0.1,0.6-0.2,2
	c0,0.6-0.1,1.6-0.1,1.8c0,0.2,0,0.5-0.2,0.5c-0.2,0-0.2-0.1-0.2-0.2c0-0.3,0-0.6-0.1-1c-0.1-0.5-0.5-0.9-1.5-1.1
	c-0.5-0.1-3.2-0.1-3.8-0.1c-0.1,0-0.2,0.1-0.2,0.3v2.1c0,0.9,0,3.4,0,4.2c0.1,1.9,0.5,2.3,3.2,2.3c0.7,0,1.8,0,2.5-0.3
	c0.7-0.3,1-0.9,1.2-2c0.1-0.3,0.1-0.4,0.3-0.4c0.2,0,0.2,0.2,0.2,0.5c0,0.6-0.2,2.5-0.3,3c-0.2,0.7-0.4,0.7-1.5,0.7
	c-2,0-3.5-0.1-4.7-0.1c-1.2-0.1-2-0.1-2.8-0.1c-0.3,0-0.9,0-1.6,0c-0.6,0-1.3,0.1-1.9,0.1c-0.4,0-0.5-0.1-0.5-0.3
	c0-0.1,0.1-0.2,0.4-0.2c0.4,0,0.7-0.1,1-0.1c0.5-0.1,0.7-0.7,0.8-1.5c0.1-1.1,0.1-3.3,0.1-5.8V357.7z"/>
</svg>
