<svg xmlns="http://www.w3.org/2000/svg" width="190.06" height="29.194" viewBox="0 0 190.06 29.194">
  <g id="Logo" transform="translate(-48.052 -87)">
    <g id="Logotype" transform="translate(35.057 178)">
      <g id="Group_62" data-name="Group 62" transform="translate(-289.832 -758.971)">
        <g id="Group_61" data-name="Group 61">
          <path id="Path_42" data-name="Path 42" d="M475.225,676.059c-.907,0-1.176-.406-1.176-1.154,0-.792.3-1.162,1.176-1.162.894,0,1.192.349,1.192,1.162C476.417,675.74,476.061,676.059,475.225,676.059Z" fill="#00c1de"/>
          <path id="Path_43" data-name="Path 43" d="M484.563,674.868a3.224,3.224,0,0,1-2.949,1.315c-2.462,0-3.733-1.351-3.733-3.988a4.487,4.487,0,0,1,.915-3,3.4,3.4,0,0,1,2.746-1.075,3.192,3.192,0,0,1,2.912,1.308l-1.4.995a1.622,1.622,0,0,0-1.474-.669c-1.278,0-1.772.762-1.772,2.412s.5,2.375,1.845,2.375a1.659,1.659,0,0,0,1.488-.669Z" fill="#002025"/>
          <path id="Path_44" data-name="Path 44" d="M492.008,675.123a3.407,3.407,0,0,1-2.767,1.06q-3.66,0-3.661-4.016a4.555,4.555,0,0,1,.879-2.993,4.182,4.182,0,0,1,5.549,0,4.55,4.55,0,0,1,.879,2.993A4.471,4.471,0,0,1,492.008,675.123Zm-2.767-5.368c-1.221,0-1.728.777-1.728,2.412s.5,2.375,1.728,2.375,1.707-.727,1.707-2.375C490.948,670.489,490.469,669.755,489.241,669.755Z" fill="#002025"/>
        </g>
      </g>
      <g id="Group_63" data-name="Group 63" transform="translate(-289.832 -758.971)">
        <path id="Path_45" data-name="Path 45" d="M371.923,685.284V672.565l-4.363,8.246h-1.715l-4.337-8.246v12.719h-2.733V668.326h3.517l4.46,8.65,4.5-8.65h3.431v16.958Z" fill="#00c1de"/>
        <path id="Path_46" data-name="Path 46" d="M378.74,685.284V668.326h10.685v2.549H381.6v4.3h6.653v2.56H381.6v4.939h7.83v2.609Z" fill="#00c1de"/>
        <path id="Path_47" data-name="Path 47" d="M397.433,685.284H392.69V668.326h4.694c5.439,0,8.123,2.107,8.123,8.48C405.507,683.483,402.725,685.284,397.433,685.284Zm-.283-14.348h-1.6v11.739h1.6c4.117,0,5.367-1.385,5.367-5.895C402.517,672.21,401.206,670.936,397.15,670.936Z" fill="#00c1de"/>
        <path id="Path_48" data-name="Path 48" d="M415.572,685.284h-7.559v-2.3h2.339V670.63h-2.339v-2.3h7.559v2.3h-2.364v12.35h2.364Z" fill="#00c1de"/>
        <path id="Path_49" data-name="Path 49" d="M425.824,680.665c0,3.443-1.556,5-5.2,5a11.613,11.613,0,0,1-3.382-.625l.956-2.512a7.21,7.21,0,0,0,2.45.6c1.863,0,2.317-.8,2.317-3.4V668.326h2.854Z" fill="#002025"/>
        <path id="Path_50" data-name="Path 50" d="M436.235,685.64c-5.023,0-7.106-3.3-7.106-8.834s2.083-8.835,7.106-8.835c5.048,0,7.107,3.247,7.107,8.835C443.342,682.344,441.283,685.64,436.235,685.64Zm0-15.133c-3.039,0-4.141,2.083-4.141,6.3s1.127,6.3,4.141,6.3,4.117-2.046,4.117-6.3C440.352,672.59,439.237,670.507,436.235,670.507Z" fill="#002025"/>
        <path id="Path_51" data-name="Path 51" d="M452.561,685.284h-5.942V668.326h5.489c4.374,0,5.98,1.226,5.98,3.909a3.551,3.551,0,0,1-2.892,3.86c2.316.294,3.9,1.5,3.9,4.252C459.093,683.777,456.679,685.284,452.561,685.284Zm-.673-14.458h-2.414v4.35h2.316c2.536,0,3.381-.785,3.381-2.317S454.326,670.826,451.888,670.826Zm.2,6.849h-2.61v5.049h2.034c2.965,0,4.619-.246,4.619-2.586C456.127,678.141,454.9,677.675,452.084,677.675Z" fill="#002025"/>
        <path id="Path_52" data-name="Path 52" d="M467.763,685.64c-3.652,0-5.4-1.458-6.47-3.248l2.254-1.629a4.55,4.55,0,0,0,4.24,2.34c1.739,0,3.418-.6,3.418-2.389,0-1.7-1.556-2.169-3.442-2.659-3.456-.882-6.115-1.6-6.115-5.073,0-3.075,2.108-5.011,6.04-5.011,2.941,0,4.84,1.1,6.029,3.039l-2.218,1.654a4.164,4.164,0,0,0-3.835-2.157c-1.911,0-3.112.821-3.112,2.255s1.2,1.838,3.81,2.463c3.015.735,5.772,1.568,5.772,5.292C474.134,684.328,471.229,685.64,467.763,685.64Z" fill="#002025"/>
      </g>
    </g>
    <g id="Logomark" transform="translate(-1350.95 -726.029)">
      <path id="M" d="M1402.556,832.94l-2.41-.667.333-1.2c.013-.046.827-3,1.634-6.583a15.065,15.065,0,0,1-2.977-6.019c-.561-2.809.776-4.076,1.377-4.492a3.216,3.216,0,0,1,3.534-.044c1.411.883,2.061,2.661,1.74,4.755-.257,1.674-.6,3.462-.971,5.16a29.063,29.063,0,0,0,3.1,3.095l.947.815-1.63,1.9-.948-.815c-.621-.534-1.366-1.216-2.14-2.014-.649,2.725-1.208,4.757-1.251,4.913Zm-.259-17.018a.637.637,0,0,0-.364.111c-.312.215-.567.839-.346,1.944a10.322,10.322,0,0,0,1.242,3.108c.183-.943.35-1.88.487-2.777.165-1.078-.057-1.921-.6-2.258A.81.81,0,0,0,1402.3,815.922Z" fill="#00c1de"/>
      <path id="J" d="M1409.271,842.223a4.058,4.058,0,0,1-2.157-.626c-1.713-1.066-2.6-3.226-2.377-5.78l.11-1.245,2.49.219-.11,1.245c-.14,1.6.312,2.881,1.207,3.438a1.58,1.58,0,0,0,1.72-.013c.532-.323,2.238-1.759,1.86-6.657a41.288,41.288,0,0,0-.927-5.553c-.468.561-.922,1.089-1.346,1.581l-1.454,1.7-1.9-1.62,1.464-1.714c.782-.907,1.676-1.945,2.547-3.089a39.988,39.988,0,0,1-.935-6.387c-.1-2.05.7-3.684,2.127-4.373a3.3,3.3,0,0,1,3.606.513c1.265,1.111,1.614,3,.933,5.064a21.9,21.9,0,0,1-3.047,5.759c.062.28.123.558.186.835a52.088,52.088,0,0,1,1.241,7.089c.335,4.329-.778,7.605-3.054,8.988A4.19,4.19,0,0,1,1409.271,842.223Zm3.727-26.7a.75.75,0,0,0-.326.075c-.495.239-.763.987-.714,2a29.608,29.608,0,0,0,.413,3.57,16.533,16.533,0,0,0,1.382-3.03c.355-1.077.277-1.974-.209-2.4A.83.83,0,0,0,1413,815.528Z" fill="#00c1de"/>
    </g>
  </g>
</svg>
