<?xml version="1.0" standalone="no"?>
<!DOCTYPE svg PUBLIC "-//W3C//DTD SVG 1.1//EN" "http://www.w3.org/Graphics/SVG/1.1/DTD/svg11.dtd" >
<svg>
<metadata>
Created by FontForge 20090622 at Wed Oct  9 11:58:55 2019
 By deploy user
Font software Copyright &#194;&#169; 2012 Intel Corporation. Licensed under the Apache License, Version 2.0.  http://www.apache.org/licenses/LICENSE-2.0
</metadata>
<defs>
<font id="ClearSans-Italic" horiz-adv-x="1063" >
  <font-face 
    font-family="Clear Sans"
    font-weight="400"
    font-style="italic"
    font-stretch="normal"
    units-per-em="2048"
    panose-1="2 11 5 3 3 2 2 9 3 4"
    ascent="1489"
    descent="-559"
    x-height="1049"
    cap-height="1384"
    bbox="-461 -629 2607 2114"
    underline-thickness="102"
    underline-position="-103"
    slope="-12"
    unicode-range="U+000D-U+FEFF"
  />
<missing-glyph horiz-adv-x="1024" 
d="M57 0v1362h973v-1362h-973zM213 1266l332 -498l329 498h-661zM156 1178v-992l164 247l165 249zM934 1178l-332 -496l332 -498v994zM874 98l-329 496l-332 -496h661z" />
    <glyph glyph-name="f_f" unicode="ff" horiz-adv-x="1241" 
d="M905 1473l-61 -144q-62 41 -139 41q-87 0 -135 -45t-72 -154l-27 -122h229l-28 -144h-230l-192 -905h-168l192 905h-149l29 144h149l23 102q43 200 128 284.5t263 84.5q99 0 188 -47zM1526 1473l-61 -144q-62 41 -139 41q-87 0 -135 -45t-72 -154l-27 -122h229l-28 -144
h-230l-192 -905h-168l192 905h-149l29 144h149l23 102q43 200 128 284.5t263 84.5q99 0 188 -47z" />
    <glyph glyph-name="fi" unicode="fi" horiz-adv-x="1120" 
d="M905 1473l-61 -144q-62 41 -139 41q-87 0 -135 -45t-72 -154l-27 -122h229l-28 -144h-230l-192 -905h-168l192 905h-149l29 144h149l23 102q43 200 128 284.5t263 84.5q99 0 188 -47zM843 0h-170l221 1049h170zM915 1278q0 71 32 105t101 34q92 0 92 -67
q0 -138 -129 -138q-55 0 -75.5 17t-20.5 49z" />
    <glyph glyph-name="fl" unicode="fl" horiz-adv-x="1137" 
d="M905 1473l-61 -144q-62 41 -139 41q-87 0 -135 -45t-72 -154l-27 -122h229l-28 -144h-230l-192 -905h-168l192 905h-149l29 144h149l23 102q43 200 128 284.5t263 84.5q99 0 188 -47zM851 0h-170l316 1489h170z" />
    <glyph glyph-name="f_f_i" unicode="ffi" horiz-adv-x="1741" 
d="M905 1473l-61 -144q-62 41 -139 41q-87 0 -135 -45t-72 -154l-27 -122h229l-28 -144h-230l-192 -905h-168l192 905h-149l29 144h149l23 102q43 200 128 284.5t263 84.5q99 0 188 -47zM1523 1473l-61 -144q-62 41 -139 41q-87 0 -135 -45t-72 -154l-27 -122h229l-28 -144
h-230l-192 -905h-168l192 905h-149l29 144h149l23 102q43 200 128 284.5t263 84.5q99 0 188 -47zM1464 0h-170l221 1049h170zM1536 1278q0 71 32 105t101 34q92 0 92 -67q0 -138 -129 -138q-55 0 -75.5 17t-20.5 49z" />
    <glyph glyph-name="f_f_l" unicode="ffl" horiz-adv-x="1757" 
d="M905 1473l-61 -144q-62 41 -139 41q-87 0 -135 -45t-72 -154l-27 -122h229l-28 -144h-230l-192 -905h-168l192 905h-149l29 144h149l23 102q43 200 128 284.5t263 84.5q99 0 188 -47zM1523 1473l-61 -144q-62 41 -139 41q-87 0 -135 -45t-72 -154l-27 -122h229l-28 -144
h-230l-192 -905h-168l192 905h-149l29 144h149l23 102q43 200 128 284.5t263 84.5q99 0 188 -47zM1472 0h-170l316 1489h170z" />
    <glyph glyph-name=".notdef" horiz-adv-x="1024" 
d="M57 0v1362h973v-1362h-973zM213 1266l332 -498l329 498h-661zM156 1178v-992l164 247l165 249zM934 1178l-332 -496l332 -498v994zM874 98l-329 496l-332 -496h661z" />
    <glyph glyph-name=".null" horiz-adv-x="0" 
 />
    <glyph glyph-name="nonmarkingreturn" unicode="&#xd;" horiz-adv-x="543" 
 />
    <glyph glyph-name="NULL" horiz-adv-x="0" 
 />
    <glyph glyph-name="NULL" horiz-adv-x="0" 
 />
    <glyph glyph-name="space" unicode=" " horiz-adv-x="543" 
 />
    <glyph glyph-name="exclam" unicode="!" horiz-adv-x="545" 
d="M551 1384l-232 -985h-143l180 985h195zM305 137q0 -52 -22 -90q-34 -61 -127 -61q-54 0 -77.5 18t-23.5 53q0 34 19 82q15 38 45.5 55t83.5 17q54 0 78 -18t24 -56z" />
    <glyph glyph-name="quotedbl" unicode="&#x22;" horiz-adv-x="905" 
d="M915 1384l-157 -550h-125l78 550h204zM555 1384l-156 -550h-125l76 550h205z" />
    <glyph glyph-name="numbersign" unicode="#" horiz-adv-x="1346" 
d="M1272 868h-252l-86 -352h258l-29 -123h-262l-98 -393h-119l94 393h-286l-97 -393h-121l97 393h-252l31 123h251l91 352h-265l31 125h264l96 391h121l-98 -391h289l98 391h121l-98 -391h252zM901 868h-289l-90 -352h289z" />
    <glyph glyph-name="dollar" unicode="$" horiz-adv-x="1239" 
d="M864 1411l-22 -111q110 -17 190.5 -77.5t116.5 -149.5l-141 -86q-64 142 -197 166l-84 -379q154 -55 225.5 -130.5t71.5 -188.5q0 -165 -114.5 -263.5t-329.5 -115.5l-41 -207h-125l45 209q-257 22 -328 231l150 84q15 -62 66.5 -108.5t139.5 -57.5l91 422
q-152 53 -217.5 125.5t-65.5 177.5q0 68 22 126.5t69 108.5t131.5 81t199.5 37l20 106h127zM854 430q0 68 -34.5 109.5t-125.5 72.5l-82 -387q126 9 184 61t58 144zM465 975q0 -64 28 -97.5t119 -68.5l74 348q-118 -9 -169.5 -58.5t-51.5 -123.5z" />
    <glyph glyph-name="percent" unicode="%" horiz-adv-x="2048" 
d="M588 -55h-162l1079 1489h162zM475 520q-150 0 -223.5 75t-73.5 202q0 174 70 340q55 133 150 199.5t239 66.5q148 0 224.5 -74t76.5 -209q0 -97 -33.5 -221.5t-83.5 -204.5q-112 -174 -346 -174zM492 653q75 0 122.5 35.5t79.5 106.5q30 66 50 155t20 170q0 74 -32 112
t-109 38q-76 0 -126 -42t-83 -126q-28 -68 -45 -151.5t-17 -151.5q0 -74 32.5 -110t107.5 -36zM1462 -31q-150 0 -223.5 75t-73.5 202q0 174 70 340q111 266 389 266q149 0 225 -73.5t76 -209.5q0 -97 -33.5 -221.5t-83.5 -204.5q-112 -174 -346 -174zM1479 102
q75 0 122.5 35.5t79.5 106.5q30 66 50 155t20 170q0 75 -32.5 112.5t-108.5 37.5t-126 -42t-83 -126q-28 -68 -45 -151.5t-17 -151.5q0 -74 32.5 -110t107.5 -36z" />
    <glyph glyph-name="ampersand" unicode="&#x26;" horiz-adv-x="1298" 
d="M86 303q0 66 19 123.5t50 102.5t83.5 90.5t107 81.5t133.5 81q-52 95 -70 158t-18 147q0 60 24.5 117t69.5 103.5t116 75t157 28.5q307 0 307 -256q0 -107 -79 -200.5t-281 -217.5l202 -364q78 93 176 282l146 -67q-104 -223 -238 -367l127 -221h-196l-62 104
q-177 -133 -401 -133q-186 0 -279.5 85.5t-93.5 246.5zM463 129q178 0 317 115l-227 407q-174 -105 -231.5 -173t-57.5 -159q0 -88 52 -139t147 -51zM559 1083q0 -75 43 -157l29 -56q151 88 207.5 149t56.5 128q0 63 -35 93t-112 30q-90 0 -139.5 -55.5t-49.5 -131.5z" />
    <glyph glyph-name="quotesingle" unicode="'" horiz-adv-x="547" 
d="M555 1384l-156 -550h-125l76 550h205z" />
    <glyph glyph-name="parenleft" unicode="(" horiz-adv-x="780" 
d="M498 -395h-183q-100 158 -147 318t-47 370q0 328 162 656t438 571h190q-289 -241 -457.5 -574t-168.5 -651q0 -407 213 -690z" />
    <glyph glyph-name="parenright" unicode=")" horiz-adv-x="780" 
d="M299 1520h182q100 -158 147.5 -319.5t47.5 -369.5q0 -327 -162.5 -655.5t-437.5 -570.5h-191q289 242 458 574.5t169 649.5q0 400 -213 691z" />
    <glyph glyph-name="asterisk" unicode="*" horiz-adv-x="930" 
d="M926 995l-72 -90l-231 158l-56 -268h-110l61 274l-270 -156l-49 105l295 145l-242 154l74 92l229 -158l55 269h111l-62 -269l267 144l53 -99l-301 -145z" />
    <glyph glyph-name="plus" unicode="+" horiz-adv-x="1427" 
d="M1284 514h-479v-477h-143v477h-478v143h478v480h143v-480h479v-143z" />
    <glyph glyph-name="comma" unicode="," horiz-adv-x="545" 
d="M106 -293h-102q52 52 90 135.5t51 143.5q-46 0 -67 17t-21 54q0 36 17 78q16 38 44 57t77 19q57 0 82.5 -21t25.5 -65q0 -81 -67 -225q-62 -132 -130 -193z" />
    <glyph glyph-name="hyphen" unicode="-" horiz-adv-x="811" 
d="M692 440h-610l37 172h610z" />
    <glyph glyph-name="period" unicode="." horiz-adv-x="545" 
d="M305 139q0 -52 -22 -92q-34 -61 -127 -61q-54 0 -77.5 18t-23.5 53q0 42 21 86q29 68 127 68q54 0 78 -17.5t24 -54.5z" />
    <glyph glyph-name="slash" unicode="/" horiz-adv-x="971" 
d="M1083 1520l-1081 -1819h-166l1077 1819h170z" />
    <glyph glyph-name="zero" unicode="0" horiz-adv-x="1239" 
d="M1190 975q0 -129 -37 -300.5t-94 -309.5q-89 -217 -223.5 -306.5t-335.5 -89.5q-195 0 -288 110t-93 327q0 116 30.5 268.5t79.5 283.5q86 233 220.5 341t357.5 108q185 0 284 -108t99 -324zM889 440q42 101 74 255t32 274q0 149 -53 213.5t-172 64.5q-128 0 -212.5 -79
t-145.5 -248q-41 -109 -70 -256.5t-29 -255.5q0 -146 47.5 -212.5t147.5 -66.5q136 0 223.5 72t157.5 239z" />
    <glyph glyph-name="one" unicode="1" horiz-adv-x="1239" 
d="M670 0h-176l208 989h-329l28 129q134 8 211 34.5t125.5 78.5t96.5 153h129z" />
    <glyph glyph-name="two" unicode="2" horiz-adv-x="1163" 
d="M936 0h-909l41 195q511 377 684 550q88 95 130 168t42 160q0 176 -205 176q-176 0 -318 -170l-127 111q93 111 204.5 167t269.5 56q183 0 277.5 -85t94.5 -255q0 -108 -63.5 -220t-175.5 -216q-100 -95 -205.5 -175.5l-399.5 -293.5h695z" />
    <glyph glyph-name="three" unicode="3" horiz-adv-x="1163" 
d="M430 655l33 160h84q160 0 260 76.5t100 187.5q0 172 -205 172q-97 0 -172.5 -38t-142.5 -115l-131 98q169 217 461 217q189 0 285 -85.5t96 -231.5q0 -128 -85 -221t-259 -136q104 -15 172.5 -94t68.5 -203q0 -87 -36.5 -169t-105 -150.5t-181.5 -110t-252 -41.5
q-148 0 -247.5 52.5t-145.5 150.5l161 98q25 -60 91 -99.5t155 -39.5q97 0 170.5 29t113.5 77t59.5 101.5t19.5 110.5q0 108 -67.5 156t-199.5 48h-100z" />
    <glyph glyph-name="four" unicode="4" horiz-adv-x="1239" 
d="M1077 307h-186l-64 -307h-176l64 307h-699l39 178l897 899h168l-194 -917h186zM750 467l137 643l-645 -643h508z" />
    <glyph glyph-name="five" unicode="5" horiz-adv-x="1163" 
d="M1020 526q0 -114 -44 -219.5t-124 -185.5q-149 -150 -434 -150q-150 0 -249.5 57.5t-131.5 145.5l153 98q24 -58 93 -98.5t163 -40.5q84 0 161 30t122 81q43 48 69.5 120.5t26.5 137.5q0 107 -55 159t-178 52q-156 0 -289 -72h-88l231 743h711l-35 -167h-561l-127 -396
q104 47 240 47q160 0 253 -81t93 -261z" />
    <glyph glyph-name="six" unicode="6" horiz-adv-x="1163" 
d="M510 -29q-199 0 -293 103t-94 315q0 220 94 490q87 260 234.5 397t369.5 137q131 0 212 -34.5t138 -104.5l-129 -131q-47 58 -98.5 84t-126.5 26q-83 0 -153 -36.5t-123 -103t-92 -148.5t-68 -185q141 107 319 107q363 0 363 -334q0 -82 -18.5 -161.5t-61.5 -156.5
t-105.5 -135t-157.5 -93.5t-210 -35.5zM526 131q68 0 126 23t98 62.5t68 91.5t41 109.5t13 117.5q0 95 -53.5 142.5t-146.5 47.5q-162 0 -324 -88q-33 -163 -33 -252q0 -142 51 -198t160 -56z" />
    <glyph glyph-name="seven" unicode="7" horiz-adv-x="1239" 
d="M1229 1212l-754 -1212h-221l780 1217h-749l34 167h947z" />
    <glyph glyph-name="eight" unicode="8" horiz-adv-x="1163" 
d="M801 733q117 -60 174 -134.5t57 -182.5q0 -192 -153.5 -318.5t-399.5 -126.5q-211 0 -314.5 78t-103.5 242q0 144 105.5 261.5t286.5 186.5q-105 56 -155 122t-50 161q0 174 132.5 282.5t373.5 108.5q397 0 397 -305q0 -227 -350 -375zM645 811q50 19 83.5 33t83.5 41.5
t80 54t52.5 65.5t22.5 82q0 95 -57.5 137t-182.5 42q-137 0 -216 -64.5t-79 -154.5q0 -70 45.5 -121.5t167.5 -114.5zM612 659q-178 -65 -272 -149.5t-94 -210.5q0 -85 62 -131.5t190 -46.5q49 0 98 11t94.5 34t80.5 56t56 80.5t21 103.5q0 82 -60.5 138.5t-175.5 114.5z
" />
    <glyph glyph-name="nine" unicode="9" horiz-adv-x="1163" 
d="M733 1413q198 0 292.5 -103t94.5 -315q0 -203 -94 -489q-179 -535 -604 -535q-130 0 -211.5 35t-138.5 105l129 131q47 -58 99 -84.5t126 -26.5q295 0 436 473q-140 -106 -319 -106q-186 0 -274.5 84t-88.5 249q0 82 18.5 162t61.5 156.5t105.5 134.5t157.5 93.5
t210 35.5zM717 1253q-68 0 -126 -23t-98 -62.5t-68 -91t-41 -109t-13 -117.5q0 -95 54 -143t146 -48q163 0 324 89q33 163 33 251q0 142 -51 198t-160 56z" />
    <glyph glyph-name="colon" unicode=":" horiz-adv-x="545" 
d="M305 139q0 -52 -22 -92q-34 -61 -127 -61q-54 0 -77.5 18t-23.5 53q0 42 21 86q29 68 127 68q54 0 78 -17.5t24 -54.5zM483 977q0 -53 -22 -92q-34 -62 -127 -62q-101 0 -101 72q0 39 21 86q29 68 127 68q54 0 78 -17.5t24 -54.5z" />
    <glyph glyph-name="semicolon" unicode=";" horiz-adv-x="545" 
d="M483 977q0 -53 -22 -92q-34 -62 -127 -62q-101 0 -101 72q0 39 21 86q29 68 127 68q54 0 78 -17.5t24 -54.5zM106 -293h-102q52 52 90 135.5t51 143.5q-46 0 -67 17t-21 54q0 36 17 78q16 38 44 57t77 19q57 0 82.5 -21t25.5 -65q0 -81 -67 -225q-62 -132 -130 -193z" />
    <glyph glyph-name="less" unicode="&#x3c;" horiz-adv-x="1427" 
d="M1284 61l-1100 463v125l1100 463v-156l-901 -370l901 -369v-156z" />
    <glyph glyph-name="equal" unicode="=" horiz-adv-x="1427" 
d="M1292 745h-1099v144h1099v-144zM1292 283h-1099v143h1099v-143z" />
    <glyph glyph-name="greater" unicode="&#x3e;" horiz-adv-x="1427" 
d="M1294 524l-1099 -463v156l899 369l-899 370v156l1099 -463v-125z" />
    <glyph glyph-name="question" unicode="?" horiz-adv-x="1028" 
d="M487 369h-170l62 284l139 70.5t113 64t94.5 67t64.5 69t43.5 80.5t12.5 92q0 75 -54 114t-159 39q-183 0 -291 -141l-131 104q147 201 432 201q189 0 294 -77.5t105 -227.5q0 -87 -33.5 -161.5t-102.5 -140t-158.5 -122t-217.5 -117.5zM471 137q0 -52 -22 -90
q-34 -61 -127 -61q-54 0 -77.5 18t-23.5 53q0 34 19 82q15 38 45.5 55t83.5 17q54 0 78 -18t24 -56z" />
    <glyph glyph-name="at" unicode="@" horiz-adv-x="1896" 
d="M1808 745q0 -189 -64.5 -355t-184.5 -270t-269 -104q-201 0 -207 170q-92 -72 -164.5 -107.5t-152.5 -35.5q-281 0 -281 344q0 62 24 163.5t66 184.5q74 142 178.5 214.5t268.5 72.5q117 0 217 -82l10 53h168l-153 -723q-7 -35 -7 -51q0 -33 18 -47t58 -14
q58 0 116.5 47.5t104 126.5t74.5 189.5t29 228.5q0 258 -140 390t-442 132q-153 0 -287 -50.5t-232 -138t-168.5 -204t-106 -250t-35.5 -273.5q0 -246 149.5 -385t411.5 -139q246 0 430 45v-143q-189 -43 -463 -43q-318 0 -499 172t-181 495q0 154 41 305t125 286
t200.5 238.5t278 164.5t346.5 61q348 0 535.5 -167.5t187.5 -500.5zM1106 338l98 453q-92 79 -203 79q-91 0 -155.5 -45t-114.5 -149q-34 -70 -53 -148t-19 -133q0 -98 29.5 -145t102.5 -47q89 0 162.5 35t152.5 100z" />
    <glyph glyph-name="A" unicode="A" horiz-adv-x="1262" 
d="M145 0h-192l747 1384h236l176 -1384h-188l-43 360h-539zM782 1202l-356 -674h434z" />
    <glyph glyph-name="B" unicode="B" horiz-adv-x="1247" 
d="M889 756q109 -19 176.5 -93t67.5 -198q0 -76 -19.5 -143t-63.5 -127t-110 -102.5t-164.5 -67.5t-220.5 -25h-487l292 1384h396q122 0 205.5 -19t130 -56.5t66.5 -86.5t20 -116q0 -127 -73 -216t-216 -134zM420 809h201q175 0 265.5 66t90.5 196q0 87 -57.5 118.5
t-176.5 31.5h-237zM283 168h256q196 0 294.5 70.5t98.5 226.5q0 45 -14 77.5t-38.5 52t-66 31t-87 15.5t-110.5 4h-231z" />
    <glyph glyph-name="C" unicode="C" horiz-adv-x="1280" 
d="M1014 350l127 -114q-49 -61 -98 -105t-115 -82.5t-150.5 -58t-187.5 -19.5q-238 0 -355.5 126.5t-117.5 365.5q0 130 32.5 278t94.5 277q84 178 237 286.5t367 108.5q185 0 294.5 -67.5t168.5 -198.5l-162 -94q-43 101 -120 148.5t-206 47.5q-135 0 -239.5 -81.5
t-165.5 -215.5q-51 -109 -80 -239.5t-29 -251.5q0 -156 73 -241t206 -85q141 0 240.5 54t185.5 161z" />
    <glyph glyph-name="D" unicode="D" horiz-adv-x="1266" 
d="M1219 926q0 -79 -14.5 -175.5t-43 -203t-81 -207t-119.5 -166.5q-181 -174 -541 -174h-365l293 1384h342q135 0 230.5 -23t164 -75.5t101.5 -141.5t33 -218zM272 168h150q139 0 236.5 30t164.5 97q87 87 144 275t57 354q0 113 -33.5 174.5t-115 90t-230.5 28.5h-149z" />
    <glyph glyph-name="E" unicode="E" horiz-adv-x="1130" 
d="M897 0h-829l292 1384h830l-35 -167h-649l-86 -404h555l-35 -168h-555l-102 -477h649z" />
    <glyph glyph-name="F" unicode="F" horiz-adv-x="1085" 
d="M1147 1217h-641l-86 -404h545l-35 -168h-545l-137 -645h-180l292 1384h822z" />
    <glyph glyph-name="G" unicode="G" horiz-adv-x="1362" 
d="M1325 1137l-172 -86q-41 106 -114 152t-189 46q-82 0 -154 -30t-125.5 -84t-93.5 -117.5t-69 -140.5q-42 -108 -63 -222.5t-21 -195.5q0 -166 75 -245t246 -79q72 0 140.5 19.5t166.5 60.5l68 320h-330l35 167h510l-125 -596q-136 -68 -248.5 -101.5t-234.5 -33.5
q-251 0 -374.5 118.5t-123.5 375.5q0 232 96 467q42 101 99.5 184t135 151.5t180 107t220.5 38.5q179 0 292 -66.5t173 -209.5z" />
    <glyph glyph-name="H" unicode="H" horiz-adv-x="1337" 
d="M1047 0h-181l133 633h-618l-133 -633h-180l292 1384h181l-123 -583h618l123 583h180z" />
    <glyph glyph-name="I" unicode="I" horiz-adv-x="754" 
d="M575 160l-32 -160h-553l33 160h186l227 1067h-186l33 157h553l-33 -157h-187l-227 -1067h186z" />
    <glyph glyph-name="J" unicode="J" horiz-adv-x="866" 
d="M868 1384l-213 -1007q-48 -224 -149.5 -316t-298.5 -92q-131 0 -240 51l72 156q72 -43 180 -43q122 0 177.5 70t95.5 250l196 931h180z" />
    <glyph glyph-name="K" unicode="K" horiz-adv-x="1239" 
d="M1075 0h-219l-338 625l-172 -158l-98 -467h-180l292 1384h181l-138 -653l695 653h235l-680 -641z" />
    <glyph glyph-name="L" unicode="L" horiz-adv-x="1018" 
d="M862 0h-794l292 1384h181l-258 -1216h614z" />
    <glyph glyph-name="M" unicode="M" horiz-adv-x="1561" 
d="M1272 0h-172l243 1147l-538 -770h-113l-207 770l-243 -1147h-174l292 1384h238l199 -753l524 753h244z" />
    <glyph glyph-name="N" unicode="N" horiz-adv-x="1358" 
d="M1069 0h-199l-376 1188l-252 -1188h-174l292 1384h250l346 -1087l232 1087h174z" />
    <glyph glyph-name="O" unicode="O" horiz-adv-x="1337" 
d="M582 -29q-129 0 -220.5 35t-144 102t-76.5 155.5t-24 205.5q0 248 100 489q43 102 94.5 179t125 142t174 99.5t225.5 34.5q222 0 338 -124.5t116 -364.5q0 -202 -63 -404q-171 -549 -645 -549zM311 465q0 -182 64.5 -256t216.5 -74q161 0 269 104.5t177 323.5
q58 190 58 367q0 164 -66 241.5t-213 77.5q-154 0 -250.5 -86.5t-167.5 -259.5q-43 -107 -65.5 -226.5t-22.5 -211.5z" />
    <glyph glyph-name="P" unicode="P" horiz-adv-x="1157" 
d="M1167 1069q0 -128 -31 -233t-96 -189t-177 -131t-263 -47h-254l-98 -469h-180l292 1384h408q199 0 299 -72t100 -243zM383 637h235q80 0 142.5 24.5t101.5 63.5t64 93.5t35 110.5t10 118q0 90 -50 130t-178 40h-237z" />
    <glyph glyph-name="Q" unicode="Q" horiz-adv-x="1337" 
d="M823 -328q-179 0 -263.5 74.5t-96.5 233.5q-95 14 -162.5 54.5t-107.5 105.5t-58 146t-18 183q0 248 100 489q43 102 94.5 179t125 142t174 99.5t225.5 34.5q222 0 338 -124.5t116 -364.5q0 -202 -63 -404q-154 -498 -559 -540q8 -79 50.5 -112.5t145.5 -33.5
q87 0 162 25l25 -152q-108 -35 -228 -35zM311 465q0 -182 64.5 -256t216.5 -74q160 0 268 109t178 329q58 187 58 357q0 164 -66 241.5t-213 77.5q-154 0 -252 -87t-168 -259q-43 -107 -64.5 -226t-21.5 -212z" />
    <glyph glyph-name="R" unicode="R" horiz-adv-x="1212" 
d="M1042 0h-204l-228 565h-243l-119 -565h-180l292 1384h410q213 0 314.5 -69.5t101.5 -247.5q0 -81 -38.5 -189.5t-109.5 -179.5q-81 -77 -243 -112zM401 729h228q194 0 270 76q46 44 69 115.5t23 146.5q0 85 -58.5 119.5t-187.5 34.5h-239z" />
    <glyph glyph-name="S" unicode="S" horiz-adv-x="1202" 
d="M31 254l172 80q30 -91 105.5 -145t223.5 -54q145 0 245 68t100 176q0 47 -9 78.5t-36 61.5t-76.5 54.5t-130.5 49.5q-165 50 -251.5 99t-121.5 109.5t-35 155.5q0 63 19 123t61 115.5t102 97t149.5 66t196.5 24.5q174 0 281 -64t166 -194l-160 -90q-33 87 -111 135.5
t-196 48.5q-157 0 -235 -70.5t-78 -170.5q0 -39 7.5 -62t35.5 -48.5t82 -48.5t147 -52q223 -71 305 -155t82 -234q0 -89 -30.5 -162t-82.5 -123.5t-122.5 -85t-150 -50.5t-165.5 -16q-93 0 -168.5 15t-127 40.5t-91 63t-62.5 76.5t-40 88z" />
    <glyph glyph-name="T" unicode="T" horiz-adv-x="1159" 
d="M1268 1217h-451l-258 -1217h-180l258 1217h-449l35 167h1080z" />
    <glyph glyph-name="U" unicode="U" horiz-adv-x="1376" 
d="M1380 1384l-170 -806q-38 -182 -89.5 -299.5t-128.5 -186.5t-172 -96t-234 -27q-224 0 -325 91.5t-101 273.5q0 109 35 266l165 784h181l-166 -786q-33 -146 -33 -264q0 -201 250 -201q134 0 214.5 42.5t133.5 144t94 290.5l166 774h180z" />
    <glyph glyph-name="V" unicode="V" horiz-adv-x="1200" 
d="M1333 1384l-725 -1384h-243l-132 1384h181l106 -1206l619 1206h194z" />
    <glyph glyph-name="W" unicode="W" horiz-adv-x="1722" 
d="M1839 1384l-620 -1384h-218l-22 1108l-492 -1108h-211l-28 1384h176l14 -1122l494 1122h205l22 -1122l496 1122h184z" />
    <glyph glyph-name="X" unicode="X" horiz-adv-x="1184" 
d="M156 0h-213l592 715l-289 669h200l218 -534l436 534h215l-586 -690l293 -694h-201l-223 559z" />
    <glyph glyph-name="Y" unicode="Y" horiz-adv-x="1124" 
d="M1266 1384l-611 -849l-112 -535h-185l111 526l-246 858h189l180 -673l463 673h211z" />
    <glyph glyph-name="Z" unicode="Z" horiz-adv-x="1141" 
d="M926 0h-946l36 176l926 1041h-674l35 167h899l-35 -165l-936 -1051h730z" />
    <glyph glyph-name="bracketleft" unicode="[" horiz-adv-x="788" 
d="M473 -395h-477l399 1884h477l-28 -133h-322l-344 -1618h322z" />
    <glyph glyph-name="backslash" unicode="\" horiz-adv-x="971" 
d="M788 -299h-155l-324 1819h158z" />
    <glyph glyph-name="bracketright" unicode="]" horiz-adv-x="788" 
d="M403 -395h-475l27 133h321l345 1618h-324l29 133h477z" />
    <glyph glyph-name="asciicircum" unicode="^" horiz-adv-x="1133" 
d="M1036 649h-129l-174 592l-422 -592h-145l524 735h135z" />
    <glyph glyph-name="underscore" unicode="_" horiz-adv-x="1024" 
d="M868 -256h-1063l23 102h1063z" />
    <glyph glyph-name="grave" unicode="`" 
d="M813 1208h-121l-209 361h217z" />
    <glyph glyph-name="a" unicode="a" horiz-adv-x="1151" 
d="M92 342q0 72 13.5 151.5t40.5 163t72 158.5t102 134.5t137 94.5t172 35q175 0 278 -116l19 86h170l-222 -1049h-169l26 125q-86 -75 -164 -115.5t-168 -40.5q-161 0 -234 93.5t-73 279.5zM764 279l113 534q-53 57 -111.5 85t-140.5 28q-71 0 -132 -38.5t-102 -100.5
t-70 -140.5t-42 -157t-13 -151.5q0 -115 40 -165t128 -50q161 0 330 156z" />
    <glyph glyph-name="b" unicode="b" horiz-adv-x="1151" 
d="M244 86l-19 -86h-170l316 1489h170l-115 -545q166 135 326 135q162 0 236.5 -94t74.5 -278q0 -128 -46.5 -282t-131.5 -267q-144 -189 -381 -189q-159 0 -260 117zM393 791l-119 -555q53 -57 109.5 -85t130.5 -28q144 0 242 145q61 88 94 206.5t33 236.5
q0 114 -39.5 164.5t-126.5 50.5q-158 0 -324 -135z" />
    <glyph glyph-name="c" unicode="c" horiz-adv-x="1010" 
d="M745 258l117 -96q-151 -193 -397 -193q-375 0 -375 387q0 71 14 148t41.5 159.5t75 156t109 132t148.5 93t188 34.5q261 0 338 -192l-152 -82q-25 63 -74 94t-129 31q-75 0 -139.5 -37.5t-108.5 -98t-75 -137.5t-45.5 -155.5t-14.5 -153.5q0 -229 215 -229q78 0 139 34
t125 105z" />
    <glyph glyph-name="d" unicode="d" horiz-adv-x="1151" 
d="M88 342q0 128 46.5 281t131.5 268q143 188 381 188q157 0 260 -116l111 526h170l-314 -1489h-169l20 104q-80 -64 -158 -99.5t-168 -35.5q-162 0 -236.5 94t-74.5 279zM395 780q-61 -88 -94 -206t-33 -236q0 -115 39 -165t127 -50q158 0 324 135l119 555
q-53 57 -109.5 85t-130.5 28q-144 0 -242 -146z" />
    <glyph glyph-name="e" unicode="e" horiz-adv-x="1059" 
d="M956 504h-671q-21 -102 -21 -166q0 -123 53.5 -171t178.5 -48q133 0 262 135l106 -98q-163 -187 -389 -187q-387 0 -387 371q0 127 41.5 269.5t114.5 250.5q144 219 418 219q161 0 246 -88t85 -239q0 -66 -16 -152zM315 639h502q12 58 12 109q0 188 -190 188
q-140 0 -223 -100q-58 -71 -101 -197z" />
    <glyph glyph-name="f" unicode="f" horiz-adv-x="621" 
d="M905 1473l-61 -144q-62 41 -139 41q-87 0 -135 -45t-72 -154l-27 -122h229l-28 -144h-230l-192 -905h-168l192 905h-149l29 144h149l23 102q43 200 128 284.5t263 84.5q99 0 188 -47z" />
    <glyph glyph-name="g" unicode="g" horiz-adv-x="1151" 
d="M1094 1049l-224 -1057q-45 -213 -163 -300t-351 -87t-362 98l86 131q122 -86 282 -86q162 0 238 58.5t111 224.5l22 104q-72 -60 -160 -97.5t-167 -37.5q-316 0 -316 373q0 94 22.5 191.5t69.5 189.5t112 164.5t156.5 116.5t196.5 44q64 0 137.5 -32t122.5 -84l19 86h168
zM766 289l111 524q-105 113 -240 113q-88 0 -161 -56.5t-116 -143t-66.5 -180t-23.5 -177.5q0 -114 39 -164.5t131 -50.5q159 0 326 135z" />
    <glyph glyph-name="h" unicode="h" horiz-adv-x="1141" 
d="M870 0h-168l132 618q26 124 26 199q0 51 -24 78t-82 27q-73 0 -171.5 -48t-199.5 -133l-158 -741h-170l316 1489h170l-127 -596q203 186 379 186q239 0 239 -239q0 -70 -33 -222z" />
    <glyph glyph-name="i" unicode="i" horiz-adv-x="502" 
d="M225 0h-170l221 1049h170zM297 1278q0 71 32 105t101 34q92 0 92 -67q0 -138 -129 -138q-55 0 -75.5 17t-20.5 49z" />
    <glyph glyph-name="j" unicode="j" horiz-adv-x="526" 
d="M463 1049l-232 -1094q-37 -181 -123.5 -265.5t-254.5 -84.5q-91 0 -181 30l72 142q66 -29 143 -29q75 0 114 54.5t65 172.5l227 1074h170zM324 1282q0 135 133 135q92 0 92 -71q0 -65 -33 -99.5t-96 -34.5q-55 0 -75.5 17.5t-20.5 52.5z" />
    <glyph glyph-name="k" unicode="k" horiz-adv-x="1028" 
d="M870 0h-192l-238 477l-141 -131l-74 -346h-170l316 1489h170l-195 -914l504 474h219l-502 -463z" />
    <glyph glyph-name="l" unicode="l" horiz-adv-x="518" 
d="M233 0h-170l316 1489h170z" />
    <glyph glyph-name="m" unicode="m" horiz-adv-x="1677" 
d="M1409 0h-168l131 618q31 144 31 197q0 107 -94 107q-72 0 -154.5 -49.5t-179.5 -131.5l-158 -741h-170l131 618q31 145 31 199t-24 79.5t-76 25.5q-115 0 -326 -181l-158 -741h-170l221 1049h170l-32 -156q83 83 175 134.5t163 51.5q231 0 231 -205q211 205 365 205
q65 0 111 -17t70.5 -49t35 -70.5t10.5 -88.5q0 -73 -23 -176z" />
    <glyph glyph-name="n" unicode="n" horiz-adv-x="1141" 
d="M870 0h-168l132 618q26 124 26 201q0 103 -106 103q-158 0 -371 -181l-158 -741h-170l221 1049h170l-32 -156q203 186 379 186q239 0 239 -239q0 -70 -33 -222z" />
    <glyph glyph-name="o" unicode="o" horiz-adv-x="1135" 
d="M92 379q0 124 48 273t145 257q148 170 381 170q182 0 279 -102.5t97 -304.5q0 -141 -53 -297.5t-160 -261.5q-144 -144 -352 -144q-205 0 -295 101.5t-90 308.5zM266 369q0 -132 51 -191t170 -59q135 0 232 110q68 78 108.5 202t40.5 241q0 132 -53.5 195t-165.5 63
q-151 0 -252 -135q-60 -80 -95.5 -198.5t-35.5 -227.5z" />
    <glyph glyph-name="p" unicode="p" horiz-adv-x="1151" 
d="M244 86l-103 -481h-170l305 1444h170l-20 -105q166 135 326 135q162 0 236.5 -94t74.5 -278q0 -71 -13.5 -150t-40.5 -163t-72 -159t-103 -135t-140 -95.5t-176 -35.5q-173 0 -274 117zM393 791l-119 -555q53 -57 109.5 -85t130.5 -28q71 0 132.5 39t104 101.5t73 140.5
t45 156.5t14.5 150.5q0 114 -39.5 164.5t-126.5 50.5q-158 0 -324 -135z" />
    <glyph glyph-name="q" unicode="q" horiz-adv-x="1151" 
d="M621 -395l104 499q-80 -64 -158 -99.5t-168 -35.5q-162 0 -236.5 94t-74.5 279q0 69 13.5 146.5t40 161.5t71 160t102 136.5t138.5 96.5t174 36q177 0 280 -116l19 86h170l-305 -1444h-170zM758 258l119 555q-53 57 -110.5 85t-137.5 28q-74 0 -136.5 -41t-103 -105
t-69 -144t-40.5 -155.5t-12 -142.5q0 -115 39 -165t127 -50q158 0 324 135z" />
    <glyph glyph-name="r" unicode="r" horiz-adv-x="795" 
d="M868 1042l-69 -165q-30 14 -76 14q-65 0 -131.5 -27t-108.5 -57t-104 -82l-154 -725h-170l221 1049h170l-34 -170q104 98 182 142t154 44t120 -23z" />
    <glyph glyph-name="s" unicode="s" horiz-adv-x="971" 
d="M20 158l148 80q28 -60 81 -91.5t144 -31.5q47 0 91 9t83.5 27.5t63.5 53t24 80.5q0 28 -6 46t-26.5 39.5t-62.5 42.5t-111 44q-162 53 -221.5 115t-59.5 165q0 146 110.5 244t299.5 98q97 0 168 -25t111.5 -63.5t68.5 -95.5l-144 -84q-54 123 -221 123q-100 0 -162.5 -48
t-62.5 -120q0 -52 37 -92t133 -68q185 -56 253 -120t68 -183q0 -144 -118 -239t-328 -95q-161 0 -248.5 53.5t-112.5 135.5z" />
    <glyph glyph-name="t" unicode="t" horiz-adv-x="715" 
d="M563 141v-141q-100 -31 -186 -31q-123 0 -182.5 58t-59.5 157q0 79 19 156l120 565h-145l29 144h145l64 292h168l-64 -292h262l-28 -144h-263l-118 -555q-21 -90 -21 -137q0 -53 25 -76.5t82 -23.5q81 0 153 28z" />
    <glyph glyph-name="u" unicode="u" horiz-adv-x="1141" 
d="M268 1049h168l-129 -619q-28 -133 -28 -192t24.5 -85t79.5 -26q161 0 373 180l157 742h170l-221 -1049h-170l33 156q-206 -187 -379 -187q-126 0 -183 64.5t-57 175.5q0 63 33 221z" />
    <glyph glyph-name="v" unicode="v" horiz-adv-x="987" 
d="M1049 1049l-584 -1049h-166l-137 1049h172l96 -824l434 824h185z" />
    <glyph glyph-name="w" unicode="w" horiz-adv-x="1446" 
d="M1493 1049l-473 -1049h-160l-80 803l-422 -803h-151l-35 1049h166l6 -799l412 799h141l84 -799l334 799h178z" />
    <glyph glyph-name="x" unicode="x" horiz-adv-x="991" 
d="M827 0h-190l-166 397l-317 -397h-209l452 537l-229 512h190l164 -385l318 385h209l-457 -527z" />
    <glyph glyph-name="y" unicode="y" horiz-adv-x="1020" 
d="M-184 -365l63 138q48 -25 111 -25q75 0 136.5 51.5t139.5 180.5l56 90l-164 979h172l119 -783l448 783h186l-677 -1129q-74 -122 -131 -186.5t-126.5 -96.5t-164.5 -32q-93 0 -168 30z" />
    <glyph glyph-name="z" unicode="z" horiz-adv-x="915" 
d="M725 0h-756l27 131l692 774h-514l29 144h727l-27 -125l-692 -779h545z" />
    <glyph glyph-name="braceleft" unicode="{" horiz-adv-x="956" 
d="M662 -395h-68q-151 0 -234.5 71.5t-83.5 204.5q0 45 13 105l30 147q21 90 21 158q0 87 -57.5 142.5t-171.5 55.5h-19l33 148h18q153 0 238 87t123 269l31 146q38 186 151 283.5t293 97.5h88l-29 -134h-69q-230 0 -285 -264l-37 -172q-38 -184 -117 -271.5t-239 -117.5
q205 -78 205 -280q0 -54 -13 -107l-37 -172q-14 -66 -14 -111q0 -80 49.5 -116.5t157.5 -36.5h49z" />
    <glyph glyph-name="bar" unicode="|" horiz-adv-x="852" 
d="M537 -395h-156v1915h156v-1915z" />
    <glyph glyph-name="braceright" unicode="}" horiz-adv-x="956" 
d="M311 1520h68q151 0 234 -72t83 -205q0 -49 -12 -104l-31 -148q-20 -85 -20 -157q0 -89 57.5 -144t171.5 -55h19l-33 -148h-19q-153 0 -237 -86.5t-123 -269.5l-31 -145q-38 -186 -151 -283.5t-293 -97.5h-88l28 133h70q230 0 285 264l37 172q38 184 117 271.5t239 117.5
q-205 78 -205 281q0 48 12 106l37 172q15 71 15 111q0 80 -49.5 116.5t-157.5 36.5h-49z" />
    <glyph glyph-name="asciitilde" unicode="~" horiz-adv-x="1399" 
d="M178 614l35 160q159 127 301 127q62 0 132.5 -24.5t123 -54.5t115 -54.5t110.5 -24.5q143 0 322 144l-35 -160q-156 -127 -303 -127q-57 0 -128 24.5t-126.5 54.5t-117.5 54.5t-103 24.5q-85 0 -159.5 -33t-166.5 -111z" />
    <glyph glyph-name="uni00A0" unicode="&#xa0;" horiz-adv-x="543" 
 />
    <glyph glyph-name="exclamdown" unicode="&#xa1;" horiz-adv-x="545" 
d="M-20 -395l253 1089h144l-203 -1089h-194zM242 928q0 52 22 90q34 61 127 61q54 0 77.5 -18t23.5 -53q0 -34 -19 -82q-15 -39 -45 -55.5t-84 -16.5t-78 18t-24 56z" />
    <glyph glyph-name="cent" unicode="&#xa2;" horiz-adv-x="1024" 
d="M745 258l117 -96q-150 -191 -397 -191h-45l-78 -231h-117l84 252q-219 69 -219 364q0 62 10 128t32 137t54 136.5t80 124.5t106.5 102.5t136.5 69t167 25.5l72 209h116l-76 -223q163 -42 216 -178l-152 -82q-34 83 -113 110l-270 -796q88 2 150.5 36t125.5 103zM266 348
q0 -159 94 -207l265 787q-88 -7 -159 -65.5t-113.5 -145t-64.5 -182t-22 -187.5z" />
    <glyph glyph-name="sterling" unicode="&#xa3;" horiz-adv-x="1239" 
d="M997 0h-954l33 162q47 11 87.5 47t67.5 80.5t48 100.5t32.5 102.5t18.5 91.5h-144l29 137h131q8 37 8 147q0 259 135.5 401t358.5 142q151 0 242 -57.5t147 -167.5l-160 -92q-25 73 -89.5 115t-156.5 42q-138 0 -218.5 -93t-80.5 -257q0 -93 -10 -180h352l-28 -137h-338
q-29 -143 -79 -248t-148 -174h747z" />
    <glyph glyph-name="currency" unicode="&#xa4;" horiz-adv-x="1239" 
d="M406 266l-197 -192l-92 90l194 198q-71 99 -71 224q0 133 69 225l-192 195l92 92l192 -191q99 76 228 76q132 0 229 -74l193 189l90 -92l-187 -191q74 -97 74 -229q0 -117 -76 -228l189 -194l-90 -90l-195 190q-99 -69 -227 -69q-127 0 -223 71zM883 586q0 106 -71 182
t-183 76q-108 0 -176 -75.5t-68 -182.5q0 -104 70 -178t174 -74q109 0 181.5 73t72.5 179z" />
    <glyph glyph-name="yen" unicode="&#xa5;" horiz-adv-x="1239" 
d="M1092 635h-340l-33 -43q-3 -18 -11 -49t-12 -49h363l-23 -127h-364q-11 -55 -38 -177.5t-40 -189.5h-174l78 367h-365l25 127h362l21 92l-17 49h-334l25 127h268l-202 622h184l197 -618l448 618h205l-471 -622h272z" />
    <glyph glyph-name="brokenbar" unicode="&#xa6;" horiz-adv-x="852" 
d="M537 883h-156v637h156v-637zM537 -395h-156v637h156v-637z" />
    <glyph glyph-name="section" unicode="&#xa7;" horiz-adv-x="985" 
d="M897 545q0 -101 -65.5 -181.5t-223.5 -177.5q59 -55 86 -109.5t27 -127.5q0 -136 -117 -225t-295 -89q-134 0 -219 42t-119 112l144 98q65 -102 202 -102q40 0 78 9t73.5 27t57 52.5t21.5 79.5q0 46 -42.5 89t-135.5 105q-157 107 -213 180t-56 185q0 52 23.5 101.5
t67 94t91.5 80t111 74.5q-59 51 -85.5 106t-26.5 136q0 126 111 216.5t298 90.5q125 0 197.5 -36.5t144.5 -117.5l-131 -100q-47 47 -97 75t-122 28q-109 0 -169 -42t-60 -108q0 -54 38 -98t125 -107q163 -118 222 -193t59 -167zM502 270q95 49 161 119t66 131
q0 32 -16 63.5t-52.5 66t-68.5 60t-90 66.5q-116 -73 -176 -131.5t-60 -118.5q0 -36 13 -63t65.5 -74.5t157.5 -118.5z" />
    <glyph glyph-name="dieresis" unicode="&#xa8;" 
d="M623 1354q0 -18 -7.5 -45.5t-15.5 -42.5q-17 -32 -42 -45t-69 -13q-49 0 -69.5 16.5t-20.5 49.5q0 14 6 41t15 43q15 33 40 48t72 15q50 0 70.5 -16t20.5 -51zM1010 1354q0 -18 -7.5 -45.5t-15.5 -42.5q-17 -32 -42 -45t-68 -13q-51 0 -71 16.5t-20 49.5q0 14 6 41t15 43
q15 33 40.5 48t72.5 15q50 0 70 -16t20 -51z" />
    <glyph glyph-name="copyright" unicode="&#xa9;" horiz-adv-x="1855" 
d="M948 -195q-167 0 -316 63.5t-255 171.5t-168 256.5t-62 313.5q0 167 63 316.5t170.5 255.5t255.5 167.5t312 61.5q167 0 316.5 -63t255.5 -170.5t167.5 -255.5t61.5 -312q0 -169 -63 -318.5t-170.5 -256t-255.5 -168.5t-312 -62zM948 -59q181 0 334 89.5t241.5 243.5
t88.5 336q0 181 -88.5 334t-241.5 242.5t-334 89.5q-135 0 -257.5 -53t-211 -142t-140.5 -212.5t-52 -258.5q0 -182 88.5 -336t240.5 -243.5t332 -89.5zM973 168q-201 0 -297 110.5t-96 333.5q0 224 94.5 334.5t294.5 110.5q224 0 321 -180l-127 -78q-31 59 -76 93t-120 34
q-128 0 -183 -76.5t-55 -237.5q0 -162 57.5 -237.5t182.5 -75.5q132 0 207 133l127 -74q-54 -90 -131 -140t-199 -50z" />
    <glyph glyph-name="ordfeminine" unicode="&#xaa;" horiz-adv-x="780" 
d="M180 936q0 59 12.5 122t41 127.5t68.5 115t101.5 82.5t133.5 32q114 0 182 -78l12 58h131l-143 -682h-131l16 82q-118 -103 -219 -103q-107 0 -156 61t-49 183zM627 903l69 328q-60 69 -159 69q-55 0 -99.5 -34.5t-70.5 -89.5t-40 -117t-14 -123q0 -73 25.5 -101
t83.5 -28q98 0 205 96z" />
    <glyph glyph-name="guillemotleft" unicode="&#xab;" horiz-adv-x="1200" 
d="M545 53h-191l-284 471l485 471h199l-492 -481zM1024 53h-190l-285 471l485 471h199l-492 -481z" />
    <glyph glyph-name="logicalnot" unicode="&#xac;" horiz-adv-x="1427" 
d="M1284 367h-143v460h-957v144h1100v-604z" />
    <glyph glyph-name="uni00AD" unicode="&#xad;" horiz-adv-x="811" 
d="M692 440h-610l37 172h610z" />
    <glyph glyph-name="registered" unicode="&#xae;" horiz-adv-x="1855" 
d="M948 -195q-167 0 -316 63.5t-255 171.5t-168 256.5t-62 313.5q0 167 63 316.5t170.5 255.5t255.5 167.5t312 61.5q167 0 316.5 -63t255.5 -170.5t167.5 -255.5t61.5 -312q0 -169 -63 -318.5t-170.5 -256t-255.5 -168.5t-312 -62zM948 -59q181 0 334 89.5t241.5 243.5
t88.5 336q0 181 -88.5 334t-241.5 242.5t-334 89.5q-135 0 -257.5 -53t-211 -142t-140.5 -212.5t-52 -258.5q0 -182 88.5 -336t240.5 -243.5t332 -89.5zM809 199h-147v852h276q159 0 237 -55.5t78 -192.5q0 -107 -41.5 -165.5t-121.5 -82.5l231 -356h-172l-217 333h-123
v-333zM809 924v-265h123q98 0 134 30t36 108q0 72 -36 99.5t-128 27.5h-129z" />
    <glyph glyph-name="macron" unicode="&#xaf;" 
d="M987 1255h-598l29 140h598z" />
    <glyph glyph-name="degree" unicode="&#xb0;" horiz-adv-x="864" 
d="M846 1241q0 -117 -83 -200t-196 -83q-116 0 -199 82.5t-83 200.5q0 116 83 197.5t197 81.5q118 0 199.5 -82t81.5 -197zM727 1239q0 68 -46.5 115t-113.5 47q-69 0 -116.5 -48t-47.5 -112q0 -68 47.5 -116t116.5 -48q67 0 113.5 47.5t46.5 114.5z" />
    <glyph glyph-name="plusminus" unicode="&#xb1;" horiz-adv-x="1427" 
d="M1294 809h-479v-479h-143v479h-477v143h477v478h143v-478h479v-143zM1294 0h-1099v143h1099v-143z" />
    <glyph glyph-name="twosuperior" unicode="&#xb2;" horiz-adv-x="881" 
d="M780 655h-653l29 138q320 200 467 329q96 87 96 166q0 54 -28.5 78.5t-90.5 24.5q-113 0 -215 -107l-117 78q62 76 150 119t194 43q283 0 283 -217q0 -79 -35.5 -142.5t-111.5 -124.5q-110 -88 -373 -254h434z" />
    <glyph glyph-name="threesuperior" unicode="&#xb3;" horiz-adv-x="881" 
d="M819 930q0 -125 -100 -209t-289 -84q-110 0 -184 39.5t-101 105.5l129 78q20 -37 64.5 -65.5t97.5 -28.5q104 0 156.5 46t52.5 116q0 62 -37.5 88t-120.5 26h-88l27 127h76q97 0 157 37.5t60 100.5q0 90 -123 90q-121 0 -211 -99l-115 76q124 150 340 150q279 0 279 -207
q0 -72 -41 -119t-141 -82q112 -54 112 -186z" />
    <glyph glyph-name="acute" unicode="&#xb4;" 
d="M1098 1569l-332 -361h-150l240 361h242z" />
    <glyph glyph-name="mu" unicode="&#xb5;" horiz-adv-x="1147" 
d="M1108 1049l-221 -1049h-162l14 119q-76 -77 -147.5 -113.5t-151.5 -36.5q-74 0 -128.5 22.5t-102.5 71.5l-96 -458h-168l303 1444h170l-168 -793q68 -117 225 -117q156 0 299 144l162 766h172z" />
    <glyph glyph-name="paragraph" unicode="&#xb6;" horiz-adv-x="1233" 
d="M1327 1251h-188l-351 -1646h-155l350 1646h-190l-351 -1646h-157l200 936q-71 0 -131 20.5t-109 63t-76.5 116t-27.5 172.5q0 93 36.5 176.5t105.5 150t180 105.5t250 39h643z" />
    <glyph glyph-name="periodcentered" unicode="&#xb7;" horiz-adv-x="545" 
d="M424 786q0 -52 -22 -92q-34 -61 -127 -61q-54 0 -77.5 18t-23.5 53q0 42 21 86q29 68 127 68q54 0 78 -17.5t24 -54.5z" />
    <glyph glyph-name="cedilla" unicode="&#xb8;" 
d="M571 -190q0 -100 -76.5 -152.5t-215.5 -52.5q-69 0 -136.5 16t-89.5 31l72 100q30 -14 79 -23.5t89 -9.5q62 0 106.5 21t44.5 72q0 77 -153 88l84 118h104l-35 -49q127 -39 127 -159z" />
    <glyph glyph-name="onesuperior" unicode="&#xb9;" horiz-adv-x="881" 
d="M586 655h-160l123 586h-221l22 107q131 6 189.5 38.5t103.5 118.5h123z" />
    <glyph glyph-name="ordmasculine" unicode="&#xba;" horiz-adv-x="768" 
d="M817 1159q0 -190 -92 -317q-56 -79 -126.5 -113.5t-166.5 -34.5q-132 0 -192 64t-60 188q0 137 64 266q47 96 128 149.5t187 53.5q137 0 197.5 -64.5t60.5 -191.5zM606 895q76 121 76 266q0 76 -28 107.5t-103 31.5q-123 0 -178 -120q-58 -125 -58 -236
q0 -68 30.5 -101.5t100.5 -33.5q103 0 160 86z" />
    <glyph glyph-name="guillemotright" unicode="&#xbb;" horiz-adv-x="1200" 
d="M655 995h191l284 -471l-485 -471h-199l492 482zM176 995h191l284 -471l-485 -471h-199l492 482z" />
    <glyph glyph-name="onequarter" unicode="&#xbc;" horiz-adv-x="1907" 
d="M1532 1434l-1067 -1489h-172l1063 1489h176zM499 537h-160l123 586h-221l22 107q131 6 189.5 38.5t103.5 118.5h123zM1663 173h-125l-36 -183h-160l37 183h-471l26 125l606 542h142l-117 -542h125zM1405 298l70 325l-365 -325h295z" />
    <glyph glyph-name="onehalf" unicode="&#xbd;" horiz-adv-x="1907" 
d="M1450 1434l-1067 -1489h-172l1063 1489h176zM481 539h-160l123 586h-221l22 107q131 6 189.5 38.5t103.5 118.5h123zM1575 -12h-653l29 138q320 200 467 329q96 87 96 166q0 54 -28.5 78.5t-90.5 24.5q-113 0 -215 -107l-117 78q62 76 150 119t194 43q283 0 283 -217
q0 -79 -35.5 -142.5t-111.5 -124.5q-110 -88 -373 -254h434z" />
    <glyph glyph-name="threequarters" unicode="&#xbe;" horiz-adv-x="1907" 
d="M1696 1434l-1067 -1489h-172l1063 1489h176zM1792 171h-125l-36 -183h-160l37 183h-471l26 125l606 542h142l-117 -542h125zM1534 296l70 325l-365 -325h295zM773 814q0 -125 -100 -209t-289 -84q-110 0 -184 39.5t-101 105.5l129 78q20 -37 64.5 -65.5t97.5 -28.5
q104 0 156.5 46t52.5 116q0 62 -37.5 88t-120.5 26h-88l27 127h76q97 0 157 37.5t60 100.5q0 90 -123 90q-121 0 -211 -99l-115 76q124 150 340 150q279 0 279 -207q0 -72 -41 -119t-141 -82q112 -54 112 -186z" />
    <glyph glyph-name="questiondown" unicode="&#xbf;" horiz-adv-x="1028" 
d="M543 692h170l-60 -282q-88 -45 -142 -75t-115 -69t-95.5 -72t-65.5 -74t-44 -86.5t-13 -99.5q0 -81 54 -123t159 -42q183 0 291 141l131 -105q-151 -200 -432 -200q-189 0 -294 82t-105 239q0 91 33.5 169.5t103.5 147.5t161 128.5t222 124.5zM561 928q0 50 23 90
q33 61 127 61q100 0 100 -71q0 -36 -18 -82q-16 -39 -46.5 -55.5t-82.5 -16.5q-54 0 -78.5 18t-24.5 56z" />
    <glyph glyph-name="Agrave" unicode="&#xc0;" horiz-adv-x="1262" 
d="M145 0h-192l747 1384h236l176 -1384h-188l-43 360h-539zM782 1202l-356 -674h434zM954 1544h-121l-209 361h217z" />
    <glyph glyph-name="Aacute" unicode="&#xc1;" horiz-adv-x="1262" 
d="M145 0h-192l747 1384h236l176 -1384h-188l-43 360h-539zM782 1202l-356 -674h434zM1219 1905l-332 -361h-150l240 361h242z" />
    <glyph glyph-name="Acircumflex" unicode="&#xc2;" horiz-adv-x="1262" 
d="M145 0h-192l747 1384h236l176 -1384h-188l-43 360h-539zM782 1202l-356 -674h434zM1160 1544h-140l-129 238l-231 -238h-154l301 361h207z" />
    <glyph glyph-name="Atilde" unicode="&#xc3;" horiz-adv-x="1262" 
d="M145 0h-192l747 1384h236l176 -1384h-188l-43 360h-539zM782 1202l-356 -674h434zM604 1557h-119q33 129 102 195.5t162 66.5q43 0 78.5 -14.5t59.5 -35.5t45 -42t44.5 -35.5t49.5 -14.5q47 0 81.5 36t49.5 93h119q-65 -262 -273 -262q-51 0 -89.5 14.5t-61 35.5t-41 42
t-39 35.5t-45.5 14.5q-42 0 -74 -33.5t-49 -95.5z" />
    <glyph glyph-name="Adieresis" unicode="&#xc4;" horiz-adv-x="1262" 
d="M145 0h-192l747 1384h236l176 -1384h-188l-43 360h-539zM782 1202l-356 -674h434zM793 1690q0 -18 -7.5 -45.5t-15.5 -42.5q-17 -32 -42 -45t-69 -13q-49 0 -69.5 16.5t-20.5 49.5q0 14 6 41t15 43q15 33 40 48t72 15q50 0 70.5 -16t20.5 -51zM1180 1690
q0 -18 -7.5 -45.5t-15.5 -42.5q-17 -32 -42 -45t-68 -13q-51 0 -71 16.5t-20 49.5q0 14 6 41t15 43q15 33 40.5 48t72.5 15q50 0 70 -16t20 -51z" />
    <glyph glyph-name="Aring" unicode="&#xc5;" horiz-adv-x="1262" 
d="M145 0h-192l747 1384h236l176 -1384h-188l-43 360h-539zM782 1202l-356 -674h434zM1077 1718q0 -91 -58.5 -157t-164.5 -66q-84 0 -122 44t-38 112q0 90 61.5 155.5t157.5 65.5q78 0 121 -41t43 -113zM868 1577q55 0 89 36t34 97q0 80 -88 80q-56 0 -89.5 -40.5
t-33.5 -90.5q0 -41 19.5 -61.5t68.5 -20.5z" />
    <glyph glyph-name="AE" unicode="&#xc6;" horiz-adv-x="1712" 
d="M1479 0h-772l79 383h-438l-219 -383h-192l811 1384h1024l-35 -167h-592l-86 -404h516l-37 -168h-516l-100 -477h591zM823 551l142 666h-138l-381 -666h377z" />
    <glyph glyph-name="Ccedilla" unicode="&#xc7;" horiz-adv-x="1280" 
d="M805 -190q0 -100 -77 -152.5t-216 -52.5q-68 0 -135 16t-90 31l71 100q30 -14 79 -23.5t89 -9.5q62 0 107 21t45 72q0 77 -154 88l49 71q-229 4 -342.5 130.5t-113.5 361.5q0 84 11.5 171.5t38 181.5t65.5 179t98.5 162t132.5 133.5t172 89.5t213 33q185 0 294.5 -67.5
t168.5 -198.5l-162 -94q-43 101 -120 148.5t-206 47.5q-86 0 -161.5 -34.5t-130.5 -94t-98.5 -137t-70 -166.5t-40 -179t-13.5 -177q0 -156 73 -241t206 -85q141 0 240.5 54t185.5 161l127 -114q-59 -73 -117 -123t-146 -88.5t-196 -49.5q-2 -1 -2 -3t-2 -3
q127 -39 127 -159z" />
    <glyph glyph-name="Egrave" unicode="&#xc8;" horiz-adv-x="1130" 
d="M897 0h-829l292 1384h830l-35 -167h-649l-86 -404h555l-35 -168h-555l-102 -477h649zM889 1544h-121l-209 361h217z" />
    <glyph glyph-name="Eacute" unicode="&#xc9;" horiz-adv-x="1130" 
d="M897 0h-829l292 1384h830l-35 -167h-649l-86 -404h555l-35 -168h-555l-102 -477h649zM1168 1905l-332 -361h-150l240 361h242z" />
    <glyph glyph-name="Ecircumflex" unicode="&#xca;" horiz-adv-x="1130" 
d="M897 0h-829l292 1384h830l-35 -167h-649l-86 -404h555l-35 -168h-555l-102 -477h649zM1121 1544h-140l-129 238l-231 -238h-154l301 361h207z" />
    <glyph glyph-name="Edieresis" unicode="&#xcb;" horiz-adv-x="1130" 
d="M897 0h-829l292 1384h830l-35 -167h-649l-86 -404h555l-35 -168h-555l-102 -477h649zM725 1690q0 -18 -7.5 -45.5t-15.5 -42.5q-17 -32 -42 -45t-69 -13q-49 0 -69.5 16.5t-20.5 49.5q0 14 6 41t15 43q15 33 40 48t72 15q50 0 70.5 -16t20.5 -51zM1112 1690
q0 -18 -7.5 -45.5t-15.5 -42.5q-17 -32 -42 -45t-68 -13q-51 0 -71 16.5t-20 49.5q0 14 6 41t15 43q15 33 40.5 48t72.5 15q50 0 70 -16t20 -51z" />
    <glyph glyph-name="Igrave" unicode="&#xcc;" horiz-adv-x="754" 
d="M575 160l-32 -160h-553l33 160h186l227 1067h-186l33 157h553l-33 -157h-187l-227 -1067h186zM679 1544h-121l-209 361h217z" />
    <glyph glyph-name="Iacute" unicode="&#xcd;" horiz-adv-x="754" 
d="M575 160l-32 -160h-553l33 160h186l227 1067h-186l33 157h553l-33 -157h-187l-227 -1067h186zM984 1905l-332 -361h-150l240 361h242z" />
    <glyph glyph-name="Icircumflex" unicode="&#xce;" horiz-adv-x="754" 
d="M575 160l-32 -160h-553l33 160h186l227 1067h-186l33 157h553l-33 -157h-187l-227 -1067h186zM923 1544h-140l-129 238l-231 -238h-154l301 361h207z" />
    <glyph glyph-name="Idieresis" unicode="&#xcf;" horiz-adv-x="754" 
d="M575 160l-32 -160h-553l33 160h186l227 1067h-186l33 157h553l-33 -157h-187l-227 -1067h186zM542 1690q0 -18 -7.5 -45.5t-15.5 -42.5q-17 -32 -42 -45t-69 -13q-49 0 -69.5 16.5t-20.5 49.5q0 14 6 41t15 43q15 33 40 48t72 15q50 0 70.5 -16t20.5 -51zM929 1690
q0 -18 -7.5 -45.5t-15.5 -42.5q-17 -32 -42 -45t-68 -13q-51 0 -71 16.5t-20 49.5q0 14 6 41t15 43q15 33 40.5 48t72.5 15q50 0 70 -16t20 -51z" />
    <glyph glyph-name="Eth" unicode="&#xd0;" horiz-adv-x="1266" 
d="M1219 926q0 -79 -14.5 -175.5t-43 -203t-81 -207t-119.5 -166.5q-181 -174 -541 -174h-365l131 627h-133l29 141h135l131 616h342q135 0 230.5 -23t164 -75.5t101.5 -141.5t33 -218zM272 168h150q139 0 236.5 30t164.5 97q87 87 144 275t57 354q0 113 -33.5 174.5
t-115 90t-230.5 28.5h-149l-97 -449h330l-29 -141h-331z" />
    <glyph glyph-name="Ntilde" unicode="&#xd1;" horiz-adv-x="1358" 
d="M1069 0h-199l-376 1188l-252 -1188h-174l292 1384h250l346 -1087l232 1087h174zM625 1557h-119q33 129 102 195.5t162 66.5q43 0 78.5 -14.5t59.5 -35.5t45 -42t44.5 -35.5t49.5 -14.5q47 0 81.5 36t49.5 93h119q-65 -262 -273 -262q-51 0 -89.5 14.5t-61 35.5t-41 42
t-39 35.5t-45.5 14.5q-42 0 -74 -33.5t-49 -95.5z" />
    <glyph glyph-name="Ograve" unicode="&#xd2;" horiz-adv-x="1337" 
d="M582 -29q-129 0 -220.5 35t-144 102t-76.5 155.5t-24 205.5q0 248 100 489q43 102 94.5 179t125 142t174 99.5t225.5 34.5q222 0 338 -124.5t116 -364.5q0 -202 -63 -404q-171 -549 -645 -549zM311 465q0 -182 64.5 -256t216.5 -74q161 0 269 104.5t177 323.5
q58 190 58 367q0 164 -66 241.5t-213 77.5q-154 0 -250.5 -86.5t-167.5 -259.5q-43 -107 -65.5 -226.5t-22.5 -211.5zM1018 1544h-121l-209 361h217z" />
    <glyph glyph-name="Oacute" unicode="&#xd3;" horiz-adv-x="1337" 
d="M582 -29q-129 0 -220.5 35t-144 102t-76.5 155.5t-24 205.5q0 248 100 489q43 102 94.5 179t125 142t174 99.5t225.5 34.5q222 0 338 -124.5t116 -364.5q0 -202 -63 -404q-171 -549 -645 -549zM311 465q0 -182 64.5 -256t216.5 -74q161 0 269 104.5t177 323.5
q58 190 58 367q0 164 -66 241.5t-213 77.5q-154 0 -250.5 -86.5t-167.5 -259.5q-43 -107 -65.5 -226.5t-22.5 -211.5zM1221 1905l-332 -361h-150l240 361h242z" />
    <glyph glyph-name="Ocircumflex" unicode="&#xd4;" horiz-adv-x="1337" 
d="M582 -29q-129 0 -220.5 35t-144 102t-76.5 155.5t-24 205.5q0 248 100 489q43 102 94.5 179t125 142t174 99.5t225.5 34.5q222 0 338 -124.5t116 -364.5q0 -202 -63 -404q-171 -549 -645 -549zM311 465q0 -182 64.5 -256t216.5 -74q161 0 269 104.5t177 323.5
q58 190 58 367q0 164 -66 241.5t-213 77.5q-154 0 -250.5 -86.5t-167.5 -259.5q-43 -107 -65.5 -226.5t-22.5 -211.5zM1188 1544h-140l-129 238l-231 -238h-154l301 361h207z" />
    <glyph glyph-name="Otilde" unicode="&#xd5;" horiz-adv-x="1337" 
d="M582 -29q-129 0 -220.5 35t-144 102t-76.5 155.5t-24 205.5q0 248 100 489q43 102 94.5 179t125 142t174 99.5t225.5 34.5q222 0 338 -124.5t116 -364.5q0 -202 -63 -404q-171 -549 -645 -549zM311 465q0 -182 64.5 -256t216.5 -74q161 0 269 104.5t177 323.5
q58 190 58 367q0 164 -66 241.5t-213 77.5q-154 0 -250.5 -86.5t-167.5 -259.5q-43 -107 -65.5 -226.5t-22.5 -211.5zM623 1557h-119q33 129 102 195.5t162 66.5q43 0 78.5 -14.5t59.5 -35.5t45 -42t44.5 -35.5t49.5 -14.5q47 0 81.5 36t49.5 93h119q-65 -262 -273 -262
q-51 0 -89.5 14.5t-61 35.5t-41 42t-39 35.5t-45.5 14.5q-42 0 -74 -33.5t-49 -95.5z" />
    <glyph glyph-name="Odieresis" unicode="&#xd6;" horiz-adv-x="1337" 
d="M582 -29q-129 0 -220.5 35t-144 102t-76.5 155.5t-24 205.5q0 248 100 489q43 102 94.5 179t125 142t174 99.5t225.5 34.5q222 0 338 -124.5t116 -364.5q0 -202 -63 -404q-171 -549 -645 -549zM311 465q0 -182 64.5 -256t216.5 -74q161 0 269 104.5t177 323.5
q58 190 58 367q0 164 -66 241.5t-213 77.5q-154 0 -250.5 -86.5t-167.5 -259.5q-43 -107 -65.5 -226.5t-22.5 -211.5zM813 1690q0 -18 -7.5 -45.5t-15.5 -42.5q-17 -32 -42 -45t-69 -13q-49 0 -69.5 16.5t-20.5 49.5q0 14 6 41t15 43q15 33 40 48t72 15q50 0 70.5 -16
t20.5 -51zM1200 1690q0 -18 -7.5 -45.5t-15.5 -42.5q-17 -32 -42 -45t-68 -13q-51 0 -71 16.5t-20 49.5q0 14 6 41t15 43q15 33 40.5 48t72.5 15q50 0 70 -16t20 -51z" />
    <glyph glyph-name="multiply" unicode="&#xd7;" horiz-adv-x="1427" 
d="M1241 180l-100 -102l-408 407l-405 -407l-103 102l408 406l-408 407l103 101l405 -406l408 406l100 -101l-405 -407z" />
    <glyph glyph-name="Oslash" unicode="&#xd8;" horiz-adv-x="1337" 
d="M98 -115h-166l246 281q-61 108 -61 303q0 79 11 163.5t37.5 177.5t64.5 178.5t97 163.5t130.5 135.5t169 91.5t209.5 34q219 0 331 -115l166 191h166l-258 -295q49 -108 49 -270q0 -72 -9.5 -152t-33.5 -174t-60 -181t-93 -169.5t-128 -143t-170 -97t-214 -36.5
q-212 0 -326 97zM602 135q79 0 147.5 31t118 83t89.5 121t66 142.5t43 151.5t24.5 144t7.5 122q0 48 -6 92l-711 -811q70 -76 221 -76zM311 465q0 -77 13 -133l718 823q-66 94 -225 94q-81 0 -151 -30.5t-120.5 -81t-91.5 -118t-67 -140t-43.5 -149t-25 -142.5t-7.5 -123z
" />
    <glyph glyph-name="Ugrave" unicode="&#xd9;" horiz-adv-x="1376" 
d="M1380 1384l-170 -806q-38 -182 -89.5 -299.5t-128.5 -186.5t-172 -96t-234 -27q-224 0 -325 91.5t-101 273.5q0 109 35 266l165 784h181l-166 -786q-33 -146 -33 -264q0 -201 250 -201q134 0 214.5 42.5t133.5 144t94 290.5l166 774h180zM991 1544h-121l-209 361h217z
" />
    <glyph glyph-name="Uacute" unicode="&#xda;" horiz-adv-x="1376" 
d="M1380 1384l-170 -806q-38 -182 -89.5 -299.5t-128.5 -186.5t-172 -96t-234 -27q-224 0 -325 91.5t-101 273.5q0 109 35 266l165 784h181l-166 -786q-33 -146 -33 -264q0 -201 250 -201q134 0 214.5 42.5t133.5 144t94 290.5l166 774h180zM1237 1905l-332 -361h-150
l240 361h242z" />
    <glyph glyph-name="Ucircumflex" unicode="&#xdb;" horiz-adv-x="1376" 
d="M1380 1384l-170 -806q-38 -182 -89.5 -299.5t-128.5 -186.5t-172 -96t-234 -27q-224 0 -325 91.5t-101 273.5q0 109 35 266l165 784h181l-166 -786q-33 -146 -33 -264q0 -201 250 -201q134 0 214.5 42.5t133.5 144t94 290.5l166 774h180zM1227 1544h-140l-129 238
l-231 -238h-154l301 361h207z" />
    <glyph glyph-name="Udieresis" unicode="&#xdc;" horiz-adv-x="1376" 
d="M1380 1384l-170 -806q-38 -182 -89.5 -299.5t-128.5 -186.5t-172 -96t-234 -27q-224 0 -325 91.5t-101 273.5q0 109 35 266l165 784h181l-166 -786q-33 -146 -33 -264q0 -201 250 -201q134 0 214.5 42.5t133.5 144t94 290.5l166 774h180zM846 1690q0 -18 -7.5 -45.5
t-15.5 -42.5q-17 -32 -42 -45t-69 -13q-49 0 -69.5 16.5t-20.5 49.5q0 14 6 41t15 43q15 33 40 48t72 15q50 0 70.5 -16t20.5 -51zM1233 1690q0 -18 -7.5 -45.5t-15.5 -42.5q-17 -32 -42 -45t-68 -13q-51 0 -71 16.5t-20 49.5q0 14 6 41t15 43q15 33 40.5 48t72.5 15
q50 0 70 -16t20 -51z" />
    <glyph glyph-name="Yacute" unicode="&#xdd;" horiz-adv-x="1124" 
d="M1266 1384l-611 -849l-112 -535h-185l111 526l-246 858h189l180 -673l463 673h211zM1125 1905l-332 -361h-150l240 361h242z" />
    <glyph glyph-name="Thorn" unicode="&#xde;" horiz-adv-x="1157" 
d="M1122 854q0 -128 -31 -233t-96 -189t-177 -131t-263 -47h-254l-53 -254h-180l292 1384h181l-45 -215h227q199 0 299 -72t100 -243zM338 422h235q80 0 142.5 24t101.5 63.5t64 94t35 110t10 117.5q0 90 -50 130t-178 40h-237z" />
    <glyph glyph-name="germandbls" unicode="&#xdf;" horiz-adv-x="1149" 
d="M225 0h-170l226 1061q47 226 159.5 342.5t307.5 116.5q346 0 346 -289q0 -130 -86.5 -225.5t-243.5 -133.5q134 -17 202 -93t68 -201q0 -174 -78 -338q-129 -271 -440 -271q-75 0 -178 31l33 162q80 -41 172 -41q86 0 145.5 43.5t99.5 132.5q66 141 66 268
q0 65 -24 108.5t-71.5 65.5t-103 30.5t-133.5 8.5l33 152q73 0 136.5 18t115 53t81.5 94t30 134q0 141 -175 141q-127 0 -193.5 -77.5t-103.5 -250.5z" />
    <glyph glyph-name="agrave" unicode="&#xe0;" horiz-adv-x="1151" 
d="M92 342q0 72 13.5 151.5t40.5 163t72 158.5t102 134.5t137 94.5t172 35q175 0 278 -116l19 86h170l-222 -1049h-169l26 125q-86 -75 -164 -115.5t-168 -40.5q-161 0 -234 93.5t-73 279.5zM764 279l113 534q-53 57 -111.5 85t-140.5 28q-71 0 -132 -38.5t-102 -100.5
t-70 -140.5t-42 -157t-13 -151.5q0 -115 40 -165t128 -50q161 0 330 156zM765 1208h-121l-209 361h217z" />
    <glyph glyph-name="aacute" unicode="&#xe1;" horiz-adv-x="1151" 
d="M92 342q0 72 13.5 151.5t40.5 163t72 158.5t102 134.5t137 94.5t172 35q175 0 278 -116l19 86h170l-222 -1049h-169l26 125q-86 -75 -164 -115.5t-168 -40.5q-161 0 -234 93.5t-73 279.5zM764 279l113 534q-53 57 -111.5 85t-140.5 28q-71 0 -132 -38.5t-102 -100.5
t-70 -140.5t-42 -157t-13 -151.5q0 -115 40 -165t128 -50q161 0 330 156zM1042 1569l-332 -361h-150l240 361h242z" />
    <glyph glyph-name="acircumflex" unicode="&#xe2;" horiz-adv-x="1151" 
d="M92 342q0 72 13.5 151.5t40.5 163t72 158.5t102 134.5t137 94.5t172 35q175 0 278 -116l19 86h170l-222 -1049h-169l26 125q-86 -75 -164 -115.5t-168 -40.5q-161 0 -234 93.5t-73 279.5zM764 279l113 534q-53 57 -111.5 85t-140.5 28q-71 0 -132 -38.5t-102 -100.5
t-70 -140.5t-42 -157t-13 -151.5q0 -115 40 -165t128 -50q161 0 330 156zM1010 1208h-140l-129 238l-231 -238h-154l301 361h207z" />
    <glyph glyph-name="atilde" unicode="&#xe3;" horiz-adv-x="1151" 
d="M92 342q0 72 13.5 151.5t40.5 163t72 158.5t102 134.5t137 94.5t172 35q175 0 278 -116l19 86h170l-222 -1049h-169l26 125q-86 -75 -164 -115.5t-168 -40.5q-161 0 -234 93.5t-73 279.5zM764 279l113 534q-53 57 -111.5 85t-140.5 28q-71 0 -132 -38.5t-102 -100.5
t-70 -140.5t-42 -157t-13 -151.5q0 -115 40 -165t128 -50q161 0 330 156zM434 1221h-119q33 129 102 195.5t162 66.5q43 0 78.5 -14.5t59.5 -35.5t45 -42t44.5 -35.5t49.5 -14.5q47 0 81.5 36t49.5 93h119q-65 -262 -273 -262q-51 0 -89.5 14.5t-61 35.5t-41 42t-39 35.5
t-45.5 14.5q-42 0 -74 -33.5t-49 -95.5z" />
    <glyph glyph-name="adieresis" unicode="&#xe4;" horiz-adv-x="1151" 
d="M92 342q0 72 13.5 151.5t40.5 163t72 158.5t102 134.5t137 94.5t172 35q175 0 278 -116l19 86h170l-222 -1049h-169l26 125q-86 -75 -164 -115.5t-168 -40.5q-161 0 -234 93.5t-73 279.5zM764 279l113 534q-53 57 -111.5 85t-140.5 28q-71 0 -132 -38.5t-102 -100.5
t-70 -140.5t-42 -157t-13 -151.5q0 -115 40 -165t128 -50q161 0 330 156zM622 1354q0 -18 -7.5 -45.5t-15.5 -42.5q-17 -32 -42 -45t-69 -13q-49 0 -69.5 16.5t-20.5 49.5q0 14 6 41t15 43q15 33 40 48t72 15q50 0 70.5 -16t20.5 -51zM1009 1354q0 -18 -7.5 -45.5
t-15.5 -42.5q-17 -32 -42 -45t-68 -13q-51 0 -71 16.5t-20 49.5q0 14 6 41t15 43q15 33 40.5 48t72.5 15q50 0 70 -16t20 -51z" />
    <glyph glyph-name="aring" unicode="&#xe5;" horiz-adv-x="1151" 
d="M92 342q0 72 13.5 151.5t40.5 163t72 158.5t102 134.5t137 94.5t172 35q175 0 278 -116l19 86h170l-222 -1049h-169l26 125q-86 -75 -164 -115.5t-168 -40.5q-161 0 -234 93.5t-73 279.5zM764 279l113 534q-53 57 -111.5 85t-140.5 28q-71 0 -132 -38.5t-102 -100.5
t-70 -140.5t-42 -157t-13 -151.5q0 -115 40 -165t128 -50q161 0 330 156zM896 1382q0 -91 -58.5 -157t-164.5 -66q-84 0 -122 44t-38 112q0 90 61.5 155.5t157.5 65.5q78 0 121 -41t43 -113zM687 1241q55 0 89 36t34 97q0 80 -88 80q-56 0 -89.5 -40.5t-33.5 -90.5
q0 -41 19.5 -61.5t68.5 -20.5z" />
    <glyph glyph-name="ae" unicode="&#xe6;" horiz-adv-x="1690" 
d="M1587 504h-672q-20 -105 -20 -166q0 -123 53.5 -171t177.5 -48q134 0 263 135l106 -98q-81 -93 -177 -140t-226 -47q-263 0 -340 187q-253 -187 -457 -187q-122 0 -185 67.5t-63 196.5q0 179 133.5 288.5t343.5 125.5l258 23l11 51q6 36 6 65q0 78 -51 111t-146 33
q-188 0 -280 -117l-119 86q136 180 401 180q151 0 231 -38.5t105 -120.5q66 79 148.5 119t203.5 40q161 0 246.5 -88t85.5 -239q0 -66 -16 -152zM721 334q0 82 33 198l-170 -16q-56 -4 -102 -13t-95.5 -28.5t-83 -48.5t-55 -76t-21.5 -108q0 -60 34 -89.5t93 -29.5
q78 0 163.5 36t205.5 117q-2 13 -2 58zM946 639h502q12 58 12 109q0 188 -190 188q-140 0 -223 -100q-58 -71 -101 -197z" />
    <glyph glyph-name="ccedilla" unicode="&#xe7;" horiz-adv-x="1010" 
d="M647 -190q0 -100 -76.5 -152.5t-216.5 -52.5q-68 0 -135.5 16t-89.5 31l72 100q30 -14 79 -23.5t89 -9.5q62 0 106.5 21t44.5 72q0 77 -153 88l49 71q-326 22 -326 385q0 71 14 148t41.5 159.5t75 156t109 132t148.5 93t188 34.5q261 0 338 -192l-152 -82q-25 63 -74 94
t-129 31q-75 0 -139.5 -37.5t-108.5 -98t-75 -137.5t-45.5 -155.5t-14.5 -153.5q0 -229 215 -229q78 0 139 34t125 105l117 -96q-130 -167 -342 -193q127 -39 127 -159z" />
    <glyph glyph-name="egrave" unicode="&#xe8;" horiz-adv-x="1059" 
d="M956 504h-671q-21 -102 -21 -166q0 -123 53.5 -171t178.5 -48q133 0 262 135l106 -98q-163 -187 -389 -187q-387 0 -387 371q0 127 41.5 269.5t114.5 250.5q144 219 418 219q161 0 246 -88t85 -239q0 -66 -16 -152zM315 639h502q12 58 12 109q0 188 -190 188
q-140 0 -223 -100q-58 -71 -101 -197zM833 1208h-121l-209 361h217z" />
    <glyph glyph-name="eacute" unicode="&#xe9;" horiz-adv-x="1059" 
d="M956 504h-671q-21 -102 -21 -166q0 -123 53.5 -171t178.5 -48q133 0 262 135l106 -98q-163 -187 -389 -187q-387 0 -387 371q0 127 41.5 269.5t114.5 250.5q144 219 418 219q161 0 246 -88t85 -239q0 -66 -16 -152zM315 639h502q12 58 12 109q0 188 -190 188
q-140 0 -223 -100q-58 -71 -101 -197zM1050 1569l-332 -361h-150l240 361h242z" />
    <glyph glyph-name="ecircumflex" unicode="&#xea;" horiz-adv-x="1059" 
d="M956 504h-671q-21 -102 -21 -166q0 -123 53.5 -171t178.5 -48q133 0 262 135l106 -98q-163 -187 -389 -187q-387 0 -387 371q0 127 41.5 269.5t114.5 250.5q144 219 418 219q161 0 246 -88t85 -239q0 -66 -16 -152zM315 639h502q12 58 12 109q0 188 -190 188
q-140 0 -223 -100q-58 -71 -101 -197zM1001 1208h-140l-129 238l-231 -238h-154l301 361h207z" />
    <glyph glyph-name="edieresis" unicode="&#xeb;" horiz-adv-x="1059" 
d="M956 504h-671q-21 -102 -21 -166q0 -123 53.5 -171t178.5 -48q133 0 262 135l106 -98q-163 -187 -389 -187q-387 0 -387 371q0 127 41.5 269.5t114.5 250.5q144 219 418 219q161 0 246 -88t85 -239q0 -66 -16 -152zM315 639h502q12 58 12 109q0 188 -190 188
q-140 0 -223 -100q-58 -71 -101 -197zM639 1354q0 -18 -7.5 -45.5t-15.5 -42.5q-17 -32 -42 -45t-69 -13q-49 0 -69.5 16.5t-20.5 49.5q0 14 6 41t15 43q15 33 40 48t72 15q50 0 70.5 -16t20.5 -51zM1026 1354q0 -18 -7.5 -45.5t-15.5 -42.5q-17 -32 -42 -45t-68 -13
q-51 0 -71 16.5t-20 49.5q0 14 6 41t15 43q15 33 40.5 48t72.5 15q50 0 70 -16t20 -51z" />
    <glyph glyph-name="igrave" unicode="&#xec;" horiz-adv-x="502" 
d="M225 0h-170l221 1049h170zM499 1208h-121l-209 361h217z" />
    <glyph glyph-name="iacute" unicode="&#xed;" horiz-adv-x="502" 
d="M225 0h-170l221 1049h170zM763 1569l-332 -361h-150l240 361h242z" />
    <glyph glyph-name="icircumflex" unicode="&#xee;" horiz-adv-x="502" 
d="M225 0h-170l221 1049h170zM704 1208h-140l-129 238l-231 -238h-154l301 361h207z" />
    <glyph glyph-name="idieresis" unicode="&#xef;" horiz-adv-x="502" 
d="M225 0h-170l221 1049h170zM323 1354q0 -18 -7.5 -45.5t-15.5 -42.5q-17 -32 -42 -45t-69 -13q-49 0 -69.5 16.5t-20.5 49.5q0 14 6 41t15 43q15 33 40 48t72 15q50 0 70.5 -16t20.5 -51zM710 1354q0 -18 -7.5 -45.5t-15.5 -42.5q-17 -32 -42 -45t-68 -13q-51 0 -71 16.5
t-20 49.5q0 14 6 41t15 43q15 33 40.5 48t72.5 15q50 0 70 -16t20 -51z" />
    <glyph glyph-name="eth" unicode="&#xf0;" horiz-adv-x="1135" 
d="M850 967q-14 80 -56 178.5t-81 150.5l-209 -108l-41 80l199 102q-73 97 -138 150h172q37 -27 88 -84l160 80l41 -78l-139 -72q93 -116 148 -282t55 -357q0 -234 -95 -436q-34 -72 -76 -127t-101 -101t-141.5 -70t-184.5 -24q-359 0 -359 406q0 62 18 150t54 173
q71 167 190.5 259t286.5 92q123 0 209 -82zM266 356q0 -118 49 -177.5t168 -59.5q103 0 183.5 58t126.5 159q71 165 71 336q0 106 -54 166.5t-163 60.5q-105 0 -186.5 -62t-126.5 -169q-68 -166 -68 -312z" />
    <glyph glyph-name="ntilde" unicode="&#xf1;" horiz-adv-x="1141" 
d="M870 0h-168l132 618q26 124 26 201q0 103 -106 103q-158 0 -371 -181l-158 -741h-170l221 1049h170l-32 -156q203 186 379 186q239 0 239 -239q0 -70 -33 -222zM459 1221h-119q33 129 102 195.5t162 66.5q43 0 78.5 -14.5t59.5 -35.5t45 -42t44.5 -35.5t49.5 -14.5
q47 0 81.5 36t49.5 93h119q-65 -262 -273 -262q-51 0 -89.5 14.5t-61 35.5t-41 42t-39 35.5t-45.5 14.5q-42 0 -74 -33.5t-49 -95.5z" />
    <glyph glyph-name="ograve" unicode="&#xf2;" horiz-adv-x="1135" 
d="M92 379q0 124 48 273t145 257q148 170 381 170q182 0 279 -102.5t97 -304.5q0 -141 -53 -297.5t-160 -261.5q-144 -144 -352 -144q-205 0 -295 101.5t-90 308.5zM266 369q0 -132 51 -191t170 -59q135 0 232 110q68 78 108.5 202t40.5 241q0 132 -53.5 195t-165.5 63
q-151 0 -252 -135q-60 -80 -95.5 -198.5t-35.5 -227.5zM804 1208h-121l-209 361h217z" />
    <glyph glyph-name="oacute" unicode="&#xf3;" horiz-adv-x="1135" 
d="M92 379q0 124 48 273t145 257q148 170 381 170q182 0 279 -102.5t97 -304.5q0 -141 -53 -297.5t-160 -261.5q-144 -144 -352 -144q-205 0 -295 101.5t-90 308.5zM266 369q0 -132 51 -191t170 -59q135 0 232 110q68 78 108.5 202t40.5 241q0 132 -53.5 195t-165.5 63
q-151 0 -252 -135q-60 -80 -95.5 -198.5t-35.5 -227.5zM1058 1569l-332 -361h-150l240 361h242z" />
    <glyph glyph-name="ocircumflex" unicode="&#xf4;" horiz-adv-x="1135" 
d="M92 379q0 124 48 273t145 257q148 170 381 170q182 0 279 -102.5t97 -304.5q0 -141 -53 -297.5t-160 -261.5q-144 -144 -352 -144q-205 0 -295 101.5t-90 308.5zM266 369q0 -132 51 -191t170 -59q135 0 232 110q68 78 108.5 202t40.5 241q0 132 -53.5 195t-165.5 63
q-151 0 -252 -135q-60 -80 -95.5 -198.5t-35.5 -227.5zM1020 1208h-140l-129 238l-231 -238h-154l301 361h207z" />
    <glyph glyph-name="otilde" unicode="&#xf5;" horiz-adv-x="1135" 
d="M92 379q0 124 48 273t145 257q148 170 381 170q182 0 279 -102.5t97 -304.5q0 -141 -53 -297.5t-160 -261.5q-144 -144 -352 -144q-205 0 -295 101.5t-90 308.5zM266 369q0 -132 51 -191t170 -59q135 0 232 110q68 78 108.5 202t40.5 241q0 132 -53.5 195t-165.5 63
q-151 0 -252 -135q-60 -80 -95.5 -198.5t-35.5 -227.5zM455 1221h-119q33 129 102 195.5t162 66.5q43 0 78.5 -14.5t59.5 -35.5t45 -42t44.5 -35.5t49.5 -14.5q47 0 81.5 36t49.5 93h119q-65 -262 -273 -262q-51 0 -89.5 14.5t-61 35.5t-41 42t-39 35.5t-45.5 14.5
q-42 0 -74 -33.5t-49 -95.5z" />
    <glyph glyph-name="odieresis" unicode="&#xf6;" horiz-adv-x="1135" 
d="M92 379q0 124 48 273t145 257q148 170 381 170q182 0 279 -102.5t97 -304.5q0 -141 -53 -297.5t-160 -261.5q-144 -144 -352 -144q-205 0 -295 101.5t-90 308.5zM266 369q0 -132 51 -191t170 -59q135 0 232 110q68 78 108.5 202t40.5 241q0 132 -53.5 195t-165.5 63
q-151 0 -252 -135q-60 -80 -95.5 -198.5t-35.5 -227.5zM648 1354q0 -18 -7.5 -45.5t-15.5 -42.5q-17 -32 -42 -45t-69 -13q-49 0 -69.5 16.5t-20.5 49.5q0 14 6 41t15 43q15 33 40 48t72 15q50 0 70.5 -16t20.5 -51zM1035 1354q0 -18 -7.5 -45.5t-15.5 -42.5
q-17 -32 -42 -45t-68 -13q-51 0 -71 16.5t-20 49.5q0 14 6 41t15 43q15 33 40.5 48t72.5 15q50 0 70 -16t20 -51z" />
    <glyph glyph-name="divide" unicode="&#xf7;" horiz-adv-x="1427" 
d="M823 948h-180v180h180v-180zM1284 514h-1100v143h1100v-143zM823 43h-180v180h180v-180z" />
    <glyph glyph-name="oslash" unicode="&#xf8;" horiz-adv-x="1135" 
d="M125 -76h-152l172 197q-53 97 -53 258q0 53 8.5 112.5t29 128t50.5 133t77 124.5t104 104.5t136 71t169 26.5q156 0 249 -80l109 125h152l-187 -213q53 -103 53 -239q0 -67 -13 -141t-39.5 -154.5t-72.5 -152.5t-106 -129.5t-146.5 -91.5t-187.5 -34q-162 0 -254 66z
M868 672q0 59 -8 92l-526 -602q49 -43 149 -43q92 0 167.5 52.5t121.5 135t71 177.5t25 188zM266 369q0 -68 8 -101l531 606q-56 56 -152 56q-79 0 -145.5 -38t-110 -98t-74 -136t-44 -149t-13.5 -140z" />
    <glyph glyph-name="ugrave" unicode="&#xf9;" horiz-adv-x="1141" 
d="M268 1049h168l-129 -619q-28 -133 -28 -192t24.5 -85t79.5 -26q161 0 373 180l157 742h170l-221 -1049h-170l33 156q-206 -187 -379 -187q-126 0 -183 64.5t-57 175.5q0 63 33 221zM794 1208h-121l-209 361h217z" />
    <glyph glyph-name="uacute" unicode="&#xfa;" horiz-adv-x="1141" 
d="M268 1049h168l-129 -619q-28 -133 -28 -192t24.5 -85t79.5 -26q161 0 373 180l157 742h170l-221 -1049h-170l33 156q-206 -187 -379 -187q-126 0 -183 64.5t-57 175.5q0 63 33 221zM1052 1569l-332 -361h-150l240 361h242z" />
    <glyph glyph-name="ucircumflex" unicode="&#xfb;" horiz-adv-x="1141" 
d="M268 1049h168l-129 -619q-28 -133 -28 -192t24.5 -85t79.5 -26q161 0 373 180l157 742h170l-221 -1049h-170l33 156q-206 -187 -379 -187q-126 0 -183 64.5t-57 175.5q0 63 33 221zM1022 1208h-140l-129 238l-231 -238h-154l301 361h207z" />
    <glyph glyph-name="udieresis" unicode="&#xfc;" horiz-adv-x="1141" 
d="M268 1049h168l-129 -619q-28 -133 -28 -192t24.5 -85t79.5 -26q161 0 373 180l157 742h170l-221 -1049h-170l33 156q-206 -187 -379 -187q-126 0 -183 64.5t-57 175.5q0 63 33 221zM641 1354q0 -18 -7.5 -45.5t-15.5 -42.5q-17 -32 -42 -45t-69 -13q-49 0 -69.5 16.5
t-20.5 49.5q0 14 6 41t15 43q15 33 40 48t72 15q50 0 70.5 -16t20.5 -51zM1028 1354q0 -18 -7.5 -45.5t-15.5 -42.5q-17 -32 -42 -45t-68 -13q-51 0 -71 16.5t-20 49.5q0 14 6 41t15 43q15 33 40.5 48t72.5 15q50 0 70 -16t20 -51z" />
    <glyph glyph-name="yacute" unicode="&#xfd;" horiz-adv-x="1020" 
d="M-184 -365l63 138q48 -25 111 -25q75 0 136.5 51.5t139.5 180.5l56 90l-164 979h172l119 -783l448 783h186l-677 -1129q-74 -122 -131 -186.5t-126.5 -96.5t-164.5 -32q-93 0 -168 30zM1023 1569l-332 -361h-150l240 361h242z" />
    <glyph glyph-name="thorn" unicode="&#xfe;" horiz-adv-x="1151" 
d="M244 86l-103 -481h-170l400 1884h170l-115 -545q166 135 326 135q162 0 236.5 -94t74.5 -278q0 -71 -13.5 -150t-40.5 -163t-72 -159t-103 -135t-140 -95.5t-176 -35.5q-173 0 -274 117zM393 791l-119 -555q53 -57 109.5 -85t130.5 -28q71 0 132.5 39t104 101.5t73 140.5
t45 156.5t14.5 150.5q0 114 -39.5 164.5t-126.5 50.5q-158 0 -324 -135z" />
    <glyph glyph-name="ydieresis" unicode="&#xff;" horiz-adv-x="1020" 
d="M-184 -365l63 138q48 -25 111 -25q75 0 136.5 51.5t139.5 180.5l56 90l-164 979h172l119 -783l448 783h186l-677 -1129q-74 -122 -131 -186.5t-126.5 -96.5t-164.5 -32q-93 0 -168 30zM601 1354q0 -18 -7.5 -45.5t-15.5 -42.5q-17 -32 -42 -45t-69 -13q-49 0 -69.5 16.5
t-20.5 49.5q0 14 6 41t15 43q15 33 40 48t72 15q50 0 70.5 -16t20.5 -51zM988 1354q0 -18 -7.5 -45.5t-15.5 -42.5q-17 -32 -42 -45t-68 -13q-51 0 -71 16.5t-20 49.5q0 14 6 41t15 43q15 33 40.5 48t72.5 15q50 0 70 -16t20 -51z" />
    <glyph glyph-name="Amacron" unicode="&#x100;" horiz-adv-x="1262" 
d="M145 0h-192l747 1384h236l176 -1384h-188l-43 360h-539zM782 1202l-356 -674h434zM1157 1591h-598l29 140h598z" />
    <glyph glyph-name="amacron" unicode="&#x101;" horiz-adv-x="1151" 
d="M92 342q0 72 13.5 151.5t40.5 163t72 158.5t102 134.5t137 94.5t172 35q175 0 278 -116l19 86h170l-222 -1049h-169l26 125q-86 -75 -164 -115.5t-168 -40.5q-161 0 -234 93.5t-73 279.5zM764 279l113 534q-53 57 -111.5 85t-140.5 28q-71 0 -132 -38.5t-102 -100.5
t-70 -140.5t-42 -157t-13 -151.5q0 -115 40 -165t128 -50q161 0 330 156zM1005 1255h-598l29 140h598z" />
    <glyph glyph-name="Abreve" unicode="&#x102;" horiz-adv-x="1262" 
d="M145 0h-192l747 1384h236l176 -1384h-188l-43 360h-539zM782 1202l-356 -674h434zM1076 1804h131q-26 -127 -115 -204.5t-252 -77.5q-142 0 -212 61.5t-70 159.5q0 31 6 61h125q0 -64 39.5 -94.5t126.5 -30.5q93 0 144.5 31t76.5 94z" />
    <glyph glyph-name="abreve" unicode="&#x103;" horiz-adv-x="1151" 
d="M92 342q0 72 13.5 151.5t40.5 163t72 158.5t102 134.5t137 94.5t172 35q175 0 278 -116l19 86h170l-222 -1049h-169l26 125q-86 -75 -164 -115.5t-168 -40.5q-161 0 -234 93.5t-73 279.5zM764 279l113 534q-53 57 -111.5 85t-140.5 28q-71 0 -132 -38.5t-102 -100.5
t-70 -140.5t-42 -157t-13 -151.5q0 -115 40 -165t128 -50q161 0 330 156zM926 1468h131q-26 -127 -115 -204.5t-252 -77.5q-142 0 -212 61.5t-70 159.5q0 31 6 61h125q0 -64 39.5 -94.5t126.5 -30.5q93 0 144.5 31t76.5 94z" />
    <glyph glyph-name="Aogonek" unicode="&#x104;" horiz-adv-x="1262" 
d="M1014 -223l30 -109q-86 -63 -194 -63q-176 0 -176 164q0 167 246 262l-39 329h-539l-197 -360h-192l747 1384h236l176 -1384q-171 -59 -231 -104.5t-60 -100.5q0 -24 16 -37.5t44 -13.5q68 0 133 33zM782 1202l-356 -674h434z" />
    <glyph glyph-name="aogonek" unicode="&#x105;" horiz-adv-x="1151" 
d="M877 -223l30 -109q-86 -63 -194 -63q-176 0 -176 164q0 151 172 247l22 109q-86 -75 -164 -115.5t-168 -40.5q-161 0 -234 93.5t-73 279.5q0 72 13.5 151.5t40.5 163t72 158.5t102 134.5t137 94.5t172 35q175 0 278 -116l19 86h170l-222 -1049q-190 -77 -190 -205
q0 -24 16 -37.5t43 -13.5q67 0 134 33zM764 279l113 534q-53 57 -109.5 85t-130.5 28q-75 0 -138 -40.5t-105 -104t-72 -142.5t-43 -156t-13 -145q0 -115 40 -165t128 -50q161 0 330 156z" />
    <glyph glyph-name="Cacute" unicode="&#x106;" horiz-adv-x="1280" 
d="M1014 350l127 -114q-49 -61 -98 -105t-115 -82.5t-150.5 -58t-187.5 -19.5q-238 0 -355.5 126.5t-117.5 365.5q0 130 32.5 278t94.5 277q84 178 237 286.5t367 108.5q185 0 294.5 -67.5t168.5 -198.5l-162 -94q-43 101 -120 148.5t-206 47.5q-135 0 -239.5 -81.5
t-165.5 -215.5q-51 -109 -80 -239.5t-29 -251.5q0 -156 73 -241t206 -85q141 0 240.5 54t185.5 161zM1235 1905l-332 -361h-150l240 361h242z" />
    <glyph glyph-name="cacute" unicode="&#x107;" horiz-adv-x="1010" 
d="M745 258l117 -96q-151 -193 -397 -193q-375 0 -375 387q0 71 14 148t41.5 159.5t75 156t109 132t148.5 93t188 34.5q261 0 338 -192l-152 -82q-25 63 -74 94t-129 31q-75 0 -139.5 -37.5t-108.5 -98t-75 -137.5t-45.5 -155.5t-14.5 -153.5q0 -229 215 -229q78 0 139 34
t125 105zM1064 1569l-332 -361h-150l240 361h242z" />
    <glyph glyph-name="Ccircumflex" unicode="&#x108;" horiz-adv-x="1280" 
d="M1014 350l127 -114q-49 -61 -98 -105t-115 -82.5t-150.5 -58t-187.5 -19.5q-238 0 -355.5 126.5t-117.5 365.5q0 130 32.5 278t94.5 277q84 178 237 286.5t367 108.5q185 0 294.5 -67.5t168.5 -198.5l-162 -94q-43 101 -120 148.5t-206 47.5q-135 0 -239.5 -81.5
t-165.5 -215.5q-51 -109 -80 -239.5t-29 -251.5q0 -156 73 -241t206 -85q141 0 240.5 54t185.5 161zM1205 1544h-140l-129 238l-231 -238h-154l301 361h207z" />
    <glyph glyph-name="ccircumflex" unicode="&#x109;" horiz-adv-x="1010" 
d="M745 258l117 -96q-151 -193 -397 -193q-375 0 -375 387q0 71 14 148t41.5 159.5t75 156t109 132t148.5 93t188 34.5q261 0 338 -192l-152 -82q-25 63 -74 94t-129 31q-75 0 -139.5 -37.5t-108.5 -98t-75 -137.5t-45.5 -155.5t-14.5 -153.5q0 -229 215 -229q78 0 139 34
t125 105zM1022 1208h-140l-129 238l-231 -238h-154l301 361h207z" />
    <glyph glyph-name="Cdotaccent" unicode="&#x10a;" horiz-adv-x="1280" 
d="M1014 350l127 -114q-49 -61 -98 -105t-115 -82.5t-150.5 -58t-187.5 -19.5q-238 0 -355.5 126.5t-117.5 365.5q0 130 32.5 278t94.5 277q84 178 237 286.5t367 108.5q185 0 294.5 -67.5t168.5 -198.5l-162 -94q-43 101 -120 148.5t-206 47.5q-135 0 -239.5 -81.5
t-165.5 -215.5q-51 -109 -80 -239.5t-29 -251.5q0 -156 73 -241t206 -85q141 0 240.5 54t185.5 161zM1024 1700q0 -20 -7 -49t-15 -43q-20 -36 -48.5 -50t-74.5 -14q-53 0 -74.5 19t-21.5 55q0 46 18 86q31 70 125 70q53 0 75.5 -18t22.5 -56z" />
    <glyph glyph-name="cdotaccent" unicode="&#x10b;" horiz-adv-x="1010" 
d="M745 258l117 -96q-151 -193 -397 -193q-375 0 -375 387q0 71 14 148t41.5 159.5t75 156t109 132t148.5 93t188 34.5q261 0 338 -192l-152 -82q-25 63 -74 94t-129 31q-75 0 -139.5 -37.5t-108.5 -98t-75 -137.5t-45.5 -155.5t-14.5 -153.5q0 -229 215 -229q78 0 139 34
t125 105zM831 1364q0 -20 -7 -49t-15 -43q-20 -36 -48.5 -50t-74.5 -14q-53 0 -74.5 19t-21.5 55q0 46 18 86q31 70 125 70q53 0 75.5 -18t22.5 -56z" />
    <glyph glyph-name="Ccaron" unicode="&#x10c;" horiz-adv-x="1280" 
d="M1014 350l127 -114q-49 -61 -98 -105t-115 -82.5t-150.5 -58t-187.5 -19.5q-238 0 -355.5 126.5t-117.5 365.5q0 130 32.5 278t94.5 277q84 178 237 286.5t367 108.5q185 0 294.5 -67.5t168.5 -198.5l-162 -94q-43 101 -120 148.5t-206 47.5q-135 0 -239.5 -81.5
t-165.5 -215.5q-51 -109 -80 -239.5t-29 -251.5q0 -156 73 -241t206 -85q141 0 240.5 54t185.5 161zM631 1905h139l129 -238l232 238h153l-301 -361h-207z" />
    <glyph glyph-name="ccaron" unicode="&#x10d;" horiz-adv-x="1010" 
d="M745 258l117 -96q-151 -193 -397 -193q-375 0 -375 387q0 71 14 148t41.5 159.5t75 156t109 132t148.5 93t188 34.5q261 0 338 -192l-152 -82q-25 63 -74 94t-129 31q-75 0 -139.5 -37.5t-108.5 -98t-75 -137.5t-45.5 -155.5t-14.5 -153.5q0 -229 215 -229q78 0 139 34
t125 105zM444 1569h139l129 -238l232 238h153l-301 -361h-207z" />
    <glyph glyph-name="Dcaron" unicode="&#x10e;" horiz-adv-x="1266" 
d="M1219 926q0 -79 -14.5 -175.5t-43 -203t-81 -207t-119.5 -166.5q-181 -174 -541 -174h-365l293 1384h342q135 0 230.5 -23t164 -75.5t101.5 -141.5t33 -218zM272 168h150q139 0 236.5 30t164.5 97q87 87 144 275t57 354q0 113 -33.5 174.5t-115 90t-230.5 28.5h-149z
M522 1905h139l129 -238l232 238h153l-301 -361h-207z" />
    <glyph glyph-name="dcaron" unicode="&#x10f;" horiz-adv-x="1227" 
d="M88 342q0 128 46.5 281t131.5 268q143 188 381 188q157 0 260 -116l111 526h170l-314 -1489h-169l20 104q-80 -64 -158 -99.5t-168 -35.5q-162 0 -236.5 94t-74.5 279zM395 780q-61 -88 -94 -206t-33 -236q0 -115 39 -165t127 -50q158 0 324 135l119 555
q-53 57 -109.5 85t-130.5 28q-144 0 -242 -146zM1544 1489l-223 -361h-129l133 361h219z" />
    <glyph glyph-name="Dcroat" unicode="&#x110;" horiz-adv-x="1266" 
d="M1219 926q0 -79 -14.5 -175.5t-43 -203t-81 -207t-119.5 -166.5q-181 -174 -541 -174h-365l131 627h-133l29 141h135l131 616h342q135 0 230.5 -23t164 -75.5t101.5 -141.5t33 -218zM272 168h150q139 0 236.5 30t164.5 97q87 87 144 275t57 354q0 113 -33.5 174.5
t-115 90t-230.5 28.5h-149l-97 -449h330l-29 -141h-331z" />
    <glyph glyph-name="dcroat" unicode="&#x111;" horiz-adv-x="1151" 
d="M88 342q0 128 46.5 281t131.5 268q143 188 381 188q157 0 260 -116l47 231h-292l30 139h293l33 156h170l-33 -156h135l-30 -139h-136l-250 -1194h-169l20 104q-80 -64 -158 -99.5t-168 -35.5q-162 0 -236.5 94t-74.5 279zM395 780q-61 -88 -94 -206t-33 -236
q0 -115 39 -165t127 -50q158 0 324 135l119 555q-53 57 -109.5 85t-130.5 28q-144 0 -242 -146z" />
    <glyph glyph-name="Emacron" unicode="&#x112;" horiz-adv-x="1130" 
d="M897 0h-829l292 1384h830l-35 -167h-649l-86 -404h555l-35 -168h-555l-102 -477h649zM1118 1591h-598l29 140h598z" />
    <glyph glyph-name="emacron" unicode="&#x113;" horiz-adv-x="1059" 
d="M956 504h-671q-21 -102 -21 -166q0 -123 53.5 -171t178.5 -48q133 0 262 135l106 -98q-163 -187 -389 -187q-387 0 -387 371q0 127 41.5 269.5t114.5 250.5q144 219 418 219q161 0 246 -88t85 -239q0 -66 -16 -152zM315 639h502q12 58 12 109q0 188 -190 188
q-140 0 -223 -100q-58 -71 -101 -197zM1001 1255h-598l29 140h598z" />
    <glyph glyph-name="Ebreve" unicode="&#x114;" horiz-adv-x="1130" 
d="M897 0h-829l292 1384h830l-35 -167h-649l-86 -404h555l-35 -168h-555l-102 -477h649zM1024 1804h131q-26 -127 -115 -204.5t-252 -77.5q-142 0 -212 61.5t-70 159.5q0 31 6 61h125q0 -64 39.5 -94.5t126.5 -30.5q93 0 144.5 31t76.5 94z" />
    <glyph glyph-name="ebreve" unicode="&#x115;" horiz-adv-x="1059" 
d="M956 504h-671q-21 -102 -21 -166q0 -123 53.5 -171t178.5 -48q133 0 262 135l106 -98q-163 -187 -389 -187q-387 0 -387 371q0 127 41.5 269.5t114.5 250.5q144 219 418 219q161 0 246 -88t85 -239q0 -66 -16 -152zM315 639h502q12 58 12 109q0 188 -190 188
q-140 0 -223 -100q-58 -71 -101 -197zM917 1468h131q-26 -127 -115 -204.5t-252 -77.5q-142 0 -212 61.5t-70 159.5q0 31 6 61h125q0 -64 39.5 -94.5t126.5 -30.5q93 0 144.5 31t76.5 94z" />
    <glyph glyph-name="Edotaccent" unicode="&#x116;" horiz-adv-x="1130" 
d="M897 0h-829l292 1384h830l-35 -167h-649l-86 -404h555l-35 -168h-555l-102 -477h649zM927 1700q0 -20 -7 -49t-15 -43q-20 -36 -48.5 -50t-74.5 -14q-53 0 -74.5 19t-21.5 55q0 46 18 86q31 70 125 70q53 0 75.5 -18t22.5 -56z" />
    <glyph glyph-name="edotaccent" unicode="&#x117;" horiz-adv-x="1059" 
d="M956 504h-671q-21 -102 -21 -166q0 -123 53.5 -171t178.5 -48q133 0 262 135l106 -98q-163 -187 -389 -187q-387 0 -387 371q0 127 41.5 269.5t114.5 250.5q144 219 418 219q161 0 246 -88t85 -239q0 -66 -16 -152zM315 639h502q12 58 12 109q0 188 -190 188
q-140 0 -223 -100q-58 -71 -101 -197zM841 1364q0 -20 -7 -49t-15 -43q-20 -36 -48.5 -50t-74.5 -14q-53 0 -74.5 19t-21.5 55q0 46 18 86q31 70 125 70q53 0 75.5 -18t22.5 -56z" />
    <glyph glyph-name="Eogonek" unicode="&#x118;" horiz-adv-x="1130" 
d="M799 -223l30 -109q-86 -63 -194 -63q-176 0 -176 164q0 144 176 231h-567l292 1384h830l-35 -167h-649l-86 -404h555l-35 -168h-555l-102 -477h649l-35 -168q-171 -59 -231 -104.5t-60 -100.5q0 -24 16 -37.5t44 -13.5q68 0 133 33z" />
    <glyph glyph-name="eogonek" unicode="&#x119;" horiz-adv-x="1059" 
d="M764 -223l31 -109q-86 -63 -195 -63q-176 0 -176 164q0 104 88 202q-8 -2 -37 -2q-387 0 -387 371q0 127 41.5 269.5t114.5 250.5q144 219 418 219q161 0 246 -88t85 -239q0 -66 -16 -152l-21 -96h-671q-21 -102 -21 -166q0 -123 53.5 -171t178.5 -48q133 0 262 135
l106 -98q-59 -68 -119 -109q-61 -42 -99 -78.5t-53 -68.5t-18.5 -50.5t-3.5 -48.5q0 -57 60 -57q68 0 133 33zM315 639h502q12 58 12 109q0 188 -190 188q-140 0 -223 -100q-58 -71 -101 -197z" />
    <glyph glyph-name="Ecaron" unicode="&#x11a;" horiz-adv-x="1130" 
d="M897 0h-829l292 1384h830l-35 -167h-649l-86 -404h555l-35 -168h-555l-102 -477h649zM532 1905h139l129 -238l232 238h153l-301 -361h-207z" />
    <glyph glyph-name="ecaron" unicode="&#x11b;" horiz-adv-x="1059" 
d="M956 504h-671q-21 -102 -21 -166q0 -123 53.5 -171t178.5 -48q133 0 262 135l106 -98q-163 -187 -389 -187q-387 0 -387 371q0 127 41.5 269.5t114.5 250.5q144 219 418 219q161 0 246 -88t85 -239q0 -66 -16 -152zM315 639h502q12 58 12 109q0 188 -190 188
q-140 0 -223 -100q-58 -71 -101 -197zM427 1569h139l129 -238l232 238h153l-301 -361h-207z" />
    <glyph glyph-name="Gcircumflex" unicode="&#x11c;" horiz-adv-x="1362" 
d="M1325 1137l-172 -86q-41 106 -114 152t-189 46q-82 0 -154 -30t-125.5 -84t-93.5 -117.5t-69 -140.5q-42 -108 -63 -222.5t-21 -195.5q0 -166 75 -245t246 -79q72 0 140.5 19.5t166.5 60.5l68 320h-330l35 167h510l-125 -596q-136 -68 -248.5 -101.5t-234.5 -33.5
q-251 0 -374.5 118.5t-123.5 375.5q0 232 96 467q42 101 99.5 184t135 151.5t180 107t220.5 38.5q179 0 292 -66.5t173 -209.5zM1250 1544h-140l-129 238l-231 -238h-154l301 361h207z" />
    <glyph glyph-name="gcircumflex" unicode="&#x11d;" horiz-adv-x="1151" 
d="M1094 1049l-224 -1057q-45 -213 -163 -300t-351 -87t-362 98l86 131q122 -86 282 -86q162 0 238 58.5t111 224.5l22 104q-72 -60 -160 -97.5t-167 -37.5q-316 0 -316 373q0 94 22.5 191.5t69.5 189.5t112 164.5t156.5 116.5t196.5 44q64 0 137.5 -32t122.5 -84l19 86h168
zM766 289l111 524q-105 113 -240 113q-88 0 -161 -56.5t-116 -143t-66.5 -180t-23.5 -177.5q0 -114 39 -164.5t131 -50.5q159 0 326 135zM1022 1208h-140l-129 238l-231 -238h-154l301 361h207z" />
    <glyph glyph-name="Gbreve" unicode="&#x11e;" horiz-adv-x="1362" 
d="M1325 1137l-172 -86q-41 106 -114 152t-189 46q-82 0 -154 -30t-125.5 -84t-93.5 -117.5t-69 -140.5q-42 -108 -63 -222.5t-21 -195.5q0 -166 75 -245t246 -79q72 0 140.5 19.5t166.5 60.5l68 320h-330l35 167h510l-125 -596q-136 -68 -248.5 -101.5t-234.5 -33.5
q-251 0 -374.5 118.5t-123.5 375.5q0 232 96 467q42 101 99.5 184t135 151.5t180 107t220.5 38.5q179 0 292 -66.5t173 -209.5zM1159 1804h131q-26 -127 -115 -204.5t-252 -77.5q-142 0 -212 61.5t-70 159.5q0 31 6 61h125q0 -64 39.5 -94.5t126.5 -30.5q93 0 144.5 31
t76.5 94z" />
    <glyph glyph-name="gbreve" unicode="&#x11f;" horiz-adv-x="1151" 
d="M1094 1049l-224 -1057q-45 -213 -163 -300t-351 -87t-362 98l86 131q122 -86 282 -86q162 0 238 58.5t111 224.5l22 104q-72 -60 -160 -97.5t-167 -37.5q-316 0 -316 373q0 94 22.5 191.5t69.5 189.5t112 164.5t156.5 116.5t196.5 44q64 0 137.5 -32t122.5 -84l19 86h168
zM766 289l111 524q-105 113 -240 113q-88 0 -161 -56.5t-116 -143t-66.5 -180t-23.5 -177.5q0 -114 39 -164.5t131 -50.5q159 0 326 135zM944 1468h131q-26 -127 -115 -204.5t-252 -77.5q-142 0 -212 61.5t-70 159.5q0 31 6 61h125q0 -64 39.5 -94.5t126.5 -30.5
q93 0 144.5 31t76.5 94z" />
    <glyph glyph-name="Gdotaccent" unicode="&#x120;" horiz-adv-x="1362" 
d="M1325 1137l-172 -86q-41 106 -114 152t-189 46q-82 0 -154 -30t-125.5 -84t-93.5 -117.5t-69 -140.5q-42 -108 -63 -222.5t-21 -195.5q0 -166 75 -245t246 -79q72 0 140.5 19.5t166.5 60.5l68 320h-330l35 167h510l-125 -596q-136 -68 -248.5 -101.5t-234.5 -33.5
q-251 0 -374.5 118.5t-123.5 375.5q0 232 96 467q42 101 99.5 184t135 151.5t180 107t220.5 38.5q179 0 292 -66.5t173 -209.5zM1034 1700q0 -20 -7 -49t-15 -43q-20 -36 -48.5 -50t-74.5 -14q-53 0 -74.5 19t-21.5 55q0 46 18 86q31 70 125 70q53 0 75.5 -18t22.5 -56z" />
    <glyph glyph-name="gdotaccent" unicode="&#x121;" horiz-adv-x="1151" 
d="M1094 1049l-224 -1057q-45 -213 -163 -300t-351 -87t-362 98l86 131q122 -86 282 -86q162 0 238 58.5t111 224.5l22 104q-72 -60 -160 -97.5t-167 -37.5q-316 0 -316 373q0 94 22.5 191.5t69.5 189.5t112 164.5t156.5 116.5t196.5 44q64 0 137.5 -32t122.5 -84l19 86h168
zM766 289l111 524q-105 113 -240 113q-88 0 -161 -56.5t-116 -143t-66.5 -180t-23.5 -177.5q0 -114 39 -164.5t131 -50.5q159 0 326 135zM820 1364q0 -20 -7 -49t-15 -43q-20 -36 -48.5 -50t-74.5 -14q-53 0 -74.5 19t-21.5 55q0 46 18 86q31 70 125 70q53 0 75.5 -18
t22.5 -56z" />
    <glyph glyph-name="Gcommaaccent" unicode="&#x122;" horiz-adv-x="1362" 
d="M1325 1137l-172 -86q-41 106 -114 152t-189 46q-82 0 -154 -30t-125.5 -84t-93.5 -117.5t-69 -140.5q-42 -108 -63 -222.5t-21 -195.5q0 -166 75 -245t246 -79q72 0 140.5 19.5t166.5 60.5l68 320h-330l35 167h510l-125 -596q-136 -68 -248.5 -101.5t-234.5 -33.5
q-251 0 -374.5 118.5t-123.5 375.5q0 232 96 467q42 101 99.5 184t135 151.5t180 107t220.5 38.5q179 0 292 -66.5t173 -209.5zM526 -510h-102q89 93 115 162q-48 0 -70 16.5t-22 52.5q0 89 53 129q32 27 92 27q102 0 102 -86q0 -69 -45 -147q-42 -71 -123 -154z" />
    <glyph glyph-name="gcommaaccent" unicode="&#x123;" horiz-adv-x="1151" 
d="M1094 1049l-224 -1057q-45 -213 -163 -300t-351 -87t-362 98l86 131q122 -86 282 -86q162 0 238 58.5t111 224.5l22 104q-72 -60 -160 -97.5t-167 -37.5q-316 0 -316 373q0 94 22.5 191.5t69.5 189.5t112 164.5t156.5 116.5t196.5 44q64 0 137.5 -32t122.5 -84l19 86h168
zM766 289l111 524q-105 113 -240 113q-88 0 -161 -56.5t-116 -143t-66.5 -180t-23.5 -177.5q0 -114 39 -164.5t131 -50.5q159 0 326 135zM756 1552h103q-88 -88 -115 -161q92 0 92 -70q0 -87 -53 -129q-35 -27 -92 -27q-103 0 -103 86q0 70 45 148q45 73 123 153z" />
    <glyph glyph-name="Hcircumflex" unicode="&#x124;" horiz-adv-x="1337" 
d="M1047 0h-181l133 633h-618l-133 -633h-180l292 1384h181l-123 -583h618l123 583h180zM1213 1544h-140l-129 238l-231 -238h-154l301 361h207z" />
    <glyph glyph-name="hcircumflex" unicode="&#x125;" horiz-adv-x="1141" 
d="M870 0h-168l132 618q26 124 26 199q0 51 -24 78t-82 27q-73 0 -171.5 -48t-199.5 -133l-158 -741h-170l316 1489h170l-127 -596q203 186 379 186q239 0 239 -239q0 -70 -33 -222zM1158 1544h-140l-129 238l-231 -238h-154l301 361h207z" />
    <glyph glyph-name="Hbar" unicode="&#x126;" horiz-adv-x="1337" 
d="M1047 0h-181l133 633h-618l-133 -633h-180l215 1022h-148l31 143h147l47 219h181l-47 -219h618l47 219h180l-47 -219h148l-31 -143h-147zM418 801h618l45 221h-618z" />
    <glyph glyph-name="hbar" unicode="&#x127;" horiz-adv-x="1141" 
d="M741 1194h-264l-63 -301q203 186 379 186q239 0 239 -239q0 -70 -33 -222l-129 -618h-168l132 618q26 124 26 199q0 49 -27 72.5t-88 23.5q-74 0 -169 -44.5t-193 -127.5l-158 -741h-170l252 1194h-164l31 139h164l33 156h170l-33 -156h264z" />
    <glyph glyph-name="Itilde" unicode="&#x128;" horiz-adv-x="754" 
d="M575 160l-32 -160h-553l33 160h186l227 1067h-186l33 157h553l-33 -157h-187l-227 -1067h186zM345 1557h-119q33 129 102 195.5t162 66.5q43 0 78.5 -14.5t59.5 -35.5t45 -42t44.5 -35.5t49.5 -14.5q47 0 81.5 36t49.5 93h119q-65 -262 -273 -262q-51 0 -89.5 14.5
t-61 35.5t-41 42t-39 35.5t-45.5 14.5q-42 0 -74 -33.5t-49 -95.5z" />
    <glyph glyph-name="itilde" unicode="&#x129;" horiz-adv-x="502" 
d="M225 0h-170l221 1049h170zM150 1221h-119q33 129 102 195.5t162 66.5q43 0 78.5 -14.5t59.5 -35.5t45 -42t44.5 -35.5t49.5 -14.5q47 0 81.5 36t49.5 93h119q-65 -262 -273 -262q-51 0 -89.5 14.5t-61 35.5t-41 42t-39 35.5t-45.5 14.5q-42 0 -74 -33.5t-49 -95.5z" />
    <glyph glyph-name="Imacron" unicode="&#x12a;" horiz-adv-x="754" 
d="M575 160l-32 -160h-553l33 160h186l227 1067h-186l33 157h553l-33 -157h-187l-227 -1067h186zM902 1591h-598l29 140h598z" />
    <glyph glyph-name="imacron" unicode="&#x12b;" horiz-adv-x="502" 
d="M225 0h-170l221 1049h170zM707 1255h-598l29 140h598z" />
    <glyph glyph-name="Ibreve" unicode="&#x12c;" horiz-adv-x="754" 
d="M575 160l-32 -160h-553l33 160h186l227 1067h-186l33 157h553l-33 -157h-187l-227 -1067h186zM845 1804h131q-26 -127 -115 -204.5t-252 -77.5q-142 0 -212 61.5t-70 159.5q0 31 6 61h125q0 -64 39.5 -94.5t126.5 -30.5q93 0 144.5 31t76.5 94z" />
    <glyph glyph-name="ibreve" unicode="&#x12d;" horiz-adv-x="502" 
d="M225 0h-170l221 1049h170zM616 1468h131q-26 -127 -115 -204.5t-252 -77.5q-142 0 -212 61.5t-70 159.5q0 31 6 61h125q0 -64 39.5 -94.5t126.5 -30.5q93 0 144.5 31t76.5 94z" />
    <glyph glyph-name="Iogonek" unicode="&#x12e;" horiz-adv-x="754" 
d="M444 -223l31 -109q-86 -63 -194 -63q-177 0 -177 164q0 143 177 231h-291l33 160h186l227 1067h-186l33 157h553l-33 -157h-187l-227 -1067h186l-32 -160q-171 -59 -231 -104.5t-60 -100.5q0 -51 59 -51q68 0 133 33z" />
    <glyph glyph-name="iogonek" unicode="&#x12f;" horiz-adv-x="502" 
d="M446 1049l-221 -1049q-190 -77 -190 -205q0 -51 59 -51q68 0 133 33l31 -109q-86 -63 -195 -63q-176 0 -176 164q0 148 170 247l219 1033h170zM297 1278q0 71 32 105t101 34q92 0 92 -67q0 -138 -129 -138q-55 0 -75.5 17t-20.5 49z" />
    <glyph glyph-name="Idotaccent" unicode="&#x130;" horiz-adv-x="754" 
d="M575 160l-32 -160h-553l33 160h186l227 1067h-186l33 157h553l-33 -157h-187l-227 -1067h186zM740 1700q0 -20 -7 -49t-15 -43q-20 -36 -48.5 -50t-74.5 -14q-53 0 -74.5 19t-21.5 55q0 46 18 86q31 70 125 70q53 0 75.5 -18t22.5 -56z" />
    <glyph glyph-name="dotlessi" unicode="&#x131;" horiz-adv-x="502" 
d="M225 0h-170l221 1049h170z" />
    <glyph glyph-name="IJ" unicode="&#x132;" horiz-adv-x="1559" 
d="M575 160l-32 -160h-553l33 160h186l227 1067h-186l33 157h553l-33 -157h-187l-227 -1067h186zM1560 1384l-213 -1007q-48 -224 -149.5 -316t-298.5 -92q-131 0 -240 51l72 156q72 -43 180 -43q122 0 177.5 70t95.5 250l196 931h180z" />
    <glyph glyph-name="ij" unicode="&#x133;" horiz-adv-x="1028" 
d="M225 0h-170l221 1049h170zM297 1278q0 71 32 105t101 34q92 0 92 -67q0 -138 -129 -138q-55 0 -75.5 17t-20.5 49zM965 1049l-232 -1094q-37 -181 -123.5 -265.5t-254.5 -84.5q-91 0 -181 30l72 142q66 -29 143 -29q75 0 114 54.5t65 172.5l227 1074h170zM826 1282
q0 135 133 135q92 0 92 -71q0 -65 -33 -99.5t-96 -34.5q-55 0 -75.5 17.5t-20.5 52.5z" />
    <glyph glyph-name="Jcircumflex" unicode="&#x134;" horiz-adv-x="866" 
d="M868 1384l-213 -1007q-48 -224 -149.5 -316t-298.5 -92q-131 0 -240 51l72 156q72 -43 180 -43q122 0 177.5 70t95.5 250l196 931h180zM1125 1544h-140l-129 238l-231 -238h-154l301 361h207z" />
    <glyph glyph-name="jcircumflex" unicode="&#x135;" horiz-adv-x="526" 
d="M463 1049l-232 -1094q-37 -181 -123.5 -265.5t-254.5 -84.5q-91 0 -181 30l72 142q66 -29 143 -29q75 0 114 54.5t65 172.5l227 1074h170zM722 1208h-140l-129 238l-231 -238h-154l301 361h207z" />
    <glyph glyph-name="Kcommaaccent" unicode="&#x136;" horiz-adv-x="1239" 
d="M1075 0h-219l-338 625l-172 -158l-98 -467h-180l292 1384h181l-138 -653l695 653h235l-680 -641zM438 -510h-102q89 93 115 162q-48 0 -70 16.5t-22 52.5q0 89 53 129q32 27 92 27q102 0 102 -86q0 -69 -45 -147q-42 -71 -123 -154z" />
    <glyph glyph-name="kcommaaccent" unicode="&#x137;" horiz-adv-x="1028" 
d="M870 0h-192l-238 477l-141 -131l-74 -346h-170l316 1489h170l-195 -914l504 474h219l-502 -463zM364 -510h-102q89 93 115 162q-48 0 -70 16.5t-22 52.5q0 89 53 129q32 27 92 27q102 0 102 -86q0 -69 -45 -147q-42 -71 -123 -154z" />
    <glyph glyph-name="kgreenlandic" unicode="&#x138;" horiz-adv-x="1028" 
d="M870 0h-192l-238 477l-141 -131l-74 -346h-170l221 1049h170l-100 -474l445 418q40 38 77.5 55t89.5 17q57 0 101 -16l-58 -144q-24 8 -45 8q-30 0 -65 -30l-324 -295z" />
    <glyph glyph-name="Lacute" unicode="&#x139;" horiz-adv-x="1018" 
d="M862 0h-794l292 1384h181l-258 -1216h614zM1097 1905l-332 -361h-150l240 361h242z" />
    <glyph glyph-name="lacute" unicode="&#x13a;" horiz-adv-x="518" 
d="M233 0h-170l316 1489h170zM841 1948l-332 -361h-150l240 361h242z" />
    <glyph glyph-name="Lcommaaccent" unicode="&#x13b;" horiz-adv-x="1018" 
d="M862 0h-794l292 1384h181l-258 -1216h614zM385 -510h-102q89 93 115 162q-48 0 -70 16.5t-22 52.5q0 89 53 129q31 27 92 27q102 0 102 -86q0 -69 -45 -147q-42 -71 -123 -154z" />
    <glyph glyph-name="lcommaaccent" unicode="&#x13c;" horiz-adv-x="518" 
d="M233 0h-170l316 1489h170zM50 -510h-102q89 93 115 162q-48 0 -70 16.5t-22 52.5q0 89 53 129q31 27 92 27q102 0 102 -86q0 -69 -45 -147q-42 -71 -123 -154z" />
    <glyph glyph-name="Lcaron" unicode="&#x13d;" horiz-adv-x="1018" 
d="M862 0h-794l292 1384h181l-258 -1216h614zM935 1386l-223 -361h-129l133 361h219z" />
    <glyph glyph-name="lcaron" unicode="&#x13e;" horiz-adv-x="596" 
d="M233 0h-170l316 1489h170zM906 1489l-223 -361h-129l133 361h219z" />
    <glyph glyph-name="Ldot" unicode="&#x13f;" horiz-adv-x="1018" 
d="M862 0h-794l292 1384h181l-258 -1216h614zM929 790q0 -20 -7 -49t-15 -43q-20 -36 -48.5 -50t-74.5 -14q-53 0 -74.5 19t-21.5 55q0 46 18 86q31 70 125 70q53 0 75.5 -18t22.5 -56z" />
    <glyph glyph-name="ldot" unicode="&#x140;" horiz-adv-x="702" 
d="M233 0h-170l316 1489h170zM781 790q0 -20 -7 -49t-15 -43q-20 -36 -48.5 -50t-74.5 -14q-53 0 -74.5 19t-21.5 55q0 46 18 86q31 70 125 70q53 0 75.5 -18t22.5 -56z" />
    <glyph glyph-name="Lslash" unicode="&#x141;" horiz-adv-x="1018" 
d="M674 856l-289 -203l-102 -485h614l-35 -168h-794l108 518l-174 -123l37 174l174 121l147 694h181l-119 -557l289 203z" />
    <glyph glyph-name="lslash" unicode="&#x142;" horiz-adv-x="518" 
d="M233 0h-170l130 606l-175 -127l37 170l172 127l152 713h170l-125 -588l172 127l-35 -170l-172 -127z" />
    <glyph glyph-name="Nacute" unicode="&#x143;" horiz-adv-x="1358" 
d="M1069 0h-199l-376 1188l-252 -1188h-174l292 1384h250l346 -1087l232 1087h174zM1260 1905l-332 -361h-150l240 361h242z" />
    <glyph glyph-name="nacute" unicode="&#x144;" horiz-adv-x="1141" 
d="M870 0h-168l132 618q26 124 26 201q0 103 -106 103q-158 0 -371 -181l-158 -741h-170l221 1049h170l-32 -156q203 186 379 186q239 0 239 -239q0 -70 -33 -222zM1066 1569l-332 -361h-150l240 361h242z" />
    <glyph glyph-name="Ncommaaccent" unicode="&#x145;" horiz-adv-x="1358" 
d="M1069 0h-199l-376 1188l-252 -1188h-174l292 1384h250l346 -1087l232 1087h174zM493 -510h-102q89 93 115 162q-48 0 -70 16.5t-22 52.5q0 89 53 129q31 27 92 27q102 0 102 -86q0 -69 -45 -147q-42 -71 -123 -154z" />
    <glyph glyph-name="ncommaaccent" unicode="&#x146;" horiz-adv-x="1141" 
d="M870 0h-168l132 618q26 124 26 201q0 103 -106 103q-158 0 -371 -181l-158 -741h-170l221 1049h170l-32 -156q203 186 379 186q239 0 239 -239q0 -70 -33 -222zM368 -510h-102q89 93 115 162q-48 0 -70 16.5t-22 52.5q0 89 53 129q32 27 92 27q102 0 102 -86
q0 -69 -45 -147q-42 -71 -123 -154z" />
    <glyph glyph-name="Ncaron" unicode="&#x147;" horiz-adv-x="1358" 
d="M1069 0h-199l-376 1188l-252 -1188h-174l292 1384h250l346 -1087l232 1087h174zM627 1905h139l129 -238l232 238h153l-301 -361h-207z" />
    <glyph glyph-name="ncaron" unicode="&#x148;" horiz-adv-x="1141" 
d="M870 0h-168l132 618q26 124 26 201q0 103 -106 103q-158 0 -371 -181l-158 -741h-170l221 1049h170l-32 -156q203 186 379 186q239 0 239 -239q0 -70 -33 -222zM491 1569h139l129 -238l232 238h153l-301 -361h-207z" />
    <glyph glyph-name="napostrophe" unicode="&#x149;" horiz-adv-x="1243" 
d="M972 0h-168l132 618q26 124 26 201q0 103 -106 103q-158 0 -371 -181l-158 -741h-170l221 1049h170l-32 -156q203 186 379 186q239 0 239 -239q0 -70 -33 -222zM337 1327q0 -75 -55 -201q-59 -138 -142 -217h-102q50 50 91 141t50 138q-46 0 -68 16.5t-22 52.5
q0 19 7.5 49t15.5 44q15 32 41.5 47.5t78.5 15.5q105 0 105 -86z" />
    <glyph glyph-name="Eng" unicode="&#x14a;" horiz-adv-x="1358" 
d="M1362 1384l-303 -1429q-19 -87 -49 -151t-65.5 -102t-83 -60t-92.5 -29.5t-103 -7.5q-124 0 -217 51l71 156q62 -43 154 -43q94 0 143.5 52.5t73.5 180.5l-397 1186l-252 -1188h-174l292 1384h250l355 -1048l223 1048h174z" />
    <glyph glyph-name="eng" unicode="&#x14b;" horiz-adv-x="1141" 
d="M383 741l-158 -741h-170l221 1049h170l-32 -156q203 186 379 186q239 0 239 -239q0 -70 -33 -222l-137 -655q-38 -182 -125 -270t-256 -88q-96 0 -180 30l72 142q66 -29 143 -29q75 0 117 58t65 176l136 636q26 124 26 201q0 103 -106 103q-158 0 -371 -181z" />
    <glyph glyph-name="Omacron" unicode="&#x14c;" horiz-adv-x="1337" 
d="M582 -29q-129 0 -220.5 35t-144 102t-76.5 155.5t-24 205.5q0 248 100 489q43 102 94.5 179t125 142t174 99.5t225.5 34.5q222 0 338 -124.5t116 -364.5q0 -202 -63 -404q-171 -549 -645 -549zM311 465q0 -182 64.5 -256t216.5 -74q161 0 269 104.5t177 323.5
q58 190 58 367q0 164 -66 241.5t-213 77.5q-154 0 -250.5 -86.5t-167.5 -259.5q-43 -107 -65.5 -226.5t-22.5 -211.5zM1165 1591h-598l29 140h598z" />
    <glyph glyph-name="omacron" unicode="&#x14d;" horiz-adv-x="1135" 
d="M92 379q0 124 48 273t145 257q148 170 381 170q182 0 279 -102.5t97 -304.5q0 -141 -53 -297.5t-160 -261.5q-144 -144 -352 -144q-205 0 -295 101.5t-90 308.5zM266 369q0 -132 51 -191t170 -59q135 0 232 110q68 78 108.5 202t40.5 241q0 132 -53.5 195t-165.5 63
q-151 0 -252 -135q-60 -80 -95.5 -198.5t-35.5 -227.5zM1001 1255h-598l29 140h598z" />
    <glyph glyph-name="Obreve" unicode="&#x14e;" horiz-adv-x="1337" 
d="M582 -29q-129 0 -220.5 35t-144 102t-76.5 155.5t-24 205.5q0 248 100 489q43 102 94.5 179t125 142t174 99.5t225.5 34.5q222 0 338 -124.5t116 -364.5q0 -202 -63 -404q-171 -549 -645 -549zM311 465q0 -182 64.5 -256t216.5 -74q161 0 269 104.5t177 323.5
q58 190 58 367q0 164 -66 241.5t-213 77.5q-154 0 -250.5 -86.5t-167.5 -259.5q-43 -107 -65.5 -226.5t-22.5 -211.5zM1127 1804h131q-26 -127 -115 -204.5t-252 -77.5q-142 0 -212 61.5t-70 159.5q0 31 6 61h125q0 -64 39.5 -94.5t126.5 -30.5q93 0 144.5 31t76.5 94z" />
    <glyph glyph-name="obreve" unicode="&#x14f;" horiz-adv-x="1135" 
d="M92 379q0 124 48 273t145 257q148 170 381 170q182 0 279 -102.5t97 -304.5q0 -141 -53 -297.5t-160 -261.5q-144 -144 -352 -144q-205 0 -295 101.5t-90 308.5zM266 369q0 -132 51 -191t170 -59q135 0 232 110q68 78 108.5 202t40.5 241q0 132 -53.5 195t-165.5 63
q-151 0 -252 -135q-60 -80 -95.5 -198.5t-35.5 -227.5zM936 1468h131q-26 -127 -115 -204.5t-252 -77.5q-142 0 -212 61.5t-70 159.5q0 31 6 61h125q0 -64 39.5 -94.5t126.5 -30.5q93 0 144.5 31t76.5 94z" />
    <glyph glyph-name="Ohungarumlaut" unicode="&#x150;" horiz-adv-x="1337" 
d="M582 -29q-129 0 -220.5 35t-144 102t-76.5 155.5t-24 205.5q0 248 100 489q43 102 94.5 179t125 142t174 99.5t225.5 34.5q222 0 338 -124.5t116 -364.5q0 -202 -63 -404q-171 -549 -645 -549zM311 465q0 -182 64.5 -256t216.5 -74q161 0 269 104.5t177 323.5
q58 190 58 367q0 164 -66 241.5t-213 77.5q-154 0 -250.5 -86.5t-167.5 -259.5q-43 -107 -65.5 -226.5t-22.5 -211.5zM1411 1905l-330 -361h-151l237 361h244zM1071 1905l-330 -361h-151l235 361h246z" />
    <glyph glyph-name="ohungarumlaut" unicode="&#x151;" horiz-adv-x="1135" 
d="M92 379q0 124 48 273t145 257q148 170 381 170q182 0 279 -102.5t97 -304.5q0 -141 -53 -297.5t-160 -261.5q-144 -144 -352 -144q-205 0 -295 101.5t-90 308.5zM266 369q0 -132 51 -191t170 -59q135 0 232 110q68 78 108.5 202t40.5 241q0 132 -53.5 195t-165.5 63
q-151 0 -252 -135q-60 -80 -95.5 -198.5t-35.5 -227.5zM1262 1569l-330 -361h-151l237 361h244zM922 1569l-330 -361h-151l235 361h246z" />
    <glyph glyph-name="OE" unicode="&#x152;" horiz-adv-x="1794" 
d="M840 1413q111 0 256 -29h757l-34 -167h-598l-86 -404h520l-35 -168h-520l-103 -477h598l-34 -168h-756q-107 -29 -223 -29q-129 0 -220.5 35t-144 102t-76.5 155.5t-24 205.5q0 78 11.5 163t38 178t65 178.5t98 163.5t131.5 135.5t169.5 91.5t209.5 34zM592 135
q135 0 225 35l225 1047q-58 32 -225 32q-81 0 -151 -30.5t-120.5 -81t-91.5 -118t-67 -140t-43.5 -149t-25 -142.5t-7.5 -123q0 -174 63 -252t218 -78z" />
    <glyph glyph-name="oe" unicode="&#x153;" horiz-adv-x="1784" 
d="M92 379q0 53 8.5 112.5t29 128t50.5 133t77 124.5t104 104.5t136 71t169 26.5q247 0 323 -198q70 97 165.5 147.5t231.5 50.5q161 0 246.5 -88t85.5 -239q0 -66 -16 -152l-21 -96h-671q-21 -102 -21 -166q0 -123 53.5 -171t178.5 -48q133 0 262 135l106 -98
q-163 -187 -389 -187q-276 0 -348 193q-153 -193 -375 -193q-202 0 -293.5 102t-91.5 308zM266 369q0 -127 50.5 -188.5t166.5 -61.5q92 0 167.5 52.5t121.5 135t71 177.5t25 188q0 258 -215 258q-79 0 -145.5 -38t-110 -98t-74 -136t-44 -149t-13.5 -140zM1040 639h502
q12 58 12 109q0 188 -190 188q-140 0 -223 -100q-58 -71 -101 -197z" />
    <glyph glyph-name="Racute" unicode="&#x154;" horiz-adv-x="1212" 
d="M1042 0h-204l-228 565h-243l-119 -565h-180l292 1384h410q213 0 314.5 -69.5t101.5 -247.5q0 -81 -38.5 -189.5t-109.5 -179.5q-81 -77 -243 -112zM401 729h228q194 0 270 76q46 44 69 115.5t23 146.5q0 85 -58.5 119.5t-187.5 34.5h-239zM1176 1905l-332 -361h-150
l240 361h242z" />
    <glyph glyph-name="racute" unicode="&#x155;" horiz-adv-x="795" 
d="M868 1042l-69 -165q-30 14 -76 14q-65 0 -131.5 -27t-108.5 -57t-104 -82l-154 -725h-170l221 1049h170l-34 -170q104 98 182 142t154 44t120 -23zM941 1569l-332 -361h-150l240 361h242z" />
    <glyph glyph-name="Rcommaaccent" unicode="&#x156;" horiz-adv-x="1212" 
d="M1042 0h-204l-228 565h-243l-119 -565h-180l292 1384h410q213 0 314.5 -69.5t101.5 -247.5q0 -81 -38.5 -189.5t-109.5 -179.5q-81 -77 -243 -112zM401 729h228q194 0 270 76q46 44 69 115.5t23 146.5q0 85 -58.5 119.5t-187.5 34.5h-239zM436 -510h-102q89 93 115 162
q-48 0 -70 16.5t-22 52.5q0 89 53 129q32 27 92 27q102 0 102 -86q0 -69 -45 -147q-42 -71 -123 -154z" />
    <glyph glyph-name="rcommaaccent" unicode="&#x157;" horiz-adv-x="795" 
d="M868 1042l-69 -165q-30 14 -76 14q-65 0 -131.5 -27t-108.5 -57t-104 -82l-154 -725h-170l221 1049h170l-34 -170q104 98 182 142t154 44t120 -23zM46 -510h-102q89 93 115 162q-48 0 -70 16.5t-22 52.5q0 89 53 129q31 27 92 27q102 0 102 -86q0 -69 -45 -147
q-42 -71 -123 -154z" />
    <glyph glyph-name="Rcaron" unicode="&#x158;" horiz-adv-x="1212" 
d="M1042 0h-204l-228 565h-243l-119 -565h-180l292 1384h410q213 0 314.5 -69.5t101.5 -247.5q0 -81 -38.5 -189.5t-109.5 -179.5q-81 -77 -243 -112zM401 729h228q194 0 270 76q46 44 69 115.5t23 146.5q0 85 -58.5 119.5t-187.5 34.5h-239zM543 1905h139l129 -238l232 238
h153l-301 -361h-207z" />
    <glyph glyph-name="rcaron" unicode="&#x159;" horiz-adv-x="795" 
d="M868 1042l-69 -165q-30 14 -76 14q-65 0 -131.5 -27t-108.5 -57t-104 -82l-154 -725h-170l221 1049h170l-34 -170q104 98 182 142t154 44t120 -23zM308 1569h139l129 -238l232 238h153l-301 -361h-207z" />
    <glyph glyph-name="Sacute" unicode="&#x15a;" horiz-adv-x="1202" 
d="M31 254l172 80q30 -91 105.5 -145t223.5 -54q145 0 245 68t100 176q0 47 -9 78.5t-36 61.5t-76.5 54.5t-130.5 49.5q-165 50 -251.5 99t-121.5 109.5t-35 155.5q0 63 19 123t61 115.5t102 97t149.5 66t196.5 24.5q174 0 281 -64t166 -194l-160 -90q-33 87 -111 135.5
t-196 48.5q-157 0 -235 -70.5t-78 -170.5q0 -39 7.5 -62t35.5 -48.5t82 -48.5t147 -52q223 -71 305 -155t82 -234q0 -89 -30.5 -162t-82.5 -123.5t-122.5 -85t-150 -50.5t-165.5 -16q-93 0 -168.5 15t-127 40.5t-91 63t-62.5 76.5t-40 88zM1149 1905l-332 -361h-150l240 361
h242z" />
    <glyph glyph-name="sacute" unicode="&#x15b;" horiz-adv-x="971" 
d="M20 158l148 80q28 -60 81 -91.5t144 -31.5q47 0 91 9t83.5 27.5t63.5 53t24 80.5q0 28 -6 46t-26.5 39.5t-62.5 42.5t-111 44q-162 53 -221.5 115t-59.5 165q0 146 110.5 244t299.5 98q97 0 168 -25t111.5 -63.5t68.5 -95.5l-144 -84q-54 123 -221 123q-100 0 -162.5 -48
t-62.5 -120q0 -52 37 -92t133 -68q185 -56 253 -120t68 -183q0 -144 -118 -239t-328 -95q-161 0 -248.5 53.5t-112.5 135.5zM988 1569l-332 -361h-150l240 361h242z" />
    <glyph glyph-name="Scircumflex" unicode="&#x15c;" horiz-adv-x="1202" 
d="M31 254l172 80q30 -91 105.5 -145t223.5 -54q145 0 245 68t100 176q0 47 -9 78.5t-36 61.5t-76.5 54.5t-130.5 49.5q-165 50 -251.5 99t-121.5 109.5t-35 155.5q0 63 19 123t61 115.5t102 97t149.5 66t196.5 24.5q174 0 281 -64t166 -194l-160 -90q-33 87 -111 135.5
t-196 48.5q-157 0 -235 -70.5t-78 -170.5q0 -39 7.5 -62t35.5 -48.5t82 -48.5t147 -52q223 -71 305 -155t82 -234q0 -89 -30.5 -162t-82.5 -123.5t-122.5 -85t-150 -50.5t-165.5 -16q-93 0 -168.5 15t-127 40.5t-91 63t-62.5 76.5t-40 88zM1129 1544h-140l-129 238
l-231 -238h-154l301 361h207z" />
    <glyph glyph-name="scircumflex" unicode="&#x15d;" horiz-adv-x="971" 
d="M20 158l148 80q28 -60 81 -91.5t144 -31.5q47 0 91 9t83.5 27.5t63.5 53t24 80.5q0 28 -6 46t-26.5 39.5t-62.5 42.5t-111 44q-162 53 -221.5 115t-59.5 165q0 146 110.5 244t299.5 98q97 0 168 -25t111.5 -63.5t68.5 -95.5l-144 -84q-54 123 -221 123q-100 0 -162.5 -48
t-62.5 -120q0 -52 37 -92t133 -68q185 -56 253 -120t68 -183q0 -144 -118 -239t-328 -95q-161 0 -248.5 53.5t-112.5 135.5zM962 1208h-140l-129 238l-231 -238h-154l301 361h207z" />
    <glyph glyph-name="Scedilla" unicode="&#x15e;" horiz-adv-x="1202" 
d="M684 -190q0 -100 -77 -152.5t-216 -52.5q-68 0 -135 16t-90 31l72 100q30 -14 79 -23.5t89 -9.5q62 0 106.5 21t44.5 72q0 77 -154 88l52 73q-98 6 -173 30t-123.5 64t-78.5 85t-49 102l172 80q30 -91 105.5 -145t223.5 -54q145 0 245 68t100 176q0 47 -9 78.5t-36 61.5
t-76.5 54.5t-130.5 49.5q-165 50 -251.5 99t-121.5 109.5t-35 155.5q0 63 19 123t61 115.5t102 97t149.5 66t196.5 24.5q174 0 281 -64t166 -194l-160 -90q-33 87 -111 135.5t-196 48.5q-157 0 -235 -70.5t-78 -170.5q0 -39 7.5 -62t35.5 -48.5t82 -48.5t147 -52
q223 -71 305 -155t82 -234q0 -105 -42 -187.5t-114.5 -134t-162.5 -80t-193 -33.5l-2 -4q127 -39 127 -159z" />
    <glyph glyph-name="scedilla" unicode="&#x15f;" horiz-adv-x="971" 
d="M563 -190q0 -100 -76.5 -152.5t-216.5 -52.5q-68 0 -135.5 16t-89.5 31l72 100q30 -14 79 -23.5t89 -9.5q62 0 106.5 21t44.5 72q0 77 -153 88l49 71q-137 9 -213 61t-99 126l148 80q28 -60 81 -91.5t144 -31.5q47 0 91 9t83.5 27.5t63.5 53t24 80.5q0 28 -6 46
t-26.5 39.5t-62.5 42.5t-111 44q-162 53 -221.5 115t-59.5 165q0 146 110.5 244t299.5 98q97 0 168 -25t111.5 -63.5t68.5 -95.5l-144 -84q-54 123 -221 123q-100 0 -162.5 -48t-62.5 -120q0 -52 37 -92t133 -68q185 -56 253 -120t68 -183q0 -134 -102.5 -226t-288.5 -106
v-2q127 -39 127 -159z" />
    <glyph glyph-name="Scaron" unicode="&#x160;" horiz-adv-x="1202" 
d="M31 254l172 80q30 -91 105.5 -145t223.5 -54q145 0 245 68t100 176q0 47 -9 78.5t-36 61.5t-76.5 54.5t-130.5 49.5q-165 50 -251.5 99t-121.5 109.5t-35 155.5q0 63 19 123t61 115.5t102 97t149.5 66t196.5 24.5q174 0 281 -64t166 -194l-160 -90q-33 87 -111 135.5
t-196 48.5q-157 0 -235 -70.5t-78 -170.5q0 -39 7.5 -62t35.5 -48.5t82 -48.5t147 -52q223 -71 305 -155t82 -234q0 -89 -30.5 -162t-82.5 -123.5t-122.5 -85t-150 -50.5t-165.5 -16q-93 0 -168.5 15t-127 40.5t-91 63t-62.5 76.5t-40 88zM524 1905h139l129 -238l232 238
h153l-301 -361h-207z" />
    <glyph glyph-name="scaron" unicode="&#x161;" horiz-adv-x="971" 
d="M20 158l148 80q28 -60 81 -91.5t144 -31.5q47 0 91 9t83.5 27.5t63.5 53t24 80.5q0 28 -6 46t-26.5 39.5t-62.5 42.5t-111 44q-162 53 -221.5 115t-59.5 165q0 146 110.5 244t299.5 98q97 0 168 -25t111.5 -63.5t68.5 -95.5l-144 -84q-54 123 -221 123q-100 0 -162.5 -48
t-62.5 -120q0 -52 37 -92t133 -68q185 -56 253 -120t68 -183q0 -144 -118 -239t-328 -95q-161 0 -248.5 53.5t-112.5 135.5zM363 1569h139l129 -238l232 238h153l-301 -361h-207z" />
    <glyph glyph-name="uni0162" unicode="&#x162;" horiz-adv-x="1159" 
d="M637 -190q0 -100 -77 -152.5t-216 -52.5q-68 0 -135 16t-90 31l71 100q30 -14 79 -23.5t89 -9.5q62 0 107 21t45 72q0 77 -154 88l70 100h-47l258 1217h-449l35 167h1080l-35 -167h-451l-258 -1217h-29l-20 -31q127 -39 127 -159z" />
    <glyph glyph-name="uni0163" unicode="&#x163;" horiz-adv-x="715" 
d="M494 -190q0 -100 -77 -152.5t-216 -52.5q-69 0 -136.5 16t-89.5 31l72 100q30 -14 79 -23.5t89 -9.5q62 0 107 21t45 72q0 37 -39.5 60t-114.5 28l57 82q-67 21 -101 73.5t-34 128.5q0 79 19 156l120 565h-145l29 144h145l64 292h168l-64 -292h262l-28 -144h-263
l-118 -555q-21 -90 -21 -137q0 -53 25 -76.5t82 -23.5q81 0 153 28v-141q-96 -27 -190 -31q121 -39 121 -159z" />
    <glyph glyph-name="Tcaron" unicode="&#x164;" horiz-adv-x="1159" 
d="M1268 1217h-451l-258 -1217h-180l258 1217h-449l35 167h1080zM547 1905h139l129 -238l232 238h153l-301 -361h-207z" />
    <glyph glyph-name="tcaron" unicode="&#x165;" horiz-adv-x="715" 
d="M563 141v-141q-100 -31 -186 -31q-123 0 -182.5 58t-59.5 157q0 79 19 156l120 565h-145l29 144h145l64 292h168l-64 -292h262l-28 -144h-263l-118 -555q-21 -90 -21 -137q0 -53 25 -76.5t82 -23.5q81 0 153 28zM946 1489l-223 -361h-129l133 361h219z" />
    <glyph glyph-name="Tbar" unicode="&#x166;" horiz-adv-x="1159" 
d="M909 666h-209l-141 -666h-180l141 666h-209l29 139h209l88 412h-449l35 167h1080l-35 -167h-451l-88 -412h209z" />
    <glyph glyph-name="tbar" unicode="&#x167;" horiz-adv-x="715" 
d="M641 580h-268l-49 -230q-21 -90 -21 -137q0 -53 25 -76.5t82 -23.5q81 0 153 28v-141q-100 -31 -186 -31q-123 0 -182.5 58t-59.5 157q0 79 19 156l51 240h-162l29 139h161l41 186h-145l29 144h145l64 292h168l-64 -292h262l-28 -144h-263l-41 -186h269z" />
    <glyph glyph-name="Utilde" unicode="&#x168;" horiz-adv-x="1376" 
d="M1380 1384l-170 -806q-38 -182 -89.5 -299.5t-128.5 -186.5t-172 -96t-234 -27q-224 0 -325 91.5t-101 273.5q0 109 35 266l165 784h181l-166 -786q-33 -146 -33 -264q0 -201 250 -201q134 0 214.5 42.5t133.5 144t94 290.5l166 774h180zM659 1557h-119q33 129 102 195.5
t162 66.5q43 0 78.5 -14.5t59.5 -35.5t45 -42t44.5 -35.5t49.5 -14.5q47 0 81.5 36t49.5 93h119q-65 -262 -273 -262q-51 0 -89.5 14.5t-61 35.5t-41 42t-39 35.5t-45.5 14.5q-42 0 -74 -33.5t-49 -95.5z" />
    <glyph glyph-name="utilde" unicode="&#x169;" horiz-adv-x="1141" 
d="M268 1049h168l-129 -619q-28 -133 -28 -192t24.5 -85t79.5 -26q161 0 373 180l157 742h170l-221 -1049h-170l33 156q-206 -187 -379 -187q-126 0 -183 64.5t-57 175.5q0 63 33 221zM459 1221h-119q33 129 102 195.5t162 66.5q43 0 78.5 -14.5t59.5 -35.5t45 -42
t44.5 -35.5t49.5 -14.5q47 0 81.5 36t49.5 93h119q-65 -262 -273 -262q-51 0 -89.5 14.5t-61 35.5t-41 42t-39 35.5t-45.5 14.5q-42 0 -74 -33.5t-49 -95.5z" />
    <glyph glyph-name="Umacron" unicode="&#x16a;" horiz-adv-x="1376" 
d="M1380 1384l-170 -806q-38 -182 -89.5 -299.5t-128.5 -186.5t-172 -96t-234 -27q-224 0 -325 91.5t-101 273.5q0 109 35 266l165 784h181l-166 -786q-33 -146 -33 -264q0 -201 250 -201q134 0 214.5 42.5t133.5 144t94 290.5l166 774h180zM1204 1591h-598l29 140h598z" />
    <glyph glyph-name="umacron" unicode="&#x16b;" horiz-adv-x="1141" 
d="M268 1049h168l-129 -619q-28 -133 -28 -192t24.5 -85t79.5 -26q161 0 373 180l157 742h170l-221 -1049h-170l33 156q-206 -187 -379 -187q-126 0 -183 64.5t-57 175.5q0 63 33 221zM1014 1255h-598l29 140h598z" />
    <glyph glyph-name="Ubreve" unicode="&#x16c;" horiz-adv-x="1376" 
d="M1380 1384l-170 -806q-38 -182 -89.5 -299.5t-128.5 -186.5t-172 -96t-234 -27q-224 0 -325 91.5t-101 273.5q0 109 35 266l165 784h181l-166 -786q-33 -146 -33 -264q0 -201 250 -201q134 0 214.5 42.5t133.5 144t94 290.5l166 774h180zM1127 1804h131
q-26 -127 -115 -204.5t-252 -77.5q-142 0 -212 61.5t-70 159.5q0 31 6 61h125q0 -64 39.5 -94.5t126.5 -30.5q93 0 144.5 31t76.5 94z" />
    <glyph glyph-name="ubreve" unicode="&#x16d;" horiz-adv-x="1141" 
d="M268 1049h168l-129 -619q-28 -133 -28 -192t24.5 -85t79.5 -26q161 0 373 180l157 742h170l-221 -1049h-170l33 156q-206 -187 -379 -187q-126 0 -183 64.5t-57 175.5q0 63 33 221zM946 1468h131q-26 -127 -115 -204.5t-252 -77.5q-142 0 -212 61.5t-70 159.5q0 31 6 61
h125q0 -64 39.5 -94.5t126.5 -30.5q93 0 144.5 31t76.5 94z" />
    <glyph glyph-name="Uring" unicode="&#x16e;" horiz-adv-x="1376" 
d="M1380 1384l-170 -806q-38 -182 -89.5 -299.5t-128.5 -186.5t-172 -96t-234 -27q-224 0 -325 91.5t-101 273.5q0 109 35 266l165 784h181l-166 -786q-33 -146 -33 -264q0 -201 250 -201q134 0 214.5 42.5t133.5 144t94 290.5l166 774h180zM1104 1718q0 -91 -58.5 -157
t-164.5 -66q-84 0 -122 44t-38 112q0 90 61.5 155.5t157.5 65.5q78 0 121 -41t43 -113zM895 1577q55 0 89 36t34 97q0 80 -88 80q-56 0 -89.5 -40.5t-33.5 -90.5q0 -41 19.5 -61.5t68.5 -20.5z" />
    <glyph glyph-name="uring" unicode="&#x16f;" horiz-adv-x="1141" 
d="M268 1049h168l-129 -619q-28 -133 -28 -192t24.5 -85t79.5 -26q161 0 373 180l157 742h170l-221 -1049h-170l33 156q-206 -187 -379 -187q-126 0 -183 64.5t-57 175.5q0 63 33 221zM907 1382q0 -91 -58.5 -157t-164.5 -66q-84 0 -122 44t-38 112q0 90 61.5 155.5
t157.5 65.5q78 0 121 -41t43 -113zM698 1241q55 0 89 36t34 97q0 80 -88 80q-56 0 -89.5 -40.5t-33.5 -90.5q0 -41 19.5 -61.5t68.5 -20.5z" />
    <glyph glyph-name="Uhungarumlaut" unicode="&#x170;" horiz-adv-x="1376" 
d="M1380 1384l-170 -806q-38 -182 -89.5 -299.5t-128.5 -186.5t-172 -96t-234 -27q-224 0 -325 91.5t-101 273.5q0 109 35 266l165 784h181l-166 -786q-33 -146 -33 -264q0 -201 250 -201q134 0 214.5 42.5t133.5 144t94 290.5l166 774h180zM1452 1905l-330 -361h-151
l237 361h244zM1112 1905l-330 -361h-151l235 361h246z" />
    <glyph glyph-name="uhungarumlaut" unicode="&#x171;" horiz-adv-x="1141" 
d="M268 1049h168l-129 -619q-28 -133 -28 -192t24.5 -85t79.5 -26q161 0 373 180l157 742h170l-221 -1049h-170l33 156q-206 -187 -379 -187q-126 0 -183 64.5t-57 175.5q0 63 33 221zM1274 1569l-330 -361h-151l237 361h244zM934 1569l-330 -361h-151l235 361h246z" />
    <glyph glyph-name="Uogonek" unicode="&#x172;" horiz-adv-x="1376" 
d="M866 -223l31 -109q-86 -63 -195 -63q-176 0 -176 164q0 109 90 200h-30q-224 0 -325 91.5t-101 273.5q0 109 35 266l165 784h181l-166 -786q-33 -146 -33 -264q0 -201 250 -201q134 0 214.5 42.5t133.5 144t94 290.5l166 774h180l-170 -806q-54 -256 -136 -387t-222 -185
q-178 -70 -178 -211q0 -51 59 -51q68 0 133 33z" />
    <glyph glyph-name="uogonek" unicode="&#x173;" horiz-adv-x="1141" 
d="M864 -223l31 -109q-86 -63 -195 -63q-176 0 -176 164q0 150 170 247l31 140q-206 -187 -379 -187q-126 0 -183 64.5t-57 175.5q0 63 33 221l129 619h168l-129 -619q-28 -133 -28 -192t24.5 -85t79.5 -26q161 0 373 180l157 742h170l-221 -1049q-190 -77 -190 -205
q0 -51 59 -51q68 0 133 33z" />
    <glyph glyph-name="Wcircumflex" unicode="&#x174;" horiz-adv-x="1722" 
d="M1839 1384l-620 -1384h-218l-22 1108l-492 -1108h-211l-28 1384h176l14 -1122l494 1122h205l22 -1122l496 1122h184zM1401 1544h-140l-129 238l-231 -238h-154l301 361h207z" />
    <glyph glyph-name="wcircumflex" unicode="&#x175;" horiz-adv-x="1446" 
d="M1493 1049l-473 -1049h-160l-80 803l-422 -803h-151l-35 1049h166l6 -799l412 799h141l84 -799l334 799h178zM1201 1208h-140l-129 238l-231 -238h-154l301 361h207z" />
    <glyph glyph-name="Ycircumflex" unicode="&#x176;" horiz-adv-x="1124" 
d="M1266 1384l-611 -849l-112 -535h-185l111 526l-246 858h189l180 -673l463 673h211zM1104 1544h-140l-129 238l-231 -238h-154l301 361h207z" />
    <glyph glyph-name="ycircumflex" unicode="&#x177;" horiz-adv-x="1020" 
d="M-184 -365l63 138q48 -25 111 -25q75 0 136.5 51.5t139.5 180.5l56 90l-164 979h172l119 -783l448 783h186l-677 -1129q-74 -122 -131 -186.5t-126.5 -96.5t-164.5 -32q-93 0 -168 30zM982 1208h-140l-129 238l-231 -238h-154l301 361h207z" />
    <glyph glyph-name="Ydieresis" unicode="&#x178;" horiz-adv-x="1124" 
d="M1266 1384l-611 -849l-112 -535h-185l111 526l-246 858h189l180 -673l463 673h211zM723 1690q0 -18 -7.5 -45.5t-15.5 -42.5q-17 -32 -42 -45t-69 -13q-49 0 -69.5 16.5t-20.5 49.5q0 14 6 41t15 43q15 33 40 48t72 15q50 0 70.5 -16t20.5 -51zM1110 1690
q0 -18 -7.5 -45.5t-15.5 -42.5q-17 -32 -42 -45t-68 -13q-51 0 -71 16.5t-20 49.5q0 14 6 41t15 43q15 33 40.5 48t72.5 15q50 0 70 -16t20 -51z" />
    <glyph glyph-name="Zacute" unicode="&#x179;" horiz-adv-x="1141" 
d="M926 0h-946l36 176l926 1041h-674l35 167h899l-35 -165l-936 -1051h730zM1116 1903l-332 -361h-150l240 361h242z" />
    <glyph glyph-name="zacute" unicode="&#x17a;" horiz-adv-x="915" 
d="M725 0h-756l27 131l692 774h-514l29 144h727l-27 -125l-692 -779h545zM960 1569l-332 -361h-150l240 361h242z" />
    <glyph glyph-name="Zdotaccent" unicode="&#x17b;" horiz-adv-x="1141" 
d="M926 0h-946l36 176l926 1041h-674l35 167h899l-35 -165l-936 -1051h730zM878 1698q0 -20 -7 -49t-15 -43q-20 -36 -48.5 -50t-74.5 -14q-53 0 -74.5 19t-21.5 55q0 46 18 86q31 70 125 70q53 0 75.5 -18t22.5 -56z" />
    <glyph glyph-name="zdotaccent" unicode="&#x17c;" horiz-adv-x="915" 
d="M725 0h-756l27 131l692 774h-514l29 144h727l-27 -125l-692 -779h545zM722 1364q0 -20 -7 -49t-15 -43q-20 -36 -48.5 -50t-74.5 -14q-53 0 -74.5 19t-21.5 55q0 46 18 86q31 70 125 70q53 0 75.5 -18t22.5 -56z" />
    <glyph glyph-name="Zcaron" unicode="&#x17d;" horiz-adv-x="1141" 
d="M926 0h-946l36 176l926 1041h-674l35 167h899l-35 -165l-936 -1051h730zM483 1903h139l129 -238l232 238h153l-301 -361h-207z" />
    <glyph glyph-name="zcaron" unicode="&#x17e;" horiz-adv-x="915" 
d="M725 0h-756l27 131l692 774h-514l29 144h727l-27 -125l-692 -779h545zM327 1569h139l129 -238l232 238h153l-301 -361h-207z" />
    <glyph glyph-name="longs" unicode="&#x17f;" horiz-adv-x="532" 
d="M885 1473l-62 -144q-62 41 -139 41q-87 0 -135 -45t-72 -154l-248 -1171h-168l193 905h-109l29 144h109l22 102q43 199 128.5 284t262.5 85q97 0 189 -47z" />
    <glyph glyph-name="florin" unicode="&#x192;" horiz-adv-x="1239" 
d="M1137 1481l-47 -148q-4 1 -20 6.5l-20.5 7t-17.5 5.5t-18 5t-16.5 4t-18 4l-16.5 2.5t-19 2t-18 0.5q-37 0 -57 -10t-41 -51t-40 -125l-30 -135h209l-29 -144h-211l-219 -1022q-6 -25 -8 -32.5t-10.5 -36t-15 -42l-20 -40t-27 -41t-35 -34t-45 -29.5t-55 -17.5
t-67.5 -7.5q-115 0 -223 39l35 137q85 -27 162 -27q46 0 72 19t45.5 68.5t41.5 152.5l195 913h-172l31 144h172l32 143q40 176 111 252t203 76q97 0 207 -39z" />
    <glyph glyph-name="Ohorn" unicode="&#x1a0;" horiz-adv-x="1460" 
d="M582 -29q-129 0 -220.5 35t-144 102t-76.5 155.5t-24 205.5q0 248 100 489q43 102 94.5 179t125 142t174 99.5t225.5 34.5q182 0 293.5 -84.5t146.5 -249.5h20q73 0 112.5 42t59.5 143l37 182h160l-37 -182q-16 -78 -37 -131t-56.5 -98.5t-92 -68t-135.5 -22.5h-17v-20
q0 -202 -63 -404q-171 -549 -645 -549zM311 465q0 -182 64.5 -256t216.5 -74q161 0 269 104.5t177 323.5q58 190 58 367q0 164 -66 241.5t-213 77.5q-154 0 -250.5 -86.5t-167.5 -259.5q-43 -107 -65.5 -226.5t-22.5 -211.5z" />
    <glyph glyph-name="ohorn" unicode="&#x1a1;" horiz-adv-x="1257" 
d="M92 379q0 53 9 113t29.5 128.5t51 133t77 124t104 104t135.5 71t168 26.5q304 0 362 -274q69 2 107.5 44t58.5 140l29 141h159l-28 -141q-16 -76 -37 -129t-56 -98t-90 -68t-131 -24q0 -57 -4 -88q-9 -82 -32.5 -163t-69 -163.5t-106.5 -145t-152 -102t-199 -39.5
q-205 0 -295 101.5t-90 308.5zM266 369q0 -126 52 -188t169 -62q92 0 167 52.5t120 135t69.5 177.5t24.5 188q0 258 -219 258q-66 0 -123.5 -26.5t-98.5 -72t-73 -102.5t-50.5 -120.5t-28 -124t-9.5 -115.5z" />
    <glyph glyph-name="Uhorn" unicode="&#x1af;" horiz-adv-x="1522" 
d="M1380 1384l-65 -305h43q73 0 112.5 42t59.5 143l37 182h159l-36 -182q-16 -78 -37 -131t-57 -98.5t-92.5 -68t-135.5 -22.5h-82l-76 -366q-38 -182 -89.5 -299.5t-128.5 -186.5t-172 -96t-234 -27q-224 0 -325 91.5t-101 273.5q0 109 35 266l165 784h181l-166 -786
q-33 -146 -33 -264q0 -201 250 -201q134 0 214.5 42.5t133.5 144t94 290.5l166 774h180z" />
    <glyph glyph-name="uhorn" unicode="&#x1b0;" horiz-adv-x="1298" 
d="M268 1049h168l-129 -619q-28 -133 -28 -192t24.5 -85t79.5 -26q161 0 373 180l157 742h170l-51 -244h31q73 0 113 42t59 142l29 141h159l-28 -141q-16 -77 -37 -130t-57 -98.5t-92.5 -68t-135.5 -22.5h-69l-142 -670h-170l33 156q-206 -187 -379 -187q-126 0 -183 64.5
t-57 175.5q0 63 33 221z" />
    <glyph glyph-name="Acaron" unicode="&#x1cd;" horiz-adv-x="1262" 
d="M145 0h-192l747 1384h236l176 -1384h-188l-43 360h-539zM782 1202l-356 -674h434zM581 1905h139l129 -238l232 238h153l-301 -361h-206z" />
    <glyph glyph-name="acaron" unicode="&#x1ce;" horiz-adv-x="1151" 
d="M92 342q0 72 13.5 151.5t40.5 163t72 158.5t102 134.5t137 94.5t172 35q175 0 278 -116l19 86h170l-222 -1049h-169l26 125q-86 -75 -164 -115.5t-168 -40.5q-161 0 -234 93.5t-73 279.5zM764 279l113 534q-53 57 -111.5 85t-140.5 28q-71 0 -132 -38.5t-102 -100.5
t-70 -140.5t-42 -157t-13 -151.5q0 -115 40 -165t128 -50q161 0 330 156zM429 1569h139l129 -238l232 238h153l-301 -361h-207z" />
    <glyph glyph-name="Icaron" unicode="&#x1cf;" horiz-adv-x="754" 
d="M575 160l-32 -160h-553l33 160h186l227 1067h-186l33 157h553l-33 -157h-187l-227 -1067h186zM333 1905h139l129 -238l232 238h153l-301 -361h-206z" />
    <glyph glyph-name="icaron" unicode="&#x1d0;" horiz-adv-x="502" 
d="M225 0h-170l221 1049h170zM130 1569h139l129 -238l232 238h153l-301 -361h-207z" />
    <glyph glyph-name="Ocaron" unicode="&#x1d1;" horiz-adv-x="1337" 
d="M582 -29q-129 0 -220.5 35t-144 102t-76.5 155.5t-24 205.5q0 248 100 489q43 102 94.5 179t125 142t174 99.5t225.5 34.5q222 0 338 -124.5t116 -364.5q0 -202 -63 -404q-171 -549 -645 -549zM311 465q0 -182 64.5 -256t216.5 -74q161 0 269 104.5t177 323.5
q58 190 58 367q0 164 -66 241.5t-213 77.5q-154 0 -250.5 -86.5t-167.5 -259.5q-43 -107 -65.5 -226.5t-22.5 -211.5zM596 1905h139l129 -238l232 238h153l-301 -361h-206z" />
    <glyph glyph-name="ocaron" unicode="&#x1d2;" horiz-adv-x="1135" 
d="M92 379q0 124 48 273t145 257q148 170 381 170q182 0 279 -102.5t97 -304.5q0 -141 -53 -297.5t-160 -261.5q-144 -144 -352 -144q-205 0 -295 101.5t-90 308.5zM266 369q0 -132 51 -191t170 -59q135 0 232 110q68 78 108.5 202t40.5 241q0 132 -53.5 195t-165.5 63
q-151 0 -252 -135q-60 -80 -95.5 -198.5t-35.5 -227.5zM432 1569h139l129 -238l232 238h153l-301 -361h-207z" />
    <glyph glyph-name="Ucaron" unicode="&#x1d3;" horiz-adv-x="1376" 
d="M1380 1384l-170 -806q-38 -182 -89.5 -299.5t-128.5 -186.5t-172 -96t-234 -27q-224 0 -325 91.5t-101 273.5q0 109 35 266l165 784h181l-166 -786q-33 -146 -33 -264q0 -201 250 -201q134 0 214.5 42.5t133.5 144t94 290.5l166 774h180zM620 1905h139l129 -238l232 238
h153l-301 -361h-206z" />
    <glyph glyph-name="ucaron" unicode="&#x1d4;" horiz-adv-x="1141" 
d="M268 1049h168l-129 -619q-28 -133 -28 -192t24.5 -85t79.5 -26q161 0 373 180l157 742h170l-221 -1049h-170l33 156q-206 -187 -379 -187q-126 0 -183 64.5t-57 175.5q0 63 33 221zM440 1569h139l129 -238l232 238h153l-301 -361h-207z" />
    <glyph glyph-name="Udieresismacron" unicode="&#x1d5;" horiz-adv-x="1376" 
d="M1380 1384l-170 -806q-38 -182 -89.5 -299.5t-128.5 -186.5t-172 -96t-234 -27q-224 0 -325 91.5t-101 273.5q0 109 35 266l165 784h181l-166 -786q-33 -146 -33 -264q0 -201 250 -201q134 0 214.5 42.5t133.5 144t94 290.5l166 774h180zM834 1649q0 -19 -7 -47t-15 -41
q-17 -32 -42.5 -45t-68.5 -13q-51 0 -70.5 16.5t-19.5 49.5q0 14 5.5 41.5t14.5 42.5q15 33 40.5 48t72.5 15q50 0 70 -16t20 -51zM1221 1649q0 -19 -7 -47t-15 -41q-19 -31 -44 -44.5t-67 -13.5q-51 0 -70.5 16.5t-19.5 49.5q0 14 5.5 41.5t14.5 42.5q15 33 40.5 48
t72.5 15q50 0 70 -16t20 -51zM1250 1794h-598l28 139h598z" />
    <glyph glyph-name="udieresismacron" unicode="&#x1d6;" horiz-adv-x="1141" 
d="M268 1049h168l-129 -619q-28 -133 -28 -192t24.5 -85t79.5 -26q161 0 373 180l157 742h170l-221 -1049h-170l33 156q-206 -187 -379 -187q-126 0 -183 64.5t-57 175.5q0 63 33 221zM632 1313q0 -19 -7 -47t-15 -41q-17 -32 -42 -45t-69 -13q-49 0 -69.5 16.5t-20.5 49.5
q0 45 21 84q15 33 40 48t72 15q50 0 70 -16t20 -51zM1019 1313q0 -19 -7 -47t-15 -41q-19 -32 -43.5 -45t-67.5 -13q-49 0 -69.5 16.5t-20.5 49.5q0 45 21 84q15 33 40 48t72 15q50 0 70 -16t20 -51zM1048 1458h-598l29 139h598z" />
    <glyph glyph-name="Udieresisacute" unicode="&#x1d7;" horiz-adv-x="1376" 
d="M1380 1384l-170 -806q-38 -182 -89.5 -299.5t-128.5 -186.5t-172 -96t-234 -27q-224 0 -325 91.5t-101 273.5q0 109 35 266l165 784h181l-166 -786q-33 -146 -33 -264q0 -201 250 -201q134 0 214.5 42.5t133.5 144t94 290.5l166 774h180zM1237 2048l-268 -311h-140
l176 311h232zM815 1649q0 -19 -7 -47t-16 -41q-17 -32 -42 -45t-68 -13q-51 0 -70.5 16.5t-19.5 49.5q0 14 5.5 41.5t14.5 42.5q15 33 40.5 48t72.5 15q50 0 70 -16t20 -51zM1202 1649q0 -19 -7 -47t-15 -41q-19 -31 -44 -44.5t-67 -13.5q-51 0 -70.5 16.5t-19.5 49.5
q0 14 5.5 41.5t14.5 42.5q15 33 40.5 48t72.5 15q50 0 70 -16t20 -51z" />
    <glyph glyph-name="udieresisacute" unicode="&#x1d8;" horiz-adv-x="1141" 
d="M268 1049h168l-129 -619q-28 -133 -28 -192t24.5 -85t79.5 -26q161 0 373 180l157 742h170l-221 -1049h-170l33 156q-206 -187 -379 -187q-126 0 -183 64.5t-57 175.5q0 63 33 221zM1054 1712l-268 -311h-139l176 311h231zM632 1313q0 -19 -7 -47t-15 -41
q-17 -32 -42 -45t-69 -13q-49 0 -69.5 16.5t-20.5 49.5q0 45 21 84q15 33 40 48t72 15q50 0 70 -16t20 -51zM1019 1313q0 -19 -7 -47t-15 -41q-19 -32 -43.5 -45t-67.5 -13q-49 0 -69.5 16.5t-20.5 49.5q0 45 21 84q15 33 40 48t72 15q50 0 70 -16t20 -51z" />
    <glyph glyph-name="Udieresiscaron" unicode="&#x1d9;" horiz-adv-x="1376" 
d="M1380 1384l-170 -806q-38 -182 -89.5 -299.5t-128.5 -186.5t-172 -96t-234 -27q-224 0 -325 91.5t-101 273.5q0 109 35 266l165 784h181l-166 -786q-33 -146 -33 -264q0 -201 250 -201q134 0 214.5 42.5t133.5 144t94 290.5l166 774h180zM815 1649q0 -19 -7 -47t-16 -41
q-17 -32 -42 -45t-68 -13q-51 0 -70.5 16.5t-19.5 49.5q0 14 5.5 41.5t14.5 42.5q15 33 40.5 48t72.5 15q50 0 70 -16t20 -51zM1202 1649q0 -19 -7 -47t-15 -41q-17 -32 -42.5 -45t-68.5 -13q-51 0 -70.5 16.5t-19.5 49.5q0 14 5.5 41.5t14.5 42.5q15 33 40.5 48t72.5 15
q50 0 70 -16t20 -51zM674 2048h139l131 -178l229 178h154l-297 -289h-207z" />
    <glyph glyph-name="udieresiscaron" unicode="&#x1da;" horiz-adv-x="1141" 
d="M268 1049h168l-129 -619q-28 -133 -28 -192t24.5 -85t79.5 -26q161 0 373 180l157 742h170l-221 -1049h-170l33 156q-206 -187 -379 -187q-126 0 -183 64.5t-57 175.5q0 63 33 221zM626 1313q0 -19 -7 -47t-15 -41q-17 -32 -42 -45t-69 -13q-49 0 -69.5 16.5t-20.5 49.5
q0 45 21 84q15 33 40 48t72 15q50 0 70 -16t20 -51zM1013 1313q0 -19 -7 -47t-15 -41q-17 -32 -42 -45t-69 -13q-49 0 -69.5 16.5t-20.5 49.5q0 45 21 84q15 33 40 48t72 15q50 0 70 -16t20 -51zM485 1712h139l131 -178l230 178h153l-297 -289h-206z" />
    <glyph glyph-name="Udieresisgrave" unicode="&#x1db;" horiz-adv-x="1376" 
d="M1380 1384l-170 -806q-38 -182 -89.5 -299.5t-128.5 -186.5t-172 -96t-234 -27q-224 0 -325 91.5t-101 273.5q0 109 35 266l165 784h181l-166 -786q-33 -146 -33 -264q0 -201 250 -201q134 0 214.5 42.5t133.5 144t94 290.5l166 774h180zM993 1737h-121l-174 311h217z
M823 1649q0 -19 -7 -47t-16 -41q-17 -32 -42 -45t-68 -13q-51 0 -70.5 16.5t-19.5 49.5q0 14 5.5 41.5t14.5 42.5q15 33 40.5 48t72.5 15q50 0 70 -16t20 -51zM1210 1649q0 -19 -7 -47t-15 -41q-17 -32 -42.5 -45t-68.5 -13q-51 0 -70.5 16.5t-19.5 49.5q0 14 5.5 41.5
t14.5 42.5q15 33 40.5 48t72.5 15q50 0 70 -16t20 -51z" />
    <glyph glyph-name="udieresisgrave" unicode="&#x1dc;" horiz-adv-x="1141" 
d="M268 1049h168l-129 -619q-28 -133 -28 -192t24.5 -85t79.5 -26q161 0 373 180l157 742h170l-221 -1049h-170l33 156q-206 -187 -379 -187q-126 0 -183 64.5t-57 175.5q0 63 33 221zM796 1401h-120l-175 311h218zM626 1313q0 -19 -7 -47t-15 -41q-17 -32 -42 -45t-69 -13
q-49 0 -69.5 16.5t-20.5 49.5q0 45 21 84q15 33 40 48t72 15q50 0 70 -16t20 -51zM1013 1313q0 -19 -7 -47t-15 -41q-17 -32 -42 -45t-69 -13q-49 0 -69.5 16.5t-20.5 49.5q0 45 21 84q15 33 40 48t72 15q50 0 70 -16t20 -51z" />
    <glyph glyph-name="Aringacute" unicode="&#x1fa;" horiz-adv-x="1262" 
d="M1032 1534q0 -121 -92 -186l172 -1348h-188l-43 360h-539l-197 -360h-192l731 1356q-35 36 -35 110q0 91 61.5 156.5t157.5 65.5q78 0 121 -41t43 -113zM782 1202l-356 -674h434zM1212 2025l-270 -278h-149l178 278h241zM823 1393q55 0 89 36t34 97q0 80 -88 80
q-56 0 -89.5 -40.5t-33.5 -90.5q0 -41 19.5 -61.5t68.5 -20.5z" />
    <glyph glyph-name="aringacute" unicode="&#x1fb;" horiz-adv-x="1151" 
d="M92 342q0 72 13.5 151.5t40.5 163t72 158.5t102 134.5t137 94.5t172 35q175 0 278 -116l19 86h170l-222 -1049h-169l26 125q-86 -75 -164 -115.5t-168 -40.5q-161 0 -234 93.5t-73 279.5zM764 279l113 534q-53 57 -111.5 85t-140.5 28q-71 0 -132 -38.5t-102 -100.5
t-70 -140.5t-42 -157t-13 -151.5q0 -115 40 -165t128 -50q161 0 330 156zM892 1380q0 -91 -58.5 -157t-164.5 -66q-84 0 -122 44t-38 112q0 90 61.5 155.5t157.5 65.5q78 0 121 -41t43 -113zM683 1239q55 0 89 36t34 97q0 80 -88 80q-56 0 -89.5 -40.5t-33.5 -90.5
q0 -41 19.5 -61.5t68.5 -20.5zM1135 1954l-332 -361h-150l240 361h242z" />
    <glyph glyph-name="AEacute" unicode="&#x1fc;" horiz-adv-x="1712" 
d="M1479 0h-772l79 383h-438l-219 -383h-192l811 1384h1024l-35 -167h-592l-86 -404h516l-37 -168h-516l-100 -477h591zM823 551l142 666h-138l-381 -666h377zM1487 1905l-332 -361h-150l240 361h242z" />
    <glyph glyph-name="aeacute" unicode="&#x1fd;" horiz-adv-x="1690" 
d="M1587 504h-672q-20 -105 -20 -166q0 -123 53.5 -171t177.5 -48q134 0 263 135l106 -98q-81 -93 -177 -140t-226 -47q-263 0 -340 187q-253 -187 -457 -187q-122 0 -185 67.5t-63 196.5q0 179 133.5 288.5t343.5 125.5l258 23l11 51q6 36 6 65q0 78 -51 111t-146 33
q-188 0 -280 -117l-119 86q136 180 401 180q151 0 231 -38.5t105 -120.5q66 79 148.5 119t203.5 40q161 0 246.5 -88t85.5 -239q0 -66 -16 -152zM721 334q0 82 33 198l-170 -16q-56 -4 -102 -13t-95.5 -28.5t-83 -48.5t-55 -76t-21.5 -108q0 -60 34 -89.5t93 -29.5
q78 0 163.5 36t205.5 117q-2 13 -2 58zM946 639h502q12 58 12 109q0 188 -190 188q-140 0 -223 -100q-58 -71 -101 -197zM1352 1569l-332 -361h-150l240 361h242z" />
    <glyph glyph-name="Oslashacute" unicode="&#x1fe;" horiz-adv-x="1337" 
d="M98 -115h-166l246 281q-61 108 -61 303q0 79 11 163.5t37.5 177.5t64.5 178.5t97 163.5t130.5 135.5t169 91.5t209.5 34q219 0 331 -115l166 191h166l-258 -295q49 -108 49 -270q0 -72 -9.5 -152t-33.5 -174t-60 -181t-93 -169.5t-128 -143t-170 -97t-214 -36.5
q-212 0 -326 97zM602 135q79 0 147.5 31t118 83t89.5 121t66 142.5t43 151.5t24.5 144t7.5 122q0 48 -6 92l-711 -811q70 -76 221 -76zM311 465q0 -77 13 -133l718 823q-66 94 -225 94q-81 0 -151 -30.5t-120.5 -81t-91.5 -118t-67 -140t-43.5 -149t-25 -142.5t-7.5 -123z
M1227 1905l-332 -361h-150l240 361h242z" />
    <glyph glyph-name="oslashacute" unicode="&#x1ff;" horiz-adv-x="1135" 
d="M125 -76h-152l172 197q-53 97 -53 258q0 53 8.5 112.5t29 128t50.5 133t77 124.5t104 104.5t136 71t169 26.5q156 0 249 -80l109 125h152l-187 -213q53 -103 53 -239q0 -67 -13 -141t-39.5 -154.5t-72.5 -152.5t-106 -129.5t-146.5 -91.5t-187.5 -34q-162 0 -254 66z
M868 672q0 59 -8 92l-526 -602q49 -43 149 -43q92 0 167.5 52.5t121.5 135t71 177.5t25 188zM266 369q0 -68 8 -101l531 606q-56 56 -152 56q-79 0 -145.5 -38t-110 -98t-74 -136t-44 -149t-13.5 -140zM1058 1569l-332 -361h-150l240 361h242z" />
    <glyph glyph-name="Scommaaccent" unicode="&#x218;" horiz-adv-x="1202" 
d="M31 254l172 80q30 -91 105.5 -145t223.5 -54q145 0 245 68t100 176q0 47 -9 78.5t-36 61.5t-76.5 54.5t-130.5 49.5q-165 50 -251.5 99t-121.5 109.5t-35 155.5q0 63 19 123t61 115.5t102 97t149.5 66t196.5 24.5q174 0 281 -64t166 -194l-160 -90q-33 87 -111 135.5
t-196 48.5q-157 0 -235 -70.5t-78 -170.5q0 -39 7.5 -62t35.5 -48.5t82 -48.5t147 -52q223 -71 305 -155t82 -234q0 -89 -30.5 -162t-82.5 -123.5t-122.5 -85t-150 -50.5t-165.5 -16q-93 0 -168.5 15t-127 40.5t-91 63t-62.5 76.5t-40 88zM419 -510h-102q89 93 115 162
q-48 0 -70 16.5t-22 52.5q0 89 53 129q31 27 92 27q102 0 102 -86q0 -69 -45 -147q-42 -71 -123 -154z" />
    <glyph glyph-name="scommaaccent" unicode="&#x219;" horiz-adv-x="971" 
d="M20 158l148 80q28 -60 81 -91.5t144 -31.5q47 0 91 9t83.5 27.5t63.5 53t24 80.5q0 28 -6 46t-26.5 39.5t-62.5 42.5t-111 44q-162 53 -221.5 115t-59.5 165q0 146 110.5 244t299.5 98q97 0 168 -25t111.5 -63.5t68.5 -95.5l-144 -84q-54 123 -221 123q-100 0 -162.5 -48
t-62.5 -120q0 -52 37 -92t133 -68q185 -56 253 -120t68 -183q0 -144 -118 -239t-328 -95q-161 0 -248.5 53.5t-112.5 135.5zM299 -510h-102q89 93 115 162q-48 0 -70 16.5t-22 52.5q0 89 53 129q31 27 92 27q102 0 102 -86q0 -69 -45 -147q-42 -71 -123 -154z" />
    <glyph glyph-name="uni021A" unicode="&#x21a;" horiz-adv-x="1159" 
d="M1268 1217h-451l-258 -1217h-180l258 1217h-449l35 167h1080zM378 -510h-102q89 93 115 162q-48 0 -70 16.5t-22 52.5q0 89 53 129q32 27 92 27q102 0 102 -86q0 -69 -45 -147q-42 -71 -123 -154z" />
    <glyph glyph-name="uni021B" unicode="&#x21b;" horiz-adv-x="715" 
d="M563 141v-141q-100 -31 -186 -31q-123 0 -182.5 58t-59.5 157q0 79 19 156l120 565h-145l29 144h145l64 292h168l-64 -292h262l-28 -144h-263l-118 -555q-21 -90 -21 -137q0 -53 25 -76.5t82 -23.5q81 0 153 28zM233 -510h-102q89 93 115 162q-48 0 -70 16.5t-22 52.5
q0 89 53 129q32 27 92 27q102 0 102 -86q0 -69 -45 -147q-42 -71 -123 -154z" />
    <glyph glyph-name="dotlessj" unicode="&#x237;" horiz-adv-x="526" 
d="M463 1049l-232 -1094q-37 -181 -123.5 -265.5t-254.5 -84.5q-91 0 -181 30l72 142q66 -29 143 -29q75 0 114 54.5t65 172.5l227 1074h170z" />
    <glyph glyph-name="uni02C0" unicode="&#x2c0;" horiz-adv-x="975" 
d="M399 0h-170l125 598q122 62 197.5 110t132.5 104.5t80.5 118.5t23.5 142q0 166 -213 166q-182 0 -290 -141l-131 104q147 201 432 201q189 0 294 -82.5t105 -239.5q0 -181 -113.5 -313t-365.5 -256z" />
    <glyph glyph-name="circumflex" unicode="&#x2c6;" 
d="M1004 1208h-140l-129 238l-231 -238h-154l301 361h207z" />
    <glyph glyph-name="caron" unicode="&#x2c7;" 
d="M430 1569h139l129 -238l232 238h153l-301 -361h-207z" />
    <glyph glyph-name="uni02C9" unicode="&#x2c9;" 
d="M987 1255h-598l29 140h598z" />
    <glyph glyph-name="breve" unicode="&#x2d8;" 
d="M926 1468h131q-26 -127 -115 -204.5t-252 -77.5q-142 0 -212 61.5t-70 159.5q0 31 6 61h125q0 -64 39.5 -94.5t126.5 -30.5q93 0 144.5 31t76.5 94z" />
    <glyph glyph-name="dotaccent" unicode="&#x2d9;" 
d="M825 1364q0 -20 -7 -49t-15 -43q-20 -36 -48.5 -50t-74.5 -14q-53 0 -74.5 19t-21.5 55q0 46 18 86q31 70 125 70q53 0 75.5 -18t22.5 -56z" />
    <glyph glyph-name="ring" unicode="&#x2da;" 
d="M897 1380q0 -91 -58.5 -157t-164.5 -66q-84 0 -122 44t-38 112q0 90 61.5 155.5t157.5 65.5q78 0 121 -41t43 -113zM688 1239q55 0 89 36t34 97q0 80 -88 80q-56 0 -89.5 -40.5t-33.5 -90.5q0 -41 19.5 -61.5t68.5 -20.5z" />
    <glyph glyph-name="ogonek" unicode="&#x2db;" horiz-adv-x="911" 
d="M477 -223l31 -109q-86 -63 -195 -63q-176 0 -176 164q0 100 90 175.5t293 131.5l55 -76q-171 -59 -230.5 -104t-59.5 -101q0 -51 59 -51q68 0 133 33z" />
    <glyph glyph-name="tilde" unicode="&#x2dc;" 
d="M428 1221h-119q33 129 102 195.5t162 66.5q43 0 78.5 -14.5t59.5 -35.5t45 -42t44.5 -35.5t49.5 -14.5q47 0 81.5 36t49.5 93h119q-65 -262 -273 -262q-51 0 -89.5 14.5t-61 35.5t-41 42t-39 35.5t-45.5 14.5q-42 0 -74 -33.5t-49 -95.5z" />
    <glyph glyph-name="hungarumlaut" unicode="&#x2dd;" 
d="M1188 1569l-330 -361h-151l237 361h244zM848 1569l-330 -361h-151l235 361h246z" />
    <glyph glyph-name="gravecomb" unicode="&#x300;" horiz-adv-x="0" 
d="M289 1208h-121l-209 361h217z" />
    <glyph glyph-name="acutecomb" unicode="&#x301;" horiz-adv-x="0" 
d="M492 1569l-332 -361h-150l240 361h242z" />
    <glyph glyph-name="uni0302" unicode="&#x302;" horiz-adv-x="0" 
d="M479 1208h-139l-129 238l-231 -238h-154l301 361h207z" />
    <glyph glyph-name="tildecomb" unicode="&#x303;" horiz-adv-x="0" 
d="M-96 1221h-119q33 129 102 195.5t162 66.5q43 0 79 -14.5t59.5 -35.5t44.5 -42t44.5 -35.5t49.5 -14.5q47 0 81.5 36t49.5 93h118q-64 -262 -272 -262q-51 0 -89.5 14.5t-61 35.5t-41 42t-39.5 35.5t-45 14.5q-42 0 -74 -33.5t-49 -95.5z" />
    <glyph glyph-name="uni0304" unicode="&#x304;" horiz-adv-x="0" 
d="M444 1255h-598l29 140h598z" />
    <glyph glyph-name="uni0306" unicode="&#x306;" horiz-adv-x="0" 
d="M412 1530h131q-26 -129 -115 -206t-252 -77q-142 0 -212 62t-70 159q0 31 6 62h125q0 -64 39 -94.5t126 -30.5q93 0 145.5 31t76.5 94z" />
    <glyph glyph-name="uni0307" unicode="&#x307;" horiz-adv-x="0" 
d="M301 1364q0 -20 -7 -49t-15 -43q-20 -36 -48.5 -50t-74.5 -14q-53 0 -75 19t-22 55q0 44 19 86q30 70 125 70q53 0 75.5 -18t22.5 -56z" />
    <glyph glyph-name="uni0308" unicode="&#x308;" horiz-adv-x="0" 
d="M98 1354q0 -19 -7 -47t-15 -41q-17 -32 -42 -45t-69 -13q-49 0 -69.5 16.5t-20.5 49.5q0 45 21 84q15 33 40 48t72 15q50 0 70 -16t20 -51zM485 1354q0 -19 -7 -47t-15 -41q-17 -32 -42 -45t-69 -13q-49 0 -69.5 16.5t-20.5 49.5q0 45 21 84q15 33 40 48t72 15
q50 0 70 -16t20 -51z" />
    <glyph glyph-name="hookabovecomb" unicode="&#x309;" horiz-adv-x="0" 
d="M59 1352l-41 88q66 51 164 51q89 0 137 -38.5t48 -98.5q0 -59 -39.5 -100t-126.5 -52l-8 -41h-105l25 113h30q38 0 60 15t22 40q0 55 -73 55q-50 0 -93 -32z" />
    <glyph glyph-name="uni030A" unicode="&#x30a;" horiz-adv-x="0" 
d="M373 1380q0 -91 -58.5 -157t-164.5 -66q-84 0 -122 44t-38 112q0 90 61.5 155.5t157.5 65.5q78 0 121 -41t43 -113zM164 1239q55 0 89 36t34 97q0 80 -88 80q-56 0 -89.5 -40.5t-33.5 -90.5q0 -41 19.5 -61.5t68.5 -20.5z" />
    <glyph glyph-name="uni030C" unicode="&#x30c;" horiz-adv-x="0" 
d="M-94 1569h139l129 -238l232 238h153l-301 -361h-207z" />
    <glyph glyph-name="dotbelowcomb" unicode="&#x323;" horiz-adv-x="0" 
d="M182 -217q0 -20 -7 -49t-15 -43q-20 -36 -48.5 -50t-74.5 -14q-53 0 -74.5 19t-21.5 55q0 45 18 86q31 70 125 70q53 0 75.5 -18t22.5 -56z" />
    <glyph glyph-name="uni0374" unicode="&#x374;" horiz-adv-x="412" 
d="M559 1489l-231 -361h-119l141 361h209z" />
    <glyph glyph-name="uni0375" unicode="&#x375;" horiz-adv-x="412" 
d="M-92 -231l231 360h119l-141 -360h-209z" />
    <glyph glyph-name="uni037E" unicode="&#x37e;" horiz-adv-x="545" 
d="M483 977q0 -53 -22 -92q-34 -62 -127 -62q-101 0 -101 72q0 39 21 86q29 68 127 68q54 0 78 -17.5t24 -54.5zM106 -293h-102q52 52 90 135.5t51 143.5q-46 0 -67 17t-21 54q0 36 17 78q16 38 44 57t77 19q57 0 82.5 -21t25.5 -65q0 -81 -67 -225q-62 -132 -130 -193z" />
    <glyph glyph-name="tonos" unicode="&#x384;" horiz-adv-x="406" 
d="M627 1569l-334 -361h-148l242 361h240z" />
    <glyph glyph-name="dieresistonos" unicode="&#x385;" 
d="M727 1569h231l-276 -361h-143zM500 1354q0 -18 -7.5 -45.5t-15.5 -42.5q-17 -32 -42 -45t-68 -13q-51 0 -71 16.5t-20 49.5q0 14 6 41t15 43q15 33 40.5 48t72.5 15q50 0 70 -16t20 -51zM1110 1354q0 -19 -7 -47t-16 -41q-18 -31 -43 -44.5t-67 -13.5q-51 0 -70.5 16.5
t-19.5 49.5q0 14 5.5 41.5t14.5 42.5q15 33 40.5 48t72.5 15q50 0 70 -16t20 -51z" />
    <glyph glyph-name="Alphatonos" unicode="&#x386;" horiz-adv-x="1262" 
d="M145 0h-192l747 1384h236l176 -1384h-188l-43 360h-539zM782 1202l-356 -674h434zM315 1384h231l-285 -360h-143z" />
    <glyph glyph-name="anoteleia" unicode="&#x387;" horiz-adv-x="545" 
d="M424 786q0 -52 -22 -92q-34 -61 -127 -61q-54 0 -77.5 18t-23.5 53q0 42 21 86q29 68 127 68q54 0 78 -17.5t24 -54.5z" />
    <glyph glyph-name="Epsilontonos" unicode="&#x388;" horiz-adv-x="1257" 
d="M1024 0h-829l292 1384h830l-35 -167h-649l-86 -404h555l-35 -168h-555l-102 -477h649zM198 1384h231l-285 -360h-143z" />
    <glyph glyph-name="Etatonos" unicode="&#x389;" horiz-adv-x="1464" 
d="M1174 0h-181l133 633h-618l-133 -633h-180l292 1384h181l-123 -583h618l123 583h180zM198 1384h231l-285 -360h-143z" />
    <glyph glyph-name="Iotatonos" unicode="&#x38a;" horiz-adv-x="930" 
d="M751 160l-32 -160h-553l33 160h186l227 1067h-186l33 157h553l-33 -157h-187l-227 -1067h186zM198 1384h231l-285 -360h-143z" />
    <glyph glyph-name="Omicrontonos" unicode="&#x38c;" horiz-adv-x="1458" 
d="M703 -29q-129 0 -220.5 35t-144 102t-76.5 155.5t-24 205.5q0 248 100 489q43 102 94.5 179t125 142t174 99.5t225.5 34.5q222 0 338 -124.5t116 -364.5q0 -202 -63 -404q-171 -549 -645 -549zM432 465q0 -182 64.5 -256t216.5 -74q161 0 269 104.5t177 323.5
q58 190 58 367q0 164 -66 241.5t-213 77.5q-154 0 -250.5 -86.5t-167.5 -259.5q-43 -107 -65.5 -226.5t-22.5 -211.5zM198 1384h231l-285 -360h-143z" />
    <glyph glyph-name="Upsilontonos" unicode="&#x38e;" horiz-adv-x="1362" 
d="M1504 1384l-611 -849l-112 -535h-185l111 526l-246 858h189l180 -673l463 673h211zM198 1384h231l-285 -360h-143z" />
    <glyph glyph-name="Omegatonos" unicode="&#x38f;" horiz-adv-x="1479" 
d="M944 1413q261 0 375.5 -106t114.5 -324q0 -175 -54.5 -345t-152.5 -280q-53 -59 -116.5 -89t-156.5 -50l-10 -51h283l-35 -168h-447l68 322q169 19 266 133q89 102 140 333q20 91 20 187q0 142 -72.5 208t-226.5 66q-205 0 -319 -143q-85 -106 -129 -309
q-31 -146 -31 -240q0 -117 45.5 -167t165.5 -68l-68 -322h-444l35 168h280l10 51q-219 65 -219 342q0 162 57.5 349t157.5 302q173 201 463 201zM198 1384h231l-285 -360h-143z" />
    <glyph glyph-name="iotadieresistonos" unicode="&#x390;" horiz-adv-x="602" 
d="M457 127l10 -135q-73 -23 -174 -23t-147 49.5t-46 145.5q0 48 21 153l153 732h172l-157 -744q-17 -76 -17 -117q0 -43 18.5 -61t63.5 -18q56 0 103 18zM460 1569h231l-276 -361h-143zM233 1354q0 -18 -7.5 -45.5t-15.5 -42.5q-17 -32 -42 -45t-68 -13q-51 0 -71 16.5
t-20 49.5q0 14 6 41t15 43q15 33 40.5 48t72.5 15q50 0 70 -16t20 -51zM843 1354q0 -19 -7 -47t-16 -41q-18 -31 -43 -44.5t-67 -13.5q-51 0 -70.5 16.5t-19.5 49.5q0 14 5.5 41.5t14.5 42.5q15 33 40.5 48t72.5 15q50 0 70 -16t20 -51z" />
    <glyph glyph-name="Alpha" unicode="&#x391;" horiz-adv-x="1262" 
d="M145 0h-192l747 1384h236l176 -1384h-188l-43 360h-539zM782 1202l-356 -674h434z" />
    <glyph glyph-name="Beta" unicode="&#x392;" horiz-adv-x="1247" 
d="M889 756q109 -19 176.5 -93t67.5 -198q0 -76 -19.5 -143t-63.5 -127t-110 -102.5t-164.5 -67.5t-220.5 -25h-487l292 1384h396q122 0 205.5 -19t130 -56.5t66.5 -86.5t20 -116q0 -127 -73 -216t-216 -134zM420 809h201q175 0 265.5 66t90.5 196q0 87 -57.5 118.5
t-176.5 31.5h-237zM283 168h256q196 0 294.5 70.5t98.5 226.5q0 45 -14 77.5t-38.5 52t-66 31t-87 15.5t-110.5 4h-231z" />
    <glyph glyph-name="Gamma" unicode="&#x393;" horiz-adv-x="1047" 
d="M1153 1223h-647l-258 -1223h-180l292 1384h828z" />
    <glyph glyph-name="uni0394" unicode="&#x394;" horiz-adv-x="1235" 
d="M1092 88l-19 -88h-1130l18 88l727 1296h230l53.5 -405.5l64 -485.5zM195 160h700l-109 887q-8 60 -14 172h-4q-27 -66 -88 -175z" />
    <glyph glyph-name="Epsilon" unicode="&#x395;" horiz-adv-x="1130" 
d="M897 0h-829l292 1384h830l-35 -167h-649l-86 -404h555l-35 -168h-555l-102 -477h649z" />
    <glyph glyph-name="Zeta" unicode="&#x396;" horiz-adv-x="1141" 
d="M926 0h-946l36 176l926 1041h-674l35 167h899l-35 -165l-936 -1051h730z" />
    <glyph glyph-name="Eta" unicode="&#x397;" horiz-adv-x="1337" 
d="M1047 0h-181l133 633h-618l-133 -633h-180l292 1384h181l-123 -583h618l123 583h180z" />
    <glyph glyph-name="Theta" unicode="&#x398;" horiz-adv-x="1384" 
d="M602 -29q-134 0 -229.5 35t-150.5 102t-80 155.5t-25 205.5q0 258 100 489q35 80 75 144t96.5 124t123 100t156 63.5t194.5 23.5q233 0 354 -124t121 -365q0 -202 -63 -404q-40 -122 -95 -217t-135 -172t-192 -118.5t-250 -41.5zM311 465q0 -182 69 -256t230 -74
q173 0 288 105t187 323q58 177 58 367q0 164 -70.5 241.5t-226.5 77.5q-165 0 -270 -87t-177 -259q-45 -106 -66.5 -224.5t-21.5 -213.5zM946 618h-469l37 177h469z" />
    <glyph glyph-name="Iota" unicode="&#x399;" horiz-adv-x="754" 
d="M575 160l-32 -160h-553l33 160h186l227 1067h-186l33 157h553l-33 -157h-187l-227 -1067h186z" />
    <glyph glyph-name="Kappa" unicode="&#x39a;" horiz-adv-x="1239" 
d="M1075 0h-219l-338 625l-172 -158l-98 -467h-180l292 1384h181l-138 -653l695 653h235l-680 -641z" />
    <glyph glyph-name="Lambda" unicode="&#x39b;" horiz-adv-x="1200" 
d="M-59 0l725 1384h243l131 -1384h-180l-106 1206l-619 -1206h-194z" />
    <glyph glyph-name="Mu" unicode="&#x39c;" horiz-adv-x="1561" 
d="M1272 0h-172l243 1147l-538 -770h-113l-207 770l-243 -1147h-174l292 1384h238l199 -753l524 753h244z" />
    <glyph glyph-name="Nu" unicode="&#x39d;" horiz-adv-x="1358" 
d="M1069 0h-199l-376 1188l-252 -1188h-174l292 1384h250l346 -1087l232 1087h174z" />
    <glyph glyph-name="Xi" unicode="&#x39e;" horiz-adv-x="1079" 
d="M1104 1217h-834l35 167h834zM924 645h-717l35 168h716zM846 0h-834l35 168h834z" />
    <glyph glyph-name="Omicron" unicode="&#x39f;" horiz-adv-x="1337" 
d="M582 -29q-129 0 -220.5 35t-144 102t-76.5 155.5t-24 205.5q0 248 100 489q43 102 94.5 179t125 142t174 99.5t225.5 34.5q222 0 338 -124.5t116 -364.5q0 -202 -63 -404q-171 -549 -645 -549zM311 465q0 -182 64.5 -256t216.5 -74q161 0 269 104.5t177 323.5
q58 190 58 367q0 164 -66 241.5t-213 77.5q-154 0 -250.5 -86.5t-167.5 -259.5q-43 -107 -65.5 -226.5t-22.5 -211.5z" />
    <glyph glyph-name="Pi" unicode="&#x3a0;" horiz-adv-x="1300" 
d="M248 0h-180l292 1384h945l-293 -1384h-181l259 1217h-584z" />
    <glyph glyph-name="Rho" unicode="&#x3a1;" horiz-adv-x="1157" 
d="M1167 1069q0 -128 -31 -233t-96 -189t-177 -131t-263 -47h-254l-98 -469h-180l292 1384h408q199 0 299 -72t100 -243zM383 637h235q80 0 142.5 24.5t101.5 63.5t64 93.5t35 110.5t10 118q0 90 -50 130t-178 40h-237z" />
    <glyph glyph-name="Sigma" unicode="&#x3a3;" horiz-adv-x="1085" 
d="M885 0h-922l33 170l618 549l-395 504l35 161h893l-35 -165h-676l387 -494l-8 -39l-584 -520h689z" />
    <glyph glyph-name="Tau" unicode="&#x3a4;" horiz-adv-x="1159" 
d="M1268 1217h-451l-258 -1217h-180l258 1217h-449l35 167h1080z" />
    <glyph glyph-name="Upsilon" unicode="&#x3a5;" horiz-adv-x="1124" 
d="M1266 1384l-611 -849l-112 -535h-185l111 526l-246 858h189l180 -673l463 673h211z" />
    <glyph glyph-name="Phi" unicode="&#x3a6;" horiz-adv-x="1468" 
d="M725 90l-31 -139h-174l31 139q-216 18 -320 118t-104 300q0 96 34 236t85 231q58 103 132 169.5t180 104t249 43.5l31 144h174l-31 -144q221 -16 326.5 -118t105.5 -316q0 -121 -39.5 -263t-116.5 -257q-83 -125 -208.5 -182.5t-323.5 -65.5zM1104 434q54 93 84.5 209.5
t30.5 214.5q0 138 -63 205.5t-208 73.5l-190 -891q240 6 346 188zM414 905q-42 -78 -66 -184.5t-24 -194.5q0 -144 57.5 -208t202.5 -72l190 891q-247 -10 -360 -232z" />
    <glyph glyph-name="Chi" unicode="&#x3a7;" horiz-adv-x="1184" 
d="M156 0h-213l592 715l-289 669h200l218 -534l436 534h215l-586 -690l293 -694h-201l-223 559z" />
    <glyph glyph-name="Psi" unicode="&#x3a8;" horiz-adv-x="1466" 
d="M1518 1384l-123 -583q-62 -286 -202.5 -404.5t-428.5 -136.5l-66 -305h-174l66 305q-200 12 -309 110t-109 283q0 80 21 170l118 561h181l-119 -563q-19 -78 -19 -170q0 -106 67.5 -169.5t201.5 -67.5l204 970h174l-204 -970q128 14 206.5 53t131 122.5t82.5 227.5
l120 567h181z" />
    <glyph glyph-name="uni03A9" unicode="&#x3a9;" horiz-adv-x="1352" 
d="M817 1413q261 0 375.5 -106t114.5 -324q0 -175 -54.5 -345t-152.5 -280q-53 -59 -116.5 -89t-156.5 -50l-10 -51h283l-35 -168h-447l68 322q169 19 266 133q89 102 140 333q20 91 20 187q0 142 -72.5 208t-226.5 66q-205 0 -319 -143q-85 -106 -129 -309
q-31 -146 -31 -240q0 -117 45.5 -167t165.5 -68l-68 -322h-444l35 168h280l10 51q-219 65 -219 342q0 162 57.5 349t157.5 302q173 201 463 201z" />
    <glyph glyph-name="Iotadieresis" unicode="&#x3aa;" horiz-adv-x="754" 
d="M575 160l-32 -160h-553l33 160h186l227 1067h-186l33 157h553l-33 -157h-187l-227 -1067h186zM542 1690q0 -18 -7.5 -45.5t-15.5 -42.5q-17 -32 -42 -45t-69 -13q-49 0 -69.5 16.5t-20.5 49.5q0 14 6 41t15 43q15 33 40 48t72 15q50 0 70.5 -16t20.5 -51zM929 1690
q0 -18 -7.5 -45.5t-15.5 -42.5q-17 -32 -42 -45t-68 -13q-51 0 -71 16.5t-20 49.5q0 14 6 41t15 43q15 33 40.5 48t72.5 15q50 0 70 -16t20 -51z" />
    <glyph glyph-name="Upsilondieresis" unicode="&#x3ab;" horiz-adv-x="1124" 
d="M1266 1384l-611 -849l-112 -535h-185l111 526l-246 858h189l180 -673l463 673h211zM703 1690q0 -18 -7.5 -45.5t-15.5 -42.5q-17 -32 -42 -45t-69 -13q-49 0 -69.5 16.5t-20.5 49.5q0 14 6 41t15 43q15 33 40 48t72 15q50 0 70.5 -16t20.5 -51zM1090 1690
q0 -18 -7.5 -45.5t-15.5 -42.5q-17 -32 -42 -45t-68 -13q-51 0 -71 16.5t-20 49.5q0 14 6 41t15 43q15 33 40.5 48t72.5 15q50 0 70 -16t20 -51z" />
    <glyph glyph-name="alphatonos" unicode="&#x3ac;" horiz-adv-x="1194" 
d="M1061 127l10 -135q-65 -23 -137 -23q-101 0 -148 43t-47 129q0 39 13 101q-136 -273 -367 -273q-153 0 -224 93.5t-71 275.5q0 107 30 231t89 230q152 280 416 280q100 0 175 -35.5t113 -101.5q22 78 33 107h170q-122 -343 -147 -474l-58 -270q-16 -74 -16 -119t18 -61
t56 -16q45 0 92 18zM412 131q291 0 456 655q-68 144 -235 144q-91 0 -157 -51.5t-116 -151.5q-43 -87 -67.5 -195t-24.5 -192q0 -111 35 -160t109 -49zM1057 1569l-334 -361h-148l242 361h240z" />
    <glyph glyph-name="epsilontonos" unicode="&#x3ad;" horiz-adv-x="1024" 
d="M733 254l117 -92q-151 -193 -416 -193q-366 0 -366 287q0 77 59 154.5t162 115.5q-59 35 -89 82t-30 131q0 143 125.5 241.5t322.5 98.5q158 0 240 -49t127 -149l-151 -80q-26 67 -78 101t-148 34q-122 0 -193 -56t-71 -139q0 -35 12.5 -59.5t32 -38.5t52 -21.5t63 -9.5
t74.5 -2h217l-31 -143h-225q-152 0 -221.5 -51.5t-69.5 -139.5q0 -82 56 -122.5t136 -40.5q97 0 165.5 35.5t127.5 105.5zM1022 1569l-334 -361h-148l242 361h240z" />
    <glyph glyph-name="etatonos" unicode="&#x3ae;" horiz-adv-x="1141" 
d="M786 -395h-168l216 1013q26 124 26 201q0 103 -106 103q-158 0 -371 -181l-158 -741h-170l221 1049h170l-32 -156q203 186 379 186q239 0 239 -239q0 -70 -33 -222zM1057 1569l-334 -361h-148l242 361h240z" />
    <glyph glyph-name="iotatonos" unicode="&#x3af;" horiz-adv-x="602" 
d="M457 127l10 -135q-73 -23 -174 -23t-147 49.5t-46 145.5q0 48 21 153l153 732h172l-157 -744q-17 -76 -17 -117q0 -43 18.5 -61t63.5 -18q56 0 103 18zM756 1569l-334 -361h-148l242 361h240z" />
    <glyph glyph-name="upsilondieresistonos" unicode="&#x3b0;" horiz-adv-x="1120" 
d="M119 379l143 670h174l-141 -670q-14 -66 -14 -109q0 -67 43 -111t120 -44q149 0 241.5 94t139.5 309q39 169 39 336q0 113 -8 195h180q6 -40 6 -187q0 -44 -8.5 -141t-25.5 -182q-33 -160 -88.5 -272t-130.5 -176.5t-161.5 -93t-195.5 -28.5q-152 0 -240 78.5t-88 212.5
q0 52 15 119zM743 1569h231l-276 -361h-143zM516 1354q0 -18 -7.5 -45.5t-15.5 -42.5q-17 -32 -42 -45t-68 -13q-51 0 -71 16.5t-20 49.5q0 14 6 41t15 43q15 33 40.5 48t72.5 15q50 0 70 -16t20 -51zM1126 1354q0 -19 -7 -47t-16 -41q-18 -31 -43 -44.5t-67 -13.5
q-51 0 -70.5 16.5t-19.5 49.5q0 14 5.5 41.5t14.5 42.5q15 33 40.5 48t72.5 15q50 0 70 -16t20 -51z" />
    <glyph glyph-name="alpha" unicode="&#x3b1;" horiz-adv-x="1194" 
d="M1061 127l10 -135q-65 -23 -137 -23q-101 0 -148 43t-47 129q0 39 13 101q-136 -273 -367 -273q-153 0 -224 93.5t-71 275.5q0 107 30 231t89 230q152 280 416 280q100 0 175 -35.5t113 -101.5q22 78 33 107h170q-122 -343 -147 -474l-58 -270q-16 -74 -16 -119t18 -61
t56 -16q45 0 92 18zM412 131q291 0 456 655q-68 144 -235 144q-91 0 -157 -51.5t-116 -151.5q-43 -87 -67.5 -195t-24.5 -192q0 -111 35 -160t109 -49z" />
    <glyph glyph-name="beta" unicode="&#x3b2;" horiz-adv-x="1153" 
d="M1036 524q0 -72 -20.5 -148t-63 -149t-101 -130.5t-141 -92.5t-175.5 -35q-105 0 -182 31t-120 76l-100 -473h-170l311 1472q46 220 157.5 332.5t313.5 112.5q169 0 255.5 -80t86.5 -219q0 -128 -87 -232.5t-246 -144.5q125 -13 203.5 -94t78.5 -226zM440 1042l-176 -829
q41 -36 108 -66t144 -30q72 0 132.5 30.5t97.5 76.5t63 102.5t36.5 107t10.5 92.5q0 66 -26.5 112t-76.5 71t-110 36t-137 11l31 145q102 2 184 34.5t135 104t53 172.5q0 82 -44.5 122t-141.5 40q-229 0 -283 -332z" />
    <glyph glyph-name="gamma" unicode="&#x3b3;" horiz-adv-x="1044" 
d="M162 1049h178l98 -840q162 172 288.5 386t170.5 419l6 35h178l-8 -43q-26 -124 -91 -263t-150 -266t-178.5 -239t-186.5 -199l-92 -434h-170l92 434z" />
    <glyph glyph-name="delta" unicode="&#x3b4;" horiz-adv-x="1176" 
d="M596 971q-106 92 -148 158.5t-42 146.5q0 108 91 176t271 68q129 0 223.5 -24t141.5 -54l-91 -133q-51 28 -142 51.5t-136 23.5q-174 0 -174 -100q0 -62 39.5 -114t132.5 -115q105 -71 167.5 -138t97 -154t34.5 -198q0 -76 -22.5 -157t-70.5 -160t-114 -141t-162 -100
t-207 -38q-191 0 -293 94.5t-102 274.5q0 131 63 260.5t180 230.5t263 142zM711 887q-186 -45 -314.5 -201t-128.5 -342q0 -100 54 -164.5t174 -64.5q79 0 151.5 41t123.5 107t81.5 150t30.5 169q0 104 -43.5 171.5t-128.5 133.5z" />
    <glyph glyph-name="epsilon" unicode="&#x3b5;" horiz-adv-x="1024" 
d="M733 254l117 -92q-151 -193 -416 -193q-366 0 -366 287q0 77 59 154.5t162 115.5q-59 35 -89 82t-30 131q0 143 125.5 241.5t322.5 98.5q158 0 240 -49t127 -149l-151 -80q-26 67 -78 101t-148 34q-122 0 -193 -56t-71 -139q0 -35 12.5 -59.5t32 -38.5t52 -21.5t63 -9.5
t74.5 -2h217l-31 -143h-225q-152 0 -221.5 -51.5t-69.5 -139.5q0 -82 56 -122.5t136 -40.5q97 0 165.5 35.5t127.5 105.5z" />
    <glyph glyph-name="zeta" unicode="&#x3b6;" horiz-adv-x="891" 
d="M338 1341l31 148h645l-27 -125q-138 -82 -279 -220t-245 -298q-184 -282 -184 -555q0 -66 38 -100.5t150 -59.5q144 -33 196 -72.5t52 -119.5q0 -83 -62 -209q-40 -77 -48 -90q-7 -13 -21 -35h-174q17 25 28 44q31 52 56 105q38 79 38 129q0 36 -36 61t-134 44
q-92 17 -148 47.5t-89 93.5t-33 164q0 275 234 620q85 124 193.5 239t219.5 189h-401z" />
    <glyph glyph-name="eta" unicode="&#x3b7;" horiz-adv-x="1141" 
d="M786 -395h-168l216 1013q26 124 26 201q0 103 -106 103q-158 0 -371 -181l-158 -741h-170l221 1049h170l-32 -156q203 186 379 186q239 0 239 -239q0 -70 -33 -222z" />
    <glyph glyph-name="theta" unicode="&#x3b8;" horiz-adv-x="1147" 
d="M373 838h536q39 195 39 305q0 114 -44 173.5t-150 59.5q-151 0 -236 -127t-145 -411zM756 1522q188 0 276 -99t88 -295q0 -126 -55 -380q-25 -115 -49 -204t-54.5 -173t-64.5 -144.5t-78 -111t-95.5 -81.5t-115.5 -48t-141 -17q-182 0 -267 93.5t-85 291.5q0 100 61 394
q43 207 92.5 347t118 238.5t158.5 143.5t211 45zM879 698h-537q-51 -239 -51 -354q0 -111 44 -170t146 -59q79 0 139.5 35.5t107.5 111.5t82 180t69 256z" />
    <glyph glyph-name="iota" unicode="&#x3b9;" horiz-adv-x="602" 
d="M457 127l10 -135q-73 -23 -174 -23t-147 49.5t-46 145.5q0 48 21 153l153 732h172l-157 -744q-17 -76 -17 -117q0 -43 18.5 -61t63.5 -18q56 0 103 18z" />
    <glyph glyph-name="kappa" unicode="&#x3ba;" horiz-adv-x="1036" 
d="M879 0h-193l-240 481l-147 -135l-74 -346h-170l224 1049h170l-103 -474l512 474h219l-502 -463z" />
    <glyph glyph-name="lambda" unicode="&#x3bb;" horiz-adv-x="1069" 
d="M733 1169l55 -899q6 -81 25.5 -109t56.5 -28q24 0 50 8l18 -141q-65 -16 -117 -16q-46 0 -77.5 11t-59 41.5t-42.5 90.5t-19 152l-25 552l-469 -831h-186l641 1075l-6 101q-5 85 -18.5 128.5t-33 56.5t-55.5 13q-30 0 -73.5 -12.5t-69.5 -28.5l-9 142q102 47 177 47
q129 0 177 -72t60 -281z" />
    <glyph glyph-name="uni03BC" unicode="&#x3bc;" horiz-adv-x="1147" 
d="M1108 1049l-221 -1049h-162l14 119q-76 -77 -147.5 -113.5t-151.5 -36.5q-74 0 -128.5 22.5t-102.5 71.5l-96 -458h-168l303 1444h170l-168 -793q68 -117 225 -117q156 0 299 144l162 766h172z" />
    <glyph glyph-name="nu" unicode="&#x3bd;" horiz-adv-x="1004" 
d="M162 1049h176l80 -865q93 116 181 248t167.5 292t105.5 284l9 41h184l-6 -35q-54 -238 -241 -527.5t-384 -486.5h-158z" />
    <glyph glyph-name="xi" unicode="&#x3be;" horiz-adv-x="893" 
d="M545 1354h-228l29 135h639l-31 -141h-47q-158 0 -240.5 -31.5t-119.5 -89.5q-66 -103 -66 -207q0 -86 42 -120t130 -34h172l-30 -145h-193q-145 0 -244 -131q-86 -115 -86 -256q0 -30 5.5 -54t13.5 -41t24 -31.5t28 -23t36 -17.5t38 -13t43.5 -11.5t43.5 -11.5
q41 -12 64 -20t55.5 -25t49 -35.5t29.5 -49t13 -69.5q0 -80 -45 -176q-27 -58 -55 -106q-13 -26 -27 -45h-164q38 38 79.5 123.5t41.5 138.5q0 52 -33.5 75t-126.5 50q-85 25 -136 48t-89.5 60t-54 89t-15.5 130q0 81 32 172.5t97 161.5q85 95 211 133q-127 63 -127 218
q0 132 86 243q57 73 156 107z" />
    <glyph glyph-name="omicron" unicode="&#x3bf;" horiz-adv-x="1135" 
d="M92 379q0 124 48 273t145 257q148 170 381 170q182 0 279 -102.5t97 -304.5q0 -141 -53 -297.5t-160 -261.5q-144 -144 -352 -144q-205 0 -295 101.5t-90 308.5zM266 369q0 -132 51 -191t170 -59q135 0 232 110q68 78 108.5 202t40.5 241q0 132 -53.5 195t-165.5 63
q-151 0 -252 -135q-60 -80 -95.5 -198.5t-35.5 -227.5z" />
    <glyph glyph-name="pi" unicode="&#x3c0;" horiz-adv-x="1296" 
d="M1130 141l15 -135q-80 -22 -176 -22q-109 0 -157 46t-48 138q0 49 20 149l127 592h-350l-133 -622q-38 -187 -90 -287h-191q44 75 69 139.5t44 159.5l129 610q-50 0 -128 -14.5t-122 -34.5l-24 125q141 64 321 64h928l-29 -140h-254l-129 -604q-14 -57 -14 -108
q0 -42 19 -58t65 -16q62 0 108 18z" />
    <glyph glyph-name="rho" unicode="&#x3c1;" horiz-adv-x="1153" 
d="M113 -395h-168l194 930q115 544 545 544q195 0 288 -100.5t93 -280.5q0 -105 -34.5 -234t-94.5 -237q-144 -258 -444 -258q-95 0 -166.5 43.5t-102.5 112.5zM307 524l-47 -223q33 -80 98 -129t148 -49q78 0 151 45.5t125 138.5q48 83 74.5 187.5t26.5 203.5
q0 236 -207 236q-146 0 -233.5 -91t-135.5 -319z" />
    <glyph glyph-name="sigma1" unicode="&#x3c2;" horiz-adv-x="961" 
d="M424 -395q121 195 121 262q0 52 -33.5 75t-126.5 50q-159 46 -224 128t-65 238q0 57 10 121.5t32 135t53.5 136.5t79 126t104 104.5t131.5 71t160 26.5q261 0 338 -192l-152 -82q-25 63 -74 94t-129 31q-89 0 -163.5 -57.5t-119.5 -145.5t-69.5 -186t-24.5 -187
q0 -98 47.5 -140.5t184.5 -82.5q41 -12 64 -20t55.5 -25t49 -35.5t29.5 -49t13 -69.5q0 -80 -45 -176q-27 -58 -55 -106q-13 -26 -27 -45h-164z" />
    <glyph glyph-name="sigma" unicode="&#x3c3;" horiz-adv-x="1221" 
d="M700 1049h560l-31 -146h-260q86 -97 86 -260q0 -110 -31.5 -225.5t-91.5 -208.5q-72 -113 -191.5 -176.5t-279.5 -63.5q-99 0 -172.5 28.5t-116.5 80t-63.5 117t-20.5 145.5q0 181 98 393q76 160 201.5 238t312.5 78zM813 903h-123q-140 0 -219.5 -55.5t-122.5 -159.5
q-82 -189 -82 -356q0 -96 53.5 -156.5t151.5 -60.5q198 0 301 153q55 82 83 189t28 217q0 142 -70 229z" />
    <glyph glyph-name="tau" unicode="&#x3c4;" horiz-adv-x="938" 
d="M997 1049l-28 -144h-357l-129 -600q-14 -60 -14 -108q0 -43 15.5 -58.5t64.5 -15.5q57 0 98 18l12 -135q-67 -22 -147 -22q-118 0 -166.5 44.5t-48.5 137.5q0 51 20 151l125 588h-94q-130 0 -244 -57l-26 135q126 66 309 66h610z" />
    <glyph glyph-name="upsilon" unicode="&#x3c5;" horiz-adv-x="1120" 
d="M119 379l143 670h174l-141 -670q-14 -66 -14 -109q0 -67 43 -111t120 -44q149 0 241.5 94t139.5 309q39 169 39 336q0 113 -8 195h180q6 -40 6 -187q0 -44 -8.5 -141t-25.5 -182q-33 -160 -88.5 -272t-130.5 -176.5t-161.5 -93t-195.5 -28.5q-152 0 -240 78.5t-88 212.5
q0 52 15 119z" />
    <glyph glyph-name="phi" unicode="&#x3c6;" horiz-adv-x="1339" 
d="M559 -395h-164l78 368q-188 13 -284.5 103.5t-96.5 281.5q0 82 22 186.5t62 196.5q72 164 212 248t319 86l88 414h163l-88 -414q186 -13 281.5 -104.5t95.5 -286.5q0 -94 -29.5 -213t-82.5 -217q-75 -139 -198 -205.5t-300 -75.5zM502 111l176 825q-234 -4 -336 -242
q-72 -167 -72 -338q0 -229 232 -245zM842 936l-176 -823q101 5 181.5 57t129.5 139q45 79 69.5 179t24.5 198q0 117 -56 182.5t-173 67.5z" />
    <glyph glyph-name="chi" unicode="&#x3c7;" horiz-adv-x="1049" 
d="M-121 -385l527 758l-76 442q-12 67 -30 90t-54 23q-34 0 -66 -13l-22 134q68 30 147 30q76 0 118.5 -43t57.5 -147l58 -350l335 510h197l-489 -705l86 -469q12 -68 34.5 -93.5t65.5 -25.5q16 0 51 13l23 -138q-76 -26 -133 -26q-87 0 -136 56.5t-69 184.5l-55 338
l-377 -569h-193z" />
    <glyph glyph-name="psi" unicode="&#x3c8;" horiz-adv-x="1352" 
d="M809 1491h166l-291 -1374q91 3 172.5 61t138.5 162q55 101 83 258.5t28 331.5q0 75 -4 119h172q6 -29 6 -121q0 -195 -28 -362t-107 -302q-161 -275 -492 -289l-78 -370h-165l77 366q-366 26 -366 324q0 55 18 135l129 619h172l-133 -629q-14 -58 -14 -125
q0 -167 223 -182z" />
    <glyph glyph-name="omega" unicode="&#x3c9;" horiz-adv-x="1604" 
d="M1223 1012l180 35q84 -166 84 -441q0 -305 -126 -471t-335 -166q-135 0 -207 70t-82 188q-59 -128 -151.5 -193t-204.5 -65q-159 0 -234 83t-75 247q0 162 105.5 385.5t238.5 362.5l176 -35q-145 -157 -237.5 -357.5t-92.5 -361.5q0 -86 33 -131t96 -45
q107 0 193.5 104.5t132.5 313.5l59 274h176l-59 -274q-23 -103 -23 -187q0 -116 41.5 -173.5t112.5 -57.5q123 0 199.5 129t76.5 348q0 255 -77 418z" />
    <glyph glyph-name="iotadieresis" unicode="&#x3ca;" horiz-adv-x="602" 
d="M457 127l10 -135q-73 -23 -174 -23t-147 49.5t-46 145.5q0 48 21 153l153 732h172l-157 -744q-17 -76 -17 -117q0 -43 18.5 -61t63.5 -18q56 0 103 18zM317 1354q0 -18 -7.5 -45.5t-15.5 -42.5q-17 -32 -42 -45t-69 -13q-49 0 -69.5 16.5t-20.5 49.5q0 14 6 41t15 43
q15 33 40 48t72 15q50 0 70.5 -16t20.5 -51zM704 1354q0 -18 -7.5 -45.5t-15.5 -42.5q-17 -32 -42 -45t-68 -13q-51 0 -71 16.5t-20 49.5q0 14 6 41t15 43q15 33 40.5 48t72.5 15q50 0 70 -16t20 -51z" />
    <glyph glyph-name="upsilondieresis" unicode="&#x3cb;" horiz-adv-x="1120" 
d="M119 379l143 670h174l-141 -670q-14 -66 -14 -109q0 -67 43 -111t120 -44q149 0 241.5 94t139.5 309q39 169 39 336q0 113 -8 195h180q6 -40 6 -187q0 -44 -8.5 -141t-25.5 -182q-33 -160 -88.5 -272t-130.5 -176.5t-161.5 -93t-195.5 -28.5q-152 0 -240 78.5t-88 212.5
q0 52 15 119zM622 1354q0 -18 -7.5 -45.5t-15.5 -42.5q-17 -32 -42 -45t-69 -13q-49 0 -69.5 16.5t-20.5 49.5q0 14 6 41t15 43q15 33 40 48t72 15q50 0 70.5 -16t20.5 -51zM1009 1354q0 -18 -7.5 -45.5t-15.5 -42.5q-17 -32 -42 -45t-68 -13q-51 0 -71 16.5t-20 49.5
q0 14 6 41t15 43q15 33 40.5 48t72.5 15q50 0 70 -16t20 -51z" />
    <glyph glyph-name="omicrontonos" unicode="&#x3cc;" horiz-adv-x="1135" 
d="M92 379q0 124 48 273t145 257q148 170 381 170q182 0 279 -102.5t97 -304.5q0 -141 -53 -297.5t-160 -261.5q-144 -144 -352 -144q-205 0 -295 101.5t-90 308.5zM266 369q0 -132 51 -191t170 -59q135 0 232 110q68 78 108.5 202t40.5 241q0 132 -53.5 195t-165.5 63
q-151 0 -252 -135q-60 -80 -95.5 -198.5t-35.5 -227.5zM1098 1569l-334 -361h-148l242 361h240z" />
    <glyph glyph-name="upsilontonos" unicode="&#x3cd;" horiz-adv-x="1120" 
d="M119 379l143 670h174l-141 -670q-14 -66 -14 -109q0 -67 43 -111t120 -44q149 0 241.5 94t139.5 309q39 169 39 336q0 113 -8 195h180q6 -40 6 -187q0 -44 -8.5 -141t-25.5 -182q-33 -160 -88.5 -272t-130.5 -176.5t-161.5 -93t-195.5 -28.5q-152 0 -240 78.5t-88 212.5
q0 52 15 119zM1053 1569l-334 -361h-148l242 361h240z" />
    <glyph glyph-name="omegatonos" unicode="&#x3ce;" horiz-adv-x="1604" 
d="M1223 1012l180 35q84 -166 84 -441q0 -305 -126 -471t-335 -166q-135 0 -207 70t-82 188q-59 -128 -151.5 -193t-204.5 -65q-159 0 -234 83t-75 247q0 162 105.5 385.5t238.5 362.5l176 -35q-145 -157 -237.5 -357.5t-92.5 -361.5q0 -86 33 -131t96 -45
q107 0 193.5 104.5t132.5 313.5l59 274h176l-59 -274q-23 -103 -23 -187q0 -116 41.5 -173.5t112.5 -57.5q123 0 199.5 129t76.5 348q0 255 -77 418zM1340 1569l-334 -361h-148l242 361h240z" />
    <glyph glyph-name="uni0400" unicode="&#x400;" horiz-adv-x="1130" 
d="M897 0h-829l292 1384h830l-35 -167h-649l-86 -404h555l-35 -168h-555l-102 -477h649zM889 1544h-121l-209 361h217z" />
    <glyph glyph-name="uni0401" unicode="&#x401;" horiz-adv-x="1130" 
d="M897 0h-829l292 1384h830l-35 -167h-649l-86 -404h555l-35 -168h-555l-102 -477h649zM725 1690q0 -18 -7.5 -45.5t-15.5 -42.5q-17 -32 -42 -45t-69 -13q-49 0 -69.5 16.5t-20.5 49.5q0 14 6 41t15 43q15 33 40 48t72 15q50 0 70.5 -16t20.5 -51zM1112 1690
q0 -18 -7.5 -45.5t-15.5 -42.5q-17 -32 -42 -45t-68 -13q-51 0 -71 16.5t-20 49.5q0 14 6 41t15 43q15 33 40.5 48t72.5 15q50 0 70 -16t20 -51z" />
    <glyph glyph-name="uni0402" unicode="&#x402;" horiz-adv-x="1333" 
d="M991 1384l-33 -155h-313l-90 -422h211q249 0 365 -75t116 -263q0 -81 -21.5 -149.5t-72 -128.5t-127 -101.5t-192.5 -65.5t-263 -24l31 154q106 1 183 16t138.5 49t92.5 95t31 149q0 96 -63.5 141t-225.5 45h-236l-137 -649h-184l260 1229h-271l33 155h768z" />
    <glyph glyph-name="uni0403" unicode="&#x403;" horiz-adv-x="1047" 
d="M1153 1223h-647l-258 -1223h-180l292 1384h828zM1121 1905l-332 -361h-150l240 361h242z" />
    <glyph glyph-name="uni0404" unicode="&#x404;" horiz-adv-x="1280" 
d="M1014 350l127 -114q-49 -61 -98 -105t-115 -82.5t-150.5 -58t-187.5 -19.5q-238 0 -355.5 126.5t-117.5 365.5q0 130 32.5 278t94.5 277q84 178 237 286.5t367 108.5q185 0 294.5 -67.5t168.5 -198.5l-162 -94q-43 101 -120 148.5t-206 47.5q-135 0 -239.5 -81.5
t-165.5 -215.5q-42 -94 -64 -172h660l-37 -168h-658q-10 -64 -10 -151q0 -156 73 -241t206 -85q141 0 240.5 54t185.5 161z" />
    <glyph glyph-name="uni0405" unicode="&#x405;" horiz-adv-x="1202" 
d="M31 254l172 80q30 -91 105.5 -145t223.5 -54q145 0 245 68t100 176q0 47 -9 78.5t-36 61.5t-76.5 54.5t-130.5 49.5q-165 50 -251.5 99t-121.5 109.5t-35 155.5q0 63 19 123t61 115.5t102 97t149.5 66t196.5 24.5q174 0 281 -64t166 -194l-160 -90q-33 87 -111 135.5
t-196 48.5q-157 0 -235 -70.5t-78 -170.5q0 -39 7.5 -62t35.5 -48.5t82 -48.5t147 -52q223 -71 305 -155t82 -234q0 -89 -30.5 -162t-82.5 -123.5t-122.5 -85t-150 -50.5t-165.5 -16q-93 0 -168.5 15t-127 40.5t-91 63t-62.5 76.5t-40 88z" />
    <glyph glyph-name="uni0406" unicode="&#x406;" horiz-adv-x="754" 
d="M575 160l-32 -160h-553l33 160h186l227 1067h-186l33 157h553l-33 -157h-187l-227 -1067h186z" />
    <glyph glyph-name="uni0407" unicode="&#x407;" horiz-adv-x="754" 
d="M575 160l-32 -160h-553l33 160h186l227 1067h-186l33 157h553l-33 -157h-187l-227 -1067h186zM542 1690q0 -18 -7.5 -45.5t-15.5 -42.5q-17 -32 -42 -45t-69 -13q-49 0 -69.5 16.5t-20.5 49.5q0 14 6 41t15 43q15 33 40 48t72 15q50 0 70.5 -16t20.5 -51zM929 1690
q0 -18 -7.5 -45.5t-15.5 -42.5q-17 -32 -42 -45t-68 -13q-51 0 -71 16.5t-20 49.5q0 14 6 41t15 43q15 33 40.5 48t72.5 15q50 0 70 -16t20 -51z" />
    <glyph glyph-name="uni0408" unicode="&#x408;" horiz-adv-x="866" 
d="M868 1384l-213 -1007q-48 -224 -149.5 -316t-298.5 -92q-131 0 -240 51l72 156q72 -43 180 -43q122 0 177.5 70t95.5 250l196 931h180z" />
    <glyph glyph-name="uni0409" unicode="&#x409;" horiz-adv-x="1915" 
d="M1225 0h-410l258 1223h-358l-19 -84q-37 -167 -75.5 -308t-85 -274.5t-99.5 -235t-113.5 -179t-132 -118t-149.5 -40.5q-82 0 -133 20l53 150q24 -11 59 -11q139 0 271 278t241 789l37 174h719l-112 -530h223q230 0 335 -77t105 -257q0 -45 -14.5 -113.5t-42.5 -127.5
q-66 -147 -204 -213t-353 -66zM1612 348q33 81 33 166q0 101 -61 139.5t-220 38.5h-223l-113 -530h221q286 0 363 186z" />
    <glyph glyph-name="uni040A" unicode="&#x40a;" horiz-adv-x="1935" 
d="M1319 1384l-117 -550h217q230 0 335.5 -74.5t105.5 -249.5q0 -45 -15 -113t-43 -125q-66 -144 -203 -208t-354 -64h-399l141 672h-598l-141 -672h-180l292 1384h181l-117 -550h598l117 550h180zM1384 672h-217l-108 -510h211q286 0 362 180q33 74 33 160q0 98 -60.5 134
t-220.5 36z" />
    <glyph glyph-name="uni040B" unicode="&#x40b;" horiz-adv-x="1366" 
d="M958 1229h-313l-86 -408q221 60 354 60q171 0 241.5 -75.5t70.5 -236.5q0 -80 -21 -174l-82 -395h-180l74 348q31 143 31 217q0 89 -47.5 123.5t-163.5 34.5q-115 0 -310 -55l-141 -668h-184l260 1229h-271l33 155h768z" />
    <glyph glyph-name="uni040C" unicode="&#x40c;" horiz-adv-x="1223" 
d="M360 1384h181l-127 -600h198q51 0 98.5 26t105 90.5t125 185t146.5 298.5h195q-65 -151 -123 -262.5t-105.5 -183t-96 -119t-88.5 -71t-89 -39.5q126 -50 179 -161q49 -102 63 -338q5 -69 10 -210h-180q-6 133 -13.5 220t-20.5 161.5t-30 116.5t-45.5 72t-64.5 40.5
t-88 10.5h-211l-131 -621h-180zM1170 1905l-332 -361h-150l240 361h242z" />
    <glyph glyph-name="uni040D" unicode="&#x40d;" horiz-adv-x="1362" 
d="M295 0h-227l292 1384h175l-232 -1095l803 1095h260l-293 -1384h-172l248 1171zM942 1544h-121l-209 361h217z" />
    <glyph glyph-name="uni040E" unicode="&#x40e;" horiz-adv-x="1171" 
d="M426 1384l180 -829l524 829h205l-743 -1146q-56 -85 -103.5 -137.5t-100 -81.5t-103.5 -38.5t-125 -9.5q-42 0 -98.5 13t-88.5 28l84 148q26 -14 69 -22.5t77 -8.5q128 0 227 154l41 65l-227 1036h182zM971 1776h174q-26 -127 -109.5 -190.5t-240.5 -63.5
q-285 0 -285 254h174q0 -79 28 -113.5t95 -34.5t105 35.5t59 112.5z" />
    <glyph glyph-name="uni040F" unicode="&#x40f;" horiz-adv-x="1370" 
d="M1374 1384l-293 -1384h-415l-58 -262h-182l57 262h-415l292 1384h187l-258 -1216h641l258 1216h186z" />
    <glyph glyph-name="uni0410" unicode="&#x410;" horiz-adv-x="1262" 
d="M145 0h-192l747 1384h236l176 -1384h-188l-43 360h-539zM782 1202l-356 -674h434z" />
    <glyph glyph-name="uni0411" unicode="&#x411;" horiz-adv-x="1214" 
d="M508 1227l-90 -420h250q237 0 340.5 -75t103.5 -251q0 -68 -18.5 -133.5t-62.5 -129.5t-108.5 -111.5t-164.5 -77t-223 -29.5h-467l292 1384h863l-33 -157h-682zM281 162h239q56 0 106 6.5t105.5 27.5t95 54.5t65.5 92t26 136.5q0 94 -59.5 132t-209.5 38h-264z" />
    <glyph glyph-name="uni0412" unicode="&#x412;" horiz-adv-x="1247" 
d="M889 756q109 -19 176.5 -93t67.5 -198q0 -76 -19.5 -143t-63.5 -127t-110 -102.5t-164.5 -67.5t-220.5 -25h-487l292 1384h396q122 0 205.5 -19t130 -56.5t66.5 -86.5t20 -116q0 -127 -73 -216t-216 -134zM420 809h201q175 0 265.5 66t90.5 196q0 87 -57.5 118.5
t-176.5 31.5h-237zM283 168h256q196 0 294.5 70.5t98.5 226.5q0 45 -14 77.5t-38.5 52t-66 31t-87 15.5t-110.5 4h-231z" />
    <glyph glyph-name="uni0413" unicode="&#x413;" horiz-adv-x="1047" 
d="M1153 1223h-647l-258 -1223h-180l292 1384h828z" />
    <glyph glyph-name="uni0414" unicode="&#x414;" horiz-adv-x="1286" 
d="M35 -262h-174l90 424h112q62 86 125 196.5t133 262t135.5 349.5t112.5 414h709l-260 -1222h164l-90 -424h-177l58 262h-881zM838 162l225 1061h-356q-94 -357 -220 -638.5t-233 -422.5h584z" />
    <glyph glyph-name="uni0415" unicode="&#x415;" horiz-adv-x="1130" 
d="M897 0h-829l292 1384h830l-35 -167h-649l-86 -404h555l-35 -168h-555l-102 -477h649z" />
    <glyph glyph-name="uni0416" unicode="&#x416;" horiz-adv-x="1780" 
d="M1163 1384l-127 -600h152q67 0 127 47t142 181.5t185 371.5h197q-64 -151 -120.5 -262t-104 -183t-96 -119.5t-89.5 -71t-92 -39.5q38 -15 68 -34.5t53.5 -40.5t41.5 -54t31 -61.5t22 -76.5t15 -87t10 -104.5t6 -116t5 -134.5h-186q-13 308 -35 413q-29 139 -104 182
q-46 26 -119 26h-144l-131 -621h-180l131 621h-135q-77 0 -136.5 -29.5t-121.5 -107t-120.5 -187.5t-143.5 -297h-195l62.5 135l56 116t54 104l51.5 87t54.5 77t56.5 61t64 54t70.5 40.5t81.5 34.5q-37 15 -65.5 37.5t-58 71t-48.5 119t-31 184.5t-12 263h178
q4 -186 18.5 -305.5t41.5 -183.5t60 -87.5t83 -23.5h170l127 600h180z" />
    <glyph glyph-name="uni0417" unicode="&#x417;" horiz-adv-x="1147" 
d="M-10 207l149 98q36 -73 108.5 -124.5t184.5 -51.5q172 0 280.5 80.5t108.5 230.5q0 103 -55 152t-176 49h-248l35 160h241q140 0 229 69.5t89 198.5q0 94 -64.5 141t-177.5 47q-106 0 -210 -37t-181 -98l-78 142q201 149 482 149q210 0 318 -85.5t108 -252.5
q0 -114 -74.5 -209.5t-210.5 -146.5q81 -28 125.5 -101t44.5 -184q0 -94 -37.5 -176.5t-109 -147t-187 -102t-260.5 -37.5q-335 0 -434 236z" />
    <glyph glyph-name="uni0418" unicode="&#x418;" horiz-adv-x="1362" 
d="M295 0h-227l292 1384h175l-232 -1095l803 1095h260l-293 -1384h-172l248 1171z" />
    <glyph glyph-name="uni0419" unicode="&#x419;" horiz-adv-x="1362" 
d="M295 0h-227l292 1384h175l-232 -1095l803 1095h260l-293 -1384h-172l248 1171zM1026 1776h174q-26 -127 -109.5 -190.5t-240.5 -63.5q-285 0 -285 254h174q0 -79 28 -113.5t95 -34.5t105 35.5t59 112.5z" />
    <glyph glyph-name="uni041A" unicode="&#x41a;" horiz-adv-x="1223" 
d="M360 1384h181l-127 -600h198q51 0 98.5 26t105 90.5t125 185t146.5 298.5h195q-65 -151 -123 -262.5t-105.5 -183t-96 -119t-88.5 -71t-89 -39.5q126 -50 179 -161q49 -102 63 -338q5 -69 10 -210h-180q-6 133 -13.5 220t-20.5 161.5t-30 116.5t-45.5 72t-64.5 40.5
t-88 10.5h-211l-131 -621h-180z" />
    <glyph glyph-name="uni041B" unicode="&#x41b;" horiz-adv-x="1311" 
d="M1100 1223h-385l-19 -84q-37 -167 -75.5 -308t-85 -274.5t-99.5 -235t-113.5 -179t-132 -118t-149.5 -40.5q-82 0 -133 20l53 150q24 -11 59 -11q139 0 271 278t241 789l37 174h746l-293 -1384h-180z" />
    <glyph glyph-name="uni041C" unicode="&#x41c;" horiz-adv-x="1561" 
d="M1272 0h-172l243 1147l-538 -770h-113l-207 770l-243 -1147h-174l292 1384h238l199 -753l524 753h244z" />
    <glyph glyph-name="uni041D" unicode="&#x41d;" horiz-adv-x="1337" 
d="M1047 0h-181l133 633h-618l-133 -633h-180l292 1384h181l-123 -583h618l123 583h180z" />
    <glyph glyph-name="uni041E" unicode="&#x41e;" horiz-adv-x="1337" 
d="M582 -29q-129 0 -220.5 35t-144 102t-76.5 155.5t-24 205.5q0 248 100 489q43 102 94.5 179t125 142t174 99.5t225.5 34.5q222 0 338 -124.5t116 -364.5q0 -202 -63 -404q-171 -549 -645 -549zM311 465q0 -182 64.5 -256t216.5 -74q161 0 269 104.5t177 323.5
q58 190 58 367q0 164 -66 241.5t-213 77.5q-154 0 -250.5 -86.5t-167.5 -259.5q-43 -107 -65.5 -226.5t-22.5 -211.5z" />
    <glyph glyph-name="uni041F" unicode="&#x41f;" horiz-adv-x="1300" 
d="M248 0h-180l292 1384h945l-293 -1384h-181l259 1217h-584z" />
    <glyph glyph-name="uni0420" unicode="&#x420;" horiz-adv-x="1157" 
d="M1167 1069q0 -128 -31 -233t-96 -189t-177 -131t-263 -47h-254l-98 -469h-180l292 1384h408q199 0 299 -72t100 -243zM383 637h235q80 0 142.5 24.5t101.5 63.5t64 93.5t35 110.5t10 118q0 90 -50 130t-178 40h-237z" />
    <glyph glyph-name="uni0421" unicode="&#x421;" horiz-adv-x="1280" 
d="M1014 350l127 -114q-49 -61 -98 -105t-115 -82.5t-150.5 -58t-187.5 -19.5q-238 0 -355.5 126.5t-117.5 365.5q0 130 32.5 278t94.5 277q84 178 237 286.5t367 108.5q185 0 294.5 -67.5t168.5 -198.5l-162 -94q-43 101 -120 148.5t-206 47.5q-135 0 -239.5 -81.5
t-165.5 -215.5q-51 -109 -80 -239.5t-29 -251.5q0 -156 73 -241t206 -85q141 0 240.5 54t185.5 161z" />
    <glyph glyph-name="uni0422" unicode="&#x422;" horiz-adv-x="1159" 
d="M1268 1217h-451l-258 -1217h-180l258 1217h-449l35 167h1080z" />
    <glyph glyph-name="uni0423" unicode="&#x423;" horiz-adv-x="1171" 
d="M426 1384l180 -829l524 829h205l-743 -1146q-56 -85 -103.5 -137.5t-100 -81.5t-103.5 -38.5t-125 -9.5q-42 0 -98.5 13t-88.5 28l84 148q26 -14 69 -22.5t77 -8.5q128 0 227 154l41 65l-227 1036h182z" />
    <glyph glyph-name="uni0424" unicode="&#x424;" horiz-adv-x="1473" 
d="M696 -47h-161l40 197q-253 14 -366 121.5t-113 306.5q0 66 30.5 187.5t82.5 201.5q86 135 233 200.5t367 75.5l39 191h162l-39 -191q241 -14 360 -118t119 -310q0 -92 -34 -209t-103 -213q-87 -119 -228 -176.5t-348 -66.5zM608 303l168 787q-164 -10 -259 -56.5
t-150 -146.5q-82 -143 -82 -316q0 -64 13.5 -108.5t47.5 -81.5t99 -56t163 -22zM938 1090l-168 -787q145 9 234.5 47.5t152.5 126.5q50 68 77.5 158.5t27.5 181.5q0 132 -73 198.5t-251 74.5z" />
    <glyph glyph-name="uni0425" unicode="&#x425;" horiz-adv-x="1184" 
d="M156 0h-213l592 715l-289 669h200l218 -534l436 534h215l-586 -690l293 -694h-201l-223 559z" />
    <glyph glyph-name="uni0426" unicode="&#x426;" horiz-adv-x="1319" 
d="M1006 0h-938l292 1384h181l-258 -1216h591l259 1216h178l-260 -1222h163l-90 -424h-176z" />
    <glyph glyph-name="uni0427" unicode="&#x427;" horiz-adv-x="1229" 
d="M178 989l82 395h180l-73 -348q-31 -134 -31 -217q0 -89 47 -123t164 -34q154 0 360 55l142 667h184l-293 -1384h-184l118 563q-249 -59 -405 -59q-169 0 -240 75.5t-71 235.5q0 87 20 174z" />
    <glyph glyph-name="uni0428" unicode="&#x428;" horiz-adv-x="1860" 
d="M942 162h481l260 1222h181l-293 -1384h-1503l292 1384h181l-260 -1222h483l260 1222h178z" />
    <glyph glyph-name="uni0429" unicode="&#x429;" horiz-adv-x="1872" 
d="M1559 0h-1491l292 1384h181l-260 -1222h483l260 1222h178l-260 -1222h481l260 1222h181l-260 -1222h165l-90 -424h-178z" />
    <glyph glyph-name="uni042A" unicode="&#x42a;" horiz-adv-x="1405" 
d="M188 1223l35 161h555l-112 -530h223q230 0 335 -77t105 -257q0 -45 -14.5 -113.5t-42.5 -127.5q-66 -147 -204 -213t-353 -66h-410l258 1223h-375zM1102 348q33 81 33 166q0 101 -61 139.5t-220 38.5h-223l-113 -530h221q287 0 363 186z" />
    <glyph glyph-name="uni042B" unicode="&#x42b;" horiz-adv-x="1679" 
d="M477 0h-409l292 1384h181l-113 -530h223q230 0 335.5 -77t105.5 -257q0 -45 -15 -113.5t-43 -127.5q-66 -148 -203 -213.5t-354 -65.5zM864 348q33 77 33 166q0 101 -61 139.5t-220 38.5h-223l-112 -530h221q285 0 362 186zM1389 0h-181l293 1384h180z" />
    <glyph glyph-name="uni042C" unicode="&#x42c;" horiz-adv-x="1167" 
d="M477 0h-409l292 1384h181l-113 -530h223q230 0 335.5 -77t105.5 -257q0 -45 -15 -113.5t-43 -127.5q-66 -148 -203 -213.5t-354 -65.5zM864 348q33 77 33 166q0 101 -61 139.5t-220 38.5h-223l-112 -530h221q285 0 362 186z" />
    <glyph glyph-name="uni042D" unicode="&#x42d;" horiz-adv-x="1294" 
d="M350 1034l-127 115q49 61 98 105t114.5 82t150.5 57.5t188 19.5q238 0 355.5 -126t117.5 -365q0 -129 -33 -276t-94 -279q-84 -179 -236.5 -287.5t-367.5 -108.5q-125 0 -217.5 33.5t-149.5 90.5t-96 143l162 94q43 -101 120 -149t206 -48q135 0 239.5 81t165.5 216
q38 84 66 180h-660l37 168h655q11 77 11 144q0 155 -73 240t-206 85q-141 0 -240.5 -54t-185.5 -161z" />
    <glyph glyph-name="uni042E" unicode="&#x42e;" horiz-adv-x="1860" 
d="M1104 -29q-103 0 -181 23.5t-130 65t-84.5 104.5t-46 137t-13.5 168q0 81 8 137h-282l-127 -606h-180l292 1384h181l-129 -614h274q25 100 64 188q44 103 93 178.5t120.5 141.5t171 100.5t223.5 34.5q223 0 338.5 -124t115.5 -365q0 -202 -63 -404q-171 -549 -645 -549z
M834 465q0 -182 64 -256t216 -74q162 0 270 105t177 323q57 187 57 367q0 164 -66 241.5t-213 77.5q-153 0 -249.5 -86.5t-167.5 -259.5q-44 -108 -66 -226.5t-22 -211.5z" />
    <glyph glyph-name="uni042F" unicode="&#x42f;" horiz-adv-x="1212" 
d="M174 0h-225l495 600q-219 48 -219 266q0 119 54 250q59 147 180.5 207.5t335.5 60.5h422l-293 -1384h-181l119 565h-233zM670 729h227l104 492h-239q-119 0 -186.5 -29t-108.5 -102q-23 -39 -38 -99t-15 -102q0 -88 58.5 -124t197.5 -36z" />
    <glyph glyph-name="uni0430" unicode="&#x430;" horiz-adv-x="1077" 
d="M809 0h-168l27 131q-103 -78 -192 -120t-181 -42q-122 0 -185 67.5t-63 196.5q0 179 133.5 288.5t343.5 125.5l258 23l11 51q6 36 6 65q0 78 -51 111t-146 33q-188 0 -280 -117l-119 86q136 180 401 180q192 0 279.5 -62.5t87.5 -195.5q0 -60 -25 -178zM698 276l56 256
l-170 -16q-56 -4 -102 -13t-95.5 -28.5t-83 -48.5t-55 -76t-21.5 -108q0 -60 34 -89.5t93 -29.5q44 0 89.5 12.5t93.5 38.5t79.5 46.5z" />
    <glyph glyph-name="uni0431" unicode="&#x431;" horiz-adv-x="1112" 
d="M346 862q83 67 177 103t177 36q177 0 255.5 -88t78.5 -260q0 -79 -32 -202t-78 -203q-76 -135 -194 -207t-269 -72q-190 0 -279.5 110.5t-89.5 338.5q0 186 92 483q38 122 79 208.5t101 153t126.5 108t170 72t215.5 47.5t279 32l-35 -164q-274 -20 -391 -52
q-167 -46 -258 -164q-76 -100 -125 -280zM311 696q-17 -56 -31 -147t-14 -162q0 -136 52.5 -206t152.5 -70q88 0 163 49.5t124 136.5q44 76 70 173.5t26 180.5q0 109 -43.5 158t-142.5 49q-120 0 -252 -81q-57 -36 -105 -81z" />
    <glyph glyph-name="uni0432" unicode="&#x432;" horiz-adv-x="1075" 
d="M776 555q81 -21 121.5 -71.5t40.5 -143.5q0 -148 -116.5 -244t-334.5 -96h-432l221 1049h386q181 0 258 -48t77 -170q0 -187 -221 -276zM348 604h180q137 0 213 53.5t76 147.5q0 65 -43.5 87.5t-128.5 22.5h-229zM250 133h227q28 0 57.5 3t73 16t76 34.5t56.5 62.5t24 95
q0 73 -53 100t-179 27h-213z" />
    <glyph glyph-name="uni0433" unicode="&#x433;" horiz-adv-x="963" 
d="M39 236q0 49 17.5 105.5t54.5 100.5q51 62 138.5 99.5t235.5 74.5q79 18 122.5 34.5t72.5 41.5q22 18 35.5 51.5t13.5 67.5q0 61 -48.5 92t-127.5 31q-47 0 -86 -11.5t-69 -33t-46.5 -38t-36.5 -40.5l-120 84q72 92 160.5 138t205.5 46q175 0 256.5 -72t81.5 -196
q0 -86 -43 -158q-48 -79 -132.5 -120t-229.5 -76q-164 -40 -226 -86q-59 -44 -59 -131q0 -125 197 -125q82 0 144 35.5t118 103.5l118 -96q-59 -82 -156 -135.5t-231 -53.5q-360 0 -360 267z" />
    <glyph glyph-name="uni0434" unicode="&#x434;" horiz-adv-x="1126" 
d="M877 973q0 102 -18 175t-52.5 113.5t-77.5 59t-100 18.5q-79 0 -138 -25.5t-129 -84.5l-88 123q90 70 171.5 103.5t199.5 33.5q83 0 153.5 -29t128 -90.5t90 -169t32.5 -252.5q0 -349 -111 -610q-77 -176 -196 -272.5t-277 -96.5q-197 0 -285 102t-88 308q0 125 45 264.5
t142 247.5q139 158 387 158q108 0 211 -76zM266 369q0 -131 48 -190.5t153 -59.5q206 0 317 282q76 193 90 439q-115 59 -225 59q-166 0 -258 -123q-60 -80 -92.5 -189t-32.5 -218z" />
    <glyph glyph-name="uni0435" unicode="&#x435;" horiz-adv-x="1059" 
d="M956 504h-671q-21 -102 -21 -166q0 -123 53.5 -171t178.5 -48q133 0 262 135l106 -98q-163 -187 -389 -187q-387 0 -387 371q0 127 41.5 269.5t114.5 250.5q144 219 418 219q161 0 246 -88t85 -239q0 -66 -16 -152zM315 639h502q12 58 12 109q0 188 -190 188
q-140 0 -223 -100q-58 -71 -101 -197z" />
    <glyph glyph-name="uni0436" unicode="&#x436;" horiz-adv-x="1925" 
d="M1749 145l57 -131q-98 -45 -202 -45q-175 0 -252.5 100t-77.5 287q0 125 29 252q-139 -162 -233.5 -303t-158.5 -305h-137l133 631q-78 -117 -227.5 -283t-255.5 -254q-75 -62 -149 -93.5t-164 -31.5q-74 0 -152 29l51 152q51 -31 117 -31q108 0 188.5 79t120 209
t39.5 293q0 230 -180 230q-70 0 -129 -27l-57 131q95 45 202 45q175 0 252.5 -100t77.5 -287q0 -132 -31 -250q138 161 232.5 300t161.5 307h137l-133 -627q99 151 251.5 319.5t278.5 253.5q125 84 266 84q77 0 152 -28l-51 -152q-21 12 -55.5 21.5t-61.5 9.5
q-109 0 -188.5 -77t-119.5 -207.5t-40 -297.5q0 -229 180 -229q69 0 129 26z" />
    <glyph glyph-name="uni0437" unicode="&#x437;" horiz-adv-x="942" 
d="M229 477l31 141h213q47 0 88.5 8t81 27t63 57t23.5 91q0 129 -199 129q-93 0 -157 -30.5t-111 -98.5l-125 92q78 98 172.5 142t235.5 44q170 0 263 -69.5t93 -202.5q0 -83 -60 -161.5t-159 -115.5q117 -48 117 -194q0 -172 -122 -269.5t-343 -97.5q-156 0 -243 55.5
t-118 137.5l146 86q34 -67 85 -98t132 -31q72 0 136 21.5t109.5 71t45.5 118.5q0 76 -41 111.5t-133 35.5h-224z" />
    <glyph glyph-name="uni0438" unicode="&#x438;" horiz-adv-x="1141" 
d="M268 1049h168l-129 -619q-28 -133 -28 -192t24.5 -85t79.5 -26q161 0 373 180l157 742h170l-221 -1049h-170l33 156q-206 -187 -379 -187q-126 0 -183 64.5t-57 175.5q0 63 33 221z" />
    <glyph glyph-name="uni0439" unicode="&#x439;" horiz-adv-x="1141" 
d="M268 1049h168l-129 -619q-28 -133 -28 -192t24.5 -85t79.5 -26q161 0 373 180l157 742h170l-221 -1049h-170l33 156q-206 -187 -379 -187q-126 0 -183 64.5t-57 175.5q0 63 33 221zM880 1442h175q-26 -127 -110 -190.5t-241 -63.5q-284 0 -284 254h174q0 -81 26 -114.5
t97 -33.5q69 0 105.5 35t57.5 113z" />
    <glyph glyph-name="uni043A" unicode="&#x43a;" horiz-adv-x="1008" 
d="M276 1049h166l-94 -447h127q59 0 107.5 35.5t109.5 133t142 278.5h178q-53 -120 -100 -209.5t-83 -143.5t-71 -88.5t-61 -49t-56 -21.5q30 -10 53.5 -23.5t41 -35.5t30.5 -43.5t22.5 -59t15 -69t10 -87t6.5 -100t5 -119.5h-163q-6 105 -11 165.5t-14.5 119t-21.5 85.5
t-34 49.5t-50 29t-70 6.5h-144l-96 -455h-166z" />
    <glyph glyph-name="uni043B" unicode="&#x43b;" horiz-adv-x="1067" 
d="M819 907h-274l-23 -106q-33 -151 -68 -270.5t-81.5 -224.5t-100 -174t-121.5 -108.5t-147 -39.5q-59 0 -102 18l61 150q32 -7 62 -7q202 0 358 748l33 156h596l-221 -1049h-164z" />
    <glyph glyph-name="uni043C" unicode="&#x43c;" horiz-adv-x="1284" 
d="M1229 1049l-221 -1049h-160l168 799l-389 -523h-84l-160 523l-168 -799h-160l221 1049h173l172 -570l423 570h185z" />
    <glyph glyph-name="uni043D" unicode="&#x43d;" horiz-adv-x="1161" 
d="M1106 1049l-221 -1049h-164l98 471h-500l-98 -471h-166l221 1049h166l-92 -439h500l92 439h164z" />
    <glyph glyph-name="uni043E" unicode="&#x43e;" horiz-adv-x="1135" 
d="M92 379q0 124 48 273t145 257q148 170 381 170q182 0 279 -102.5t97 -304.5q0 -141 -53 -297.5t-160 -261.5q-144 -144 -352 -144q-205 0 -295 101.5t-90 308.5zM266 369q0 -132 51 -191t170 -59q135 0 232 110q68 78 108.5 202t40.5 241q0 132 -53.5 195t-165.5 63
q-151 0 -252 -135q-60 -80 -95.5 -198.5t-35.5 -227.5z" />
    <glyph glyph-name="uni043F" unicode="&#x43f;" horiz-adv-x="1141" 
d="M870 0h-168l132 618q26 124 26 201q0 103 -106 103q-158 0 -371 -181l-158 -741h-170l221 1049h170l-32 -156q203 186 379 186q239 0 239 -239q0 -70 -33 -222z" />
    <glyph glyph-name="uni0440" unicode="&#x440;" horiz-adv-x="1151" 
d="M244 86l-103 -481h-170l305 1444h170l-20 -105q166 135 326 135q162 0 236.5 -94t74.5 -278q0 -71 -13.5 -150t-40.5 -163t-72 -159t-103 -135t-140 -95.5t-176 -35.5q-173 0 -274 117zM393 791l-119 -555q53 -57 109.5 -85t130.5 -28q71 0 132.5 39t104 101.5t73 140.5
t45 156.5t14.5 150.5q0 114 -39.5 164.5t-126.5 50.5q-158 0 -324 -135z" />
    <glyph glyph-name="uni0441" unicode="&#x441;" horiz-adv-x="1010" 
d="M745 258l117 -96q-151 -193 -397 -193q-375 0 -375 387q0 71 14 148t41.5 159.5t75 156t109 132t148.5 93t188 34.5q261 0 338 -192l-152 -82q-25 63 -74 94t-129 31q-75 0 -139.5 -37.5t-108.5 -98t-75 -137.5t-45.5 -155.5t-14.5 -153.5q0 -229 215 -229q78 0 139 34
t125 105z" />
    <glyph glyph-name="uni0442" unicode="&#x442;" horiz-adv-x="1677" 
d="M1409 0h-168l131 618q31 144 31 197q0 107 -94 107q-72 0 -154.5 -49.5t-179.5 -131.5l-158 -741h-170l131 618q31 145 31 199t-24 79.5t-76 25.5q-115 0 -326 -181l-158 -741h-170l221 1049h170l-32 -156q83 83 175 134.5t163 51.5q231 0 231 -205q211 205 365 205
q65 0 111 -17t70.5 -49t35 -70.5t10.5 -88.5q0 -73 -23 -176z" />
    <glyph glyph-name="uni0443" unicode="&#x443;" horiz-adv-x="1020" 
d="M-184 -365l63 138q48 -25 111 -25q75 0 136.5 51.5t139.5 180.5l56 90l-164 979h172l119 -783l448 783h186l-677 -1129q-74 -122 -131 -186.5t-126.5 -96.5t-164.5 -32q-93 0 -168 30z" />
    <glyph glyph-name="uni0444" unicode="&#x444;" horiz-adv-x="1692" 
d="M1352 1501l-33 -149q-56 18 -100 18q-60 0 -94.5 -39.5t-57.5 -146.5l-49 -230q143 125 299 125q149 0 218 -94t69 -278q0 -71 -13.5 -150t-40.5 -162.5t-71 -159t-100 -135.5t-133.5 -95.5t-166.5 -35.5q-80 0 -135 32.5t-108 94.5l-35 -164q-36 -175 -108 -251
t-206 -76q-108 0 -196 39l47 147q85 -37 164 -37q27 0 44.5 5.5t36.5 23.5t33.5 56.5t26.5 101.5l31 155q-145 -127 -299 -127q-149 0 -218 94t-69 279q0 83 18.5 178t60 195t100 180.5t147 132t192.5 51.5q85 0 142.5 -31.5t107.5 -93.5l51 238q36 175 108 251.5t206 76.5
q64 0 131 -19zM707 250l118 551q-50 61 -100 93t-119 32q-68 0 -127.5 -41t-99.5 -105t-68.5 -143.5t-41.5 -156t-13 -142.5q0 -114 38 -164.5t118 -50.5q77 0 154.5 35.5t140.5 91.5zM985 801l-119 -551q51 -62 100 -94.5t113 -32.5q81 0 150.5 59t113.5 148.5t68.5 190
t24.5 190.5q0 113 -38.5 164t-117.5 51q-77 0 -155 -35t-140 -90z" />
    <glyph glyph-name="uni0445" unicode="&#x445;" horiz-adv-x="991" 
d="M827 0h-190l-166 397l-317 -397h-209l452 537l-229 512h190l164 -385l318 385h209l-457 -527z" />
    <glyph glyph-name="uni0446" unicode="&#x446;" horiz-adv-x="1159" 
d="M858 0h-117v164q-94 -87 -197.5 -141t-197.5 -54q-126 0 -183 64.5t-57 175.5q0 63 33 221l129 619h168l-129 -619q-28 -133 -28 -192t24.5 -85t79.5 -26q161 0 373 180l157 742h170l-192 -912h151l-84 -399h-155z" />
    <glyph glyph-name="uni0447" unicode="&#x447;" horiz-adv-x="1038" 
d="M127 737l66 312h165l-55 -269q-27 -118 -27 -198q0 -59 29.5 -84t95.5 -25q58 0 149 22.5t165 53.5l104 500h164l-221 -1049h-164l84 401q-242 -90 -340 -90q-240 0 -240 248q0 70 25 178z" />
    <glyph glyph-name="uni0448" unicode="&#x448;" horiz-adv-x="1677" 
d="M266 1049h168l-131 -619q-31 -142 -31 -197q0 -106 95 -106q73 0 154.5 49t178.5 131l158 742h170l-131 -619q-31 -144 -31 -199q0 -54 24 -79t77 -25q47 0 110.5 31.5t108.5 65t106 83.5l158 742h170l-221 -1049h-170l33 156q-84 -84 -175.5 -135.5t-162.5 -51.5
q-232 0 -232 205q-211 -205 -364 -205q-126 0 -177 60.5t-51 165.5q0 73 23 176z" />
    <glyph glyph-name="uni0449" unicode="&#x449;" horiz-adv-x="1696" 
d="M266 1049h168l-131 -619q-31 -142 -31 -197q0 -106 95 -106q73 0 154.5 49t178.5 131l158 742h170l-131 -619q-31 -144 -31 -199q0 -54 24 -79t77 -25q47 0 110.5 31.5t108.5 65t106 83.5l158 742h170l-193 -912h152l-84 -399h-156l56 262h-117v172q-203 -203 -354 -203
q-232 0 -232 205q-211 -205 -364 -205q-126 0 -177 60.5t-51 165.5q0 73 23 176z" />
    <glyph glyph-name="uni044A" unicode="&#x44a;" horiz-adv-x="1085" 
d="M561 1049l-84 -396h160q190 0 276 -61.5t86 -206.5q0 -125 -61 -213.5t-162.5 -130t-234.5 -41.5h-367l193 911h-271l29 138h436zM369 137h159q295 0 295 248q0 67 -44 99t-161 32h-169z" />
    <glyph glyph-name="uni044B" unicode="&#x44b;" horiz-adv-x="1397" 
d="M442 1049l-84 -396h160q190 0 276.5 -61.5t86.5 -206.5q0 -125 -61.5 -213.5t-163 -130t-234.5 -41.5h-367l221 1049h166zM250 137h160q295 0 295 248q0 67 -44 99t-161 32h-170zM1120 0h-170l221 1049h170z" />
    <glyph glyph-name="uni044C" unicode="&#x44c;" horiz-adv-x="967" 
d="M442 1049l-84 -396h160q190 0 276.5 -61.5t86.5 -206.5q0 -125 -61.5 -213.5t-163 -130t-234.5 -41.5h-367l221 1049h166zM250 137h160q295 0 295 248q0 67 -44 99t-161 32h-170z" />
    <glyph glyph-name="uni044D" unicode="&#x44d;" horiz-adv-x="1010" 
d="M262 791l-117 96q155 192 398 192q375 0 375 -387q0 -60 -9.5 -125t-31.5 -136t-53.5 -137t-79 -125.5t-104.5 -103.5t-134 -70t-164 -26q-127 0 -213.5 48.5t-124.5 144.5l152 82q48 -125 202 -125q126 0 214.5 95.5t132.5 242.5h-504l30 141h502q8 70 8 102
q0 111 -50 170.5t-165 59.5q-77 0 -138.5 -34.5t-125.5 -104.5z" />
    <glyph glyph-name="uni044E" unicode="&#x44e;" horiz-adv-x="1546" 
d="M512 379q0 49 4 78h-199l-96 -457h-166l221 1049h166l-96 -453h195q18 72 46 137.5t74 130t103.5 111t138.5 75.5t174 29q182 0 279.5 -102.5t97.5 -304.5q0 -67 -13 -141t-39.5 -154.5t-72.5 -152.5t-106 -129.5t-146.5 -91.5t-187.5 -34q-204 0 -290.5 101t-86.5 309z
M678 369q0 -127 52 -191.5t169 -64.5q74 0 137.5 35t107.5 92.5t75.5 131.5t46 150.5t14.5 149.5q0 127 -55 195.5t-164 68.5q-79 0 -145.5 -39t-109.5 -99.5t-72.5 -137.5t-42.5 -150.5t-13 -140.5z" />
    <glyph glyph-name="uni044F" unicode="&#x44f;" horiz-adv-x="1032" 
d="M590 0l90 428h-201l-340 -428h-194l362 449q-155 48 -155 233q0 81 24 146t76.5 115.5t143 78t214.5 27.5h367l-221 -1049h-166zM782 911h-161q-148 0 -221.5 -50.5t-73.5 -176.5q0 -61 44 -90t160 -29h179z" />
    <glyph glyph-name="uni0450" unicode="&#x450;" horiz-adv-x="1059" 
d="M956 504h-671q-21 -102 -21 -166q0 -123 53.5 -171t178.5 -48q133 0 262 135l106 -98q-163 -187 -389 -187q-387 0 -387 371q0 127 41.5 269.5t114.5 250.5q144 219 418 219q161 0 246 -88t85 -239q0 -66 -16 -152zM315 639h502q12 58 12 109q0 188 -190 188
q-140 0 -223 -100q-58 -71 -101 -197zM864 1208h-121l-209 361h217z" />
    <glyph glyph-name="uni0451" unicode="&#x451;" horiz-adv-x="1059" 
d="M956 504h-671q-21 -102 -21 -166q0 -123 53.5 -171t178.5 -48q133 0 262 135l106 -98q-163 -187 -389 -187q-387 0 -387 371q0 127 41.5 269.5t114.5 250.5q144 219 418 219q161 0 246 -88t85 -239q0 -66 -16 -152zM315 639h502q12 58 12 109q0 188 -190 188
q-140 0 -223 -100q-58 -71 -101 -197zM639 1354q0 -18 -7.5 -45.5t-15.5 -42.5q-17 -32 -42 -45t-69 -13q-49 0 -69.5 16.5t-20.5 49.5q0 14 6 41t15 43q15 33 40 48t72 15q50 0 70.5 -16t20.5 -51zM1026 1354q0 -18 -7.5 -45.5t-15.5 -42.5q-17 -32 -42 -45t-68 -13
q-51 0 -71 16.5t-20 49.5q0 14 6 41t15 43q15 33 40.5 48t72.5 15q50 0 70 -16t20 -51z" />
    <glyph glyph-name="uni0452" unicode="&#x452;" horiz-adv-x="1098" 
d="M383 741l-158 -741h-170l252 1194h-164l31 139h164l33 156h170l-33 -156h264l-31 -139h-264l-63 -301q98 96 179.5 141t170.5 45q136 0 192 -74t56 -235q0 -126 -29 -283t-74 -290q-42 -128 -92.5 -225t-103 -160t-116.5 -105t-126.5 -63t-140.5 -31v137q98 22 163.5 64
t127 140.5t114.5 266.5q99 317 99 537q0 79 -29.5 117t-93.5 38q-126 0 -328 -172z" />
    <glyph glyph-name="uni0453" unicode="&#x453;" horiz-adv-x="963" 
d="M39 236q0 49 17.5 105.5t54.5 100.5q51 62 138.5 99.5t235.5 74.5q79 18 122.5 34.5t72.5 41.5q22 18 35.5 51.5t13.5 67.5q0 61 -48.5 92t-127.5 31q-47 0 -86 -11.5t-69 -33t-46.5 -38t-36.5 -40.5l-120 84q72 92 160.5 138t205.5 46q175 0 256.5 -72t81.5 -196
q0 -86 -43 -158q-48 -79 -132.5 -120t-229.5 -76q-164 -40 -226 -86q-59 -44 -59 -131q0 -125 197 -125q82 0 144 35.5t118 103.5l118 -96q-59 -82 -156 -135.5t-231 -53.5q-360 0 -360 267zM956 1569l-332 -361h-150l240 361h242z" />
    <glyph glyph-name="uni0454" unicode="&#x454;" horiz-adv-x="1010" 
d="M745 258l117 -96q-151 -193 -397 -193q-375 0 -375 387q0 71 14 148t41.5 159.5t75 156t109 132t148.5 93t188 34.5q261 0 338 -192l-152 -82q-25 63 -74 94t-129 31q-125 0 -212 -93t-134 -239h506l-31 -141h-506q-6 -55 -6 -109q0 -229 215 -229q78 0 139 34t125 105z
" />
    <glyph glyph-name="uni0455" unicode="&#x455;" horiz-adv-x="971" 
d="M20 158l148 80q28 -60 81 -91.5t144 -31.5q47 0 91 9t83.5 27.5t63.5 53t24 80.5q0 28 -6 46t-26.5 39.5t-62.5 42.5t-111 44q-162 53 -221.5 115t-59.5 165q0 146 110.5 244t299.5 98q97 0 168 -25t111.5 -63.5t68.5 -95.5l-144 -84q-54 123 -221 123q-100 0 -162.5 -48
t-62.5 -120q0 -52 37 -92t133 -68q185 -56 253 -120t68 -183q0 -144 -118 -239t-328 -95q-161 0 -248.5 53.5t-112.5 135.5z" />
    <glyph glyph-name="uni0456" unicode="&#x456;" horiz-adv-x="502" 
d="M225 0h-170l221 1049h170zM297 1278q0 71 32 105t101 34q92 0 92 -67q0 -138 -129 -138q-55 0 -75.5 17t-20.5 49z" />
    <glyph glyph-name="uni0457" unicode="&#x457;" horiz-adv-x="502" 
d="M225 0h-170l221 1049h170zM331 1354q0 -18 -7.5 -45.5t-15.5 -42.5q-17 -32 -42 -45t-69 -13q-49 0 -69.5 16.5t-20.5 49.5q0 14 6 41t15 43q15 33 40 48t72 15q50 0 70.5 -16t20.5 -51zM718 1354q0 -18 -7.5 -45.5t-15.5 -42.5q-17 -32 -42 -45t-68 -13q-51 0 -71 16.5
t-20 49.5q0 14 6 41t15 43q15 33 40.5 48t72.5 15q50 0 70 -16t20 -51z" />
    <glyph glyph-name="uni0458" unicode="&#x458;" horiz-adv-x="526" 
d="M463 1049l-232 -1094q-37 -181 -123.5 -265.5t-254.5 -84.5q-91 0 -181 30l72 142q66 -29 143 -29q75 0 114 54.5t65 172.5l227 1074h170zM324 1282q0 135 133 135q92 0 92 -71q0 -65 -33 -99.5t-96 -34.5q-55 0 -75.5 17.5t-20.5 52.5z" />
    <glyph glyph-name="uni0459" unicode="&#x459;" horiz-adv-x="1536" 
d="M815 907h-270l-23 -106q-33 -151 -68 -270.5t-81.5 -224.5t-100 -174t-121.5 -108.5t-147 -39.5q-59 0 -102 18l61 150q32 -7 62 -7q202 0 358 748l33 156h596l-84 -396h159q190 0 276.5 -61.5t86.5 -206.5q0 -125 -61.5 -213.5t-163 -130t-234.5 -41.5h-366zM819 137
h160q295 0 295 248q0 67 -44 99t-161 32h-170z" />
    <glyph glyph-name="uni045A" unicode="&#x45a;" horiz-adv-x="1622" 
d="M1106 1049l-90 -420h158q189 0 275.5 -59.5t86.5 -198.5q0 -179 -127 -275t-328 -96h-360l102 492h-499l-103 -492h-166l221 1049h166l-88 -420h500l88 420h164zM1155 492h-168l-74 -355h156q291 0 291 232q0 62 -44 92.5t-161 30.5z" />
    <glyph glyph-name="uni045B" unicode="&#x45b;" horiz-adv-x="1141" 
d="M741 1194h-264l-63 -301q203 186 379 186q239 0 239 -239q0 -70 -33 -222l-129 -618h-168l132 618q26 124 26 199q0 49 -27 72.5t-88 23.5q-74 0 -169 -44.5t-193 -127.5l-158 -741h-170l252 1194h-164l31 139h164l33 156h170l-33 -156h264z" />
    <glyph glyph-name="uni045C" unicode="&#x45c;" horiz-adv-x="1008" 
d="M276 1049h166l-94 -447h127q59 0 107.5 35.5t109.5 133t142 278.5h178q-53 -120 -100 -209.5t-83 -143.5t-71 -88.5t-61 -49t-56 -21.5q30 -10 53.5 -23.5t41 -35.5t30.5 -43.5t22.5 -59t15 -69t10 -87t6.5 -100t5 -119.5h-163q-6 105 -11 165.5t-14.5 119t-21.5 85.5
t-34 49.5t-50 29t-70 6.5h-144l-96 -455h-166zM1021 1569l-332 -361h-150l240 361h242z" />
    <glyph glyph-name="uni045D" unicode="&#x45d;" horiz-adv-x="1141" 
d="M268 1049h168l-129 -619q-28 -133 -28 -192t24.5 -85t79.5 -26q161 0 373 180l157 742h170l-221 -1049h-170l33 156q-206 -187 -379 -187q-126 0 -183 64.5t-57 175.5q0 63 33 221zM791 1208h-121l-209 361h217z" />
    <glyph glyph-name="uni045E" unicode="&#x45e;" horiz-adv-x="1020" 
d="M-184 -365l63 138q48 -25 111 -25q75 0 136.5 51.5t139.5 180.5l56 90l-164 979h172l119 -783l448 783h186l-677 -1129q-74 -122 -131 -186.5t-126.5 -96.5t-164.5 -32q-93 0 -168 30zM812 1442h175q-26 -127 -110 -190.5t-241 -63.5q-284 0 -284 254h174
q0 -81 26 -114.5t97 -33.5q69 0 105.5 35t57.5 113z" />
    <glyph glyph-name="uni045F" unicode="&#x45f;" horiz-adv-x="1106" 
d="M1079 1049l-221 -1049h-332l-59 -262h-168l59 262h-331l221 1049h170l-193 -908h492l192 908h170z" />
    <glyph glyph-name="uni0490" unicode="&#x490;" horiz-adv-x="1034" 
d="M999 1384l54 250h176l-88 -417h-629l-258 -1217h-186l292 1384h639z" />
    <glyph glyph-name="uni0491" unicode="&#x491;" horiz-adv-x="834" 
d="M197 0h-170l221 1049h516l65 307h164l-94 -449h-510z" />
    <glyph glyph-name="Wgrave" unicode="&#x1e80;" horiz-adv-x="1722" 
d="M1839 1384l-620 -1384h-218l-22 1108l-492 -1108h-211l-28 1384h176l14 -1122l494 1122h205l22 -1122l496 1122h184zM1163 1544h-121l-209 361h217z" />
    <glyph glyph-name="wgrave" unicode="&#x1e81;" horiz-adv-x="1446" 
d="M1493 1049l-473 -1049h-160l-80 803l-422 -803h-151l-35 1049h166l6 -799l412 799h141l84 -799l334 799h178zM954 1208h-121l-209 361h217z" />
    <glyph glyph-name="Wacute" unicode="&#x1e82;" horiz-adv-x="1722" 
d="M1839 1384l-620 -1384h-218l-22 1108l-492 -1108h-211l-28 1384h176l14 -1122l494 1122h205l22 -1122l496 1122h184zM1409 1905l-332 -361h-150l240 361h242z" />
    <glyph glyph-name="wacute" unicode="&#x1e83;" horiz-adv-x="1446" 
d="M1493 1049l-473 -1049h-160l-80 803l-422 -803h-151l-35 1049h166l6 -799l412 799h141l84 -799l334 799h178zM1239 1569l-332 -361h-150l240 361h242z" />
    <glyph glyph-name="Wdieresis" unicode="&#x1e84;" horiz-adv-x="1722" 
d="M1839 1384l-620 -1384h-218l-22 1108l-492 -1108h-211l-28 1384h176l14 -1122l494 1122h205l22 -1122l496 1122h184zM1004 1690q0 -18 -7.5 -45.5t-15.5 -42.5q-17 -32 -42 -45t-69 -13q-49 0 -69.5 16.5t-20.5 49.5q0 14 6 41t15 43q15 33 40 48t72 15q50 0 70.5 -16
t20.5 -51zM1391 1690q0 -18 -7.5 -45.5t-15.5 -42.5q-17 -32 -42 -45t-68 -13q-51 0 -71 16.5t-20 49.5q0 14 6 41t15 43q15 33 40.5 48t72.5 15q50 0 70 -16t20 -51z" />
    <glyph glyph-name="wdieresis" unicode="&#x1e85;" horiz-adv-x="1446" 
d="M1493 1049l-473 -1049h-160l-80 803l-422 -803h-151l-35 1049h166l6 -799l412 799h141l84 -799l334 799h178zM799 1354q0 -18 -7.5 -45.5t-15.5 -42.5q-17 -32 -42 -45t-69 -13q-49 0 -69.5 16.5t-20.5 49.5q0 14 6 41t15 43q15 33 40 48t72 15q50 0 70.5 -16t20.5 -51z
M1186 1354q0 -18 -7.5 -45.5t-15.5 -42.5q-17 -32 -42 -45t-68 -13q-51 0 -71 16.5t-20 49.5q0 14 6 41t15 43q15 33 40.5 48t72.5 15q50 0 70 -16t20 -51z" />
    <glyph glyph-name="Eszett" unicode="&#x1e9e;" horiz-adv-x="1409" 
d="M410 254l172 80q24 -91 83 -145t177 -54q113 0 191.5 68t78.5 176q0 93 -43 148.5t-156 109.5q-148 72 -205 147.5t-57 186.5q0 184 164 276q-27 4 -76 4q-91 0 -140.5 -24.5t-82 -91t-61.5 -203.5l-197 -932h-180l213 1008q47 222 156 314.5t311 92.5q191 0 346 -31
l-35 -143q-120 -24 -179 -88t-59 -145t33.5 -122.5t145.5 -92.5q160 -73 228.5 -165t68.5 -239q0 -103 -40 -185t-107.5 -131.5t-151.5 -75.5t-177 -26q-100 0 -175 22t-123 63.5t-76.5 88.5t-46.5 109z" />
    <glyph glyph-name="Adotbelow" unicode="&#x1ea0;" horiz-adv-x="1262" 
d="M145 0h-192l747 1384h236l176 -1384h-188l-43 360h-539zM782 1202l-356 -674h434zM618 -217q0 -20 -7 -49t-15 -43q-20 -36 -48.5 -50t-74.5 -14q-53 0 -74.5 19t-21.5 55q0 45 18 86q31 70 125 70q53 0 75.5 -18t22.5 -56z" />
    <glyph glyph-name="adotbelow" unicode="&#x1ea1;" horiz-adv-x="1151" 
d="M92 342q0 72 13.5 151.5t40.5 163t72 158.5t102 134.5t137 94.5t172 35q175 0 278 -116l19 86h170l-222 -1049h-169l26 125q-86 -75 -164 -115.5t-168 -40.5q-161 0 -234 93.5t-73 279.5zM764 279l113 534q-53 57 -111.5 85t-140.5 28q-71 0 -132 -38.5t-102 -100.5
t-70 -140.5t-42 -157t-13 -151.5q0 -115 40 -165t128 -50q161 0 330 156zM522 -217q0 -20 -7 -49t-15 -43q-20 -36 -48.5 -50t-74.5 -14q-53 0 -74.5 19t-21.5 55q0 45 18 86q31 70 125 70q53 0 75.5 -18t22.5 -56z" />
    <glyph glyph-name="Ahookabove" unicode="&#x1ea2;" horiz-adv-x="1262" 
d="M145 0h-192l747 1384h236l176 -1384h-188l-43 360h-539zM782 1202l-356 -674h434zM733 1688l-41 88q66 51 164 51q90 0 137 -38.5t47 -98.5q0 -59 -39.5 -100t-126.5 -52l-8 -41h-104l24 113h31q37 0 59.5 15t22.5 40q0 55 -74 55q-49 0 -92 -32z" />
    <glyph glyph-name="ahookabove" unicode="&#x1ea3;" horiz-adv-x="1151" 
d="M92 342q0 72 13.5 151.5t40.5 163t72 158.5t102 134.5t137 94.5t172 35q175 0 278 -116l19 86h170l-222 -1049h-169l26 125q-86 -75 -164 -115.5t-168 -40.5q-161 0 -234 93.5t-73 279.5zM764 279l113 534q-53 57 -111.5 85t-140.5 28q-71 0 -132 -38.5t-102 -100.5
t-70 -140.5t-42 -157t-13 -151.5q0 -115 40 -165t128 -50q161 0 330 156zM566 1352l-41 88q66 51 164 51q90 0 137 -38.5t47 -98.5q0 -59 -39.5 -100t-126.5 -52l-8 -41h-104l24 113h31q37 0 59.5 15t22.5 40q0 55 -74 55q-49 0 -92 -32z" />
    <glyph glyph-name="Acircumflexacute" unicode="&#x1ea4;" horiz-adv-x="1262" 
d="M145 0h-192l747 1384h236l176 -1384h-188l-43 360h-539zM782 1202l-356 -674h434zM1139 1503h-139l-138 158l-223 -158h-153l290 279h207zM1452 2007l-268 -274h-139l176 274h231z" />
    <glyph glyph-name="acircumflexacute" unicode="&#x1ea5;" horiz-adv-x="1151" 
d="M92 342q0 72 13.5 151.5t40.5 163t72 158.5t102 134.5t137 94.5t172 35q175 0 278 -116l19 86h170l-222 -1049h-169l26 125q-86 -75 -164 -115.5t-168 -40.5q-161 0 -234 93.5t-73 279.5zM764 279l113 534q-53 57 -111.5 85t-140.5 28q-71 0 -132 -38.5t-102 -100.5
t-70 -140.5t-42 -157t-13 -151.5q0 -115 40 -165t128 -50q161 0 330 156zM982 1167h-139l-137 158l-223 -158h-154l291 279h207zM1296 1671l-269 -274h-139l176 274h232z" />
    <glyph glyph-name="Acircumflexgrave" unicode="&#x1ea6;" horiz-adv-x="1262" 
d="M145 0h-192l747 1384h236l176 -1384h-188l-43 360h-539zM782 1202l-356 -674h434zM1147 1503h-139l-138 158l-223 -158h-153l290 279h207zM686 1733h-121l-174 274h217z" />
    <glyph glyph-name="acircumflexgrave" unicode="&#x1ea7;" horiz-adv-x="1151" 
d="M92 342q0 72 13.5 151.5t40.5 163t72 158.5t102 134.5t137 94.5t172 35q175 0 278 -116l19 86h170l-222 -1049h-169l26 125q-86 -75 -164 -115.5t-168 -40.5q-161 0 -234 93.5t-73 279.5zM764 279l113 534q-53 57 -111.5 85t-140.5 28q-71 0 -132 -38.5t-102 -100.5
t-70 -140.5t-42 -157t-13 -151.5q0 -115 40 -165t128 -50q161 0 330 156zM973 1167h-139l-137 158l-223 -158h-154l291 279h207zM513 1397h-121l-174 274h217z" />
    <glyph glyph-name="Acircumflexhookabove" unicode="&#x1ea8;" horiz-adv-x="1262" 
d="M145 0h-192l747 1384h236l176 -1384h-188l-43 360h-539zM782 1202l-356 -674h434zM1147 1503h-139l-138 158l-223 -158h-153l290 279h207zM1051 1868l-41 88q66 51 164 51q90 0 137 -38.5t47 -98.5q0 -59 -39.5 -100t-126.5 -52l-8 -41h-105l25 113h31q37 0 59.5 15
t22.5 40q0 56 -74 56q-47 0 -92 -33z" />
    <glyph glyph-name="acircumflexhookabove" unicode="&#x1ea9;" horiz-adv-x="1151" 
d="M92 342q0 72 13.5 151.5t40.5 163t72 158.5t102 134.5t137 94.5t172 35q175 0 278 -116l19 86h170l-222 -1049h-169l26 125q-86 -75 -164 -115.5t-168 -40.5q-161 0 -234 93.5t-73 279.5zM764 279l113 534q-53 57 -111.5 85t-140.5 28q-71 0 -132 -38.5t-102 -100.5
t-70 -140.5t-42 -157t-13 -151.5q0 -115 40 -165t128 -50q161 0 330 156zM961 1167h-139l-137 158l-223 -158h-154l291 279h207zM865 1532l-41 88q66 51 164 51q90 0 137 -38.5t47 -98.5q0 -59 -39.5 -100t-126.5 -52l-8 -41h-104l24 113h31q37 0 59.5 15.5t22.5 39.5
q0 56 -74 56q-47 0 -92 -33z" />
    <glyph glyph-name="Acircumflextilde" unicode="&#x1eaa;" horiz-adv-x="1262" 
d="M145 0h-192l747 1384h236l176 -1384h-188l-43 360h-539zM782 1202l-356 -674h434zM1147 1503h-139l-135 158l-226 -158h-153l293 279h206zM629 1841h-119q60 232 264 232q45 0 86.5 -17.5t67 -38t59 -38t64.5 -17.5q105 0 131 98h119q-29 -122 -96 -176.5t-177 -54.5
q-45 0 -82 11.5t-60.5 27.5t-43.5 32t-42.5 27.5t-47.5 11.5q-48 0 -78 -20.5t-45 -77.5z" />
    <glyph glyph-name="acircumflextilde" unicode="&#x1eab;" horiz-adv-x="1151" 
d="M92 342q0 72 13.5 151.5t40.5 163t72 158.5t102 134.5t137 94.5t172 35q175 0 278 -116l19 86h170l-222 -1049h-169l26 125q-86 -75 -164 -115.5t-168 -40.5q-161 0 -234 93.5t-73 279.5zM764 279l113 534q-53 57 -111.5 85t-140.5 28q-71 0 -132 -38.5t-102 -100.5
t-70 -140.5t-42 -157t-13 -151.5q0 -115 40 -165t128 -50q161 0 330 156zM971 1167h-139l-131 179l-229 -179h-154l297 299h207zM457 1526h-119q61 231 265 231q45 0 86.5 -17t67.5 -38t58.5 -38t63.5 -17q53 0 85 22t46 76h119q-29 -121 -96 -176.5t-176 -55.5
q-55 0 -99 17.5t-67 38t-52.5 38t-58.5 17.5q-47 0 -76.5 -20.5t-46.5 -77.5z" />
    <glyph glyph-name="Acircumflexdotbelow" unicode="&#x1eac;" horiz-adv-x="1262" 
d="M145 0h-192l747 1384h236l176 -1384h-188l-43 360h-539zM782 1202l-356 -674h434zM618 -217q0 -20 -7 -49t-15 -43q-20 -36 -48.5 -50t-74.5 -14q-53 0 -74.5 19t-21.5 55q0 45 18 86q31 70 125 70q53 0 75.5 -18t22.5 -56zM1151 1544h-140l-129 238l-231 -238h-154
l301 361h207z" />
    <glyph glyph-name="acircumflexdotbelow" unicode="&#x1ead;" horiz-adv-x="1151" 
d="M92 342q0 72 13.5 151.5t40.5 163t72 158.5t102 134.5t137 94.5t172 35q175 0 278 -116l19 86h170l-222 -1049h-169l26 125q-86 -75 -164 -115.5t-168 -40.5q-161 0 -234 93.5t-73 279.5zM764 279l113 534q-53 57 -111.5 85t-140.5 28q-71 0 -132 -38.5t-102 -100.5
t-70 -140.5t-42 -157t-13 -151.5q0 -115 40 -165t128 -50q161 0 330 156zM1010 1208h-140l-129 238l-231 -238h-154l301 361h207zM522 -217q0 -20 -7 -49t-15 -43q-20 -36 -48.5 -50t-74.5 -14q-53 0 -74.5 19t-21.5 55q0 45 18 86q31 70 125 70q53 0 75.5 -18t22.5 -56z
" />
    <glyph glyph-name="Abreveacute" unicode="&#x1eae;" horiz-adv-x="1262" 
d="M145 0h-192l747 1384h236l176 -1384h-188l-43 360h-539zM782 1202l-356 -674h434zM1153 2048l-269 -270h-139l176 270h232zM1052 1825h131q-26 -128 -114.5 -205.5t-251.5 -77.5q-143 0 -213 61.5t-70 159.5q0 31 6 62h125q0 -64 39.5 -94.5t126.5 -30.5q176 0 221 125z
" />
    <glyph glyph-name="abreveacute" unicode="&#x1eaf;" horiz-adv-x="1151" 
d="M92 342q0 72 13.5 151.5t40.5 163t72 158.5t102 134.5t137 94.5t172 35q175 0 278 -116l19 86h170l-222 -1049h-169l26 125q-86 -75 -164 -115.5t-168 -40.5q-161 0 -234 93.5t-73 279.5zM764 279l113 534q-53 57 -111.5 85t-140.5 28q-71 0 -132 -38.5t-102 -100.5
t-70 -140.5t-42 -157t-13 -151.5q0 -115 40 -165t128 -50q161 0 330 156zM1006 1712l-268 -270h-139l176 270h231zM906 1489h131q-26 -129 -115 -206t-252 -77q-142 0 -212 62t-70 159q0 31 6 62h125q0 -64 39.5 -94.5t126.5 -30.5q94 0 145 31t76 94z" />
    <glyph glyph-name="Abrevegrave" unicode="&#x1eb0;" horiz-adv-x="1262" 
d="M145 0h-192l747 1384h236l176 -1384h-188l-43 360h-539zM782 1202l-356 -674h434zM943 1778h-121l-174 270h217zM1063 1825h131q-26 -128 -114.5 -205.5t-251.5 -77.5q-143 0 -213 61.5t-70 159.5q0 31 6 62h125q0 -64 39.5 -94.5t126.5 -30.5q176 0 221 125z" />
    <glyph glyph-name="abrevegrave" unicode="&#x1eb1;" horiz-adv-x="1151" 
d="M92 342q0 72 13.5 151.5t40.5 163t72 158.5t102 134.5t137 94.5t172 35q175 0 278 -116l19 86h170l-222 -1049h-169l26 125q-86 -75 -164 -115.5t-168 -40.5q-161 0 -234 93.5t-73 279.5zM764 279l113 534q-53 57 -111.5 85t-140.5 28q-71 0 -132 -38.5t-102 -100.5
t-70 -140.5t-42 -157t-13 -151.5q0 -115 40 -165t128 -50q161 0 330 156zM769 1442h-121l-174 270h217zM890 1489h131q-26 -129 -115 -206t-252 -77q-142 0 -212 62t-70 159q0 31 6 62h125q0 -64 39.5 -94.5t126.5 -30.5q94 0 145 31t76 94z" />
    <glyph glyph-name="Abrevehookabove" unicode="&#x1eb2;" horiz-adv-x="1262" 
d="M145 0h-192l747 1384h236l176 -1384h-188l-43 360h-539zM782 1202l-356 -674h434zM744 1970l-41 88q66 51 164 51q90 0 137 -38.5t47 -98.5q0 -58 -39.5 -99t-126.5 -52l-8 -41h-104l24 112h31q37 0 59.5 15.5t22.5 40.5q0 55 -74 55q-50 0 -92 -33zM1063 1804h131
q-54 -262 -366 -262q-145 0 -214 53t-69 148q0 31 6 61h125q0 -61 37.5 -82.5t128.5 -21.5q99 0 149.5 22.5t71.5 81.5z" />
    <glyph glyph-name="abrevehookabove" unicode="&#x1eb3;" horiz-adv-x="1151" 
d="M92 342q0 72 13.5 151.5t40.5 163t72 158.5t102 134.5t137 94.5t172 35q175 0 278 -116l19 86h170l-222 -1049h-169l26 125q-86 -75 -164 -115.5t-168 -40.5q-161 0 -234 93.5t-73 279.5zM764 279l113 534q-53 57 -111.5 85t-140.5 28q-71 0 -132 -38.5t-102 -100.5
t-70 -140.5t-42 -157t-13 -151.5q0 -115 40 -165t128 -50q161 0 330 156zM582 1634l-41 88q67 52 164 52q90 0 137 -39t47 -99q0 -58 -39 -99t-126 -52l-9 -41h-104l25 112h30q37 0 59.5 15.5t22.5 40.5q0 55 -74 55q-50 0 -92 -33zM902 1468h131q-54 -262 -367 -262
q-145 0 -213.5 53t-68.5 148q0 31 6 61h125q0 -61 37.5 -82.5t128.5 -21.5q99 0 148 22.5t73 81.5z" />
    <glyph glyph-name="Abrevetilde" unicode="&#x1eb4;" horiz-adv-x="1262" 
d="M145 0h-192l747 1384h236l176 -1384h-188l-43 360h-539zM782 1202l-356 -674h434zM620 1882h-119q60 232 265 232q45 0 86.5 -17.5t67.5 -38t58.5 -38t63.5 -17.5q53 0 85 22.5t46 75.5h119q-29 -122 -96 -176.5t-176 -54.5q-45 0 -81.5 11.5t-60.5 27.5t-44.5 32
t-43.5 27.5t-47 11.5q-47 0 -76.5 -20.5t-46.5 -77.5zM1056 1825h131q-26 -128 -114.5 -205.5t-251.5 -77.5q-143 0 -213 61.5t-70 159.5q0 31 6 62h125q0 -64 39.5 -94.5t126.5 -30.5q176 0 221 125z" />
    <glyph glyph-name="abrevetilde" unicode="&#x1eb5;" horiz-adv-x="1151" 
d="M92 342q0 72 13.5 151.5t40.5 163t72 158.5t102 134.5t137 94.5t172 35q175 0 278 -116l19 86h170l-222 -1049h-169l26 125q-86 -75 -164 -115.5t-168 -40.5q-161 0 -234 93.5t-73 279.5zM764 279l113 534q-53 57 -111.5 85t-140.5 28q-71 0 -132 -38.5t-102 -100.5
t-70 -140.5t-42 -157t-13 -151.5q0 -115 40 -165t128 -50q161 0 330 156zM466 1546h-119q60 232 264 232q45 0 86.5 -17.5t67.5 -38t58.5 -38t63.5 -17.5q53 0 85 22.5t46 75.5h119q-29 -122 -96 -176.5t-176 -54.5q-55 0 -98.5 17.5t-66.5 38t-52.5 38t-59.5 17.5
q-47 0 -77 -21t-45 -78zM902 1489h131q-26 -129 -115 -206t-252 -77q-142 0 -212 62t-70 159q0 31 6 62h125q0 -64 39.5 -94.5t126.5 -30.5q94 0 145 31t76 94z" />
    <glyph glyph-name="Abrevedotbelow" unicode="&#x1eb6;" horiz-adv-x="1262" 
d="M145 0h-192l747 1384h236l176 -1384h-188l-43 360h-539zM782 1202l-356 -674h434zM1067 1825h131q-26 -129 -115 -206t-252 -77q-142 0 -212 61.5t-70 159.5q0 31 6 62h125q0 -64 39.5 -94.5t126.5 -30.5q94 0 145 31t76 94zM618 -217q0 -20 -7 -49t-15 -43
q-20 -36 -48.5 -50t-74.5 -14q-53 0 -74.5 19t-21.5 55q0 45 18 86q31 70 125 70q53 0 75.5 -18t22.5 -56z" />
    <glyph glyph-name="abrevedotbelow" unicode="&#x1eb7;" horiz-adv-x="1151" 
d="M92 342q0 72 13.5 151.5t40.5 163t72 158.5t102 134.5t137 94.5t172 35q175 0 278 -116l19 86h170l-222 -1049h-169l26 125q-86 -75 -164 -115.5t-168 -40.5q-161 0 -234 93.5t-73 279.5zM764 279l113 534q-53 57 -111.5 85t-140.5 28q-71 0 -132 -38.5t-102 -100.5
t-70 -140.5t-42 -157t-13 -151.5q0 -115 40 -165t128 -50q161 0 330 156zM926 1468h131q-26 -127 -115 -204.5t-252 -77.5q-142 0 -212 61.5t-70 159.5q0 31 6 61h125q0 -64 39.5 -94.5t126.5 -30.5q93 0 144.5 31t76.5 94zM522 -217q0 -20 -7 -49t-15 -43
q-20 -36 -48.5 -50t-74.5 -14q-53 0 -74.5 19t-21.5 55q0 45 18 86q31 70 125 70q53 0 75.5 -18t22.5 -56z" />
    <glyph glyph-name="Edotbelow" unicode="&#x1eb8;" horiz-adv-x="1130" 
d="M897 0h-829l292 1384h830l-35 -167h-649l-86 -404h555l-35 -168h-555l-102 -477h649zM559 -217q0 -20 -7 -49t-15 -43q-20 -36 -48.5 -50t-74.5 -14q-53 0 -74.5 19t-21.5 55q0 45 18 86q31 70 125 70q53 0 75.5 -18t22.5 -56z" />
    <glyph glyph-name="edotbelow" unicode="&#x1eb9;" horiz-adv-x="1059" 
d="M956 504h-671q-21 -102 -21 -166q0 -123 53.5 -171t178.5 -48q133 0 262 135l106 -98q-163 -187 -389 -187q-387 0 -387 371q0 127 41.5 269.5t114.5 250.5q144 219 418 219q161 0 246 -88t85 -239q0 -66 -16 -152zM315 639h502q12 58 12 109q0 188 -190 188
q-140 0 -223 -100q-58 -71 -101 -197zM530 -217q0 -20 -7 -49t-15 -43q-20 -36 -48.5 -50t-74.5 -14q-53 0 -74.5 19t-21.5 55q0 45 18 86q31 70 125 70q53 0 75.5 -18t22.5 -56z" />
    <glyph glyph-name="Ehookabove" unicode="&#x1eba;" horiz-adv-x="1130" 
d="M897 0h-829l292 1384h830l-35 -167h-649l-86 -404h555l-35 -168h-555l-102 -477h649zM672 1688l-41 88q66 51 164 51q90 0 137 -38.5t47 -98.5q0 -59 -39.5 -100t-126.5 -52l-8 -41h-104l24 113h31q37 0 59.5 15t22.5 40q0 55 -74 55q-49 0 -92 -32z" />
    <glyph glyph-name="ehookabove" unicode="&#x1ebb;" horiz-adv-x="1059" 
d="M956 504h-671q-21 -102 -21 -166q0 -123 53.5 -171t178.5 -48q133 0 262 135l106 -98q-163 -187 -389 -187q-387 0 -387 371q0 127 41.5 269.5t114.5 250.5q144 219 418 219q161 0 246 -88t85 -239q0 -66 -16 -152zM315 639h502q12 58 12 109q0 188 -190 188
q-140 0 -223 -100q-58 -71 -101 -197zM562 1352l-41 88q66 51 164 51q90 0 137 -38.5t47 -98.5q0 -59 -39.5 -100t-126.5 -52l-8 -41h-104l24 113h31q37 0 59.5 15t22.5 40q0 55 -74 55q-49 0 -92 -32z" />
    <glyph glyph-name="Etilde" unicode="&#x1ebc;" horiz-adv-x="1130" 
d="M897 0h-829l292 1384h830l-35 -167h-649l-86 -404h555l-35 -168h-555l-102 -477h649zM534 1556h-119q33 129 102.5 196t162.5 67q43 0 78.5 -14.5t59 -35.5t44.5 -42t44.5 -35.5t49.5 -14.5q48 0 82 35.5t49 93.5h119q-64 -262 -273 -262q-51 0 -89.5 14.5t-61 35.5
t-41 42t-39 35.5t-45.5 14.5q-42 0 -74 -34t-49 -96z" />
    <glyph glyph-name="etilde" unicode="&#x1ebd;" horiz-adv-x="1059" 
d="M956 504h-671q-21 -102 -21 -166q0 -123 53.5 -171t178.5 -48q133 0 262 135l106 -98q-163 -187 -389 -187q-387 0 -387 371q0 127 41.5 269.5t114.5 250.5q144 219 418 219q161 0 246 -88t85 -239q0 -66 -16 -152zM315 639h502q12 58 12 109q0 188 -190 188
q-140 0 -223 -100q-58 -71 -101 -197zM413 1221h-119q33 129 102 195.5t162 66.5q43 0 78.5 -14.5t59.5 -35.5t45 -42t44.5 -35.5t49.5 -14.5q47 0 81.5 36t49.5 93h119q-65 -262 -273 -262q-51 0 -89.5 14.5t-61 35.5t-41 42t-39 35.5t-45.5 14.5q-42 0 -74 -33.5
t-49 -95.5z" />
    <glyph glyph-name="Ecircumflexacute" unicode="&#x1ebe;" horiz-adv-x="1130" 
d="M897 0h-829l292 1384h830l-35 -167h-649l-86 -404h555l-35 -168h-555l-102 -477h649zM1104 1503h-139l-138 158l-223 -158h-153l290 279h207zM1417 2007l-268 -274h-139l176 274h231z" />
    </font>
</defs>
</svg>
