<?xml version="1.0" standalone="no"?>
<!DOCTYPE svg PUBLIC "-//W3C//DTD SVG 1.1//EN" "http://www.w3.org/Graphics/SVG/1.1/DTD/svg11.dtd" >
<svg>
<metadata>
Created by FontForge 20090622 at Wed Oct  9 11:58:12 2019
 By deploy user
Font software Copyright &#194;&#169; 2012 Intel Corporation. Licensed under the Apache License, Version 2.0.  http://www.apache.org/licenses/LICENSE-2.0
</metadata>
<defs>
<font id="ClearSans-BoldItalic" horiz-adv-x="1192" >
  <font-face 
    font-family="Clear Sans"
    font-weight="700"
    font-style="italic"
    font-stretch="normal"
    units-per-em="2048"
    panose-1="2 11 8 3 3 2 2 9 3 4"
    ascent="1489"
    descent="-559"
    x-height="1049"
    cap-height="1384"
    bbox="-500 -629 2806 2204"
    underline-thickness="102"
    underline-position="-103"
    slope="-12"
    unicode-range="U+000D-U+FEFF"
  />
<missing-glyph horiz-adv-x="1024" 
d="M57 0v1362h973v-1362h-973zM213 1266l332 -498l329 498h-661zM156 1178v-992l164 247l165 249zM934 1178l-332 -496l332 -498v994zM874 98l-329 496l-332 -496h661z" />
    <glyph glyph-name="f_f" unicode="ff" horiz-adv-x="1241" 
d="M934 1485l-92 -219q-63 28 -129 28q-72 0 -109 -32.5t-53 -110.5l-23 -102h209l-43 -205h-209l-178 -844h-254l178 844h-129l43 205h129l23 102q38 185 135.5 277t290.5 92q118 0 211 -35zM1552 1485l-92 -219q-63 28 -129 28q-72 0 -109 -32.5t-53 -110.5l-23 -102h209
l-43 -205h-209l-178 -844h-254l178 844h-129l43 205h129l23 102q38 185 135.5 277t290.5 92q118 0 211 -35z" />
    <glyph glyph-name="fi" unicode="fi" horiz-adv-x="1120" 
d="M934 1485l-92 -219q-63 28 -129 28q-72 0 -109 -32.5t-53 -110.5l-23 -102h209l-43 -205h-209l-178 -844h-254l178 844h-129l43 205h129l23 102q38 185 135.5 277t290.5 92q118 0 211 -35zM901 0h-252l221 1049h252zM911 1300q0 24 7.5 50t24.5 53.5t52.5 45t83.5 17.5
q125 0 125 -94q0 -27 -8.5 -54t-26.5 -54t-53 -43.5t-82 -16.5q-67 0 -95 24t-28 72z" />
    <glyph glyph-name="fl" unicode="fl" horiz-adv-x="1137" 
d="M934 1485l-92 -219q-63 28 -129 28q-72 0 -109 -32.5t-53 -110.5l-23 -102h209l-43 -205h-209l-178 -844h-254l178 844h-129l43 205h129l23 102q38 185 135.5 277t290.5 92q118 0 211 -35zM901 0h-252l315 1489h252z" />
    <glyph glyph-name="f_f_i" unicode="ffi" horiz-adv-x="1741" 
d="M934 1485l-92 -219q-63 28 -129 28q-72 0 -109 -32.5t-53 -110.5l-23 -102h209l-43 -205h-209l-178 -844h-254l178 844h-129l43 205h129l23 102q38 185 135.5 277t290.5 92q118 0 211 -35zM1552 1485l-92 -219q-63 28 -129 28q-72 0 -109 -32.5t-53 -110.5l-23 -102h209
l-43 -205h-209l-178 -844h-254l178 844h-129l43 205h129l23 102q38 185 135.5 277t290.5 92q118 0 211 -35zM1522 0h-252l221 1049h252zM1532 1300q0 24 7.5 50t24.5 53.5t52.5 45t83.5 17.5q125 0 125 -94q0 -27 -8.5 -54t-26.5 -54t-53 -43.5t-82 -16.5q-67 0 -95 24
t-28 72z" />
    <glyph glyph-name="f_f_l" unicode="ffl" horiz-adv-x="1757" 
d="M934 1485l-92 -219q-63 28 -129 28q-72 0 -109 -32.5t-53 -110.5l-23 -102h209l-43 -205h-209l-178 -844h-254l178 844h-129l43 205h129l23 102q38 185 135.5 277t290.5 92q118 0 211 -35zM1552 1485l-92 -219q-63 28 -129 28q-72 0 -109 -32.5t-53 -110.5l-23 -102h209
l-43 -205h-209l-178 -844h-254l178 844h-129l43 205h129l23 102q38 185 135.5 277t290.5 92q118 0 211 -35zM1522 0h-252l315 1489h252z" />
    <glyph glyph-name=".notdef" horiz-adv-x="1024" 
d="M57 0v1362h973v-1362h-973zM213 1266l332 -498l329 498h-661zM156 1178v-992l164 247l165 249zM934 1178l-332 -496l332 -498v994zM874 98l-329 496l-332 -496h661z" />
    <glyph glyph-name=".null" horiz-adv-x="0" 
 />
    <glyph glyph-name="nonmarkingreturn" unicode="&#xd;" horiz-adv-x="543" 
 />
    <glyph glyph-name="NULL" horiz-adv-x="0" 
 />
    <glyph glyph-name="NULL" horiz-adv-x="0" 
 />
    <glyph glyph-name="space" unicode=" " horiz-adv-x="543" 
 />
    <glyph glyph-name="exclam" unicode="!" horiz-adv-x="571" 
d="M606 1384l-231 -944h-211l168 944h274zM373 197q0 -70 -31 -127q-25 -45 -65.5 -64.5t-106.5 -19.5q-71 0 -102 22.5t-31 71.5q0 56 24 115q22 52 62.5 75t112.5 23t104.5 -22.5t32.5 -73.5z" />
    <glyph glyph-name="quotedbl" unicode="&#x22;" horiz-adv-x="956" 
d="M1004 1384l-175 -612h-180l84 612h271zM584 1384l-174 -612h-181l86 612h269z" />
    <glyph glyph-name="numbersign" unicode="#" horiz-adv-x="1307" 
d="M1264 821h-238l-63 -258h237l-45 -180h-237l-97 -383h-180l98 383h-231l-96 -383h-181l99 383h-240l45 180h238l65 258h-239l45 180h239l99 385h178l-96 -385h229l98 385h178l-96 -385h236zM848 821h-232l-63 -258h229z" />
    <glyph glyph-name="dollar" unicode="$" horiz-adv-x="1255" 
d="M885 1413l-25 -117q226 -39 328 -213l-205 -137q-60 97 -172 129l-59 -276q178 -56 251.5 -135.5t73.5 -204.5q0 -178 -130 -279t-349 -117l-41 -196h-164l41 199q-133 15 -227 78t-125 147l217 139q48 -116 180 -145l70 325q-96 31 -156 63t-95.5 73t-48.5 88t-13 116
q0 61 25.5 119t77.5 110.5t144.5 87t212.5 40.5l25 106h164zM821 424q0 44 -23.5 73.5t-97.5 59.5l-57 -272q75 9 126.5 44t51.5 95zM489 967q0 -39 23 -67t88 -50l49 233q-81 -9 -120.5 -40.5t-39.5 -75.5z" />
    <glyph glyph-name="percent" unicode="%" horiz-adv-x="2120" 
d="M678 -55h-232l1049 1489h234zM485 508q-173 0 -248 81t-75 226q0 55 15.5 139t45.5 162q55 146 153.5 216.5t252.5 70.5q178 0 255 -80.5t77 -232.5q0 -81 -33.5 -197.5t-69.5 -181.5q-63 -109 -153 -156t-220 -47zM502 688q48 0 84 22.5t65 77.5q72 142 72 308
q0 71 -27 99t-80 28q-105 0 -157 -129q-60 -149 -60 -283q0 -66 25.5 -94.5t77.5 -28.5zM1544 -31q-173 0 -248 81t-75 226q0 55 15.5 140t45.5 162q55 145 153.5 215.5t252.5 70.5q177 0 254 -80.5t77 -232.5q0 -82 -33 -198.5t-69 -180.5q-62 -109 -152.5 -156t-220.5 -47
zM1561 150q98 0 149 100q72 141 72 307q0 71 -27 99t-80 28q-108 0 -157 -129q-60 -149 -60 -283q0 -66 25.5 -94t77.5 -28z" />
    <glyph glyph-name="ampersand" unicode="&#x26;" horiz-adv-x="1292" 
d="M49 313q0 132 95.5 247t281.5 228q-52 93 -70 150t-18 135q0 68 25 128.5t73.5 108.5t126.5 75.5t176 27.5q169 0 253.5 -71.5t84.5 -186.5q0 -116 -78.5 -214.5t-259.5 -207.5l164 -293q71 95 144 242l196 -78q-96 -218 -227 -360l137 -244h-281l-47 84
q-183 -113 -385 -113q-194 0 -292.5 87.5t-98.5 254.5zM461 180q138 0 260 82l-193 348q-121 -75 -176 -142t-55 -142q0 -69 46 -107.5t118 -38.5zM582 1073q0 -62 47 -143l8 -17q116 74 157.5 120.5t41.5 103.5q0 86 -111 86q-67 0 -105 -42.5t-38 -107.5z" />
    <glyph glyph-name="quotesingle" unicode="'" horiz-adv-x="539" 
d="M584 1384l-174 -612h-181l86 612h269z" />
    <glyph glyph-name="parenleft" unicode="(" horiz-adv-x="840" 
d="M604 -395h-278q-126 179 -181 346t-55 379q0 322 170.5 637t464.5 555h287q-144 -116 -262.5 -245.5t-214.5 -279.5t-149.5 -320t-53.5 -343q0 -209 70 -383t202 -346z" />
    <glyph glyph-name="parenright" unicode=")" horiz-adv-x="840" 
d="M252 1522h278q126 -180 181 -347t55 -378q0 -323 -171 -638t-464 -554h-287q144 116 262.5 245.5t214.5 279.5t149.5 320t53.5 343q0 208 -70 383t-202 346z" />
    <glyph glyph-name="asterisk" unicode="*" horiz-adv-x="893" 
d="M954 977l-106 -148l-230 175l-45 -271h-172l68 260l-260 -149l-68 153l293 133l-244 144l109 145l223 -159l45 260h172l-67 -260l260 149l72 -154l-297 -135z" />
    <glyph glyph-name="plus" unicode="+" horiz-adv-x="1427" 
d="M1315 479h-477v-477h-205v477h-479v205h479v479h205v-479h477v-205z" />
    <glyph glyph-name="comma" unicode="," horiz-adv-x="571" 
d="M141 -293h-172q58 75 106.5 158.5t61.5 124.5q-98 6 -98 94q0 56 22 113q22 53 64 80.5t117 27.5q127 0 127 -119q0 -97 -72 -247q-63 -130 -156 -232z" />
    <glyph glyph-name="hyphen" unicode="-" horiz-adv-x="770" 
d="M664 399h-611l53 254h611z" />
    <glyph glyph-name="period" unicode="." horiz-adv-x="571" 
d="M373 203q0 -71 -31 -129q-25 -47 -65.5 -67.5t-106.5 -20.5q-70 0 -100.5 24t-30.5 74q0 61 27 123q21 51 62 74.5t110 23.5q71 0 103 -25t32 -77z" />
    <glyph glyph-name="slash" unicode="/" horiz-adv-x="1016" 
d="M1126 1520l-1052 -1819h-258l1048 1819h262z" />
    <glyph glyph-name="zero" unicode="0" horiz-adv-x="1255" 
d="M1227 944q0 -116 -35 -276t-96 -306q-47 -111 -107 -189t-132.5 -122t-150 -63t-171.5 -19q-230 0 -334.5 110t-104.5 351q0 112 30.5 255t82.5 282q90 235 235 340.5t353 105.5q220 0 325 -117t105 -352zM846 477q92 254 92 465q0 124 -42.5 176.5t-131.5 52.5
q-110 0 -174.5 -67.5t-118.5 -214.5q-86 -239 -86 -473q0 -114 42 -159.5t134 -45.5q93 0 162.5 59.5t122.5 206.5z" />
    <glyph glyph-name="one" unicode="1" horiz-adv-x="1255" 
d="M739 0h-278l196 928h-327l41 190q196 12 289 67t161 199h211z" />
    <glyph glyph-name="two" unicode="2" horiz-adv-x="1180" 
d="M967 0h-973l49 236q471 344 643 516q174 169 174 286q0 125 -141 125q-94 0 -162.5 -41t-128.5 -110l-184 172q94 113 216 171t288 58q405 0 405 -342q0 -112 -67.5 -227t-176.5 -215q-142 -133 -479 -371h590z" />
    <glyph glyph-name="three" unicode="3" horiz-adv-x="1180" 
d="M395 602l51 242h105q66 0 128.5 20t108.5 65.5t46 108.5q0 55 -36.5 89t-115.5 34q-168 0 -274 -123l-181 170q95 103 213 154t281 51q405 0 405 -328q0 -116 -88.5 -213t-257.5 -139q109 -19 176.5 -93.5t67.5 -188.5q0 -226 -150 -353t-448 -127q-177 0 -289 62
t-143 162l239 155q55 -127 228 -127q135 0 202.5 62t67.5 149t-53 127.5t-162 40.5h-121z" />
    <glyph glyph-name="four" unicode="4" horiz-adv-x="1255" 
d="M1110 229h-166l-47 -229h-264l47 229h-682l55 260l854 895h283l-195 -913h166zM731 471l115 533l-516 -533h401z" />
    <glyph glyph-name="five" unicode="5" horiz-adv-x="1180" 
d="M1079 543q0 -256 -176 -418q-168 -154 -475 -154q-329 0 -448 228l247 157q46 -133 222 -133q164 0 249 76q40 36 64 92.5t24 110.5q0 174 -196 174q-77 0 -147 -21.5t-105 -52.5h-193l246 782h793l-56 -258h-571l-80 -243q100 39 215 39q189 0 288 -97t99 -282z" />
    <glyph glyph-name="six" unicode="6" horiz-adv-x="1180" 
d="M518 -29q-215 0 -321.5 107t-106.5 311q0 185 94 481q95 285 248.5 414t386.5 129q124 0 214 -31t161 -100l-188 -203q-42 47 -89 69.5t-118 22.5q-127 0 -207 -88t-137 -266q78 50 145 73t143 23q171 0 263 -91t92 -269q0 -118 -39.5 -223t-112 -185t-183.5 -127
t-245 -47zM547 213q117 0 190.5 85.5t73.5 209.5q0 72 -41.5 119t-128.5 47q-124 0 -240 -76q-26 -121 -26 -190q0 -195 172 -195z" />
    <glyph glyph-name="seven" unicode="7" horiz-adv-x="1255" 
d="M1274 1212l-754 -1212h-321l721 1126h-682l55 258h1018z" />
    <glyph glyph-name="eight" unicode="8" horiz-adv-x="1180" 
d="M864 733q106 -59 157.5 -128.5t51.5 -194.5q0 -92 -39.5 -171.5t-112 -139t-182.5 -94t-243 -34.5q-230 0 -343.5 83.5t-113.5 264.5q0 125 86.5 232t253.5 184q-83 47 -122.5 110t-39.5 167q0 61 19 118.5t61.5 109t104 90t152 61t200.5 22.5q430 0 430 -332
q0 -104 -72.5 -186.5t-247.5 -161.5zM655 836q37 15 64 27t65 34.5t62 45.5t41.5 57t17.5 71q0 56 -42.5 88.5t-131.5 32.5q-121 0 -180 -49t-59 -127q0 -46 32.5 -89.5t130.5 -90.5zM612 631q-157 -67 -223.5 -130.5t-66.5 -168.5q0 -64 49.5 -100.5t148.5 -36.5
q127 0 200 57.5t73 159.5q0 67 -43 117t-138 102z" />
    <glyph glyph-name="nine" unicode="9" horiz-adv-x="1180" 
d="M731 1413q215 0 321.5 -107t106.5 -311q0 -185 -94 -481q-93 -283 -247.5 -413t-387.5 -130q-124 0 -214 31t-161 100l189 203q41 -46 89 -69t118 -23q127 0 207 88t137 266q-79 -49 -146.5 -72.5t-142.5 -23.5q-171 0 -262.5 91.5t-91.5 268.5q0 118 39.5 223.5
t112 185.5t183 126.5t244.5 46.5zM702 1171q-117 0 -190.5 -85.5t-73.5 -208.5q0 -73 41.5 -119.5t128.5 -46.5q128 0 240 75q26 121 26 191q0 194 -172 194z" />
    <glyph glyph-name="colon" unicode=":" horiz-adv-x="571" 
d="M373 203q0 -71 -31 -129q-25 -47 -65.5 -67.5t-106.5 -20.5q-70 0 -100.5 24t-30.5 74q0 61 27 123q21 51 62 74.5t110 23.5q71 0 103 -25t32 -77zM530 946q0 -73 -30 -129q-25 -46 -66 -67t-106 -21q-71 0 -101 24t-30 74q0 60 26 123q22 51 63 75t109 24
q72 0 103.5 -24.5t31.5 -78.5z" />
    <glyph glyph-name="semicolon" unicode=";" horiz-adv-x="571" 
d="M530 946q0 -73 -30 -129q-25 -46 -66 -67t-106 -21q-71 0 -101 24t-30 74q0 60 26 123q22 51 63 75t109 24q72 0 103.5 -24.5t31.5 -78.5zM141 -293h-172q58 75 106.5 158.5t61.5 124.5q-98 6 -98 94q0 56 22 113q22 53 64 80.5t117 27.5q127 0 127 -119q0 -97 -72 -247
q-63 -130 -156 -232z" />
    <glyph glyph-name="less" unicode="&#x3c;" horiz-adv-x="1427" 
d="M1315 4l-1163 477v203l1163 479v-225l-866 -354l866 -355v-225z" />
    <glyph glyph-name="equal" unicode="=" horiz-adv-x="1427" 
d="M1323 725h-1161v205h1161v-205zM1323 233h-1161v205h1161v-205z" />
    <glyph glyph-name="greater" unicode="&#x3e;" horiz-adv-x="1427" 
d="M1315 481l-1163 -477v225l866 355l-866 354v225l1163 -479v-203z" />
    <glyph glyph-name="question" unicode="?" horiz-adv-x="1051" 
d="M567 420h-266l61 280q254 107 347.5 180t93.5 173q0 61 -38.5 89.5t-125.5 28.5q-84 0 -144.5 -36.5t-123.5 -114.5l-201 143q97 131 212 190.5t275 59.5q219 0 329 -78.5t110 -242.5q0 -85 -34 -158.5t-102 -136t-154 -114.5t-204 -105zM549 197q0 -70 -31 -127
q-25 -45 -65.5 -64.5t-106.5 -19.5q-71 0 -102 22.5t-31 71.5q0 53 25 115q21 52 61.5 75t112.5 23t104.5 -22.5t32.5 -73.5z" />
    <glyph glyph-name="at" unicode="@" horiz-adv-x="1911" 
d="M1839 698q0 -103 -23 -202t-69 -186t-109.5 -152.5t-151.5 -103.5t-188 -38q-189 0 -219 152q-82 -63 -154.5 -94t-150.5 -31q-303 0 -303 350q0 73 24.5 170.5t65.5 173.5q73 135 191 210t262 75q60 0 109 -16.5t104 -53.5l8 41h211l-148 -696q-6 -31 -6 -51
q2 -28 16.5 -36.5t41.5 -8.5q81 0 148.5 72.5t103.5 184.5t36 234q0 262 -140.5 400.5t-426.5 138.5q-176 0 -326 -70t-250.5 -188.5t-157 -275t-56.5 -328.5q0 -235 143 -365.5t399 -130.5q245 0 451 45v-180q-207 -47 -492 -47q-327 0 -514.5 175.5t-187.5 504.5
q0 159 42 310.5t127.5 284t203.5 232.5t280 157.5t348 57.5q357 0 557.5 -180t200.5 -535zM1102 362l82 396q-92 69 -180 69t-148 -39t-102 -124q-64 -138 -64 -256q0 -94 29 -129t100 -35q75 0 142.5 30t140.5 88z" />
    <glyph glyph-name="A" unicode="A" horiz-adv-x="1311" 
d="M201 0h-283l739 1384h361l156 -1384h-273l-31 281h-518zM784 1100l-303 -572h363z" />
    <glyph glyph-name="B" unicode="B" horiz-adv-x="1272" 
d="M905 745q129 -16 205 -90t76 -192q0 -204 -149 -333.5t-412 -129.5h-588l293 1384h452q247 0 351 -65t104 -225q0 -126 -81 -220.5t-251 -128.5zM492 842h167q51 0 97 9t89.5 28.5t69 58t25.5 90.5q0 59 -47 85t-162 26h-176zM367 250h188q30 0 47.5 0.5t52 2.5t56.5 7.5
t52.5 14.5t50 24t38.5 35.5t28 50t9 66.5q0 84 -58.5 114.5t-205.5 30.5h-187z" />
    <glyph glyph-name="C" unicode="C" horiz-adv-x="1284" 
d="M983 399l195 -170q-231 -258 -580 -258q-257 0 -383.5 127.5t-126.5 395.5q0 111 27 245.5t86 259.5q42 87 98.5 158.5t133 130.5t178.5 92t220 33q366 0 498 -268l-244 -150q-44 94 -103 131t-163 37q-123 0 -210 -67t-138 -185q-90 -205 -90 -413q0 -147 63.5 -212
t167.5 -65q116 0 199 40t172 138z" />
    <glyph glyph-name="D" unicode="D" horiz-adv-x="1286" 
d="M1268 922q0 -88 -14 -185t-42.5 -201t-80.5 -200.5t-121 -161.5q-187 -174 -572 -174h-413l292 1384h394q142 0 243 -23.5t173 -77t106.5 -143t34.5 -218.5zM354 258h107q133 0 215.5 19.5t136.5 72.5q74 74 121 239.5t47 307.5q0 129 -70 179t-227 50h-145z" />
    <glyph glyph-name="E" unicode="E" horiz-adv-x="1126" 
d="M918 0h-881l293 1384h880l-53 -249h-604l-61 -295h509l-53 -250h-510l-71 -332h604z" />
    <glyph glyph-name="F" unicode="F" horiz-adv-x="1081" 
d="M1147 1126h-596l-64 -299h500l-51 -249h-500l-123 -578h-276l293 1384h872z" />
    <glyph glyph-name="G" unicode="G" horiz-adv-x="1386" 
d="M1386 1165l-243 -166q-80 164 -277 164q-85 0 -147.5 -19t-108.5 -61.5t-77.5 -92t-65.5 -126.5q-80 -184 -80 -377q0 -149 59.5 -207.5t215.5 -58.5q141 0 264 66l45 207h-264l53 249h543l-132 -612q-244 -160 -532 -160q-278 0 -410.5 118t-132.5 382q0 246 101 469
q38 85 77 149.5t98.5 128t130 104.5t169.5 66t219 25q180 0 297.5 -61t197.5 -187z" />
    <glyph glyph-name="H" unicode="H" horiz-adv-x="1380" 
d="M1124 0h-276l125 588h-535l-125 -588h-276l293 1384h276l-114 -538h534l115 538h276z" />
    <glyph glyph-name="I" unicode="I" horiz-adv-x="854" 
d="M688 217l-45 -217h-653l45 217h188l203 950h-188l45 217h653l-45 -217h-189l-202 -950h188z" />
    <glyph glyph-name="J" unicode="J" horiz-adv-x="905" 
d="M936 1384l-213 -1007q-43 -210 -160 -309t-340 -99q-155 0 -286 54l106 243q88 -47 190 -47q106 0 153 47.5t77 186.5l196 931h277z" />
    <glyph glyph-name="K" unicode="K" horiz-adv-x="1255" 
d="M1116 0h-323l-258 594l-119 -113l-103 -481h-276l293 1384h276l-106 -503l520 503h352l-631 -602z" />
    <glyph glyph-name="L" unicode="L" horiz-adv-x="1018" 
d="M883 0h-846l293 1384h276l-239 -1126h569z" />
    <glyph glyph-name="M" unicode="M" horiz-adv-x="1634" 
d="M1376 0h-266l197 930l-449 -578h-160l-198 578l-197 -930h-266l293 1384h303l215 -657l495 657h326z" />
    <glyph glyph-name="N" unicode="N" horiz-adv-x="1382" 
d="M1126 0h-317l-293 989l-209 -989h-270l293 1384h342l276 -933l199 933h272z" />
    <glyph glyph-name="O" unicode="O" horiz-adv-x="1337" 
d="M594 -29q-135 0 -234.5 36.5t-158 104t-86 154.5t-27.5 197q0 267 100 498q44 102 99 180.5t130 141.5t175.5 96.5t222.5 33.5q241 0 372.5 -130.5t131.5 -385.5q0 -161 -66 -377q-170 -549 -659 -549zM375 485q0 -140 55 -202t174 -62q259 0 371 346q55 170 55 312
q0 150 -55.5 217t-179.5 67q-119 0 -201.5 -70.5t-140.5 -209.5q-78 -186 -78 -398z" />
    <glyph glyph-name="P" unicode="P" horiz-adv-x="1214" 
d="M1239 1036q0 -84 -15 -163.5t-55.5 -162t-101.5 -143.5t-162.5 -100t-230.5 -39h-271l-90 -428h-276l293 1384h508q200 0 300.5 -81.5t100.5 -266.5zM457 674h192q72 0 125 17t85.5 45t52.5 71t27 88.5t7 103.5q0 73 -42 106.5t-138 33.5h-211z" />
    <glyph glyph-name="Q" unicode="Q" horiz-adv-x="1337" 
d="M797 -348q-203 0 -291 89.5t-88 250.5q-330 78 -330 471q0 267 100 498q41 96 97 174.5t132.5 142.5t178 99.5t219.5 35.5q241 0 372.5 -130.5t131.5 -385.5q0 -171 -66 -377q-24 -75 -56 -142t-79.5 -133.5t-104 -117.5t-132.5 -89.5t-162 -53.5q2 -52 31 -76.5
t104 -24.5q100 0 209 31l14 -227q-49 -16 -135 -25.5t-145 -9.5zM375 485q0 -140 55 -202t174 -62q139 0 232.5 94.5t142.5 245.5q51 157 51 318q0 150 -55.5 217t-179.5 67q-120 0 -206 -76.5t-138 -203.5q-76 -184 -76 -398z" />
    <glyph glyph-name="R" unicode="R" horiz-adv-x="1257" 
d="M1116 0h-309l-223 524h-160l-111 -524h-276l293 1384h483q239 0 340.5 -76t101.5 -268q0 -94 -41 -198.5t-114 -175.5q-93 -89 -232 -117zM475 770h203q158 0 217 59q32 32 50 84t18 97q0 72 -38.5 100.5t-136.5 28.5h-233z" />
    <glyph glyph-name="S" unicode="S" horiz-adv-x="1204" 
d="M0 229l250 166q41 -86 103.5 -130t183.5 -44q112 0 194 46t82 114q0 56 -13 82.5t-69 57.5t-184 73q-98 32 -160.5 63t-112.5 75.5t-72 105t-22 143.5t37.5 159.5t106 137.5t177 98t240.5 37q169 0 288 -61t200 -185l-248 -168q-42 83 -107 123.5t-174 40.5
q-101 0 -164 -41.5t-63 -113.5q0 -64 53 -100.5t191 -78.5q212 -66 301.5 -161t89.5 -252q0 -199 -163 -322t-429 -123q-408 0 -516 258z" />
    <glyph glyph-name="T" unicode="T" horiz-adv-x="1180" 
d="M1274 1126h-418l-238 -1126h-276l238 1126h-418l55 258h1112z" />
    <glyph glyph-name="U" unicode="U" horiz-adv-x="1409" 
d="M1444 1384l-176 -833q-35 -165 -90.5 -277.5t-138 -179.5t-185.5 -96t-242 -29q-236 0 -355.5 101.5t-119.5 312.5q0 101 27 219l166 782h276l-166 -786q-22 -99 -22 -199q0 -98 54 -139t165 -41q74 0 127 16t99.5 57.5t79 115.5t56.5 186l168 790h277z" />
    <glyph glyph-name="V" unicode="V" horiz-adv-x="1219" 
d="M1374 1384l-715 -1384h-325l-125 1384h264l86 -1044l524 1044h291z" />
    <glyph glyph-name="W" unicode="W" horiz-adv-x="1796" 
d="M1937 1384l-645 -1384h-282l-33 915l-424 -915h-279l-49 1384h269l26 -909l414 909h274l33 -909l416 909h280z" />
    <glyph glyph-name="X" unicode="X" horiz-adv-x="1260" 
d="M240 0h-320l604 721l-291 663h297l189 -458l375 458h321l-590 -688l295 -696h-295l-196 492z" />
    <glyph glyph-name="Y" unicode="Y" horiz-adv-x="1163" 
d="M1329 1384l-608 -856l-111 -528h-278l110 522l-241 862h284l142 -589l393 589h309z" />
    <glyph glyph-name="Z" unicode="Z" horiz-adv-x="1124" 
d="M930 0h-969l47 238l795 888h-576l56 258h923l-47 -227l-805 -899h629z" />
    <glyph glyph-name="bracketleft" unicode="[" horiz-adv-x="750" 
d="M494 -395h-537l397 1884h539l-43 -207h-303l-314 -1470h304z" />
    <glyph glyph-name="backslash" unicode="\" horiz-adv-x="1016" 
d="M854 -299h-240l-303 1819h242z" />
    <glyph glyph-name="bracketright" unicode="]" horiz-adv-x="750" 
d="M403 -395h-536l43 207h301l313 1470h-303l43 207h539z" />
    <glyph glyph-name="asciicircum" unicode="^" horiz-adv-x="1184" 
d="M1106 649h-191l-170 518l-391 -518h-207l551 735h170z" />
    <glyph glyph-name="underscore" unicode="_" horiz-adv-x="1024" 
d="M879 -256h-1045l23 102h1044z" />
    <glyph glyph-name="grave" unicode="`" horiz-adv-x="1024" 
d="M829 1208h-190l-227 361h299z" />
    <glyph glyph-name="a" unicode="a" 
d="M66 344q0 80 16 164t46 166.5t77.5 155.5t106.5 128.5t137 88t165 32.5q180 0 279 -108l16 78h250l-219 -1049h-211l6 129q-104 -89 -182 -124.5t-168 -35.5q-319 0 -319 375zM758 326l90 432q-35 39 -89 66.5t-112 27.5q-75 0 -137 -47.5t-98.5 -120.5t-56 -152
t-19.5 -151q0 -96 32 -140t101 -44q125 0 289 129z" />
    <glyph glyph-name="b" unicode="b" 
d="M283 94l-52 -94h-198l315 1489h252l-111 -524q71 53 154 83.5t152 30.5q165 0 249 -89.5t84 -284.5q0 -145 -48.5 -290.5t-133.5 -258.5q-142 -187 -379 -187q-176 0 -284 125zM446 750l-100 -459q35 -39 89 -66.5t112 -27.5q120 0 201 112q47 64 78.5 164.5t31.5 194.5
q0 97 -35 140.5t-118 43.5q-123 0 -259 -102z" />
    <glyph glyph-name="c" unicode="c" horiz-adv-x="1038" 
d="M743 299l168 -149q-78 -86 -190 -133.5t-238 -47.5q-220 0 -317.5 107.5t-97.5 322.5q0 75 18 160t62.5 179t110 168.5t171 123.5t234.5 49q147 0 239.5 -45t149.5 -139l-213 -133q-28 48 -72 70t-117 22q-67 0 -122.5 -33t-90.5 -83.5t-59.5 -114t-34.5 -121.5t-10 -109
q0 -100 38 -149t138 -49q134 0 233 104z" />
    <glyph glyph-name="d" unicode="d" 
d="M66 344q0 146 48.5 291t133.5 258q141 186 379 186q167 0 266 -108l111 518h249l-313 -1489h-231l20 102q-173 -133 -330 -133q-164 0 -248.5 90t-84.5 285zM446 739q-47 -66 -78.5 -164.5t-31.5 -193.5q0 -97 35 -140.5t118 -43.5q61 0 132.5 29t130.5 73l96 459
q-35 39 -89 66.5t-112 27.5q-119 0 -201 -113z" />
    <glyph glyph-name="e" unicode="e" horiz-adv-x="1120" 
d="M1024 457h-686q-8 -35 -8 -86q0 -91 46 -133.5t138 -42.5q87 0 150.5 25t119.5 75l144 -164q-85 -83 -182 -122.5t-254 -39.5q-113 0 -196.5 30.5t-133 86t-73 126t-23.5 157.5q0 276 161 503q69 97 179 152t256 55q403 0 403 -364q0 -50 -14 -125zM379 635h426
q10 47 10 86q0 79 -37.5 116t-126.5 37q-128 0 -198 -92q-48 -60 -74 -147z" />
    <glyph glyph-name="f" unicode="f" horiz-adv-x="647" 
d="M934 1485l-92 -219q-63 28 -129 28q-72 0 -109 -32.5t-53 -110.5l-23 -102h209l-43 -205h-209l-178 -844h-254l178 844h-129l43 205h129l23 102q38 185 135.5 277t290.5 92q118 0 211 -35z" />
    <glyph glyph-name="g" unicode="g" 
d="M1161 1049l-217 -1029q-23 -109 -62.5 -183.5t-108 -128t-171 -78.5t-246.5 -25q-125 0 -236 24t-179 66l116 211q142 -76 314 -76q155 0 227 46t94 155l19 86q-72 -53 -149.5 -85t-141.5 -32q-183 0 -265.5 95.5t-82.5 307.5q0 99 23.5 196t71.5 183.5t114.5 152.5
t160 105t201.5 39q80 0 154 -36t116 -93l54 99h194zM756 330l90 428q-82 94 -207 94q-72 0 -131 -43t-94.5 -110t-54.5 -141t-19 -142q0 -103 33 -146t116 -43q128 0 267 103z" />
    <glyph glyph-name="h" unicode="h" 
d="M946 0h-252l123 578q25 120 25 178q0 51 -23.5 73.5t-70.5 22.5q-121 0 -316 -152l-147 -700h-252l315 1489h252l-123 -576q189 166 375 166q133 0 192.5 -70t59.5 -180q0 -85 -19 -167z" />
    <glyph glyph-name="i" unicode="i" horiz-adv-x="539" 
d="M285 0h-252l221 1049h252zM295 1300q0 24 7.5 50t24.5 53.5t52.5 45t83.5 17.5q125 0 125 -94q0 -27 -8.5 -54t-26.5 -54t-53 -43.5t-82 -16.5q-67 0 -95 24t-28 72z" />
    <glyph glyph-name="j" unicode="j" horiz-adv-x="551" 
d="M520 1049l-231 -1094q-40 -188 -138.5 -269t-285.5 -81q-119 0 -209 30l100 224q66 -29 144 -29q70 0 97.5 42.5t53.5 164.5l215 1012h254zM309 1300q0 24 7.5 50t24.5 53.5t52.5 45t83.5 17.5q125 0 125 -94q0 -27 -8.5 -54t-26.5 -54t-53 -43.5t-82 -16.5q-67 0 -95 24
t-28 72z" />
    <glyph glyph-name="k" unicode="k" horiz-adv-x="1077" 
d="M944 0h-276l-185 442l-131 -116l-67 -326h-252l315 1489h252l-176 -834l412 394h309l-475 -447z" />
    <glyph glyph-name="l" unicode="l" horiz-adv-x="539" 
d="M285 0h-252l315 1489h252z" />
    <glyph glyph-name="m" unicode="m" horiz-adv-x="1755" 
d="M1509 0h-254l131 618q21 95 21 150q0 84 -86 84q-105 0 -277 -152l-147 -700h-254l131 618q21 95 21 136q0 51 -17 74.5t-69 23.5q-58 0 -134 -44.5t-143 -107.5l-147 -700h-252l221 1049h252l-29 -136q183 166 346 166q230 0 240 -188q116 96 200 142t162 46
q135 0 191.5 -62t56.5 -173q0 -85 -20 -166z" />
    <glyph glyph-name="n" unicode="n" 
d="M946 0h-252l123 578q25 120 25 184q0 90 -90 90q-127 0 -320 -152l-147 -700h-252l221 1049h252l-29 -136q192 166 369 166q136 0 197 -70t61 -180q0 -85 -19 -167z" />
    <glyph glyph-name="o" unicode="o" horiz-adv-x="1165" 
d="M68 381q0 130 46.5 279.5t147.5 254.5q156 164 418 164q196 0 307 -109t111 -321q0 -74 -18.5 -161.5t-69 -192.5t-123.5 -178q-82 -82 -175 -115t-231 -33q-413 0 -413 412zM334 377q0 -90 40.5 -136t133.5 -46q118 0 203 96q53 62 88 167t35 185q0 211 -185 211
q-118 0 -200 -102q-52 -66 -83.5 -171.5t-31.5 -203.5z" />
    <glyph glyph-name="p" unicode="p" 
d="M301 78l-100 -473h-250l303 1444h231l-20 -103q173 133 330 133q165 0 249 -89.5t84 -284.5q0 -67 -12.5 -142.5t-38.5 -160t-71.5 -160.5t-105 -138t-146 -98.5t-187.5 -36.5q-172 0 -266 109zM442 750l-96 -459q35 -39 89 -66.5t112 -27.5q75 0 137 47.5t98.5 120
t56 152t19.5 151.5q0 97 -35 140.5t-118 43.5q-62 0 -133 -28.5t-130 -73.5z" />
    <glyph glyph-name="q" unicode="q" 
d="M604 -395l98 479q-89 -63 -160 -89t-143 -26q-165 0 -249 93.5t-84 302.5q0 88 21 183.5t65.5 190.5t106 170.5t151.5 122.5t194 47q201 0 309 -129l54 99h194l-305 -1444h-252zM752 299l96 459q-35 39 -89 66.5t-112 27.5q-70 0 -126.5 -36t-90 -89.5t-55.5 -120
t-30.5 -122.5t-8.5 -103q0 -97 35 -140.5t118 -43.5q61 0 132.5 29t130.5 73z" />
    <glyph glyph-name="r" unicode="r" horiz-adv-x="823" 
d="M920 1042l-101 -247q-38 22 -100 22q-123 0 -291 -135l-143 -682h-252l221 1049h252l-31 -150q174 166 316 166q88 0 129 -23z" />
    <glyph glyph-name="s" unicode="s" horiz-adv-x="1006" 
d="M-6 152l217 135q33 -59 86 -83t127 -24q105 0 156 31t51 84q0 44 -36 71t-153 58q-172 45 -238.5 114t-66.5 189q0 149 120 250.5t335 101.5q140 0 236.5 -43t164.5 -137l-217 -137q-27 50 -81 78t-128 28q-84 0 -128 -32t-44 -68q0 -47 30 -72.5t126 -50.5
q191 -49 264.5 -119t73.5 -192q0 -161 -126 -263t-353 -102q-169 0 -263.5 44.5t-152.5 138.5z" />
    <glyph glyph-name="t" unicode="t" horiz-adv-x="725" 
d="M600 207v-207q-99 -31 -213 -31q-281 0 -281 248q0 55 17 131l104 496h-129l43 205h129l64 292h254l-64 -292h240l-43 -205h-240l-104 -494q-10 -44 -10 -78q0 -90 77 -90q87 0 156 25z" />
    <glyph glyph-name="u" unicode="u" 
d="M248 1049h252l-123 -578q-23 -110 -23 -168t21.5 -82t68.5 -24q126 0 318 151l147 701h252l-221 -1049h-252l29 135q-190 -166 -359 -166q-74 0 -128 20t-83.5 56t-43 79t-13.5 95q0 86 19 168z" />
    <glyph glyph-name="v" unicode="v" horiz-adv-x="1020" 
d="M1104 1049l-590 -1049h-233l-144 1049h246l84 -701l364 701h273z" />
    <glyph glyph-name="w" unicode="w" horiz-adv-x="1534" 
d="M1618 1049l-496 -1049h-231l-90 668l-373 -668h-231l-60 1049h252l17 -676l372 676h191l92 -670l295 670h262z" />
    <glyph glyph-name="x" unicode="x" horiz-adv-x="1057" 
d="M918 0h-281l-148 338l-264 -338h-303l463 547l-238 502h275l143 -326l269 326h303l-467 -533z" />
    <glyph glyph-name="y" unicode="y" horiz-adv-x="1063" 
d="M-205 -358l88 217q76 -29 152 -29q59 0 112 43.5t119 153.5l37 61l-166 961h252l103 -676l387 676h270l-680 -1121q-106 -178 -205 -250.5t-258 -72.5q-84 0 -211 37z" />
    <glyph glyph-name="z" unicode="z" horiz-adv-x="911" 
d="M743 0h-796l37 188l606 656h-455l43 205h772l-39 -187l-608 -657h483z" />
    <glyph glyph-name="braceleft" unicode="{" horiz-adv-x="897" 
d="M643 -395h-70q-172 0 -253.5 66.5t-81.5 199.5q0 69 20 162l25 119q16 78 16 129q0 172 -174 172h-39l47 221h39q124 0 189 71.5t98 229.5l28 139q46 211 148.5 308.5t308.5 97.5h105l-43 -207h-41q-112 0 -166 -48t-78 -165l-35 -166q-36 -168 -112.5 -260t-211.5 -119
q83 -30 130 -94.5t47 -147.5q0 -50 -17 -135l-30 -153q-15 -75 -15 -107q0 -106 133 -106h76z" />
    <glyph glyph-name="bar" unicode="|" horiz-adv-x="801" 
d="M575 -395h-239v1915h239v-1915z" />
    <glyph glyph-name="braceright" unicode="}" horiz-adv-x="897" 
d="M262 1520h70q336 0 336 -267q0 -64 -21 -161l-24 -119q-17 -74 -17 -129q0 -172 174 -172h39l-47 -221h-39q-124 0 -189 -71.5t-98 -229.5l-28 -140q-46 -211 -148.5 -308t-308.5 -97h-104l43 207h41q113 0 166 47.5t77 165.5l35 165q36 168 112.5 260t211.5 119
q-83 30 -129.5 94.5t-46.5 147.5q0 55 16 135l31 154q14 70 14 106q0 53 -35 80t-98 27h-76z" />
    <glyph glyph-name="asciitilde" unicode="~" horiz-adv-x="1358" 
d="M154 580l49 229q167 123 313 123q54 0 108 -16.5t98 -39.5l84.5 -46t82.5 -39.5t78 -16.5q139 0 336 148l-48 -222q-184 -131 -307 -131q-57 0 -113.5 16.5t-101.5 39.5l-86 46t-81.5 39.5t-73.5 16.5q-138 0 -338 -147z" />
    <glyph glyph-name="uni00A0" unicode="&#xa0;" horiz-adv-x="543" 
 />
    <glyph glyph-name="exclamdown" unicode="&#xa1;" horiz-adv-x="571" 
d="M-45 -395l254 1048h211l-191 -1048h-274zM203 868q0 72 30 127q25 45 66 64.5t107 19.5q71 0 102 -22.5t31 -71.5q0 -53 -25 -115q-22 -52 -62.5 -75t-111.5 -23q-72 0 -104.5 22.5t-32.5 73.5z" />
    <glyph glyph-name="cent" unicode="&#xa2;" horiz-adv-x="1044" 
d="M743 299l168 -149q-78 -86 -190 -133.5t-238 -47.5h-30l-78 -229h-166l86 256q-119 41 -173 140.5t-54 262.5q0 51 9 109.5t30 125t52 129t79.5 120.5t107.5 101t139.5 69t173.5 26l72 209h166l-76 -225q149 -37 232 -168l-213 -133q-33 56 -95 78l-217 -645
q127 11 215 104zM334 393q0 -123 41 -162l207 613q-65 -18 -115.5 -71t-78 -121t-41 -134.5t-13.5 -124.5z" />
    <glyph glyph-name="sterling" unicode="&#xa3;" horiz-adv-x="1255" 
d="M1047 0h-1012l47 223q55 12 99.5 49t72.5 87t44.5 99.5t25.5 100.5h-148l41 199h119q0 9 -2 48t-2 77q0 245 141 385.5t383 140.5q152 0 250 -56t168 -184l-227 -133q-22 69 -79 107.5t-141 38.5q-117 0 -180 -80t-63 -201q0 -92 4 -143h352l-41 -199h-321
q-43 -191 -179 -309h699z" />
    <glyph glyph-name="currency" unicode="&#xa4;" horiz-adv-x="1280" 
d="M403 295l-141 -139l-123 125l142 135q-72 113 -72 231q0 127 72 232l-142 137l123 125l141 -140q105 72 236 72q133 0 235 -72l142 140l125 -125l-144 -137q72 -107 72 -232q0 -120 -72 -231l144 -135l-125 -125l-142 139q-101 -72 -235 -72q-129 0 -236 72zM893 649
q0 107 -76.5 178.5t-175.5 71.5q-108 0 -182 -74t-74 -176q0 -103 74.5 -177.5t179.5 -74.5t179.5 74.5t74.5 177.5z" />
    <glyph glyph-name="yen" unicode="&#xa5;" horiz-adv-x="1255" 
d="M1102 668h-283l-59 -80l-8 -31h327l-37 -176h-325l-80 -381h-260l80 381h-328l39 176h328l6 27l-27 84h-285l39 178h193l-164 538h266l148 -548l385 548h289l-398 -538h193z" />
    <glyph glyph-name="brokenbar" unicode="&#xa6;" horiz-adv-x="852" 
d="M537 883h-156v637h156v-637zM537 -395h-156v637h156v-637z" />
    <glyph glyph-name="section" unicode="&#xa7;" horiz-adv-x="1012" 
d="M938 545q0 -102 -75 -193t-191 -157q94 -92 94 -224q0 -152 -119 -245t-340 -93q-248 0 -344 160l187 131q53 -84 196 -84q79 0 126.5 33t47.5 74q0 27 -11 46t-57 62t-153 129q-74 60 -114.5 101.5t-67.5 101.5t-27 133q0 87 75 176t189 156q-47 47 -70.5 99t-23.5 126
q0 66 27.5 126t79 107t134 75t185.5 28q99 0 173.5 -22t117.5 -54t86 -84l-186 -131q-39 43 -86 63.5t-123 20.5q-85 0 -123.5 -32t-38.5 -72q0 -44 37.5 -86.5t183.5 -155.5q122 -94 166.5 -163t44.5 -152zM522 315q85 42 131.5 93.5t46.5 101.5q0 39 -43 86t-153 133
q-98 -55 -138 -101t-40 -91q0 -29 25.5 -65.5t50 -58.5t70 -58z" />
    <glyph glyph-name="dieresis" unicode="&#xa8;" horiz-adv-x="1024" 
d="M598 1341q0 -51 -20 -90q-21 -41 -57 -58t-95 -17q-63 0 -88 20t-25 64q0 43 17 86q18 45 54 64.5t97 19.5q62 0 89.5 -21.5t27.5 -67.5zM1024 1341q0 -51 -20 -90q-21 -41 -57 -58t-95 -17q-63 0 -88 20t-25 64q0 43 17 86q18 45 54 64.5t97 19.5q62 0 89.5 -21.5
t27.5 -67.5z" />
    <glyph glyph-name="copyright" unicode="&#xa9;" horiz-adv-x="1802" 
d="M901 -197q-165 0 -314.5 63.5t-257 171.5t-170.5 257.5t-63 314.5t63.5 313.5t171 256t256.5 170.5t314 63t313.5 -63t256 -170.5t170.5 -256t63 -313.5t-63 -314.5t-170 -257.5t-256 -171.5t-314 -63.5zM901 -41q176 0 324.5 88t233.5 237.5t85 325.5t-85 324.5
t-233 235.5t-325 87q-132 0 -251 -51.5t-205 -138t-136.5 -206t-50.5 -251.5q0 -176 85.5 -326t234 -237.5t323.5 -87.5zM926 170q-422 0 -422 442q0 445 418 445q126 0 203.5 -48t140.5 -147l-176 -100q-38 57 -73 83.5t-97 26.5q-108 0 -154.5 -60t-46.5 -200
q0 -141 47.5 -199.5t155.5 -58.5q62 0 101.5 26t78.5 81l180 -96q-38 -47 -67 -76.5t-71.5 -60t-96.5 -44.5t-121 -14z" />
    <glyph glyph-name="ordfeminine" unicode="&#xaa;" horiz-adv-x="817" 
d="M170 936q0 80 22.5 162t65 154t113.5 117.5t159 45.5q123 0 183 -72l12 52h180l-143 -682h-156l4 84q-71 -59 -120.5 -82t-110.5 -23q-209 0 -209 244zM627 934l55 260q-21 26 -55.5 43.5t-71.5 17.5q-47 0 -84.5 -27t-59 -70t-33 -91.5t-11.5 -95.5q0 -63 19 -91t63 -28
q78 0 178 82z" />
    <glyph glyph-name="guillemotleft" unicode="&#xab;" horiz-adv-x="1407" 
d="M664 53h-287l-318 471l506 471h299l-512 -481zM1225 53h-287l-317 471l505 471h299l-512 -481z" />
    <glyph glyph-name="logicalnot" unicode="&#xac;" horiz-adv-x="1427" 
d="M1294 324h-207v477h-954v205h1161v-682z" />
    <glyph glyph-name="uni00AD" unicode="&#xad;" horiz-adv-x="770" 
d="M664 399h-611l53 254h611z" />
    <glyph glyph-name="registered" unicode="&#xae;" horiz-adv-x="1802" 
d="M901 -197q-165 0 -314.5 63.5t-257 171.5t-170.5 257.5t-63 314.5t63.5 313.5t171 256t256.5 170.5t314 63t313.5 -63t256 -170.5t170.5 -256t63 -313.5t-63 -314.5t-170 -257.5t-256 -171.5t-314 -63.5zM901 -41q176 0 324.5 88t233.5 237.5t85 325.5t-85 324.5
t-233 235.5t-325 87q-132 0 -251 -51.5t-205 -138t-136.5 -206t-50.5 -251.5q0 -176 85.5 -326t234 -237.5t323.5 -87.5zM793 201h-205v850h305q80 0 139.5 -12.5t107 -41t71.5 -80.5t24 -126q0 -184 -145 -246l239 -344h-250l-211 307h-75v-307zM793 874v-192h96
q85 0 109 21t24 77q0 52 -24 73t-101 21h-104z" />
    <glyph glyph-name="macron" unicode="&#xaf;" horiz-adv-x="1024" 
d="M997 1255h-659l39 185h659z" />
    <glyph glyph-name="degree" unicode="&#xb0;" horiz-adv-x="868" 
d="M883 1241q0 -129 -92.5 -221t-217.5 -92q-129 0 -221 92t-92 221t92 219t219 90q129 0 220.5 -91t91.5 -218zM702 1239q0 56 -37.5 93.5t-91.5 37.5q-57 0 -95 -38.5t-38 -90.5q0 -56 38 -94.5t95 -38.5q54 0 91.5 38.5t37.5 92.5z" />
    <glyph glyph-name="plusminus" unicode="&#xb1;" horiz-adv-x="1427" 
d="M1315 829h-477v-477h-205v477h-479v205h479v479h205v-479h477v-205zM1315 0h-1161v205h1161v-205z" />
    <glyph glyph-name="twosuperior" unicode="&#xb2;" horiz-adv-x="928" 
d="M842 647h-729l39 182q120 65 254.5 153.5t203.5 147.5q72 67 72 119q0 66 -82 66q-103 0 -184 -88l-170 121q90 90 181.5 131t203.5 41q317 0 317 -226q0 -145 -168 -270q-44 -34 -131 -88.5t-157 -91.5h393z" />
    <glyph glyph-name="threesuperior" unicode="&#xb3;" horiz-adv-x="928" 
d="M879 915q0 -127 -113.5 -205.5t-306.5 -78.5q-137 0 -220.5 46.5t-113.5 123.5l207 102q43 -88 155 -88q60 0 98 27.5t38 70.5q0 48 -29 69.5t-94 21.5h-113l37 176h100q87 0 130.5 19t43.5 67q0 69 -98 69q-107 0 -182 -78l-158 107q78 78 167 117t208 39
q311 0 311 -209q0 -76 -48 -126.5t-157 -80.5q72 -19 105 -63.5t33 -125.5z" />
    <glyph glyph-name="acute" unicode="&#xb4;" horiz-adv-x="1024" 
d="M1057 1569l-355 -361h-215l244 361h326z" />
    <glyph glyph-name="mu" unicode="&#xb5;" horiz-adv-x="1178" 
d="M1159 1049l-221 -1049h-233l18 111q-65 -72 -128 -107t-136 -35q-104 0 -180 70l-93 -434h-249l303 1444h252l-158 -750q19 -41 66.5 -70.5t103.5 -29.5q70 0 129 29t121 91l153 730h252z" />
    <glyph glyph-name="paragraph" unicode="&#xb6;" horiz-adv-x="1294" 
d="M1395 1178h-187l-334 -1573h-227l334 1573h-160l-334 -1573h-229l188 897q-329 35 -329 383q0 76 19.5 145.5t65 135t113.5 113t173.5 76.5t236.5 29h713z" />
    <glyph glyph-name="periodcentered" unicode="&#xb7;" horiz-adv-x="571" 
d="M473 801q0 -71 -31 -129q-25 -47 -65.5 -67.5t-106.5 -20.5q-70 0 -100.5 24t-30.5 74q0 61 27 123q21 51 62 74.5t110 23.5q71 0 103 -25t32 -77z" />
    <glyph glyph-name="cedilla" unicode="&#xb8;" horiz-adv-x="1024" 
d="M586 -178q0 -109 -83.5 -163t-236.5 -54q-140 0 -250 55l90 135q87 -45 173 -45q51 0 82.5 14t31.5 43q0 64 -157 70l116 162h148l-45 -62q54 -14 92.5 -53t38.5 -102z" />
    <glyph glyph-name="onesuperior" unicode="&#xb9;" horiz-adv-x="928" 
d="M668 647h-250l117 553h-228l33 152q139 4 203.5 36t107.5 115h199z" />
    <glyph glyph-name="ordmasculine" unicode="&#xba;" horiz-adv-x="784" 
d="M844 1161q0 -85 -23 -172t-73 -153q-59 -75 -131.5 -108.5t-170.5 -33.5q-145 0 -210.5 65t-65.5 199t63 259q104 198 338 198q135 0 204 -64.5t69 -189.5zM584 909q34 43 51.5 106t17.5 126t-22.5 87.5t-79.5 24.5q-89 0 -137 -82q-54 -93 -54 -206q0 -57 22.5 -83
t72.5 -26q86 0 129 53z" />
    <glyph glyph-name="guillemotright" unicode="&#xbb;" horiz-adv-x="1407" 
d="M739 995h287l317 -471l-505 -471h-299l512 482zM178 995h287l317 -471l-506 -471h-299l512 482z" />
    <glyph glyph-name="onequarter" unicode="&#xbc;" horiz-adv-x="2028" 
d="M1579 1438l-1030 -1489h-248l1026 1489h252zM540 531h-250l117 553h-228l33 152q139 4 203.5 36t107.5 115h199zM1778 142h-115l-33 -160h-229l33 160h-482l37 166l598 530h226l-113 -524h115zM1470 314l58 266l-299 -266h241z" />
    <glyph glyph-name="onehalf" unicode="&#xbd;" horiz-adv-x="2028" 
d="M1528 1438l-1030 -1489h-248l1026 1489h252zM540 531h-250l117 553h-228l33 152q139 4 203.5 36t107.5 115h199zM1737 -20h-729l39 182q120 65 254.5 153.5t203.5 147.5q72 67 72 119q0 66 -82 66q-103 0 -184 -88l-170 121q90 90 181.5 131t203.5 41q317 0 317 -226
q0 -145 -168 -270q-44 -34 -131 -88.5t-157 -91.5h393z" />
    <glyph glyph-name="threequarters" unicode="&#xbe;" horiz-adv-x="2028" 
d="M1753 1438l-1030 -1489h-248l1026 1489h252zM1911 140h-115l-33 -160h-229l33 160h-482l37 166l598 530h226l-113 -524h115zM1603 312l58 266l-299 -266h241zM833 799q0 -127 -113.5 -205.5t-306.5 -78.5q-137 0 -220.5 46.5t-113.5 123.5l207 102q43 -88 155 -88
q60 0 98 27.5t38 70.5q0 48 -29 69.5t-94 21.5h-113l37 176h100q87 0 130.5 19t43.5 67q0 69 -98 69q-107 0 -182 -78l-158 107q78 78 167 117t208 39q311 0 311 -209q0 -76 -48 -126.5t-157 -80.5q72 -19 105 -63.5t33 -125.5z" />
    <glyph glyph-name="questiondown" unicode="&#xbf;" horiz-adv-x="1051" 
d="M485 653h267l-64 -291q-257 -113 -352.5 -194.5t-95.5 -192.5q0 -66 38.5 -97.5t124.5 -31.5q83 0 144.5 37t124.5 115l200 -143q-97 -131 -212 -190.5t-275 -59.5q-219 0 -328.5 83t-109.5 255q0 89 34 166.5t102 143.5t156.5 121.5t209.5 110.5zM506 868q0 70 31 127
q24 45 65 64.5t107 19.5q71 0 102 -22.5t31 -71.5q0 -53 -25 -115q-22 -52 -62.5 -75t-111.5 -23q-72 0 -104.5 22.5t-32.5 73.5z" />
    <glyph glyph-name="Agrave" unicode="&#xc0;" horiz-adv-x="1311" 
d="M201 0h-283l739 1384h361l156 -1384h-273l-31 281h-518zM784 1100l-303 -572h363zM1032 1544h-190l-227 361h299z" />
    <glyph glyph-name="Aacute" unicode="&#xc1;" horiz-adv-x="1311" 
d="M201 0h-283l739 1384h361l156 -1384h-273l-31 281h-518zM784 1100l-303 -572h363zM1209 1905l-355 -361h-215l244 361h326z" />
    <glyph glyph-name="Acircumflex" unicode="&#xc2;" horiz-adv-x="1311" 
d="M201 0h-283l739 1384h361l156 -1384h-273l-31 281h-518zM784 1100l-303 -572h363zM1203 1544h-201l-105 174l-184 -174h-211l307 361h240z" />
    <glyph glyph-name="Atilde" unicode="&#xc3;" horiz-adv-x="1311" 
d="M201 0h-283l739 1384h361l156 -1384h-273l-31 281h-518zM784 1100l-303 -572h363zM624 1567h-178q80 317 311 317q48 0 87.5 -14.5t63.5 -35t44 -41.5t40 -35.5t40 -14.5q41 0 63 31.5t39 95.5h178q-37 -153 -110.5 -237.5t-200.5 -84.5q-52 0 -92.5 15t-64 36.5t-42 43
t-37.5 36.5t-40 15q-37 0 -58.5 -31t-42.5 -96z" />
    <glyph glyph-name="Adieresis" unicode="&#xc4;" horiz-adv-x="1311" 
d="M201 0h-283l739 1384h361l156 -1384h-273l-31 281h-518zM784 1100l-303 -572h363zM795 1677q0 -51 -20 -90q-21 -41 -57 -58t-95 -17q-63 0 -88 20t-25 64q0 43 17 86q18 45 54 64.5t97 19.5q62 0 89.5 -21.5t27.5 -67.5zM1221 1677q0 -51 -20 -90q-21 -41 -57 -58
t-95 -17q-63 0 -88 20t-25 64q0 43 17 86q18 45 54 64.5t97 19.5q62 0 89.5 -21.5t27.5 -67.5z" />
    <glyph glyph-name="Aring" unicode="&#xc5;" horiz-adv-x="1311" 
d="M201 0h-283l739 1384h361l156 -1384h-273l-31 281h-518zM784 1100l-303 -572h363zM1102 1735q0 -42 -16 -83.5t-45.5 -78t-79 -59.5t-109.5 -23q-97 0 -140.5 47t-43.5 141q0 91 66.5 164.5t183.5 73.5q91 0 137.5 -47.5t46.5 -134.5zM865 1614q50 0 79 33.5t29 85.5
q0 61 -69 61q-48 0 -77.5 -32t-29.5 -85q0 -63 68 -63z" />
    <glyph glyph-name="AE" unicode="&#xc6;" horiz-adv-x="1774" 
d="M1565 0h-832l76 360h-387l-215 -360h-295l833 1384h1113l-54 -249h-555l-61 -295h459l-54 -250h-458l-72 -332h555zM862 608l111 527h-101l-303 -527h293z" />
    <glyph glyph-name="Ccedilla" unicode="&#xc7;" horiz-adv-x="1284" 
d="M825 -178q0 -109 -83 -163t-236 -54q-140 0 -250 55l90 135q87 -45 172 -45q51 0 83 14t32 43q0 64 -158 70l68 96q-230 13 -342.5 139.5t-112.5 381.5q0 67 9.5 142t33.5 166t60.5 175t95.5 164.5t133.5 140t180.5 95.5t230 36q366 0 498 -268l-244 -150
q-44 94 -103 131t-163 37q-86 0 -157 -36.5t-117 -97t-79.5 -131.5t-51 -149t-25.5 -139.5t-8 -111.5q0 -147 63.5 -212t167.5 -65q116 0 199 40t172 138l195 -170q-197 -220 -482 -252l-2 -4q131 -39 131 -151z" />
    <glyph glyph-name="Egrave" unicode="&#xc8;" horiz-adv-x="1126" 
d="M918 0h-881l293 1384h880l-53 -249h-604l-61 -295h509l-53 -250h-510l-71 -332h604zM915 1544h-190l-227 361h299z" />
    <glyph glyph-name="Eacute" unicode="&#xc9;" horiz-adv-x="1126" 
d="M918 0h-881l293 1384h880l-53 -249h-604l-61 -295h509l-53 -250h-510l-71 -332h604zM1178 1905l-355 -361h-215l244 361h326z" />
    <glyph glyph-name="Ecircumflex" unicode="&#xca;" horiz-adv-x="1126" 
d="M918 0h-881l293 1384h880l-53 -249h-604l-61 -295h509l-53 -250h-510l-71 -332h604zM1141 1544h-201l-105 174l-184 -174h-211l307 361h240z" />
    <glyph glyph-name="Edieresis" unicode="&#xcb;" horiz-adv-x="1126" 
d="M918 0h-881l293 1384h880l-53 -249h-604l-61 -295h509l-53 -250h-510l-71 -332h604zM721 1677q0 -51 -20 -90q-21 -41 -57 -58t-95 -17q-63 0 -88 20t-25 64q0 43 17 86q18 45 54 64.5t97 19.5q62 0 89.5 -21.5t27.5 -67.5zM1147 1677q0 -51 -20 -90q-21 -41 -57 -58
t-95 -17q-63 0 -88 20t-25 64q0 43 17 86q18 45 54 64.5t97 19.5q62 0 89.5 -21.5t27.5 -67.5z" />
    <glyph glyph-name="Igrave" unicode="&#xcc;" horiz-adv-x="854" 
d="M688 217l-45 -217h-653l45 217h188l203 950h-188l45 217h653l-45 -217h-189l-202 -950h188zM756 1544h-190l-227 361h299z" />
    <glyph glyph-name="Iacute" unicode="&#xcd;" horiz-adv-x="854" 
d="M688 217l-45 -217h-653l45 217h188l203 950h-188l45 217h653l-45 -217h-189l-202 -950h188zM1025 1905l-355 -361h-215l244 361h326z" />
    <glyph glyph-name="Icircumflex" unicode="&#xce;" horiz-adv-x="854" 
d="M688 217l-45 -217h-653l45 217h188l203 950h-188l45 217h653l-45 -217h-189l-202 -950h188zM993 1544h-201l-105 174l-184 -174h-211l307 361h240z" />
    <glyph glyph-name="Idieresis" unicode="&#xcf;" horiz-adv-x="854" 
d="M688 217l-45 -217h-653l45 217h188l203 950h-188l45 217h653l-45 -217h-189l-202 -950h188zM579 1677q0 -51 -20 -90q-21 -41 -57 -58t-95 -17q-63 0 -88 20t-25 64q0 43 17 86q18 45 54 64.5t97 19.5q62 0 89.5 -21.5t27.5 -67.5zM1005 1677q0 -51 -20 -90
q-21 -41 -57 -58t-95 -17q-63 0 -88 20t-25 64q0 43 17 86q18 45 54 64.5t97 19.5q62 0 89.5 -21.5t27.5 -67.5z" />
    <glyph glyph-name="Eth" unicode="&#xd0;" horiz-adv-x="1286" 
d="M1268 922q0 -88 -14 -185t-42.5 -201t-80.5 -200.5t-121 -161.5q-187 -174 -572 -174h-413l122 580h-122l47 225h123l122 579h394q142 0 243 -23.5t173 -77t106.5 -143t34.5 -218.5zM354 258h107q133 0 215.5 19.5t136.5 72.5q74 74 121 239.5t47 307.5q0 129 -70 179
t-227 50h-145l-68 -321h287l-47 -225h-289z" />
    <glyph glyph-name="Ntilde" unicode="&#xd1;" horiz-adv-x="1382" 
d="M1126 0h-317l-293 989l-209 -989h-270l293 1384h342l276 -933l199 933h272zM665 1567h-178q80 317 311 317q48 0 87.5 -14.5t63.5 -35t44 -41.5t40 -35.5t40 -14.5q41 0 63 31.5t39 95.5h178q-37 -153 -110.5 -237.5t-200.5 -84.5q-52 0 -92.5 15t-64 36.5t-42 43
t-37.5 36.5t-40 15q-37 0 -58.5 -31t-42.5 -96z" />
    <glyph glyph-name="Ograve" unicode="&#xd2;" horiz-adv-x="1337" 
d="M594 -29q-135 0 -234.5 36.5t-158 104t-86 154.5t-27.5 197q0 267 100 498q44 102 99 180.5t130 141.5t175.5 96.5t222.5 33.5q241 0 372.5 -130.5t131.5 -385.5q0 -161 -66 -377q-170 -549 -659 -549zM375 485q0 -140 55 -202t174 -62q259 0 371 346q55 170 55 312
q0 150 -55.5 217t-179.5 67q-119 0 -201.5 -70.5t-140.5 -209.5q-78 -186 -78 -398zM1034 1544h-190l-227 361h299z" />
    <glyph glyph-name="Oacute" unicode="&#xd3;" horiz-adv-x="1337" 
d="M594 -29q-135 0 -234.5 36.5t-158 104t-86 154.5t-27.5 197q0 267 100 498q44 102 99 180.5t130 141.5t175.5 96.5t222.5 33.5q241 0 372.5 -130.5t131.5 -385.5q0 -161 -66 -377q-170 -549 -659 -549zM375 485q0 -140 55 -202t174 -62q259 0 371 346q55 170 55 312
q0 150 -55.5 217t-179.5 67q-119 0 -201.5 -70.5t-140.5 -209.5q-78 -186 -78 -398zM1247 1905l-355 -361h-215l244 361h326z" />
    <glyph glyph-name="Ocircumflex" unicode="&#xd4;" horiz-adv-x="1337" 
d="M594 -29q-135 0 -234.5 36.5t-158 104t-86 154.5t-27.5 197q0 267 100 498q44 102 99 180.5t130 141.5t175.5 96.5t222.5 33.5q241 0 372.5 -130.5t131.5 -385.5q0 -161 -66 -377q-170 -549 -659 -549zM375 485q0 -140 55 -202t174 -62q259 0 371 346q55 170 55 312
q0 150 -55.5 217t-179.5 67q-119 0 -201.5 -70.5t-140.5 -209.5q-78 -186 -78 -398zM1211 1544h-201l-105 174l-184 -174h-211l307 361h240z" />
    <glyph glyph-name="Otilde" unicode="&#xd5;" horiz-adv-x="1337" 
d="M594 -29q-135 0 -234.5 36.5t-158 104t-86 154.5t-27.5 197q0 267 100 498q44 102 99 180.5t130 141.5t175.5 96.5t222.5 33.5q241 0 372.5 -130.5t131.5 -385.5q0 -161 -66 -377q-170 -549 -659 -549zM375 485q0 -140 55 -202t174 -62q259 0 371 346q55 170 55 312
q0 150 -55.5 217t-179.5 67q-119 0 -201.5 -70.5t-140.5 -209.5q-78 -186 -78 -398zM643 1567h-178q80 317 311 317q48 0 87.5 -14.5t63.5 -35t44 -41.5t40 -35.5t40 -14.5q41 0 63 31.5t39 95.5h178q-37 -153 -110.5 -237.5t-200.5 -84.5q-52 0 -92.5 15t-64 36.5t-42 43
t-37.5 36.5t-40 15q-37 0 -58.5 -31t-42.5 -96z" />
    <glyph glyph-name="Odieresis" unicode="&#xd6;" horiz-adv-x="1337" 
d="M594 -29q-135 0 -234.5 36.5t-158 104t-86 154.5t-27.5 197q0 267 100 498q44 102 99 180.5t130 141.5t175.5 96.5t222.5 33.5q241 0 372.5 -130.5t131.5 -385.5q0 -161 -66 -377q-170 -549 -659 -549zM375 485q0 -140 55 -202t174 -62q259 0 371 346q55 170 55 312
q0 150 -55.5 217t-179.5 67q-119 0 -201.5 -70.5t-140.5 -209.5q-78 -186 -78 -398zM803 1677q0 -51 -20 -90q-21 -41 -57 -58t-95 -17q-63 0 -88 20t-25 64q0 43 17 86q18 45 54 64.5t97 19.5q62 0 89.5 -21.5t27.5 -67.5zM1229 1677q0 -51 -20 -90q-21 -41 -57 -58
t-95 -17q-63 0 -88 20t-25 64q0 43 17 86q18 45 54 64.5t97 19.5q62 0 89.5 -21.5t27.5 -67.5z" />
    <glyph glyph-name="multiply" unicode="&#xd7;" horiz-adv-x="1427" 
d="M1327 145l-145 -145l-439 438l-438 -438l-145 145l438 437l-438 436l145 145l438 -436l439 436l145 -145l-438 -436z" />
    <glyph glyph-name="Oslash" unicode="&#xd8;" horiz-adv-x="1337" 
d="M109 -115h-215l258 297q-64 108 -64 281q0 82 11.5 168.5t37.5 180.5t64.5 179.5t98 163t132 134.5t171.5 90.5t212 33.5q201 0 326 -92l145 168h215l-252 -289q70 -124 70 -303q0 -60 -9 -132.5t-33 -163t-59.5 -177t-93.5 -169.5t-130.5 -145.5t-176 -100.5t-223.5 -38
q-212 0 -334 88zM604 221q76 0 140.5 30.5t110 82.5t80 118t55 141t30.5 146.5t10 139.5q0 38 -4 65l-584 -674q52 -49 162 -49zM375 485q0 -35 2 -45l581 672q-52 51 -163 51q-75 0 -138.5 -31.5t-108.5 -85.5t-79 -122t-54 -145.5t-30 -151t-10 -142.5z" />
    <glyph glyph-name="Ugrave" unicode="&#xd9;" horiz-adv-x="1409" 
d="M1444 1384l-176 -833q-35 -165 -90.5 -277.5t-138 -179.5t-185.5 -96t-242 -29q-236 0 -355.5 101.5t-119.5 312.5q0 101 27 219l166 782h276l-166 -786q-22 -99 -22 -199q0 -98 54 -139t165 -41q74 0 127 16t99.5 57.5t79 115.5t56.5 186l168 790h277zM1028 1544h-190
l-227 361h299z" />
    <glyph glyph-name="Uacute" unicode="&#xda;" horiz-adv-x="1409" 
d="M1444 1384l-176 -833q-35 -165 -90.5 -277.5t-138 -179.5t-185.5 -96t-242 -29q-236 0 -355.5 101.5t-119.5 312.5q0 101 27 219l166 782h276l-166 -786q-22 -99 -22 -199q0 -98 54 -139t165 -41q74 0 127 16t99.5 57.5t79 115.5t56.5 186l168 790h277zM1313 1905
l-355 -361h-215l244 361h326z" />
    <glyph glyph-name="Ucircumflex" unicode="&#xdb;" horiz-adv-x="1409" 
d="M1444 1384l-176 -833q-35 -165 -90.5 -277.5t-138 -179.5t-185.5 -96t-242 -29q-236 0 -355.5 101.5t-119.5 312.5q0 101 27 219l166 782h276l-166 -786q-22 -99 -22 -199q0 -98 54 -139t165 -41q74 0 127 16t99.5 57.5t79 115.5t56.5 186l168 790h277zM1250 1544h-201
l-105 174l-184 -174h-211l307 361h240z" />
    <glyph glyph-name="Udieresis" unicode="&#xdc;" horiz-adv-x="1409" 
d="M1444 1384l-176 -833q-35 -165 -90.5 -277.5t-138 -179.5t-185.5 -96t-242 -29q-236 0 -355.5 101.5t-119.5 312.5q0 101 27 219l166 782h276l-166 -786q-22 -99 -22 -199q0 -98 54 -139t165 -41q74 0 127 16t99.5 57.5t79 115.5t56.5 186l168 790h277zM848 1677
q0 -51 -20 -90q-21 -41 -57 -58t-95 -17q-63 0 -88 20t-25 64q0 43 17 86q18 45 54 64.5t97 19.5q62 0 89.5 -21.5t27.5 -67.5zM1274 1677q0 -51 -20 -90q-21 -41 -57 -58t-95 -17q-63 0 -88 20t-25 64q0 43 17 86q18 45 54 64.5t97 19.5q62 0 89.5 -21.5t27.5 -67.5z" />
    <glyph glyph-name="Yacute" unicode="&#xdd;" horiz-adv-x="1163" 
d="M1329 1384l-608 -856l-111 -528h-278l110 522l-241 862h284l142 -589l393 589h309zM1176 1905l-355 -361h-215l244 361h326z" />
    <glyph glyph-name="Thorn" unicode="&#xde;" horiz-adv-x="1214" 
d="M1196 836q0 -84 -15 -164t-55.5 -162.5t-101.5 -143.5t-162.5 -100t-230.5 -39h-271l-47 -227h-276l293 1384h276l-43 -200h232q200 0 300.5 -81.5t100.5 -266.5zM414 473h192q72 0 125 17t85.5 45t52.5 71.5t27 89t7 103.5q0 73 -42 106t-138 33h-211z" />
    <glyph glyph-name="germandbls" unicode="&#xdf;" 
d="M285 0h-252l223 1055q50 230 172 347.5t346 117.5q395 0 395 -312q0 -107 -66.5 -197t-184.5 -139q90 -23 138 -97.5t48 -184.5q0 -172 -82 -350q-66 -143 -164 -207t-272 -64q-43 0 -97.5 10t-82.5 21l47 227q76 -30 143 -30q62 0 104 31.5t76 103.5q26 57 43 127.5
t17 126.5q0 84 -56 117.5t-202 33.5l47 224q58 0 106.5 11t89 35t63.5 66.5t23 100.5q0 59 -39.5 91.5t-115.5 32.5q-102 0 -161 -63t-89 -207z" />
    <glyph glyph-name="agrave" unicode="&#xe0;" 
d="M66 344q0 80 16 164t46 166.5t77.5 155.5t106.5 128.5t137 88t165 32.5q180 0 279 -108l16 78h250l-219 -1049h-211l6 129q-104 -89 -182 -124.5t-168 -35.5q-319 0 -319 375zM758 326l90 432q-35 39 -89 66.5t-112 27.5q-75 0 -137 -47.5t-98.5 -120.5t-56 -152
t-19.5 -151q0 -96 32 -140t101 -44q125 0 289 129zM791 1208h-190l-227 361h299z" />
    <glyph glyph-name="aacute" unicode="&#xe1;" 
d="M66 344q0 80 16 164t46 166.5t77.5 155.5t106.5 128.5t137 88t165 32.5q180 0 279 -108l16 78h250l-219 -1049h-211l6 129q-104 -89 -182 -124.5t-168 -35.5q-319 0 -319 375zM758 326l90 432q-35 39 -89 66.5t-112 27.5q-75 0 -137 -47.5t-98.5 -120.5t-56 -152
t-19.5 -151q0 -96 32 -140t101 -44q125 0 289 129zM1082 1569l-355 -361h-215l244 361h326z" />
    <glyph glyph-name="acircumflex" unicode="&#xe2;" 
d="M66 344q0 80 16 164t46 166.5t77.5 155.5t106.5 128.5t137 88t165 32.5q180 0 279 -108l16 78h250l-219 -1049h-211l6 129q-104 -89 -182 -124.5t-168 -35.5q-319 0 -319 375zM758 326l90 432q-35 39 -89 66.5t-112 27.5q-75 0 -137 -47.5t-98.5 -120.5t-56 -152
t-19.5 -151q0 -96 32 -140t101 -44q125 0 289 129zM1033 1208h-201l-105 174l-184 -174h-211l307 361h240z" />
    <glyph glyph-name="atilde" unicode="&#xe3;" 
d="M66 344q0 80 16 164t46 166.5t77.5 155.5t106.5 128.5t137 88t165 32.5q180 0 279 -108l16 78h250l-219 -1049h-211l6 129q-104 -89 -182 -124.5t-168 -35.5q-319 0 -319 375zM758 326l90 432q-35 39 -89 66.5t-112 27.5q-75 0 -137 -47.5t-98.5 -120.5t-56 -152
t-19.5 -151q0 -96 32 -140t101 -44q125 0 289 129zM475 1231h-178q80 317 311 317q48 0 87.5 -14.5t63.5 -35t44 -41.5t40 -35.5t40 -14.5q41 0 63 31.5t39 95.5h178q-37 -153 -110.5 -237.5t-200.5 -84.5q-52 0 -92.5 15t-64 36.5t-42 43t-37.5 36.5t-40 15
q-37 0 -58.5 -31t-42.5 -96z" />
    <glyph glyph-name="adieresis" unicode="&#xe4;" 
d="M66 344q0 80 16 164t46 166.5t77.5 155.5t106.5 128.5t137 88t165 32.5q180 0 279 -108l16 78h250l-219 -1049h-211l6 129q-104 -89 -182 -124.5t-168 -35.5q-319 0 -319 375zM758 326l90 432q-35 39 -89 66.5t-112 27.5q-75 0 -137 -47.5t-98.5 -120.5t-56 -152
t-19.5 -151q0 -96 32 -140t101 -44q125 0 289 129zM625 1341q0 -51 -20 -90q-21 -41 -57 -58t-95 -17q-63 0 -88 20t-25 64q0 43 17 86q18 45 54 64.5t97 19.5q62 0 89.5 -21.5t27.5 -67.5zM1051 1341q0 -51 -20 -90q-21 -41 -57 -58t-95 -17q-63 0 -88 20t-25 64
q0 43 17 86q18 45 54 64.5t97 19.5q62 0 89.5 -21.5t27.5 -67.5z" />
    <glyph glyph-name="aring" unicode="&#xe5;" 
d="M66 344q0 80 16 164t46 166.5t77.5 155.5t106.5 128.5t137 88t165 32.5q180 0 279 -108l16 78h250l-219 -1049h-211l6 129q-104 -89 -182 -124.5t-168 -35.5q-319 0 -319 375zM758 326l90 432q-35 39 -89 66.5t-112 27.5q-75 0 -137 -47.5t-98.5 -120.5t-56 -152
t-19.5 -151q0 -96 32 -140t101 -44q125 0 289 129zM927 1399q0 -42 -16 -83.5t-45.5 -78t-79 -59.5t-109.5 -23q-97 0 -140.5 47t-43.5 141q0 91 66.5 164.5t183.5 73.5q91 0 137.5 -47.5t46.5 -134.5zM690 1278q50 0 79 33.5t29 85.5q0 61 -69 61q-48 0 -77.5 -32
t-29.5 -85q0 -63 68 -63z" />
    <glyph glyph-name="ae" unicode="&#xe6;" horiz-adv-x="1751" 
d="M1655 457h-686q-8 -35 -8 -86q0 -91 46 -133.5t138 -42.5q87 0 150 24.5t120 75.5l144 -164q-85 -82 -183 -122t-254 -40q-268 0 -358 174q-111 -79 -232 -126.5t-192 -47.5q-164 0 -240.5 71t-76.5 216q0 89 41 161.5t113.5 120.5t163.5 77t198 38l223 21l8 47
q6 32 6 45q0 58 -45 83t-133 25q-165 0 -252 -108l-170 129q139 184 438 184q268 0 351 -121q126 121 327 121q404 0 404 -364q0 -53 -15 -125zM721 342q0 83 14 145l-145 -12q-141 -13 -219 -58.5t-78 -137.5q0 -59 30 -82t89 -23q60 0 148 31t163 86q0 8 -1 24.5t-1 26.5z
M1010 635h426q10 47 10 86q0 79 -37.5 116t-126.5 37q-129 0 -199 -92q-46 -58 -73 -147z" />
    <glyph glyph-name="ccedilla" unicode="&#xe7;" horiz-adv-x="1038" 
d="M688 -178q0 -109 -83.5 -163t-235.5 -54q-140 0 -250 55l90 135q87 -45 172 -45q51 0 83 14.5t32 42.5q0 64 -158 70l68 96q-178 18 -258 124t-80 302q0 75 18 160t62.5 179t110 168.5t171 123.5t234.5 49q147 0 239.5 -45t149.5 -139l-213 -133q-28 48 -72 70t-117 22
q-67 0 -122.5 -33t-90.5 -83.5t-59.5 -114t-34.5 -121.5t-10 -109q0 -100 38 -149t138 -49q134 0 233 104l168 -149q-132 -145 -344 -175q52 -16 86.5 -54t34.5 -99z" />
    <glyph glyph-name="egrave" unicode="&#xe8;" horiz-adv-x="1120" 
d="M1024 457h-686q-8 -35 -8 -86q0 -91 46 -133.5t138 -42.5q87 0 150.5 25t119.5 75l144 -164q-85 -83 -182 -122.5t-254 -39.5q-113 0 -196.5 30.5t-133 86t-73 126t-23.5 157.5q0 276 161 503q69 97 179 152t256 55q403 0 403 -364q0 -50 -14 -125zM379 635h426
q10 47 10 86q0 79 -37.5 116t-126.5 37q-128 0 -198 -92q-48 -60 -74 -147zM849 1208h-190l-227 361h299z" />
    <glyph glyph-name="eacute" unicode="&#xe9;" horiz-adv-x="1120" 
d="M1024 457h-686q-8 -35 -8 -86q0 -91 46 -133.5t138 -42.5q87 0 150.5 25t119.5 75l144 -164q-85 -83 -182 -122.5t-254 -39.5q-113 0 -196.5 30.5t-133 86t-73 126t-23.5 157.5q0 276 161 503q69 97 179 152t256 55q403 0 403 -364q0 -50 -14 -125zM379 635h426
q10 47 10 86q0 79 -37.5 116t-126.5 37q-128 0 -198 -92q-48 -60 -74 -147zM1040 1569l-355 -361h-215l244 361h326z" />
    <glyph glyph-name="ecircumflex" unicode="&#xea;" horiz-adv-x="1120" 
d="M1024 457h-686q-8 -35 -8 -86q0 -91 46 -133.5t138 -42.5q87 0 150.5 25t119.5 75l144 -164q-85 -83 -182 -122.5t-254 -39.5q-113 0 -196.5 30.5t-133 86t-73 126t-23.5 157.5q0 276 161 503q69 97 179 152t256 55q403 0 403 -364q0 -50 -14 -125zM379 635h426
q10 47 10 86q0 79 -37.5 116t-126.5 37q-128 0 -198 -92q-48 -60 -74 -147zM1043 1208h-201l-105 174l-184 -174h-211l307 361h240z" />
    <glyph glyph-name="edieresis" unicode="&#xeb;" horiz-adv-x="1120" 
d="M1024 457h-686q-8 -35 -8 -86q0 -91 46 -133.5t138 -42.5q87 0 150.5 25t119.5 75l144 -164q-85 -83 -182 -122.5t-254 -39.5q-113 0 -196.5 30.5t-133 86t-73 126t-23.5 157.5q0 276 161 503q69 97 179 152t256 55q403 0 403 -364q0 -50 -14 -125zM379 635h426
q10 47 10 86q0 79 -37.5 116t-126.5 37q-128 0 -198 -92q-48 -60 -74 -147zM631 1341q0 -51 -20 -90q-21 -41 -57 -58t-95 -17q-63 0 -88 20t-25 64q0 43 17 86q18 45 54 64.5t97 19.5q62 0 89.5 -21.5t27.5 -67.5zM1057 1341q0 -51 -20 -90q-21 -41 -57 -58t-95 -17
q-63 0 -88 20t-25 64q0 43 17 86q18 45 54 64.5t97 19.5q62 0 89.5 -21.5t27.5 -67.5z" />
    <glyph glyph-name="igrave" unicode="&#xec;" horiz-adv-x="539" 
d="M285 0h-252l221 1049h252zM535 1208h-190l-227 361h299z" />
    <glyph glyph-name="iacute" unicode="&#xed;" horiz-adv-x="539" 
d="M285 0h-252l221 1049h252zM831 1569l-355 -361h-215l244 361h326z" />
    <glyph glyph-name="icircumflex" unicode="&#xee;" horiz-adv-x="539" 
d="M285 0h-252l221 1049h252zM749 1208h-201l-105 174l-184 -174h-211l307 361h240z" />
    <glyph glyph-name="idieresis" unicode="&#xef;" horiz-adv-x="539" 
d="M285 0h-252l221 1049h252zM349 1341q0 -51 -20 -90q-21 -41 -57 -58t-95 -17q-63 0 -88 20t-25 64q0 43 17 86q18 45 54 64.5t97 19.5q62 0 89.5 -21.5t27.5 -67.5zM775 1341q0 -51 -20 -90q-21 -41 -57 -58t-95 -17q-63 0 -88 20t-25 64q0 43 17 86q18 45 54 64.5
t97 19.5q62 0 89.5 -21.5t27.5 -67.5z" />
    <glyph glyph-name="eth" unicode="&#xf0;" horiz-adv-x="1165" 
d="M813 987q-12 58 -40 128t-58 118l-226 -88l-51 143l193 76q-19 29 -68 81t-80 75h271q29 -23 80 -78l198 78l51 -142l-155 -61q172 -254 172 -608q0 -229 -88 -406q-75 -157 -213 -245.5t-334 -88.5q-197 0 -297 101.5t-100 300.5q0 67 19.5 158.5t55.5 172.5
q72 161 201.5 254t298.5 93q102 0 170 -62zM336 381q0 -93 43 -139.5t135 -46.5q167 0 252 174q61 120 61 266q0 190 -182 190q-174 0 -258 -192q-51 -117 -51 -252z" />
    <glyph glyph-name="ntilde" unicode="&#xf1;" 
d="M946 0h-252l123 578q25 120 25 184q0 90 -90 90q-127 0 -320 -152l-147 -700h-252l221 1049h252l-29 -136q192 166 369 166q136 0 197 -70t61 -180q0 -85 -19 -167zM499 1231h-178q80 317 311 317q48 0 87.5 -14.5t63.5 -35t44 -41.5t40 -35.5t40 -14.5q41 0 63 31.5
t39 95.5h178q-37 -153 -110.5 -237.5t-200.5 -84.5q-52 0 -92.5 15t-64 36.5t-42 43t-37.5 36.5t-40 15q-37 0 -58.5 -31t-42.5 -96z" />
    <glyph glyph-name="ograve" unicode="&#xf2;" horiz-adv-x="1165" 
d="M68 381q0 130 46.5 279.5t147.5 254.5q156 164 418 164q196 0 307 -109t111 -321q0 -74 -18.5 -161.5t-69 -192.5t-123.5 -178q-82 -82 -175 -115t-231 -33q-413 0 -413 412zM334 377q0 -90 40.5 -136t133.5 -46q118 0 203 96q53 62 88 167t35 185q0 211 -185 211
q-118 0 -200 -102q-52 -66 -83.5 -171.5t-31.5 -203.5zM849 1208h-190l-227 361h299z" />
    <glyph glyph-name="oacute" unicode="&#xf3;" horiz-adv-x="1165" 
d="M68 381q0 130 46.5 279.5t147.5 254.5q156 164 418 164q196 0 307 -109t111 -321q0 -74 -18.5 -161.5t-69 -192.5t-123.5 -178q-82 -82 -175 -115t-231 -33q-413 0 -413 412zM334 377q0 -90 40.5 -136t133.5 -46q118 0 203 96q53 62 88 167t35 185q0 211 -185 211
q-118 0 -200 -102q-52 -66 -83.5 -171.5t-31.5 -203.5zM1090 1569l-355 -361h-215l244 361h326z" />
    <glyph glyph-name="ocircumflex" unicode="&#xf4;" horiz-adv-x="1165" 
d="M68 381q0 130 46.5 279.5t147.5 254.5q156 164 418 164q196 0 307 -109t111 -321q0 -74 -18.5 -161.5t-69 -192.5t-123.5 -178q-82 -82 -175 -115t-231 -33q-413 0 -413 412zM334 377q0 -90 40.5 -136t133.5 -46q118 0 203 96q53 62 88 167t35 185q0 211 -185 211
q-118 0 -200 -102q-52 -66 -83.5 -171.5t-31.5 -203.5zM1043 1208h-201l-105 174l-184 -174h-211l307 361h240z" />
    <glyph glyph-name="otilde" unicode="&#xf5;" horiz-adv-x="1165" 
d="M68 381q0 130 46.5 279.5t147.5 254.5q156 164 418 164q196 0 307 -109t111 -321q0 -74 -18.5 -161.5t-69 -192.5t-123.5 -178q-82 -82 -175 -115t-231 -33q-413 0 -413 412zM334 377q0 -90 40.5 -136t133.5 -46q118 0 203 96q53 62 88 167t35 185q0 211 -185 211
q-118 0 -200 -102q-52 -66 -83.5 -171.5t-31.5 -203.5zM475 1231h-178q80 317 311 317q48 0 87.5 -14.5t63.5 -35t44 -41.5t40 -35.5t40 -14.5q41 0 63 31.5t39 95.5h178q-37 -153 -110.5 -237.5t-200.5 -84.5q-52 0 -92.5 15t-64 36.5t-42 43t-37.5 36.5t-40 15
q-37 0 -58.5 -31t-42.5 -96z" />
    <glyph glyph-name="odieresis" unicode="&#xf6;" horiz-adv-x="1165" 
d="M68 381q0 130 46.5 279.5t147.5 254.5q156 164 418 164q196 0 307 -109t111 -321q0 -74 -18.5 -161.5t-69 -192.5t-123.5 -178q-82 -82 -175 -115t-231 -33q-413 0 -413 412zM334 377q0 -90 40.5 -136t133.5 -46q118 0 203 96q53 62 88 167t35 185q0 211 -185 211
q-118 0 -200 -102q-52 -66 -83.5 -171.5t-31.5 -203.5zM635 1341q0 -51 -20 -90q-21 -41 -57 -58t-95 -17q-63 0 -88 20t-25 64q0 43 17 86q18 45 54 64.5t97 19.5q62 0 89.5 -21.5t27.5 -67.5zM1061 1341q0 -51 -20 -90q-21 -41 -57 -58t-95 -17q-63 0 -88 20t-25 64
q0 43 17 86q18 45 54 64.5t97 19.5q62 0 89.5 -21.5t27.5 -67.5z" />
    <glyph glyph-name="divide" unicode="&#xf7;" horiz-adv-x="1427" 
d="M848 911h-246v252h246v-252zM1305 479h-1162v205h1162v-205zM848 2h-246v252h246v-252z" />
    <glyph glyph-name="oslash" unicode="&#xf8;" horiz-adv-x="1165" 
d="M168 -76h-191l160 189q-69 96 -69 268q0 53 8.5 112t29 128t52 133t80.5 123.5t110.5 104t147 71t184.5 26.5q139 0 238 -51l81 96h191l-166 -194q74 -110 74 -293q0 -43 -7.5 -95t-27.5 -117.5t-50 -128t-79 -122.5t-110 -105t-147.5 -72.5t-187.5 -27.5q-145 0 -241 49
zM834 643q0 25 -5 57l-417 -489q36 -16 102 -16q78 0 142 46.5t101 117t57 145t20 139.5zM334 377v-33l416 487q-38 23 -97 23q-77 0 -139.5 -43t-100.5 -113t-58.5 -153t-20.5 -168z" />
    <glyph glyph-name="ugrave" unicode="&#xf9;" 
d="M248 1049h252l-123 -578q-23 -110 -23 -168t21.5 -82t68.5 -24q126 0 318 151l147 701h252l-221 -1049h-252l29 135q-190 -166 -359 -166q-74 0 -128 20t-83.5 56t-43 79t-13.5 95q0 86 19 168zM839 1208h-190l-227 361h299z" />
    <glyph glyph-name="uacute" unicode="&#xfa;" 
d="M248 1049h252l-123 -578q-23 -110 -23 -168t21.5 -82t68.5 -24q126 0 318 151l147 701h252l-221 -1049h-252l29 135q-190 -166 -359 -166q-74 0 -128 20t-83.5 56t-43 79t-13.5 95q0 86 19 168zM1153 1569l-355 -361h-215l244 361h326z" />
    <glyph glyph-name="ucircumflex" unicode="&#xfb;" 
d="M248 1049h252l-123 -578q-23 -110 -23 -168t21.5 -82t68.5 -24q126 0 318 151l147 701h252l-221 -1049h-252l29 135q-190 -166 -359 -166q-74 0 -128 20t-83.5 56t-43 79t-13.5 95q0 86 19 168zM1045 1208h-201l-105 174l-184 -174h-211l307 361h240z" />
    <glyph glyph-name="udieresis" unicode="&#xfc;" 
d="M248 1049h252l-123 -578q-23 -110 -23 -168t21.5 -82t68.5 -24q126 0 318 151l147 701h252l-221 -1049h-252l29 135q-190 -166 -359 -166q-74 0 -128 20t-83.5 56t-43 79t-13.5 95q0 86 19 168zM680 1341q0 -51 -20 -90q-21 -41 -57 -58t-95 -17q-63 0 -88 20t-25 64
q0 43 17 86q18 45 54 64.5t97 19.5q62 0 89.5 -21.5t27.5 -67.5zM1106 1341q0 -51 -20 -90q-21 -41 -57 -58t-95 -17q-63 0 -88 20t-25 64q0 43 17 86q18 45 54 64.5t97 19.5q62 0 89.5 -21.5t27.5 -67.5z" />
    <glyph glyph-name="yacute" unicode="&#xfd;" horiz-adv-x="1063" 
d="M-205 -358l88 217q76 -29 152 -29q59 0 112 43.5t119 153.5l37 61l-166 961h252l103 -676l387 676h270l-680 -1121q-106 -178 -205 -250.5t-258 -72.5q-84 0 -211 37zM1023 1569l-355 -361h-215l244 361h326z" />
    <glyph glyph-name="thorn" unicode="&#xfe;" 
d="M301 78l-100 -473h-250l397 1884h252l-115 -533q83 64 156.5 93.5t153.5 29.5q165 0 249 -89.5t84 -284.5q0 -67 -12.5 -142.5t-38.5 -160t-71.5 -160.5t-105 -138t-146 -98.5t-187.5 -36.5q-172 0 -266 109zM442 750l-96 -459q35 -39 89 -66.5t112 -27.5q75 0 137 47.5
t98.5 120t56 152t19.5 151.5q0 97 -35 140.5t-118 43.5q-62 0 -133 -28.5t-130 -73.5z" />
    <glyph glyph-name="ydieresis" unicode="&#xff;" horiz-adv-x="1063" 
d="M-205 -358l88 217q76 -29 152 -29q59 0 112 43.5t119 153.5l37 61l-166 961h252l103 -676l387 676h270l-680 -1121q-106 -178 -205 -250.5t-258 -72.5q-84 0 -211 37zM606 1341q0 -51 -20 -90q-21 -41 -57 -58t-95 -17q-63 0 -88 20t-25 64q0 43 17 86q18 45 54 64.5
t97 19.5q62 0 89.5 -21.5t27.5 -67.5zM1032 1341q0 -51 -20 -90q-21 -41 -57 -58t-95 -17q-63 0 -88 20t-25 64q0 43 17 86q18 45 54 64.5t97 19.5q62 0 89.5 -21.5t27.5 -67.5z" />
    <glyph glyph-name="Amacron" unicode="&#x100;" horiz-adv-x="1311" 
d="M201 0h-283l739 1384h361l156 -1384h-273l-31 281h-518zM784 1100l-303 -572h363zM1194 1591h-659l39 185h659z" />
    <glyph glyph-name="amacron" unicode="&#x101;" 
d="M66 344q0 80 16 164t46 166.5t77.5 155.5t106.5 128.5t137 88t165 32.5q180 0 279 -108l16 78h250l-219 -1049h-211l6 129q-104 -89 -182 -124.5t-168 -35.5q-319 0 -319 375zM758 326l90 432q-35 39 -89 66.5t-112 27.5q-75 0 -137 -47.5t-98.5 -120.5t-56 -152
t-19.5 -151q0 -96 32 -140t101 -44q125 0 289 129zM1024 1255h-659l39 185h659z" />
    <glyph glyph-name="Abreve" unicode="&#x102;" horiz-adv-x="1311" 
d="M201 0h-283l739 1384h361l156 -1384h-273l-31 281h-518zM784 1100l-303 -572h363zM1075 1845h184q-29 -153 -131 -238t-272 -85q-154 0 -232 72t-78 184q0 27 7 67h186q3 -57 36 -83.5t105 -26.5q81 0 125 27.5t70 82.5z" />
    <glyph glyph-name="abreve" unicode="&#x103;" 
d="M66 344q0 80 16 164t46 166.5t77.5 155.5t106.5 128.5t137 88t165 32.5q180 0 279 -108l16 78h250l-219 -1049h-211l6 129q-104 -89 -182 -124.5t-168 -35.5q-319 0 -319 375zM758 326l90 432q-35 39 -89 66.5t-112 27.5q-75 0 -137 -47.5t-98.5 -120.5t-56 -152
t-19.5 -151q0 -96 32 -140t101 -44q125 0 289 129zM901 1509h184q-29 -153 -131 -238t-272 -85q-154 0 -232 72t-78 184q0 27 7 67h186q3 -57 36 -83.5t105 -26.5q81 0 125 27.5t70 82.5z" />
    <glyph glyph-name="Aogonek" unicode="&#x104;" horiz-adv-x="1311" 
d="M1044 -174l58 -158q-123 -63 -230 -63q-103 0 -151.5 39t-48.5 125q0 82 59.5 145t167.5 104l-29 263h-518l-151 -281h-283l739 1384h361l156 -1384q-153 -33 -218 -71.5t-65 -90.5q0 -20 13 -31.5t34 -11.5q53 0 106 31zM784 1100l-303 -572h363z" />
    <glyph glyph-name="aogonek" unicode="&#x105;" 
d="M905 -174l58 -158q-123 -63 -230 -63q-103 0 -152 39t-49 125q0 74 52.5 138.5t144.5 110.5l6 111q-104 -89 -182 -124.5t-168 -35.5q-319 0 -319 375q0 80 16 164t46 166.5t77.5 155.5t106.5 128.5t137 88t165 32.5q180 0 279 -108l16 78h250l-219 -1049
q-188 -53 -188 -162q0 -20 13 -31.5t34 -11.5q53 0 106 31zM758 326l90 432q-35 39 -89 66.5t-112 27.5q-75 0 -137 -47.5t-98.5 -120.5t-56 -152t-19.5 -151q0 -96 32 -140t101 -44q125 0 289 129z" />
    <glyph glyph-name="Cacute" unicode="&#x106;" horiz-adv-x="1284" 
d="M983 399l195 -170q-231 -258 -580 -258q-257 0 -383.5 127.5t-126.5 395.5q0 111 27 245.5t86 259.5q42 87 98.5 158.5t133 130.5t178.5 92t220 33q366 0 498 -268l-244 -150q-44 94 -103 131t-163 37q-123 0 -210 -67t-138 -185q-90 -205 -90 -413q0 -147 63.5 -212
t167.5 -65q116 0 199 40t172 138zM1239 1905l-355 -361h-215l244 361h326z" />
    <glyph glyph-name="cacute" unicode="&#x107;" horiz-adv-x="1038" 
d="M743 299l168 -149q-78 -86 -190 -133.5t-238 -47.5q-220 0 -317.5 107.5t-97.5 322.5q0 75 18 160t62.5 179t110 168.5t171 123.5t234.5 49q147 0 239.5 -45t149.5 -139l-213 -133q-28 48 -72 70t-117 22q-67 0 -122.5 -33t-90.5 -83.5t-59.5 -114t-34.5 -121.5t-10 -109
q0 -100 38 -149t138 -49q134 0 233 104zM1057 1569l-355 -361h-215l244 361h326z" />
    <glyph glyph-name="Ccircumflex" unicode="&#x108;" horiz-adv-x="1284" 
d="M983 399l195 -170q-231 -258 -580 -258q-257 0 -383.5 127.5t-126.5 395.5q0 111 27 245.5t86 259.5q42 87 98.5 158.5t133 130.5t178.5 92t220 33q366 0 498 -268l-244 -150q-44 94 -103 131t-163 37q-123 0 -210 -67t-138 -185q-90 -205 -90 -413q0 -147 63.5 -212
t167.5 -65q116 0 199 40t172 138zM1242 1544h-201l-105 174l-184 -174h-211l307 361h240z" />
    <glyph glyph-name="ccircumflex" unicode="&#x109;" horiz-adv-x="1038" 
d="M743 299l168 -149q-78 -86 -190 -133.5t-238 -47.5q-220 0 -317.5 107.5t-97.5 322.5q0 75 18 160t62.5 179t110 168.5t171 123.5t234.5 49q147 0 239.5 -45t149.5 -139l-213 -133q-28 48 -72 70t-117 22q-67 0 -122.5 -33t-90.5 -83.5t-59.5 -114t-34.5 -121.5t-10 -109
q0 -100 38 -149t138 -49q134 0 233 104zM1045 1208h-201l-105 174l-184 -174h-211l307 361h240z" />
    <glyph glyph-name="Cdotaccent" unicode="&#x10a;" horiz-adv-x="1284" 
d="M983 399l195 -170q-231 -258 -580 -258q-257 0 -383.5 127.5t-126.5 395.5q0 111 27 245.5t86 259.5q42 87 98.5 158.5t133 130.5t178.5 92t220 33q366 0 498 -268l-244 -150q-44 94 -103 131t-163 37q-123 0 -210 -67t-138 -185q-90 -205 -90 -413q0 -147 63.5 -212
t167.5 -65q116 0 199 40t172 138zM1046 1718q0 -62 -28 -108q-40 -70 -150 -70q-116 0 -116 80q0 58 22 102q39 80 150 80q65 0 93.5 -20t28.5 -64z" />
    <glyph glyph-name="cdotaccent" unicode="&#x10b;" horiz-adv-x="1038" 
d="M743 299l168 -149q-78 -86 -190 -133.5t-238 -47.5q-220 0 -317.5 107.5t-97.5 322.5q0 75 18 160t62.5 179t110 168.5t171 123.5t234.5 49q147 0 239.5 -45t149.5 -139l-213 -133q-28 48 -72 70t-117 22q-67 0 -122.5 -33t-90.5 -83.5t-59.5 -114t-34.5 -121.5t-10 -109
q0 -100 38 -149t138 -49q134 0 233 104zM866 1382q0 -62 -28 -108q-40 -70 -150 -70q-116 0 -116 80q0 58 22 102q39 80 150 80q65 0 93.5 -20t28.5 -64z" />
    <glyph glyph-name="Ccaron" unicode="&#x10c;" horiz-adv-x="1284" 
d="M983 399l195 -170q-231 -258 -580 -258q-257 0 -383.5 127.5t-126.5 395.5q0 111 27 245.5t86 259.5q42 87 98.5 158.5t133 130.5t178.5 92t220 33q366 0 498 -268l-244 -150q-44 94 -103 131t-163 37q-123 0 -210 -67t-138 -185q-90 -205 -90 -413q0 -147 63.5 -212
t167.5 -65q116 0 199 40t172 138zM598 1905h201l104 -174l184 174h211l-307 -361h-239z" />
    <glyph glyph-name="ccaron" unicode="&#x10d;" horiz-adv-x="1038" 
d="M743 299l168 -149q-78 -86 -190 -133.5t-238 -47.5q-220 0 -317.5 107.5t-97.5 322.5q0 75 18 160t62.5 179t110 168.5t171 123.5t234.5 49q147 0 239.5 -45t149.5 -139l-213 -133q-28 48 -72 70t-117 22q-67 0 -122.5 -33t-90.5 -83.5t-59.5 -114t-34.5 -121.5t-10 -109
q0 -100 38 -149t138 -49q134 0 233 104zM418 1569h201l104 -174l184 174h211l-307 -361h-239z" />
    <glyph glyph-name="Dcaron" unicode="&#x10e;" horiz-adv-x="1286" 
d="M1268 922q0 -88 -14 -185t-42.5 -201t-80.5 -200.5t-121 -161.5q-187 -174 -572 -174h-413l292 1384h394q142 0 243 -23.5t173 -77t106.5 -143t34.5 -218.5zM354 258h107q133 0 215.5 19.5t136.5 72.5q74 74 121 239.5t47 307.5q0 129 -70 179t-227 50h-145zM496 1905
h201l104 -174l184 174h211l-307 -361h-239z" />
    <glyph glyph-name="dcaron" unicode="&#x10f;" horiz-adv-x="1319" 
d="M66 344q0 146 48.5 291t133.5 258q141 186 379 186q167 0 266 -108l111 518h249l-313 -1489h-231l20 102q-173 -133 -330 -133q-164 0 -248.5 90t-84.5 285zM446 739q-47 -66 -78.5 -164.5t-31.5 -193.5q0 -97 35 -140.5t118 -43.5q61 0 132.5 29t130.5 73l96 459
q-35 39 -89 66.5t-112 27.5q-119 0 -201 -113zM1651 1489l-225 -361h-170l119 361h276z" />
    <glyph glyph-name="Dcroat" unicode="&#x110;" horiz-adv-x="1286" 
d="M1268 922q0 -88 -14 -185t-42.5 -201t-80.5 -200.5t-121 -161.5q-187 -174 -572 -174h-413l122 580h-122l47 225h123l122 579h394q142 0 243 -23.5t173 -77t106.5 -143t34.5 -218.5zM354 258h107q133 0 215.5 19.5t136.5 72.5q74 74 121 239.5t47 307.5q0 129 -70 179
t-227 50h-145l-68 -321h287l-47 -225h-289z" />
    <glyph glyph-name="dcroat" unicode="&#x111;" 
d="M66 344q0 146 48.5 291t133.5 258q141 186 379 186q167 0 266 -108l47 227h-272l39 184h274l23 107h249l-22 -107h133l-39 -184h-133l-252 -1198h-231l20 102q-173 -133 -330 -133q-164 0 -248.5 90t-84.5 285zM446 739q-47 -66 -78.5 -164.5t-31.5 -193.5
q0 -97 35 -140.5t118 -43.5q61 0 132.5 29t130.5 73l96 459q-35 39 -89 66.5t-112 27.5q-119 0 -201 -113z" />
    <glyph glyph-name="Emacron" unicode="&#x112;" horiz-adv-x="1126" 
d="M918 0h-881l293 1384h880l-53 -249h-604l-61 -295h509l-53 -250h-510l-71 -332h604zM1128 1591h-659l39 185h659z" />
    <glyph glyph-name="emacron" unicode="&#x113;" horiz-adv-x="1120" 
d="M1024 457h-686q-8 -35 -8 -86q0 -91 46 -133.5t138 -42.5q87 0 150.5 25t119.5 75l144 -164q-85 -83 -182 -122.5t-254 -39.5q-113 0 -196.5 30.5t-133 86t-73 126t-23.5 157.5q0 276 161 503q69 97 179 152t256 55q403 0 403 -364q0 -50 -14 -125zM379 635h426
q10 47 10 86q0 79 -37.5 116t-126.5 37q-128 0 -198 -92q-48 -60 -74 -147zM1044 1255h-659l39 185h659z" />
    <glyph glyph-name="Ebreve" unicode="&#x114;" horiz-adv-x="1126" 
d="M918 0h-881l293 1384h880l-53 -249h-604l-61 -295h509l-53 -250h-510l-71 -332h604zM991 1845h184q-29 -153 -131 -238t-272 -85q-154 0 -232 72t-78 184q0 27 7 67h186q3 -57 36 -83.5t105 -26.5q81 0 125 27.5t70 82.5z" />
    <glyph glyph-name="ebreve" unicode="&#x115;" horiz-adv-x="1120" 
d="M1024 457h-686q-8 -35 -8 -86q0 -91 46 -133.5t138 -42.5q87 0 150.5 25t119.5 75l144 -164q-85 -83 -182 -122.5t-254 -39.5q-113 0 -196.5 30.5t-133 86t-73 126t-23.5 157.5q0 276 161 503q69 97 179 152t256 55q403 0 403 -364q0 -50 -14 -125zM379 635h426
q10 47 10 86q0 79 -37.5 116t-126.5 37q-128 0 -198 -92q-48 -60 -74 -147zM922 1509h184q-29 -153 -131 -238t-272 -85q-154 0 -232 72t-78 184q0 27 7 67h186q3 -57 36 -83.5t105 -26.5q81 0 125 27.5t70 82.5z" />
    <glyph glyph-name="Edotaccent" unicode="&#x116;" horiz-adv-x="1126" 
d="M918 0h-881l293 1384h880l-53 -249h-604l-61 -295h509l-53 -250h-510l-71 -332h604zM954 1718q0 -62 -28 -108q-40 -70 -150 -70q-116 0 -116 80q0 58 22 102q39 80 150 80q65 0 93.5 -20t28.5 -64z" />
    <glyph glyph-name="edotaccent" unicode="&#x117;" horiz-adv-x="1120" 
d="M1024 457h-686q-8 -35 -8 -86q0 -91 46 -133.5t138 -42.5q87 0 150.5 25t119.5 75l144 -164q-85 -83 -182 -122.5t-254 -39.5q-113 0 -196.5 30.5t-133 86t-73 126t-23.5 157.5q0 276 161 503q69 97 179 152t256 55q403 0 403 -364q0 -50 -14 -125zM379 635h426
q10 47 10 86q0 79 -37.5 116t-126.5 37q-128 0 -198 -92q-48 -60 -74 -147zM847 1382q0 -62 -28 -108q-40 -70 -150 -70q-116 0 -116 80q0 58 22 102q39 80 150 80q65 0 93.5 -20t28.5 -64z" />
    <glyph glyph-name="Eogonek" unicode="&#x118;" horiz-adv-x="1126" 
d="M788 -174l58 -158q-123 -63 -230 -63q-103 0 -151.5 39t-48.5 125q0 142 180 231h-559l293 1384h880l-53 -249h-604l-61 -295h509l-53 -250h-510l-71 -332h604l-53 -258q-153 -33 -218 -71.5t-65 -90.5q0 -20 13 -31.5t34 -11.5q53 0 106 31z" />
    <glyph glyph-name="eogonek" unicode="&#x119;" horiz-adv-x="1120" 
d="M793 -174l57 -158q-123 -63 -229 -63q-104 0 -152.5 39t-48.5 125q0 111 112 204q-16 -4 -40 -4q-113 0 -196.5 30.5t-133 86t-73 126t-23.5 157.5q0 276 161 503q69 97 179 152t256 55q403 0 403 -364q0 -50 -14 -125l-27 -133h-686q-8 -35 -8 -86q0 -91 46 -133.5
t138 -42.5q87 0 150.5 25t119.5 75l144 -164q-46 -46 -101 -82q-108 -69 -148 -118.5t-40 -92.5t53 -43q48 0 101 31zM379 635h426q10 47 10 86q0 79 -37.5 116t-126.5 37q-128 0 -198 -92q-48 -60 -74 -147z" />
    <glyph glyph-name="Ecaron" unicode="&#x11a;" horiz-adv-x="1126" 
d="M918 0h-881l293 1384h880l-53 -249h-604l-61 -295h509l-53 -250h-510l-71 -332h604zM500 1905h201l104 -174l184 174h211l-307 -361h-239z" />
    <glyph glyph-name="ecaron" unicode="&#x11b;" horiz-adv-x="1120" 
d="M1024 457h-686q-8 -35 -8 -86q0 -91 46 -133.5t138 -42.5q87 0 150.5 25t119.5 75l144 -164q-85 -83 -182 -122.5t-254 -39.5q-113 0 -196.5 30.5t-133 86t-73 126t-23.5 157.5q0 276 161 503q69 97 179 152t256 55q403 0 403 -364q0 -50 -14 -125zM379 635h426
q10 47 10 86q0 79 -37.5 116t-126.5 37q-128 0 -198 -92q-48 -60 -74 -147zM399 1569h201l104 -174l184 174h211l-307 -361h-239z" />
    <glyph glyph-name="Gcircumflex" unicode="&#x11c;" horiz-adv-x="1386" 
d="M1386 1165l-243 -166q-80 164 -277 164q-85 0 -147.5 -19t-108.5 -61.5t-77.5 -92t-65.5 -126.5q-80 -184 -80 -377q0 -149 59.5 -207.5t215.5 -58.5q141 0 264 66l45 207h-264l53 249h543l-132 -612q-244 -160 -532 -160q-278 0 -410.5 118t-132.5 382q0 246 101 469
q38 85 77 149.5t98.5 128t130 104.5t169.5 66t219 25q180 0 297.5 -61t197.5 -187zM1252 1544h-201l-105 174l-184 -174h-211l307 361h240z" />
    <glyph glyph-name="gcircumflex" unicode="&#x11d;" 
d="M1161 1049l-217 -1029q-23 -109 -62.5 -183.5t-108 -128t-171 -78.5t-246.5 -25q-125 0 -236 24t-179 66l116 211q142 -76 314 -76q155 0 227 46t94 155l19 86q-72 -53 -149.5 -85t-141.5 -32q-183 0 -265.5 95.5t-82.5 307.5q0 99 23.5 196t71.5 183.5t114.5 152.5
t160 105t201.5 39q80 0 154 -36t116 -93l54 99h194zM756 330l90 428q-82 94 -207 94q-72 0 -131 -43t-94.5 -110t-54.5 -141t-19 -142q0 -103 33 -146t116 -43q128 0 267 103zM1055 1208h-201l-105 174l-184 -174h-211l307 361h240z" />
    <glyph glyph-name="Gbreve" unicode="&#x11e;" horiz-adv-x="1386" 
d="M1386 1165l-243 -166q-80 164 -277 164q-85 0 -147.5 -19t-108.5 -61.5t-77.5 -92t-65.5 -126.5q-80 -184 -80 -377q0 -149 59.5 -207.5t215.5 -58.5q141 0 264 66l45 207h-264l53 249h543l-132 -612q-244 -160 -532 -160q-278 0 -410.5 118t-132.5 382q0 246 101 469
q38 85 77 149.5t98.5 128t130 104.5t169.5 66t219 25q180 0 297.5 -61t197.5 -187zM1124 1845h184q-29 -153 -131 -238t-272 -85q-154 0 -232 72t-78 184q0 27 7 67h186q3 -57 36 -83.5t105 -26.5q81 0 125 27.5t70 82.5z" />
    <glyph glyph-name="gbreve" unicode="&#x11f;" 
d="M1161 1049l-217 -1029q-23 -109 -62.5 -183.5t-108 -128t-171 -78.5t-246.5 -25q-125 0 -236 24t-179 66l116 211q142 -76 314 -76q155 0 227 46t94 155l19 86q-72 -53 -149.5 -85t-141.5 -32q-183 0 -265.5 95.5t-82.5 307.5q0 99 23.5 196t71.5 183.5t114.5 152.5
t160 105t201.5 39q80 0 154 -36t116 -93l54 99h194zM756 330l90 428q-82 94 -207 94q-72 0 -131 -43t-94.5 -110t-54.5 -141t-19 -142q0 -103 33 -146t116 -43q128 0 267 103zM909 1509h184q-29 -153 -131 -238t-272 -85q-154 0 -232 72t-78 184q0 27 7 67h186
q3 -57 36 -83.5t105 -26.5q81 0 125 27.5t70 82.5z" />
    <glyph glyph-name="Gdotaccent" unicode="&#x120;" horiz-adv-x="1386" 
d="M1386 1165l-243 -166q-80 164 -277 164q-85 0 -147.5 -19t-108.5 -61.5t-77.5 -92t-65.5 -126.5q-80 -184 -80 -377q0 -149 59.5 -207.5t215.5 -58.5q141 0 264 66l45 207h-264l53 249h543l-132 -612q-244 -160 -532 -160q-278 0 -410.5 118t-132.5 382q0 246 101 469
q38 85 77 149.5t98.5 128t130 104.5t169.5 66t219 25q180 0 297.5 -61t197.5 -187zM1060 1718q0 -62 -28 -108q-40 -70 -150 -70q-116 0 -116 80q0 58 22 102q39 80 150 80q65 0 93.5 -20t28.5 -64z" />
    <glyph glyph-name="gdotaccent" unicode="&#x121;" 
d="M1161 1049l-217 -1029q-23 -109 -62.5 -183.5t-108 -128t-171 -78.5t-246.5 -25q-125 0 -236 24t-179 66l116 211q142 -76 314 -76q155 0 227 46t94 155l19 86q-72 -53 -149.5 -85t-141.5 -32q-183 0 -265.5 95.5t-82.5 307.5q0 99 23.5 196t71.5 183.5t114.5 152.5
t160 105t201.5 39q80 0 154 -36t116 -93l54 99h194zM756 330l90 428q-82 94 -207 94q-72 0 -131 -43t-94.5 -110t-54.5 -141t-19 -142q0 -103 33 -146t116 -43q128 0 267 103zM845 1382q0 -62 -28 -108q-40 -70 -150 -70q-116 0 -116 80q0 58 22 102q39 80 150 80
q65 0 93.5 -20t28.5 -64z" />
    <glyph glyph-name="Gcommaaccent" unicode="&#x122;" horiz-adv-x="1386" 
d="M1386 1165l-243 -166q-80 164 -277 164q-85 0 -147.5 -19t-108.5 -61.5t-77.5 -92t-65.5 -126.5q-80 -184 -80 -377q0 -149 59.5 -207.5t215.5 -58.5q141 0 264 66l45 207h-264l53 249h543l-132 -612q-244 -160 -532 -160q-278 0 -410.5 118t-132.5 382q0 246 101 469
q38 85 77 149.5t98.5 128t130 104.5t169.5 66t219 25q180 0 297.5 -61t197.5 -187zM561 -563h-161q92 92 118 174q-98 6 -98 96q0 51 22.5 106.5t55.5 80.5q39 32 127 32q125 0 125 -116q0 -92 -49 -187q-54 -101 -140 -186z" />
    <glyph glyph-name="gcommaaccent" unicode="&#x123;" 
d="M1161 1049l-217 -1029q-23 -109 -62.5 -183.5t-108 -128t-171 -78.5t-246.5 -25q-125 0 -236 24t-179 66l116 211q142 -76 314 -76q155 0 227 46t94 155l19 86q-72 -53 -149.5 -85t-141.5 -32q-183 0 -265.5 95.5t-82.5 307.5q0 99 23.5 196t71.5 183.5t114.5 152.5
t160 105t201.5 39q80 0 154 -36t116 -93l54 99h194zM756 330l90 428q-82 94 -207 94q-72 0 -131 -43t-94.5 -110t-54.5 -141t-19 -142q0 -103 33 -146t116 -43q128 0 267 103zM762 1655h162q-93 -93 -119 -174q99 -6 99 -97q0 -51 -22.5 -106t-55.5 -80q-40 -33 -127 -33
q-66 0 -95.5 29.5t-29.5 87.5q0 91 49 186q48 92 139 187z" />
    <glyph glyph-name="Hcircumflex" unicode="&#x124;" horiz-adv-x="1380" 
d="M1124 0h-276l125 588h-535l-125 -588h-276l293 1384h276l-114 -538h534l115 538h276zM1244 1544h-201l-105 174l-184 -174h-211l307 361h240z" />
    <glyph glyph-name="hcircumflex" unicode="&#x125;" 
d="M946 0h-252l123 578q25 120 25 178q0 51 -23.5 73.5t-70.5 22.5q-121 0 -316 -152l-147 -700h-252l315 1489h252l-123 -576q189 166 375 166q133 0 192.5 -70t59.5 -180q0 -85 -19 -167zM1160 1544h-201l-105 174l-184 -174h-211l307 361h240z" />
    <glyph glyph-name="Hbar" unicode="&#x126;" horiz-adv-x="1380" 
d="M1124 0h-278l119 563h-533l-119 -563h-276l209 991h-137l45 205h135l41 188h276l-41 -188h533l41 188h278l-41 -188h135l-45 -205h-133zM485 821h533l37 170h-533z" />
    <glyph glyph-name="hbar" unicode="&#x127;" 
d="M803 1198h-266l-60 -285q189 166 375 166q133 0 192.5 -70t59.5 -180q0 -85 -19 -167l-139 -662h-252l123 578q25 120 25 178q0 51 -23.5 73.5t-70.5 22.5q-121 0 -316 -152l-147 -700h-252l254 1198h-142l39 184h142l22 107h252l-22 -107h264z" />
    <glyph glyph-name="Itilde" unicode="&#x128;" horiz-adv-x="854" 
d="M688 217l-45 -217h-653l45 217h188l203 950h-188l45 217h653l-45 -217h-189l-202 -950h188zM416 1567h-178q80 317 311 317q48 0 87.5 -14.5t63.5 -35t44 -41.5t40 -35.5t40 -14.5q41 0 63 31.5t39 95.5h178q-37 -153 -110.5 -237.5t-200.5 -84.5q-52 0 -92.5 15
t-64 36.5t-42 43t-37.5 36.5t-40 15q-37 0 -58.5 -31t-42.5 -96z" />
    <glyph glyph-name="itilde" unicode="&#x129;" horiz-adv-x="539" 
d="M285 0h-252l221 1049h252zM181 1231h-178q80 317 311 317q48 0 87.5 -14.5t63.5 -35t44 -41.5t40 -35.5t40 -14.5q41 0 63 31.5t39 95.5h178q-37 -153 -110.5 -237.5t-200.5 -84.5q-52 0 -92.5 15t-64 36.5t-42 43t-37.5 36.5t-40 15q-37 0 -58.5 -31t-42.5 -96z" />
    <glyph glyph-name="Imacron" unicode="&#x12a;" horiz-adv-x="854" 
d="M688 217l-45 -217h-653l45 217h188l203 950h-188l45 217h653l-45 -217h-189l-202 -950h188zM975 1591h-659l39 185h659z" />
    <glyph glyph-name="imacron" unicode="&#x12b;" horiz-adv-x="539" 
d="M285 0h-252l221 1049h252zM750 1255h-659l39 185h659z" />
    <glyph glyph-name="Ibreve" unicode="&#x12c;" horiz-adv-x="854" 
d="M688 217l-45 -217h-653l45 217h188l203 950h-188l45 217h653l-45 -217h-189l-202 -950h188zM851 1845h184q-29 -153 -131 -238t-272 -85q-154 0 -232 72t-78 184q0 27 7 67h186q3 -57 36 -83.5t105 -26.5q81 0 125 27.5t70 82.5z" />
    <glyph glyph-name="ibreve" unicode="&#x12d;" horiz-adv-x="539" 
d="M285 0h-252l221 1049h252zM620 1509h184q-29 -153 -131 -238t-272 -85q-154 0 -232 72t-78 184q0 27 7 67h186q3 -57 36 -83.5t105 -26.5q81 0 125 27.5t70 82.5z" />
    <glyph glyph-name="Iogonek" unicode="&#x12e;" horiz-adv-x="854" 
d="M514 -174l57 -158q-123 -63 -229 -63q-103 0 -152 39t-49 125q0 141 181 231h-332l45 217h188l203 950h-188l45 217h653l-45 -217h-189l-202 -950h188l-45 -217q-153 -33 -218 -71.5t-65 -90.5q0 -20 13.5 -31.5t34.5 -11.5q53 0 106 31z" />
    <glyph glyph-name="iogonek" unicode="&#x12f;" horiz-adv-x="539" 
d="M506 1049l-221 -1049q-189 -52 -189 -162q0 -20 13 -31.5t34 -11.5q54 0 107 31l57 -158q-123 -63 -229 -63q-103 0 -152 39t-49 125q0 65 41.5 125.5t114.5 107.5l221 1047h252zM295 1300q0 24 7.5 50t24.5 53.5t52.5 45t83.5 17.5q125 0 125 -94q0 -27 -8.5 -54
t-26.5 -54t-53 -43.5t-82 -16.5q-67 0 -95 24t-28 72z" />
    <glyph glyph-name="Idotaccent" unicode="&#x130;" horiz-adv-x="854" 
d="M688 217l-45 -217h-653l45 217h188l203 950h-188l45 217h653l-45 -217h-189l-202 -950h188zM805 1718q0 -62 -28 -108q-40 -70 -150 -70q-116 0 -116 80q0 58 22 102q39 80 150 80q65 0 93.5 -20t28.5 -64z" />
    <glyph glyph-name="dotlessi" unicode="&#x131;" horiz-adv-x="539" 
d="M285 0h-252l221 1049h252z" />
    <glyph glyph-name="IJ" unicode="&#x132;" horiz-adv-x="1698" 
d="M688 217l-45 -217h-653l45 217h188l203 950h-188l45 217h653l-45 -217h-189l-202 -950h188zM1729 1384l-213 -1007q-43 -210 -160 -309t-340 -99q-155 0 -286 54l106 243q88 -47 190 -47q106 0 153 47.5t77 186.5l196 931h277z" />
    <glyph glyph-name="ij" unicode="&#x133;" horiz-adv-x="1090" 
d="M285 0h-252l221 1049h252zM295 1300q0 24 7.5 50t24.5 53.5t52.5 45t83.5 17.5q125 0 125 -94q0 -27 -8.5 -54t-26.5 -54t-53 -43.5t-82 -16.5q-67 0 -95 24t-28 72zM1059 1049l-231 -1094q-40 -188 -138.5 -269t-285.5 -81q-119 0 -209 30l100 224q66 -29 144 -29
q70 0 97.5 42.5t53.5 164.5l215 1012h254zM848 1300q0 24 7.5 50t24.5 53.5t52.5 45t83.5 17.5q125 0 125 -94q0 -27 -8.5 -54t-26.5 -54t-53 -43.5t-82 -16.5q-67 0 -95 24t-28 72z" />
    <glyph glyph-name="Jcircumflex" unicode="&#x134;" horiz-adv-x="905" 
d="M936 1384l-213 -1007q-43 -210 -160 -309t-340 -99q-155 0 -286 54l106 243q88 -47 190 -47q106 0 153 47.5t77 186.5l196 931h277zM1164 1544h-201l-105 174l-184 -174h-211l307 361h240z" />
    <glyph glyph-name="jcircumflex" unicode="&#x135;" horiz-adv-x="551" 
d="M520 1049l-231 -1094q-40 -188 -138.5 -269t-285.5 -81q-119 0 -209 30l100 224q66 -29 144 -29q70 0 97.5 42.5t53.5 164.5l215 1012h254zM765 1208h-201l-105 174l-184 -174h-211l307 361h240z" />
    <glyph glyph-name="Kcommaaccent" unicode="&#x136;" horiz-adv-x="1255" 
d="M1116 0h-323l-258 594l-119 -113l-103 -481h-276l293 1384h276l-106 -503l520 503h352l-631 -602zM473 -563h-161q92 92 118 174q-98 6 -98 96q0 51 22.5 106.5t55.5 80.5q39 32 127 32q125 0 125 -116q0 -92 -49 -187q-54 -101 -140 -186z" />
    <glyph glyph-name="kcommaaccent" unicode="&#x137;" horiz-adv-x="1077" 
d="M944 0h-276l-185 442l-131 -116l-67 -326h-252l315 1489h252l-176 -834l412 394h309l-475 -447zM393 -563h-161q92 92 118 174q-98 6 -98 96q0 51 22.5 106.5t55.5 80.5q39 32 127 32q125 0 125 -116q0 -92 -49 -187q-54 -101 -140 -186z" />
    <glyph glyph-name="kgreenlandic" unicode="&#x138;" horiz-adv-x="1077" 
d="M944 0h-276l-185 444l-131 -118l-67 -326h-252l221 1049h252l-82 -396l362 351q78 75 187 75q63 0 143 -30l-82 -195q-22 10 -55 10q-26 0 -57 -26l-252 -236z" />
    <glyph glyph-name="Lacute" unicode="&#x139;" horiz-adv-x="1018" 
d="M883 0h-846l293 1384h276l-239 -1126h569zM1056 1905l-355 -361h-215l244 361h326z" />
    <glyph glyph-name="lacute" unicode="&#x13a;" horiz-adv-x="539" 
d="M285 0h-252l315 1489h252zM888 1948l-355 -361h-215l244 361h326z" />
    <glyph glyph-name="Lcommaaccent" unicode="&#x13b;" horiz-adv-x="1018" 
d="M883 0h-846l293 1384h276l-239 -1126h569zM420 -563h-161q92 92 118 174q-98 6 -98 96q0 51 22.5 106.5t55.5 80.5q39 32 127 32q125 0 125 -116q0 -92 -49 -187q-54 -101 -140 -186z" />
    <glyph glyph-name="lcommaaccent" unicode="&#x13c;" horiz-adv-x="539" 
d="M285 0h-252l315 1489h252zM85 -563h-161q92 92 118 174q-98 6 -98 96q0 51 22.5 106.5t55.5 80.5q39 32 127 32q125 0 125 -116q0 -92 -49 -187q-54 -101 -140 -186z" />
    <glyph glyph-name="Lcaron" unicode="&#x13d;" horiz-adv-x="1018" 
d="M883 0h-846l293 1384h276l-239 -1126h569zM1048 1386l-225 -361h-170l119 361h276z" />
    <glyph glyph-name="lcaron" unicode="&#x13e;" horiz-adv-x="659" 
d="M285 0h-252l315 1489h252zM1000 1489l-225 -361h-170l119 361h276z" />
    <glyph glyph-name="Ldot" unicode="&#x13f;" horiz-adv-x="1018" 
d="M883 0h-846l293 1384h276l-239 -1126h569zM935 808q0 -62 -28 -108q-40 -70 -150 -70q-116 0 -116 80q0 58 22 102q39 80 150 80q65 0 93.5 -20t28.5 -64z" />
    <glyph glyph-name="ldot" unicode="&#x140;" horiz-adv-x="702" 
d="M285 0h-252l315 1489h252zM818 808q0 -62 -28 -108q-40 -70 -150 -70q-116 0 -116 80q0 58 22 102q39 80 150 80q65 0 93.5 -20t28.5 -64z" />
    <glyph glyph-name="Lslash" unicode="&#x141;" horiz-adv-x="1018" 
d="M723 895l-258 -176l-98 -461h569l-53 -258h-846l108 518l-159 -108l57 268l160 108l127 598h276l-84 -397l258 176z" />
    <glyph glyph-name="lslash" unicode="&#x142;" horiz-adv-x="539" 
d="M285 0h-252l110 522l-168 -133l50 232l165 129l158 739h252l-113 -526l168 131l-49 -232l-166 -129z" />
    <glyph glyph-name="Nacute" unicode="&#x143;" horiz-adv-x="1382" 
d="M1126 0h-317l-293 989l-209 -989h-270l293 1384h342l276 -933l199 933h272zM1280 1905l-355 -361h-215l244 361h326z" />
    <glyph glyph-name="nacute" unicode="&#x144;" 
d="M946 0h-252l123 578q25 120 25 184q0 90 -90 90q-127 0 -320 -152l-147 -700h-252l221 1049h252l-29 -136q192 166 369 166q136 0 197 -70t61 -180q0 -85 -19 -167zM1127 1569l-355 -361h-215l244 361h326z" />
    <glyph glyph-name="Ncommaaccent" unicode="&#x145;" horiz-adv-x="1382" 
d="M1126 0h-317l-293 989l-209 -989h-270l293 1384h342l276 -933l199 933h272zM528 -563h-161q92 92 118 174q-98 6 -98 96q0 51 22.5 106.5t55.5 80.5q39 32 127 32q125 0 125 -116q0 -92 -49 -187q-54 -101 -140 -186z" />
    <glyph glyph-name="ncommaaccent" unicode="&#x146;" 
d="M946 0h-252l123 578q25 120 25 184q0 90 -90 90q-127 0 -320 -152l-147 -700h-252l221 1049h252l-29 -136q192 166 369 166q136 0 197 -70t61 -180q0 -85 -19 -167zM420 -563h-161q92 92 118 174q-98 6 -98 96q0 51 22.5 106.5t55.5 80.5q39 32 127 32q125 0 125 -116
q0 -92 -49 -187q-54 -101 -140 -186z" />
    <glyph glyph-name="Ncaron" unicode="&#x147;" horiz-adv-x="1382" 
d="M1126 0h-317l-293 989l-209 -989h-270l293 1384h342l276 -933l199 933h272zM590 1905h201l104 -174l184 174h211l-307 -361h-239z" />
    <glyph glyph-name="ncaron" unicode="&#x148;" 
d="M946 0h-252l123 578q25 120 25 184q0 90 -90 90q-127 0 -320 -152l-147 -700h-252l221 1049h252l-29 -136q192 166 369 166q136 0 197 -70t61 -180q0 -85 -19 -167zM444 1569h201l104 -174l184 174h211l-307 -361h-239z" />
    <glyph glyph-name="napostrophe" unicode="&#x149;" horiz-adv-x="1407" 
d="M1161 0h-252l123 578q25 120 25 184q0 90 -90 90q-127 0 -320 -152l-147 -700h-252l221 1049h252l-29 -136q192 166 369 166q136 0 197 -70t61 -180q0 -85 -19 -167zM435 1294q0 -81 -60 -221q-63 -138 -168 -258h-186q70 79 119 159t63 124q-98 6 -98 94q0 67 29 127
q44 94 168 94q70 0 101.5 -30t31.5 -89z" />
    <glyph glyph-name="Eng" unicode="&#x14a;" horiz-adv-x="1382" 
d="M1419 1384l-297 -1400q-39 -190 -141.5 -284.5t-296.5 -94.5q-138 0 -254 53l88 240q69 -43 158 -43q74 0 115.5 33t58.5 116l-334 985l-209 -989h-270l293 1384h342l293 -856l182 856h272z" />
    <glyph glyph-name="eng" unicode="&#x14b;" 
d="M432 700l-147 -700h-252l221 1049h252l-29 -136q192 166 369 166q136 0 197 -70t61 -180q0 -85 -19 -167l-147 -707q-38 -188 -136.5 -269t-285.5 -81q-40 0 -103 8t-106 22l101 224q66 -29 143 -29q37 0 61.5 10.5t41 38.5t26.5 62t22 96l115 541q25 120 25 184
q0 90 -90 90q-127 0 -320 -152z" />
    <glyph glyph-name="Omacron" unicode="&#x14c;" horiz-adv-x="1337" 
d="M594 -29q-135 0 -234.5 36.5t-158 104t-86 154.5t-27.5 197q0 267 100 498q44 102 99 180.5t130 141.5t175.5 96.5t222.5 33.5q241 0 372.5 -130.5t131.5 -385.5q0 -161 -66 -377q-170 -549 -659 -549zM375 485q0 -140 55 -202t174 -62q259 0 371 346q55 170 55 312
q0 150 -55.5 217t-179.5 67q-119 0 -201.5 -70.5t-140.5 -209.5q-78 -186 -78 -398zM1230 1591h-659l39 185h659z" />
    <glyph glyph-name="omacron" unicode="&#x14d;" horiz-adv-x="1165" 
d="M68 381q0 130 46.5 279.5t147.5 254.5q156 164 418 164q196 0 307 -109t111 -321q0 -74 -18.5 -161.5t-69 -192.5t-123.5 -178q-82 -82 -175 -115t-231 -33q-413 0 -413 412zM334 377q0 -90 40.5 -136t133.5 -46q118 0 203 96q53 62 88 167t35 185q0 211 -185 211
q-118 0 -200 -102q-52 -66 -83.5 -171.5t-31.5 -203.5zM1063 1255h-659l39 185h659z" />
    <glyph glyph-name="Obreve" unicode="&#x14e;" horiz-adv-x="1337" 
d="M594 -29q-135 0 -234.5 36.5t-158 104t-86 154.5t-27.5 197q0 267 100 498q44 102 99 180.5t130 141.5t175.5 96.5t222.5 33.5q241 0 372.5 -130.5t131.5 -385.5q0 -161 -66 -377q-170 -549 -659 -549zM375 485q0 -140 55 -202t174 -62q259 0 371 346q55 170 55 312
q0 150 -55.5 217t-179.5 67q-119 0 -201.5 -70.5t-140.5 -209.5q-78 -186 -78 -398zM1092 1845h184q-29 -153 -131 -238t-272 -85q-154 0 -232 72t-78 184q0 27 7 67h186q3 -57 36 -83.5t105 -26.5q81 0 125 27.5t70 82.5z" />
    <glyph glyph-name="obreve" unicode="&#x14f;" horiz-adv-x="1165" 
d="M68 381q0 130 46.5 279.5t147.5 254.5q156 164 418 164q196 0 307 -109t111 -321q0 -74 -18.5 -161.5t-69 -192.5t-123.5 -178q-82 -82 -175 -115t-231 -33q-413 0 -413 412zM334 377q0 -90 40.5 -136t133.5 -46q118 0 203 96q53 62 88 167t35 185q0 211 -185 211
q-118 0 -200 -102q-52 -66 -83.5 -171.5t-31.5 -203.5zM932 1509h184q-29 -153 -131 -238t-272 -85q-154 0 -232 72t-78 184q0 27 7 67h186q3 -57 36 -83.5t105 -26.5q81 0 125 27.5t70 82.5z" />
    <glyph glyph-name="Ohungarumlaut" unicode="&#x150;" horiz-adv-x="1337" 
d="M594 -29q-135 0 -234.5 36.5t-158 104t-86 154.5t-27.5 197q0 267 100 498q44 102 99 180.5t130 141.5t175.5 96.5t222.5 33.5q241 0 372.5 -130.5t131.5 -385.5q0 -161 -66 -377q-170 -549 -659 -549zM375 485q0 -140 55 -202t174 -62q259 0 371 346q55 170 55 312
q0 150 -55.5 217t-179.5 67q-119 0 -201.5 -70.5t-140.5 -209.5q-78 -186 -78 -398zM1551 1905l-359 -361h-211l246 361h324zM1143 1905l-358 -361h-211l246 361h323z" />
    <glyph glyph-name="ohungarumlaut" unicode="&#x151;" horiz-adv-x="1165" 
d="M68 381q0 130 46.5 279.5t147.5 254.5q156 164 418 164q196 0 307 -109t111 -321q0 -74 -18.5 -161.5t-69 -192.5t-123.5 -178q-82 -82 -175 -115t-231 -33q-413 0 -413 412zM334 377q0 -90 40.5 -136t133.5 -46q118 0 203 96q53 62 88 167t35 185q0 211 -185 211
q-118 0 -200 -102q-52 -66 -83.5 -171.5t-31.5 -203.5zM1381 1569l-359 -361h-211l246 361h324zM973 1569l-358 -361h-211l246 361h323z" />
    <glyph glyph-name="OE" unicode="&#x152;" horiz-adv-x="1825" 
d="M821 1413q115 0 242 -29h846l-54 -249h-555l-61 -295h457l-54 -250h-456l-72 -332h555l-53 -258h-803q-110 -29 -219 -29q-135 0 -234.5 36.5t-158 104t-86 154.5t-27.5 197q0 82 11.5 168.5t38 180.5t66 179.5t99.5 163t133 134.5t172 90.5t213 33.5zM600 221
q82 0 133 8.5t111 36.5l180 848q-96 49 -229 49q-75 0 -138.5 -31.5t-108.5 -85.5t-79 -122t-54 -145.5t-30 -151t-10 -142.5q0 -140 53.5 -202t171.5 -62z" />
    <glyph glyph-name="oe" unicode="&#x153;" horiz-adv-x="1837" 
d="M68 381q0 53 8.5 112t29 128t52 133t80.5 123.5t110.5 104t147 71t184.5 26.5q230 0 319 -170q140 170 379 170q404 0 404 -364q0 -53 -15 -125l-26 -133h-686q-8 -35 -8 -86q0 -91 46 -133.5t138 -42.5q87 0 150.5 25t119.5 75l144 -164q-85 -83 -182.5 -122.5
t-254.5 -39.5q-252 0 -344 154q-147 -154 -375 -154q-219 0 -320 105.5t-101 306.5zM334 377q0 -91 40 -136.5t140 -45.5q78 0 142 46.5t101 117t57 145t20 139.5q0 211 -181 211q-77 0 -139.5 -43t-100.5 -113t-58.5 -153t-20.5 -168zM1096 635h426q10 47 10 86
q0 79 -37.5 116t-126.5 37q-129 0 -199 -92q-46 -58 -73 -147z" />
    <glyph glyph-name="Racute" unicode="&#x154;" horiz-adv-x="1257" 
d="M1116 0h-309l-223 524h-160l-111 -524h-276l293 1384h483q239 0 340.5 -76t101.5 -268q0 -94 -41 -198.5t-114 -175.5q-93 -89 -232 -117zM475 770h203q158 0 217 59q32 32 50 84t18 97q0 72 -38.5 100.5t-136.5 28.5h-233zM1176 1905l-355 -361h-215l244 361h326z" />
    <glyph glyph-name="racute" unicode="&#x155;" horiz-adv-x="823" 
d="M920 1042l-101 -247q-38 22 -100 22q-123 0 -291 -135l-143 -682h-252l221 1049h252l-31 -150q174 166 316 166q88 0 129 -23zM982 1569l-355 -361h-215l244 361h326z" />
    <glyph glyph-name="Rcommaaccent" unicode="&#x156;" horiz-adv-x="1257" 
d="M1116 0h-309l-223 524h-160l-111 -524h-276l293 1384h483q239 0 340.5 -76t101.5 -268q0 -94 -41 -198.5t-114 -175.5q-93 -89 -232 -117zM475 770h203q158 0 217 59q32 32 50 84t18 97q0 72 -38.5 100.5t-136.5 28.5h-233zM430 -563h-161q92 92 118 174q-98 6 -98 96
q0 51 22.5 106.5t55.5 80.5q39 32 127 32q125 0 125 -116q0 -92 -49 -187q-54 -101 -140 -186z" />
    <glyph glyph-name="rcommaaccent" unicode="&#x157;" horiz-adv-x="823" 
d="M920 1042l-101 -247q-38 22 -100 22q-123 0 -291 -135l-143 -682h-252l221 1049h252l-31 -150q174 166 316 166q88 0 129 -23zM81 -563h-161q92 92 118 174q-98 6 -98 96q0 51 22.5 106.5t55.5 80.5q39 32 127 32q125 0 125 -116q0 -92 -49 -187q-54 -101 -140 -186z" />
    <glyph glyph-name="Rcaron" unicode="&#x158;" horiz-adv-x="1257" 
d="M1116 0h-309l-223 524h-160l-111 -524h-276l293 1384h483q239 0 340.5 -76t101.5 -268q0 -94 -41 -198.5t-114 -175.5q-93 -89 -232 -117zM475 770h203q158 0 217 59q32 32 50 84t18 97q0 72 -38.5 100.5t-136.5 28.5h-233zM496 1905h201l104 -174l184 174h211l-307 -361
h-239z" />
    <glyph glyph-name="rcaron" unicode="&#x159;" horiz-adv-x="823" 
d="M920 1042l-101 -247q-38 22 -100 22q-123 0 -291 -135l-143 -682h-252l221 1049h252l-31 -150q174 166 316 166q88 0 129 -23zM302 1569h201l104 -174l184 174h211l-307 -361h-239z" />
    <glyph glyph-name="Sacute" unicode="&#x15a;" horiz-adv-x="1204" 
d="M0 229l250 166q41 -86 103.5 -130t183.5 -44q112 0 194 46t82 114q0 56 -13 82.5t-69 57.5t-184 73q-98 32 -160.5 63t-112.5 75.5t-72 105t-22 143.5t37.5 159.5t106 137.5t177 98t240.5 37q169 0 288 -61t200 -185l-248 -168q-42 83 -107 123.5t-174 40.5
q-101 0 -164 -41.5t-63 -113.5q0 -64 53 -100.5t191 -78.5q212 -66 301.5 -161t89.5 -252q0 -199 -163 -322t-429 -123q-408 0 -516 258zM1149 1905l-355 -361h-215l244 361h326z" />
    <glyph glyph-name="sacute" unicode="&#x15b;" horiz-adv-x="1006" 
d="M-6 152l217 135q33 -59 86 -83t127 -24q105 0 156 31t51 84q0 44 -36 71t-153 58q-172 45 -238.5 114t-66.5 189q0 149 120 250.5t335 101.5q140 0 236.5 -43t164.5 -137l-217 -137q-27 50 -81 78t-128 28q-84 0 -128 -32t-44 -68q0 -47 30 -72.5t126 -50.5
q191 -49 264.5 -119t73.5 -192q0 -161 -126 -263t-353 -102q-169 0 -263.5 44.5t-152.5 138.5zM988 1569l-355 -361h-215l244 361h326z" />
    <glyph glyph-name="Scircumflex" unicode="&#x15c;" horiz-adv-x="1204" 
d="M0 229l250 166q41 -86 103.5 -130t183.5 -44q112 0 194 46t82 114q0 56 -13 82.5t-69 57.5t-184 73q-98 32 -160.5 63t-112.5 75.5t-72 105t-22 143.5t37.5 159.5t106 137.5t177 98t240.5 37q169 0 288 -61t200 -185l-248 -168q-42 83 -107 123.5t-174 40.5
q-101 0 -164 -41.5t-63 -113.5q0 -64 53 -100.5t191 -78.5q212 -66 301.5 -161t89.5 -252q0 -199 -163 -322t-429 -123q-408 0 -516 258zM1131 1544h-201l-105 174l-184 -174h-211l307 361h240z" />
    <glyph glyph-name="scircumflex" unicode="&#x15d;" horiz-adv-x="1006" 
d="M-6 152l217 135q33 -59 86 -83t127 -24q105 0 156 31t51 84q0 44 -36 71t-153 58q-172 45 -238.5 114t-66.5 189q0 149 120 250.5t335 101.5q140 0 236.5 -43t164.5 -137l-217 -137q-27 50 -81 78t-128 28q-84 0 -128 -32t-44 -68q0 -47 30 -72.5t126 -50.5
q191 -49 264.5 -119t73.5 -192q0 -161 -126 -263t-353 -102q-169 0 -263.5 44.5t-152.5 138.5zM964 1208h-201l-105 174l-184 -174h-211l307 361h240z" />
    <glyph glyph-name="Scedilla" unicode="&#x15e;" horiz-adv-x="1204" 
d="M696 -178q0 -109 -83.5 -163t-235.5 -54q-140 0 -250 55l90 135q87 -45 172 -45q51 0 83 14t32 43q0 60 -158 66l76 102q-330 32 -422 254l250 166q41 -86 103.5 -130t183.5 -44q112 0 194 46t82 114q0 56 -13 82.5t-69 57.5t-184 73q-98 32 -160.5 63t-112.5 75.5
t-72 105t-22 143.5t37.5 159.5t106 137.5t177 98t240.5 37q169 0 288 -61t200 -185l-248 -168q-42 83 -107 123.5t-174 40.5q-101 0 -164 -41.5t-63 -113.5q0 -64 53 -100.5t191 -78.5q212 -66 301.5 -161t89.5 -252q0 -189 -147.5 -310t-393.5 -133l-2 -4q131 -33 131 -147
z" />
    <glyph glyph-name="scedilla" unicode="&#x15f;" horiz-adv-x="1006" 
d="M614 -178q0 -109 -83 -163t-236 -54q-140 0 -250 55l90 135q87 -45 172 -45q51 0 83 14t32 43q0 64 -158 70l72 94q-133 9 -212.5 53.5t-129.5 127.5l217 135q33 -59 86 -83t127 -24q105 0 156 31t51 84q0 44 -36 71t-153 58q-172 45 -238.5 114t-66.5 189
q0 149 120 250.5t335 101.5q140 0 236.5 -43t164.5 -137l-217 -137q-27 50 -81 78t-128 28q-84 0 -128 -32t-44 -68q0 -47 30 -72.5t126 -50.5q191 -49 264.5 -119t73.5 -192q0 -147 -105.5 -245t-298.5 -116l-2 -4q131 -33 131 -147z" />
    <glyph glyph-name="Scaron" unicode="&#x160;" horiz-adv-x="1204" 
d="M0 229l250 166q41 -86 103.5 -130t183.5 -44q112 0 194 46t82 114q0 56 -13 82.5t-69 57.5t-184 73q-98 32 -160.5 63t-112.5 75.5t-72 105t-22 143.5t37.5 159.5t106 137.5t177 98t240.5 37q169 0 288 -61t200 -185l-248 -168q-42 83 -107 123.5t-174 40.5
q-101 0 -164 -41.5t-63 -113.5q0 -64 53 -100.5t191 -78.5q212 -66 301.5 -161t89.5 -252q0 -199 -163 -322t-429 -123q-408 0 -516 258zM508 1905h201l104 -174l184 174h211l-307 -361h-239z" />
    <glyph glyph-name="scaron" unicode="&#x161;" horiz-adv-x="1006" 
d="M-6 152l217 135q33 -59 86 -83t127 -24q105 0 156 31t51 84q0 44 -36 71t-153 58q-172 45 -238.5 114t-66.5 189q0 149 120 250.5t335 101.5q140 0 236.5 -43t164.5 -137l-217 -137q-27 50 -81 78t-128 28q-84 0 -128 -32t-44 -68q0 -47 30 -72.5t126 -50.5
q191 -49 264.5 -119t73.5 -192q0 -161 -126 -263t-353 -102q-169 0 -263.5 44.5t-152.5 138.5zM347 1569h201l104 -174l184 174h211l-307 -361h-239z" />
    <glyph glyph-name="uni0162" unicode="&#x162;" horiz-adv-x="1180" 
d="M651 -178q0 -109 -83.5 -163t-235.5 -54q-140 0 -250 55l90 135q87 -45 172 -45q51 0 83 14t32 43q0 64 -158 70l88 123h-47l238 1126h-418l55 258h1112l-55 -258h-418l-238 -1126h-81l-17 -23q55 -14 93 -52.5t38 -102.5z" />
    <glyph glyph-name="uni0163" unicode="&#x163;" horiz-adv-x="725" 
d="M508 -178q0 -109 -83.5 -163t-236.5 -54q-139 0 -249 55l90 135q87 -45 172 -45q51 0 82.5 14t31.5 43q0 64 -157 70l82 117q-134 49 -134 223q0 55 17 131l104 496h-129l43 205h129l64 292h254l-64 -292h240l-43 -205h-240l-104 -494q-10 -44 -10 -78q0 -90 77 -90
q87 0 156 25v-207q-80 -25 -199 -31q107 -40 107 -147z" />
    <glyph glyph-name="Tcaron" unicode="&#x164;" horiz-adv-x="1180" 
d="M1274 1126h-418l-238 -1126h-276l238 1126h-418l55 258h1112zM516 1905h201l104 -174l184 174h211l-307 -361h-239z" />
    <glyph glyph-name="tcaron" unicode="&#x165;" horiz-adv-x="725" 
d="M600 207v-207q-99 -31 -213 -31q-281 0 -281 248q0 55 17 131l104 496h-129l43 205h129l64 292h254l-64 -292h240l-43 -205h-240l-104 -494q-10 -44 -10 -78q0 -90 77 -90q87 0 156 25zM1027 1489l-225 -361h-170l119 361h276z" />
    <glyph glyph-name="Tbar" unicode="&#x166;" horiz-adv-x="1180" 
d="M952 672h-192l-142 -672h-276l141 672h-192l39 184h192l58 270h-418l55 258h1112l-55 -258h-418l-57 -270h192z" />
    <glyph glyph-name="tbar" unicode="&#x167;" horiz-adv-x="725" 
d="M670 537h-254l-39 -187q-10 -44 -10 -78q0 -90 77 -90q87 0 156 25v-207q-99 -31 -213 -31q-281 0 -281 248q0 55 17 131l39 189h-150l39 184h150l26 123h-129l43 205h129l64 292h254l-64 -292h240l-43 -205h-240l-26 -123h254z" />
    <glyph glyph-name="Utilde" unicode="&#x168;" horiz-adv-x="1409" 
d="M1444 1384l-176 -833q-35 -165 -90.5 -277.5t-138 -179.5t-185.5 -96t-242 -29q-236 0 -355.5 101.5t-119.5 312.5q0 101 27 219l166 782h276l-166 -786q-22 -99 -22 -199q0 -98 54 -139t165 -41q74 0 127 16t99.5 57.5t79 115.5t56.5 186l168 790h277zM669 1567h-178
q80 317 311 317q48 0 87.5 -14.5t63.5 -35t44 -41.5t40 -35.5t40 -14.5q41 0 63 31.5t39 95.5h178q-37 -153 -110.5 -237.5t-200.5 -84.5q-52 0 -92.5 15t-64 36.5t-42 43t-37.5 36.5t-40 15q-37 0 -58.5 -31t-42.5 -96z" />
    <glyph glyph-name="utilde" unicode="&#x169;" 
d="M248 1049h252l-123 -578q-23 -110 -23 -168t21.5 -82t68.5 -24q126 0 318 151l147 701h252l-221 -1049h-252l29 135q-190 -166 -359 -166q-74 0 -128 20t-83.5 56t-43 79t-13.5 95q0 86 19 168zM489 1231h-178q80 317 311 317q48 0 87.5 -14.5t63.5 -35t44 -41.5
t40 -35.5t40 -14.5q41 0 63 31.5t39 95.5h178q-37 -153 -110.5 -237.5t-200.5 -84.5q-52 0 -92.5 15t-64 36.5t-42 43t-37.5 36.5t-40 15q-37 0 -58.5 -31t-42.5 -96z" />
    <glyph glyph-name="Umacron" unicode="&#x16a;" horiz-adv-x="1409" 
d="M1444 1384l-176 -833q-35 -165 -90.5 -277.5t-138 -179.5t-185.5 -96t-242 -29q-236 0 -355.5 101.5t-119.5 312.5q0 101 27 219l166 782h276l-166 -786q-22 -99 -22 -199q0 -98 54 -139t165 -41q74 0 127 16t99.5 57.5t79 115.5t56.5 186l168 790h277zM1251 1591h-659
l39 185h659z" />
    <glyph glyph-name="umacron" unicode="&#x16b;" 
d="M248 1049h252l-123 -578q-23 -110 -23 -168t21.5 -82t68.5 -24q126 0 318 151l147 701h252l-221 -1049h-252l29 135q-190 -166 -359 -166q-74 0 -128 20t-83.5 56t-43 79t-13.5 95q0 86 19 168zM1067 1255h-659l39 185h659z" />
    <glyph glyph-name="Ubreve" unicode="&#x16c;" horiz-adv-x="1409" 
d="M1444 1384l-176 -833q-35 -165 -90.5 -277.5t-138 -179.5t-185.5 -96t-242 -29q-236 0 -355.5 101.5t-119.5 312.5q0 101 27 219l166 782h276l-166 -786q-22 -99 -22 -199q0 -98 54 -139t165 -41q74 0 127 16t99.5 57.5t79 115.5t56.5 186l168 790h277zM1118 1845h184
q-29 -153 -131 -238t-272 -85q-154 0 -232 72t-78 184q0 27 7 67h186q3 -57 36 -83.5t105 -26.5q81 0 125 27.5t70 82.5z" />
    <glyph glyph-name="ubreve" unicode="&#x16d;" 
d="M248 1049h252l-123 -578q-23 -110 -23 -168t21.5 -82t68.5 -24q126 0 318 151l147 701h252l-221 -1049h-252l29 135q-190 -166 -359 -166q-74 0 -128 20t-83.5 56t-43 79t-13.5 95q0 86 19 168zM932 1509h184q-29 -153 -131 -238t-272 -85q-154 0 -232 72t-78 184
q0 27 7 67h186q3 -57 36 -83.5t105 -26.5q81 0 125 27.5t70 82.5z" />
    <glyph glyph-name="Uring" unicode="&#x16e;" horiz-adv-x="1409" 
d="M1444 1384l-176 -833q-35 -165 -90.5 -277.5t-138 -179.5t-185.5 -96t-242 -29q-236 0 -355.5 101.5t-119.5 312.5q0 101 27 219l166 782h276l-166 -786q-22 -99 -22 -199q0 -98 54 -139t165 -41q74 0 127 16t99.5 57.5t79 115.5t56.5 186l168 790h277zM1134 1735
q0 -42 -16 -83.5t-45.5 -78t-79 -59.5t-109.5 -23q-97 0 -140.5 47t-43.5 141q0 91 66.5 164.5t183.5 73.5q91 0 137.5 -47.5t46.5 -134.5zM897 1614q50 0 79 33.5t29 85.5q0 61 -69 61q-48 0 -77.5 -32t-29.5 -85q0 -63 68 -63z" />
    <glyph glyph-name="uring" unicode="&#x16f;" 
d="M248 1049h252l-123 -578q-23 -110 -23 -168t21.5 -82t68.5 -24q126 0 318 151l147 701h252l-221 -1049h-252l29 135q-190 -166 -359 -166q-74 0 -128 20t-83.5 56t-43 79t-13.5 95q0 86 19 168zM970 1399q0 -42 -16 -83.5t-45.5 -78t-79 -59.5t-109.5 -23
q-97 0 -140.5 47t-43.5 141q0 91 66.5 164.5t183.5 73.5q91 0 137.5 -47.5t46.5 -134.5zM733 1278q50 0 79 33.5t29 85.5q0 61 -69 61q-48 0 -77.5 -32t-29.5 -85q0 -63 68 -63z" />
    <glyph glyph-name="Uhungarumlaut" unicode="&#x170;" horiz-adv-x="1409" 
d="M1444 1384l-176 -833q-35 -165 -90.5 -277.5t-138 -179.5t-185.5 -96t-242 -29q-236 0 -355.5 101.5t-119.5 312.5q0 101 27 219l166 782h276l-166 -786q-22 -99 -22 -199q0 -98 54 -139t165 -41q74 0 127 16t99.5 57.5t79 115.5t56.5 186l168 790h277zM1571 1905
l-359 -361h-211l246 361h324zM1163 1905l-358 -361h-211l246 361h323z" />
    <glyph glyph-name="uhungarumlaut" unicode="&#x171;" 
d="M248 1049h252l-123 -578q-23 -110 -23 -168t21.5 -82t68.5 -24q126 0 318 151l147 701h252l-221 -1049h-252l29 135q-190 -166 -359 -166q-74 0 -128 20t-83.5 56t-43 79t-13.5 95q0 86 19 168zM1352 1569l-359 -361h-211l246 361h324zM944 1569l-358 -361h-211l246 361
h323z" />
    <glyph glyph-name="Uogonek" unicode="&#x172;" horiz-adv-x="1409" 
d="M920 -174l57 -158q-123 -63 -229 -63q-104 0 -152.5 39t-48.5 125q0 110 84 200h-19q-236 0 -355.5 101.5t-119.5 312.5q0 101 27 219l166 782h276l-166 -786q-22 -99 -22 -199q0 -98 54 -139t165 -41q74 0 127 16t99.5 57.5t79 115.5t56.5 186l168 790h277l-176 -833
q-48 -223 -133.5 -350.5t-221.5 -182.5q-147 -60 -147 -180q0 -20 13 -31.5t34 -11.5q54 0 107 31z" />
    <glyph glyph-name="uogonek" unicode="&#x173;" 
d="M905 -174l58 -158q-123 -63 -230 -63q-103 0 -152 39t-49 125q0 65 41.5 125.5t114.5 107.5l29 133q-190 -166 -359 -166q-74 0 -128 20t-83.5 56t-43 79t-13.5 95q0 86 19 168l139 662h252l-123 -578q-23 -110 -23 -168t21.5 -82t68.5 -24q126 0 318 151l147 701h252
l-221 -1049q-188 -53 -188 -162q0 -20 13 -31.5t34 -11.5q53 0 106 31z" />
    <glyph glyph-name="Wcircumflex" unicode="&#x174;" horiz-adv-x="1796" 
d="M1937 1384l-645 -1384h-282l-33 915l-424 -915h-279l-49 1384h269l26 -909l414 909h274l33 -909l416 909h280zM1444 1544h-201l-105 174l-184 -174h-211l307 361h240z" />
    <glyph glyph-name="wcircumflex" unicode="&#x175;" horiz-adv-x="1534" 
d="M1618 1049l-496 -1049h-231l-90 668l-373 -668h-231l-60 1049h252l17 -676l372 676h191l92 -670l295 670h262zM1244 1208h-201l-105 174l-184 -174h-211l307 361h240z" />
    <glyph glyph-name="Ycircumflex" unicode="&#x176;" horiz-adv-x="1163" 
d="M1329 1384l-608 -856l-111 -528h-278l110 522l-241 862h284l142 -589l393 589h309zM1106 1544h-201l-105 174l-184 -174h-211l307 361h240z" />
    <glyph glyph-name="ycircumflex" unicode="&#x177;" horiz-adv-x="1063" 
d="M-205 -358l88 217q76 -29 152 -29q59 0 112 43.5t119 153.5l37 61l-166 961h252l103 -676l387 676h270l-680 -1121q-106 -178 -205 -250.5t-258 -72.5q-84 0 -211 37zM984 1208h-201l-105 174l-184 -174h-211l307 361h240z" />
    <glyph glyph-name="Ydieresis" unicode="&#x178;" horiz-adv-x="1163" 
d="M1329 1384l-608 -856l-111 -528h-278l110 522l-241 862h284l142 -589l393 589h309zM698 1677q0 -51 -20 -90q-21 -41 -57 -58t-95 -17q-63 0 -88 20t-25 64q0 43 17 86q18 45 54 64.5t97 19.5q62 0 89.5 -21.5t27.5 -67.5zM1124 1677q0 -51 -20 -90q-21 -41 -57 -58
t-95 -17q-63 0 -88 20t-25 64q0 43 17 86q18 45 54 64.5t97 19.5q62 0 89.5 -21.5t27.5 -67.5z" />
    <glyph glyph-name="Zacute" unicode="&#x179;" horiz-adv-x="1124" 
d="M930 0h-969l47 238l795 888h-576l56 258h923l-47 -227l-805 -899h629zM1137 1903l-355 -361h-215l244 361h326z" />
    <glyph glyph-name="zacute" unicode="&#x17a;" horiz-adv-x="911" 
d="M743 0h-796l37 188l606 656h-455l43 205h772l-39 -187l-608 -657h483zM980 1569l-355 -361h-215l244 361h326z" />
    <glyph glyph-name="Zdotaccent" unicode="&#x17b;" horiz-adv-x="1124" 
d="M930 0h-969l47 238l795 888h-576l56 258h923l-47 -227l-805 -899h629zM884 1716q0 -62 -28 -108q-40 -70 -150 -70q-116 0 -116 80q0 58 22 102q39 80 150 80q65 0 93.5 -20t28.5 -64z" />
    <glyph glyph-name="zdotaccent" unicode="&#x17c;" horiz-adv-x="911" 
d="M743 0h-796l37 188l606 656h-455l43 205h772l-39 -187l-608 -657h483zM728 1382q0 -62 -28 -108q-40 -70 -150 -70q-116 0 -116 80q0 58 22 102q39 80 150 80q65 0 93.5 -20t28.5 -64z" />
    <glyph glyph-name="Zcaron" unicode="&#x17d;" horiz-adv-x="1124" 
d="M930 0h-969l47 238l795 888h-576l56 258h923l-47 -227l-805 -899h629zM436 1903h201l104 -174l184 174h211l-307 -361h-239z" />
    <glyph glyph-name="zcaron" unicode="&#x17e;" horiz-adv-x="911" 
d="M743 0h-796l37 188l606 656h-455l43 205h772l-39 -187l-608 -657h483zM280 1569h201l104 -174l184 174h211l-307 -361h-239z" />
    <glyph glyph-name="longs" unicode="&#x17f;" horiz-adv-x="586" 
d="M934 1485l-92 -219q-63 28 -129 28q-72 0 -109 -32.5t-53 -110.5l-244 -1151h-254l178 844h-98l43 205h98l23 102q38 185 135.5 277t290.5 92q118 0 211 -35z" />
    <glyph glyph-name="florin" unicode="&#x192;" horiz-adv-x="1255" 
d="M1227 1489l-90 -227q-102 32 -168 32q-74 0 -111 -32.5t-51 -110.5l-21 -102h203l-39 -205h-202l-170 -871q-37 -183 -141.5 -275.5t-291.5 -92.5q-155 0 -245 30l90 230q107 -35 168 -35q75 0 110 32t51 111l170 871h-133l39 205h133l21 102q37 184 140.5 276.5
t291.5 92.5q150 0 246 -31z" />
    <glyph glyph-name="Ohorn" unicode="&#x1a0;" horiz-adv-x="1524" 
d="M594 -29q-135 0 -234.5 36.5t-158 104t-86 154.5t-27.5 197q0 267 100 498q44 102 99 180.5t130 141.5t175.5 96.5t222.5 33.5q374 0 471 -297h17q83 0 124.5 39.5t59.5 128.5l31 162h211l-31 -162q-35 -189 -119.5 -264.5t-239.5 -75.5h-22q2 -11 2 -47q0 -161 -66 -377
q-170 -549 -659 -549zM375 485q0 -140 55 -202t174 -62q259 0 371 346q55 170 55 312q0 150 -55.5 217t-179.5 67q-119 0 -201.5 -70.5t-140.5 -209.5q-78 -186 -78 -398z" />
    <glyph glyph-name="ohorn" unicode="&#x1a1;" horiz-adv-x="1321" 
d="M68 381q0 55 7.5 113.5t27.5 128t50 133t79 123.5t110.5 103.5t148.5 70t189 26.5q303 0 387 -237q72 5 110 44.5t54 123.5l22 120h211l-22 -120q-31 -163 -113.5 -247.5t-230.5 -92.5v-33q0 -46 -8.5 -100.5t-29 -120t-51 -127t-79.5 -120.5t-110 -103t-146.5 -70.5
t-184.5 -26.5q-219 0 -320 105.5t-101 306.5zM334 377q0 -90 40.5 -136t133.5 -46q66 0 121.5 31t92.5 79.5t63 109t37.5 119t11.5 109.5q0 211 -185 211q-76 0 -138 -43t-99.5 -113t-57.5 -153t-20 -168z" />
    <glyph glyph-name="Uhorn" unicode="&#x1af;" horiz-adv-x="1626" 
d="M1444 1384l-58 -268h19q83 0 125.5 40t58.5 128l31 162h211l-31 -162q-33 -173 -124 -256.5t-259 -83.5h-67l-82 -393q-35 -165 -90.5 -277.5t-138 -179.5t-185.5 -96t-242 -29q-236 0 -355.5 101.5t-119.5 312.5q0 101 27 219l166 782h276l-166 -786q-22 -99 -22 -199
q0 -98 54 -139t165 -41q74 0 127 16t99.5 57.5t79 115.5t56.5 186l168 790h277z" />
    <glyph glyph-name="uhorn" unicode="&#x1b0;" horiz-adv-x="1393" 
d="M248 1049h252l-123 -578q-23 -110 -23 -168t21.5 -82t68.5 -24q126 0 318 151l147 701h252l-45 -207h21q71 0 110 40t56 128l22 120h211l-23 -120q-32 -174 -125.5 -257t-273.5 -83h-33l-141 -670h-252l29 135q-190 -166 -359 -166q-74 0 -128 20t-83.5 56t-43 79
t-13.5 95q0 86 19 168z" />
    <glyph glyph-name="Acaron" unicode="&#x1cd;" horiz-adv-x="1311" 
d="M201 0h-283l739 1384h361l156 -1384h-273l-31 281h-518zM784 1100l-303 -572h363zM586 1905h201l104 -174l185 174h210l-307 -361h-239z" />
    <glyph glyph-name="acaron" unicode="&#x1ce;" 
d="M66 344q0 80 16 164t46 166.5t77.5 155.5t106.5 128.5t137 88t165 32.5q180 0 279 -108l16 78h250l-219 -1049h-211l6 129q-104 -89 -182 -124.5t-168 -35.5q-319 0 -319 375zM758 326l90 432q-35 39 -89 66.5t-112 27.5q-75 0 -137 -47.5t-98.5 -120.5t-56 -152
t-19.5 -151q0 -96 32 -140t101 -44q125 0 289 129zM389 1569h201l104 -174l184 174h211l-307 -361h-239z" />
    <glyph glyph-name="Icaron" unicode="&#x1cf;" horiz-adv-x="854" 
d="M688 217l-45 -217h-653l45 217h188l203 950h-188l45 217h653l-45 -217h-189l-202 -950h188zM352 1905h201l104 -174l185 174h210l-307 -361h-239z" />
    <glyph glyph-name="icaron" unicode="&#x1d0;" horiz-adv-x="539" 
d="M285 0h-252l221 1049h252zM132 1569h201l104 -174l184 174h211l-307 -361h-239z" />
    <glyph glyph-name="Ocaron" unicode="&#x1d1;" horiz-adv-x="1337" 
d="M594 -29q-135 0 -234.5 36.5t-158 104t-86 154.5t-27.5 197q0 267 100 498q44 102 99 180.5t130 141.5t175.5 96.5t222.5 33.5q241 0 372.5 -130.5t131.5 -385.5q0 -161 -66 -377q-170 -549 -659 -549zM375 485q0 -140 55 -202t174 -62q259 0 371 346q55 170 55 312
q0 150 -55.5 217t-179.5 67q-119 0 -201.5 -70.5t-140.5 -209.5q-78 -186 -78 -398zM569 1905h201l104 -174l185 174h210l-307 -361h-239z" />
    <glyph glyph-name="ocaron" unicode="&#x1d2;" horiz-adv-x="1165" 
d="M68 381q0 130 46.5 279.5t147.5 254.5q156 164 418 164q196 0 307 -109t111 -321q0 -74 -18.5 -161.5t-69 -192.5t-123.5 -178q-82 -82 -175 -115t-231 -33q-413 0 -413 412zM334 377q0 -90 40.5 -136t133.5 -46q118 0 203 96q53 62 88 167t35 185q0 211 -185 211
q-118 0 -200 -102q-52 -66 -83.5 -171.5t-31.5 -203.5zM422 1569h201l104 -174l184 174h211l-307 -361h-239z" />
    <glyph glyph-name="Ucaron" unicode="&#x1d3;" horiz-adv-x="1409" 
d="M1444 1384l-176 -833q-35 -165 -90.5 -277.5t-138 -179.5t-185.5 -96t-242 -29q-236 0 -355.5 101.5t-119.5 312.5q0 101 27 219l166 782h276l-166 -786q-22 -99 -22 -199q0 -98 54 -139t165 -41q74 0 127 16t99.5 57.5t79 115.5t56.5 186l168 790h277zM623 1905h201
l104 -174l185 174h210l-307 -361h-239z" />
    <glyph glyph-name="ucaron" unicode="&#x1d4;" 
d="M248 1049h252l-123 -578q-23 -110 -23 -168t21.5 -82t68.5 -24q126 0 318 151l147 701h252l-221 -1049h-252l29 135q-190 -166 -359 -166q-74 0 -128 20t-83.5 56t-43 79t-13.5 95q0 86 19 168zM444 1569h201l104 -174l184 174h211l-307 -361h-239z" />
    <glyph glyph-name="Udieresismacron" unicode="&#x1d5;" horiz-adv-x="1409" 
d="M1444 1384l-176 -833q-35 -165 -90.5 -277.5t-138 -179.5t-185.5 -96t-242 -29q-236 0 -355.5 101.5t-119.5 312.5q0 101 27 219l166 782h276l-166 -786q-22 -99 -22 -199q0 -98 54 -139t165 -41q74 0 127 16t99.5 57.5t79 115.5t56.5 186l168 790h277zM849 1636
q0 -51 -20 -90q-21 -41 -57.5 -58.5t-94.5 -17.5q-62 0 -87 20.5t-25 63.5t16 86q18 46 54 65t98 19t89 -21t27 -67zM1275 1636q0 -51 -20 -90q-21 -41 -57.5 -58.5t-94.5 -17.5q-62 0 -87 20.5t-25 63.5t16 86q18 46 54 65t98 19t89 -21t27 -67zM1286 1794h-660l39 184h660
z" />
    <glyph glyph-name="udieresismacron" unicode="&#x1d6;" 
d="M248 1049h252l-123 -578q-23 -110 -23 -168t21.5 -82t68.5 -24q126 0 318 151l147 701h252l-221 -1049h-252l29 135q-190 -166 -359 -166q-74 0 -128 20t-83.5 56t-43 79t-13.5 95q0 86 19 168zM670 1300q0 -49 -21 -90q-20 -41 -56 -58t-95 -17q-63 0 -88 20t-25 64
q0 43 17 86q18 45 54 64.5t97 19.5q62 0 89.5 -21.5t27.5 -67.5zM1096 1300q0 -49 -21 -90q-20 -41 -56 -58t-95 -17q-63 0 -88 20t-25 64q0 43 17 86q18 45 54 64.5t97 19.5q62 0 89.5 -21.5t27.5 -67.5zM1106 1458h-659l39 184h659z" />
    <glyph glyph-name="Udieresisacute" unicode="&#x1d7;" horiz-adv-x="1409" 
d="M1444 1384l-176 -833q-35 -165 -90.5 -277.5t-138 -179.5t-185.5 -96t-242 -29q-236 0 -355.5 101.5t-119.5 312.5q0 101 27 219l166 782h276l-166 -786q-22 -99 -22 -199q0 -98 54 -139t165 -41q74 0 127 16t99.5 57.5t79 115.5t56.5 186l168 790h277zM1331 2048
l-277 -291h-192l166 291h303zM858 1636q0 -49 -21 -90t-57 -58.5t-94 -17.5q-63 0 -88 20t-25 64t17 86q18 46 53.5 65t97.5 19t89.5 -21t27.5 -67zM1284 1636q0 -49 -21 -90t-57 -58.5t-94 -17.5q-63 0 -88 20t-25 64t17 86q18 46 53.5 65t97.5 19t89.5 -21t27.5 -67z" />
    <glyph glyph-name="udieresisacute" unicode="&#x1d8;" 
d="M248 1049h252l-123 -578q-23 -110 -23 -168t21.5 -82t68.5 -24q126 0 318 151l147 701h252l-221 -1049h-252l29 135q-190 -166 -359 -166q-74 0 -128 20t-83.5 56t-43 79t-13.5 95q0 86 19 168zM1145 1712l-276 -291h-193l166 291h303zM672 1300q0 -51 -20 -90
q-21 -41 -57 -58t-95 -17q-62 0 -87 20t-25 64q0 42 16 86q18 45 54 64.5t97 19.5q62 0 89.5 -21.5t27.5 -67.5zM1098 1300q0 -51 -20 -90q-21 -41 -57 -58t-95 -17q-63 0 -88 20t-25 64q0 39 17 86q18 45 54 64.5t97 19.5q62 0 89.5 -21.5t27.5 -67.5z" />
    <glyph glyph-name="Udieresiscaron" unicode="&#x1d9;" horiz-adv-x="1409" 
d="M1444 1384l-176 -833q-35 -165 -90.5 -277.5t-138 -179.5t-185.5 -96t-242 -29q-236 0 -355.5 101.5t-119.5 312.5q0 101 27 219l166 782h276l-166 -786q-22 -99 -22 -199q0 -98 54 -139t165 -41q74 0 127 16t99.5 57.5t79 115.5t56.5 186l168 790h277zM854 1636
q0 -49 -21 -90t-57 -58.5t-94 -17.5q-63 0 -88 20t-25 64t17 86q18 46 53.5 65t97.5 19t89.5 -21t27.5 -67zM1280 1636q0 -49 -21 -90t-57 -58.5t-94 -17.5q-63 0 -88 20t-25 64t17 86q18 46 53.5 65t97.5 19t89.5 -21t27.5 -67zM678 2048h200l103 -133l186 133h211
l-303 -289h-240z" />
    <glyph glyph-name="udieresiscaron" unicode="&#x1da;" 
d="M248 1049h252l-123 -578q-23 -110 -23 -168t21.5 -82t68.5 -24q126 0 318 151l147 701h252l-221 -1049h-252l29 135q-190 -166 -359 -166q-74 0 -128 20t-83.5 56t-43 79t-13.5 95q0 86 19 168zM655 1300q0 -51 -20 -90q-21 -41 -57 -58t-95 -17q-62 0 -87 20t-25 64
q0 42 16 86q18 45 54 64.5t97 19.5q62 0 89.5 -21.5t27.5 -67.5zM1081 1300q0 -51 -20 -90q-21 -41 -57 -58t-95 -17q-63 0 -88 20t-25 64q0 39 17 86q18 45 54 64.5t97 19.5q62 0 89.5 -21.5t27.5 -67.5zM479 1712h201l102 -133l187 133h210l-303 -289h-239z" />
    <glyph glyph-name="Udieresisgrave" unicode="&#x1db;" horiz-adv-x="1409" 
d="M1444 1384l-176 -833q-35 -165 -90.5 -277.5t-138 -179.5t-185.5 -96t-242 -29q-236 0 -355.5 101.5t-119.5 312.5q0 101 27 219l166 782h276l-166 -786q-22 -99 -22 -199q0 -98 54 -139t165 -41q74 0 127 16t99.5 57.5t79 115.5t56.5 186l168 790h277zM1050 1757h-174
l-170 291h283zM856 1636q0 -49 -21 -90t-57 -58.5t-94 -17.5q-63 0 -88 20t-25 64t17 86q18 46 53.5 65t97.5 19t89.5 -21t27.5 -67zM1282 1636q0 -49 -21 -90t-57 -58.5t-94 -17.5q-63 0 -88 20t-25 64t17 86q18 46 53.5 65t97.5 19t89.5 -21t27.5 -67z" />
    <glyph glyph-name="udieresisgrave" unicode="&#x1dc;" 
d="M248 1049h252l-123 -578q-23 -110 -23 -168t21.5 -82t68.5 -24q126 0 318 151l147 701h252l-221 -1049h-252l29 135q-190 -166 -359 -166q-74 0 -128 20t-83.5 56t-43 79t-13.5 95q0 86 19 168zM860 1421h-174l-170 291h282zM665 1300q0 -51 -20 -90q-21 -41 -57 -58
t-95 -17q-62 0 -87 20t-25 64q0 42 16 86q18 45 54 64.5t97 19.5q62 0 89.5 -21.5t27.5 -67.5zM1091 1300q0 -51 -20 -90q-21 -41 -57 -58t-95 -17q-63 0 -88 20t-25 64q0 39 17 86q18 45 54 64.5t97 19.5q62 0 89.5 -21.5t27.5 -67.5z" />
    <glyph glyph-name="Aringacute" unicode="&#x1fa;" horiz-adv-x="1311" 
d="M1071 1513q0 -79 -51 -149l154 -1364h-273l-31 281h-518l-151 -281h-283l731 1370q-12 38 -12 88q0 91 66.5 164.5t183.5 73.5q91 0 137.5 -48t46.5 -135zM784 1100l-303 -572h363zM1280 2028l-297 -279h-205l187 279h315zM834 1393q50 0 79 34t29 84q0 30 -18.5 46
t-51.5 16q-48 0 -77 -32t-29 -85q0 -63 68 -63z" />
    <glyph glyph-name="aringacute" unicode="&#x1fb;" 
d="M66 344q0 80 16 164t46 166.5t77.5 155.5t106.5 128.5t137 88t165 32.5q180 0 279 -108l16 78h250l-219 -1049h-211l6 129q-104 -89 -182 -124.5t-168 -35.5q-319 0 -319 375zM758 326l90 432q-35 39 -89 66.5t-112 27.5q-75 0 -137 -47.5t-98.5 -120.5t-56 -152
t-19.5 -151q0 -96 32 -140t101 -44q125 0 289 129zM915 1397q0 -42 -16 -83.5t-45.5 -78t-79 -59.5t-109.5 -23q-97 0 -140.5 47t-43.5 141q0 91 66.5 164.5t183.5 73.5q91 0 137.5 -47.5t46.5 -134.5zM678 1276q50 0 79 33.5t29 85.5q0 61 -69 61q-48 0 -77.5 -32
t-29.5 -85q0 -63 68 -63zM1217 1995l-355 -361h-215l244 361h326z" />
    <glyph glyph-name="AEacute" unicode="&#x1fc;" horiz-adv-x="1774" 
d="M1565 0h-832l76 360h-387l-215 -360h-295l833 1384h1113l-54 -249h-555l-61 -295h459l-54 -250h-458l-72 -332h555zM862 608l111 527h-101l-303 -527h293zM1581 1905l-355 -361h-215l244 361h326z" />
    <glyph glyph-name="aeacute" unicode="&#x1fd;" horiz-adv-x="1751" 
d="M1655 457h-686q-8 -35 -8 -86q0 -91 46 -133.5t138 -42.5q87 0 150 24.5t120 75.5l144 -164q-85 -82 -183 -122t-254 -40q-268 0 -358 174q-111 -79 -232 -126.5t-192 -47.5q-164 0 -240.5 71t-76.5 216q0 89 41 161.5t113.5 120.5t163.5 77t198 38l223 21l8 47
q6 32 6 45q0 58 -45 83t-133 25q-165 0 -252 -108l-170 129q139 184 438 184q268 0 351 -121q126 121 327 121q404 0 404 -364q0 -53 -15 -125zM721 342q0 83 14 145l-145 -12q-141 -13 -219 -58.5t-78 -137.5q0 -59 30 -82t89 -23q60 0 148 31t163 86q0 8 -1 24.5t-1 26.5z
M1010 635h426q10 47 10 86q0 79 -37.5 116t-126.5 37q-129 0 -199 -92q-46 -58 -73 -147zM1385 1569l-355 -361h-215l244 361h326z" />
    <glyph glyph-name="Oslashacute" unicode="&#x1fe;" horiz-adv-x="1337" 
d="M109 -115h-215l258 297q-64 108 -64 281q0 82 11.5 168.5t37.5 180.5t64.5 179.5t98 163t132 134.5t171.5 90.5t212 33.5q201 0 326 -92l145 168h215l-252 -289q70 -124 70 -303q0 -60 -9 -132.5t-33 -163t-59.5 -177t-93.5 -169.5t-130.5 -145.5t-176 -100.5t-223.5 -38
q-212 0 -334 88zM604 221q76 0 140.5 30.5t110 82.5t80 118t55 141t30.5 146.5t10 139.5q0 38 -4 65l-584 -674q52 -49 162 -49zM375 485q0 -35 2 -45l581 672q-52 51 -163 51q-75 0 -138.5 -31.5t-108.5 -85.5t-79 -122t-54 -145.5t-30 -151t-10 -142.5zM1247 1905
l-355 -361h-215l244 361h326z" />
    <glyph glyph-name="oslashacute" unicode="&#x1ff;" horiz-adv-x="1165" 
d="M168 -76h-191l160 189q-69 96 -69 268q0 53 8.5 112t29 128t52 133t80.5 123.5t110.5 104t147 71t184.5 26.5q139 0 238 -51l81 96h191l-166 -194q74 -110 74 -293q0 -43 -7.5 -95t-27.5 -117.5t-50 -128t-79 -122.5t-110 -105t-147.5 -72.5t-187.5 -27.5q-145 0 -241 49
zM834 643q0 25 -5 57l-417 -489q36 -16 102 -16q78 0 142 46.5t101 117t57 145t20 139.5zM334 377v-33l416 487q-38 23 -97 23q-77 0 -139.5 -43t-100.5 -113t-58.5 -153t-20.5 -168zM1090 1569l-355 -361h-215l244 361h326z" />
    <glyph glyph-name="Scommaaccent" unicode="&#x218;" horiz-adv-x="1204" 
d="M0 229l250 166q41 -86 103.5 -130t183.5 -44q112 0 194 46t82 114q0 56 -13 82.5t-69 57.5t-184 73q-98 32 -160.5 63t-112.5 75.5t-72 105t-22 143.5t37.5 159.5t106 137.5t177 98t240.5 37q169 0 288 -61t200 -185l-248 -168q-42 83 -107 123.5t-174 40.5
q-101 0 -164 -41.5t-63 -113.5q0 -64 53 -100.5t191 -78.5q212 -66 301.5 -161t89.5 -252q0 -199 -163 -322t-429 -123q-408 0 -516 258zM454 -563h-161q92 92 118 174q-98 6 -98 96q0 51 22.5 106.5t55.5 80.5q39 32 127 32q125 0 125 -116q0 -92 -49 -187
q-54 -101 -140 -186z" />
    <glyph glyph-name="scommaaccent" unicode="&#x219;" horiz-adv-x="1006" 
d="M-6 152l217 135q33 -59 86 -83t127 -24q105 0 156 31t51 84q0 44 -36 71t-153 58q-172 45 -238.5 114t-66.5 189q0 149 120 250.5t335 101.5q140 0 236.5 -43t164.5 -137l-217 -137q-27 50 -81 78t-128 28q-84 0 -128 -32t-44 -68q0 -47 30 -72.5t126 -50.5
q191 -49 264.5 -119t73.5 -192q0 -161 -126 -263t-353 -102q-169 0 -263.5 44.5t-152.5 138.5zM334 -563h-161q92 92 118 174q-98 6 -98 96q0 51 22.5 106.5t55.5 80.5q39 32 127 32q125 0 125 -116q0 -92 -49 -187q-54 -101 -140 -186z" />
    <glyph glyph-name="uni021A" unicode="&#x21a;" horiz-adv-x="1180" 
d="M1274 1126h-418l-238 -1126h-276l238 1126h-418l55 258h1112zM413 -563h-161q92 92 118 174q-98 6 -98 96q0 51 22.5 106.5t55.5 80.5q39 32 127 32q125 0 125 -116q0 -92 -49 -187q-54 -101 -140 -186z" />
    <glyph glyph-name="uni021B" unicode="&#x21b;" horiz-adv-x="725" 
d="M600 207v-207q-99 -31 -213 -31q-281 0 -281 248q0 55 17 131l104 496h-129l43 205h129l64 292h254l-64 -292h240l-43 -205h-240l-104 -494q-10 -44 -10 -78q0 -90 77 -90q87 0 156 25zM268 -563h-161q92 92 118 174q-98 6 -98 96q0 51 22.5 106.5t55.5 80.5
q39 32 127 32q125 0 125 -116q0 -92 -49 -187q-54 -101 -140 -186z" />
    <glyph glyph-name="dotlessj" unicode="&#x237;" horiz-adv-x="551" 
d="M520 1049l-231 -1094q-40 -188 -138.5 -269t-285.5 -81q-119 0 -209 30l100 224q66 -29 144 -29q70 0 97.5 42.5t53.5 164.5l215 1012h254z" />
    <glyph glyph-name="uni02C0" unicode="&#x2c0;" horiz-adv-x="1026" 
d="M479 0h-266l135 647q128 56 207.5 102t124 92t60.5 89.5t16 103.5q0 66 -38.5 97.5t-125.5 31.5q-84 0 -144.5 -36.5t-123.5 -114.5l-201 143q96 130 217.5 190t288.5 60q420 0 420 -338q0 -179 -112 -306.5t-349 -236.5z" />
    <glyph glyph-name="circumflex" unicode="&#x2c6;" horiz-adv-x="1024" 
d="M1006 1208h-201l-105 174l-184 -174h-211l307 361h240z" />
    <glyph glyph-name="caron" unicode="&#x2c7;" horiz-adv-x="1024" 
d="M383 1569h201l104 -174l184 174h211l-307 -361h-239z" />
    <glyph glyph-name="uni02C9" unicode="&#x2c9;" horiz-adv-x="1024" 
d="M997 1255h-659l39 185h659z" />
    <glyph glyph-name="breve" unicode="&#x2d8;" horiz-adv-x="1024" 
d="M891 1509h184q-29 -153 -131 -238t-272 -85q-154 0 -232 72t-78 184q0 27 7 67h186q3 -57 36 -83.5t105 -26.5q81 0 125 27.5t70 82.5z" />
    <glyph glyph-name="dotaccent" unicode="&#x2d9;" horiz-adv-x="1024" 
d="M831 1382q0 -62 -28 -108q-40 -70 -150 -70q-116 0 -116 80q0 58 22 102q39 80 150 80q65 0 93.5 -20t28.5 -64z" />
    <glyph glyph-name="ring" unicode="&#x2da;" horiz-adv-x="1024" 
d="M907 1397q0 -42 -16 -83.5t-45.5 -78t-79 -59.5t-109.5 -23q-97 0 -140.5 47t-43.5 141q0 91 66.5 164.5t183.5 73.5q91 0 137.5 -47.5t46.5 -134.5zM670 1276q50 0 79 33.5t29 85.5q0 61 -69 61q-48 0 -77.5 -32t-29.5 -85q0 -63 68 -63z" />
    <glyph glyph-name="ogonek" unicode="&#x2db;" horiz-adv-x="1024" 
d="M578 -174l57 -158q-123 -63 -229 -63q-104 0 -152.5 39t-48.5 125q0 114 115 193t313 110l74 -72q-153 -33 -218 -71.5t-65 -90.5q0 -20 13 -31.5t34 -11.5q54 0 107 31z" />
    <glyph glyph-name="tilde" unicode="&#x2dc;" horiz-adv-x="1024" 
d="M438 1231h-178q80 317 311 317q48 0 87.5 -14.5t63.5 -35t44 -41.5t40 -35.5t40 -14.5q41 0 63 31.5t39 95.5h178q-37 -153 -110.5 -237.5t-200.5 -84.5q-52 0 -92.5 15t-64 36.5t-42 43t-37.5 36.5t-40 15q-37 0 -58.5 -31t-42.5 -96z" />
    <glyph glyph-name="hungarumlaut" unicode="&#x2dd;" horiz-adv-x="1024" 
d="M1266 1569l-359 -361h-211l246 361h324zM858 1569l-358 -361h-211l246 361h323z" />
    <glyph glyph-name="gravecomb" unicode="&#x300;" horiz-adv-x="0" 
d="M305 1208h-190l-228 361h299z" />
    <glyph glyph-name="acutecomb" unicode="&#x301;" horiz-adv-x="0" 
d="M549 1569l-354 -361h-215l243 361h326z" />
    <glyph glyph-name="uni0302" unicode="&#x302;" horiz-adv-x="0" 
d="M481 1208h-200l-105 174l-184 -174h-211l307 361h240z" />
    <glyph glyph-name="tildecomb" unicode="&#x303;" horiz-adv-x="0" 
d="M-86 1231h-178q80 317 311 317q48 0 87.5 -14.5t63.5 -35t44 -41.5t40 -35.5t40 -14.5q41 0 62.5 31t39.5 96h178q-37 -153 -110.5 -237.5t-200.5 -84.5q-53 0 -93.5 15t-64 36.5t-42 43t-37.5 36.5t-40 15q-37 0 -59 -31.5t-41 -95.5z" />
    <glyph glyph-name="uni0304" unicode="&#x304;" horiz-adv-x="0" 
d="M483 1255h-659l39 185h659z" />
    <glyph glyph-name="uni0306" unicode="&#x306;" horiz-adv-x="0" 
d="M373 1550h184q-29 -153 -131 -238t-272 -85q-154 0 -232 72t-78 184q0 34 6 67h187q3 -57 36 -83.5t105 -26.5q81 0 125 27.5t70 82.5z" />
    <glyph glyph-name="uni0307" unicode="&#x307;" horiz-adv-x="0" 
d="M307 1382q0 -62 -28 -108q-40 -70 -150 -70q-117 0 -117 80q0 59 23 102q39 80 149 80q65 0 94 -20t29 -64z" />
    <glyph glyph-name="uni0308" unicode="&#x308;" horiz-adv-x="0" 
d="M74 1341q0 -49 -21 -90q-20 -41 -56 -58t-95 -17q-63 0 -88 20t-25 64q0 42 16 86q18 45 54.5 64.5t97.5 19.5q62 0 89.5 -21.5t27.5 -67.5zM500 1341q0 -49 -21 -90q-20 -41 -56 -58t-95 -17q-63 0 -88 20t-25 64q0 42 16 86q18 45 54.5 64.5t97.5 19.5q62 0 89.5 -21.5
t27.5 -67.5z" />
    <glyph glyph-name="hookabovecomb" unicode="&#x309;" horiz-adv-x="0" 
d="M35 1382l-62 99q72 57 185 57q99 0 154 -42.5t55 -115.5q0 -161 -183 -178l-8 -41h-127l31 135h14q88 0 88 62q0 49 -65 49q-51 0 -82 -25z" />
    <glyph glyph-name="uni030A" unicode="&#x30a;" horiz-adv-x="0" 
d="M383 1399q0 -95 -66.5 -170.5t-183.5 -75.5q-184 0 -184 178q0 94 66 167t184 73q89 0 136.5 -47t47.5 -125zM145 1272q50 0 79.5 34t29.5 85q0 61 -70 61q-48 0 -77 -32t-29 -85q0 -63 67 -63z" />
    <glyph glyph-name="uni030C" unicode="&#x30c;" horiz-adv-x="0" 
d="M-141 1569h200l105 -174l184 174h211l-307 -361h-240z" />
    <glyph glyph-name="dotbelowcomb" unicode="&#x323;" horiz-adv-x="0" 
d="M143 -201q0 -62 -28 -108q-40 -70 -150 -70q-117 0 -117 80q0 56 23 102q39 80 149 80q65 0 94 -20t29 -64z" />
    <glyph glyph-name="uni0374" unicode="&#x374;" horiz-adv-x="430" 
d="M594 1489l-238 -361h-157l131 361h264z" />
    <glyph glyph-name="uni0375" unicode="&#x375;" horiz-adv-x="430" 
d="M-102 -231l237 360h156l-129 -360h-264z" />
    <glyph glyph-name="uni037E" unicode="&#x37e;" horiz-adv-x="571" 
d="M530 946q0 -73 -30 -129q-25 -46 -66 -67t-106 -21q-71 0 -101 24t-30 74q0 60 26 123q22 51 63 75t109 24q72 0 103.5 -24.5t31.5 -78.5zM141 -293h-172q58 75 106.5 158.5t61.5 124.5q-98 6 -98 94q0 56 22 113q22 53 64 80.5t117 27.5q127 0 127 -119q0 -97 -72 -247
q-63 -130 -156 -232z" />
    <glyph glyph-name="tonos" unicode="&#x384;" horiz-adv-x="494" 
d="M715 1569l-357 -361h-213l248 361h322z" />
    <glyph glyph-name="dieresistonos" unicode="&#x385;" horiz-adv-x="1024" 
d="M637 1569h283l-232 -361h-194zM475 1378q0 -51 -20 -90q-21 -41 -57.5 -58.5t-94.5 -17.5q-63 0 -88 20t-25 64q0 41 17 86q18 46 53.5 65t97.5 19t89.5 -21t27.5 -67zM1147 1378q0 -49 -21 -90t-57 -58.5t-94 -17.5q-63 0 -88 20t-25 64t17 86q18 46 53.5 65t97.5 19
t89.5 -21t27.5 -67z" />
    <glyph glyph-name="Alphatonos" unicode="&#x386;" horiz-adv-x="1311" 
d="M201 0h-283l739 1384h361l156 -1384h-273l-31 281h-518zM784 1100l-303 -572h363zM226 1384h271l-285 -360h-182z" />
    <glyph glyph-name="anoteleia" unicode="&#x387;" horiz-adv-x="571" 
d="M479 801q0 -71 -31 -129q-25 -47 -65.5 -67.5t-106.5 -20.5q-70 0 -100.5 24t-30.5 74q0 61 27 123q21 51 62 74.5t110 23.5q71 0 103 -25t32 -77z" />
    <glyph glyph-name="Epsilontonos" unicode="&#x388;" horiz-adv-x="1311" 
d="M1102 0h-881l293 1384h880l-53 -249h-604l-61 -295h509l-53 -250h-510l-71 -332h604zM197 1384h271l-285 -360h-182z" />
    <glyph glyph-name="Etatonos" unicode="&#x389;" horiz-adv-x="1565" 
d="M1308 0h-276l125 588h-535l-125 -588h-276l293 1384h276l-114 -538h534l115 538h276zM197 1384h271l-285 -360h-182z" />
    <glyph glyph-name="Iotatonos" unicode="&#x38a;" horiz-adv-x="1087" 
d="M921 217l-45 -217h-653l45 217h188l203 950h-188l45 217h653l-45 -217h-189l-202 -950h188zM197 1384h271l-285 -360h-182z" />
    <glyph glyph-name="Omicrontonos" unicode="&#x38c;" horiz-adv-x="1475" 
d="M731 -29q-135 0 -234.5 36.5t-158 104t-86 154.5t-27.5 197q0 267 100 498q44 102 99 180.5t130 141.5t175.5 96.5t222.5 33.5q241 0 372.5 -130.5t131.5 -385.5q0 -161 -66 -377q-170 -549 -659 -549zM512 485q0 -140 55 -202t174 -62q259 0 371 346q55 170 55 312
q0 150 -55.5 217t-179.5 67q-119 0 -201.5 -70.5t-140.5 -209.5q-78 -186 -78 -398zM197 1384h271l-285 -360h-182z" />
    <glyph glyph-name="Upsilontonos" unicode="&#x38e;" horiz-adv-x="1438" 
d="M1603 1384l-608 -856l-111 -528h-278l110 522l-241 862h284l142 -589l393 589h309zM197 1384h271l-285 -360h-182z" />
    <glyph glyph-name="Omegatonos" unicode="&#x38f;" horiz-adv-x="1503" 
d="M969 1413q265 0 394.5 -114.5t129.5 -327.5q0 -126 -47.5 -293t-118.5 -254q-71 -90 -213 -143l-8 -31h242l-51 -250h-490l84 401q118 18 188 117q66 89 99 242q24 119 24 176q-4 122 -60 174.5t-183 52.5q-106 0 -166.5 -30t-114.5 -103q-26 -36 -52 -98t-40 -123
q-35 -152 -35 -236t33 -125t119 -47l-84 -401h-486l51 250h248l8 31q-180 88 -180 313q0 162 57.5 328t149.5 278q177 213 502 213zM197 1384h271l-285 -360h-182z" />
    <glyph glyph-name="iotadieresistonos" unicode="&#x390;" horiz-adv-x="668" 
d="M526 195l17 -195q-116 -31 -226 -31q-237 0 -237 228q0 63 18 143l148 709h252l-150 -711q-12 -56 -12 -88q0 -39 18 -56.5t60 -17.5q57 0 112 19zM390 1569h283l-232 -361h-194zM228 1378q0 -51 -20 -90q-21 -41 -57.5 -58.5t-94.5 -17.5q-63 0 -88 20t-25 64
q0 41 17 86q18 46 53.5 65t97.5 19t89.5 -21t27.5 -67zM900 1378q0 -49 -21 -90t-57 -58.5t-94 -17.5q-63 0 -88 20t-25 64t17 86q18 46 53.5 65t97.5 19t89.5 -21t27.5 -67z" />
    <glyph glyph-name="Alpha" unicode="&#x391;" horiz-adv-x="1311" 
d="M201 0h-283l739 1384h361l156 -1384h-273l-31 281h-518zM784 1100l-303 -572h363z" />
    <glyph glyph-name="Beta" unicode="&#x392;" horiz-adv-x="1272" 
d="M905 745q129 -16 205 -90t76 -192q0 -204 -149 -333.5t-412 -129.5h-588l293 1384h452q247 0 351 -65t104 -225q0 -126 -81 -220.5t-251 -128.5zM492 842h167q51 0 97 9t89.5 28.5t69 58t25.5 90.5q0 59 -47 85t-162 26h-176zM367 250h188q30 0 47.5 0.5t52 2.5t56.5 7.5
t52.5 14.5t50 24t38.5 35.5t28 50t9 66.5q0 84 -58.5 114.5t-205.5 30.5h-187z" />
    <glyph glyph-name="Gamma" unicode="&#x393;" horiz-adv-x="1044" 
d="M1137 1149h-602l-244 -1149h-277l293 1384h879z" />
    <glyph glyph-name="uni0394" unicode="&#x394;" horiz-adv-x="1268" 
d="M1165 115l-22 -115h-1204l22 115l705 1269h338zM309 236h568l-91 763q-6 59 -6 109h-8q-14 -51 -43 -104z" />
    <glyph glyph-name="Epsilon" unicode="&#x395;" horiz-adv-x="1126" 
d="M918 0h-881l293 1384h880l-53 -249h-604l-61 -295h509l-53 -250h-510l-71 -332h604z" />
    <glyph glyph-name="Zeta" unicode="&#x396;" horiz-adv-x="1124" 
d="M930 0h-969l47 238l795 888h-576l56 258h923l-47 -227l-805 -899h629z" />
    <glyph glyph-name="Eta" unicode="&#x397;" horiz-adv-x="1380" 
d="M1124 0h-276l125 588h-535l-125 -588h-276l293 1384h276l-114 -538h534l115 538h276z" />
    <glyph glyph-name="Theta" unicode="&#x398;" horiz-adv-x="1403" 
d="M623 -29q-143 0 -248 36.5t-167 104t-91 154.5t-29 197q0 267 100 498q43 96 102.5 174.5t140.5 142.5t188.5 99.5t232.5 35.5q255 0 393.5 -130.5t138.5 -385.5q0 -182 -65 -377q-29 -85 -68.5 -160.5t-100.5 -148t-135 -124.5t-175 -84t-217 -32zM375 485
q0 -140 61 -202t193 -62q156 0 259 94.5t156 245.5q52 152 52 318q0 150 -62 217t-200 67q-134 0 -230.5 -76.5t-152.5 -203.5q-76 -166 -76 -398zM946 582h-471l47 223h471z" />
    <glyph glyph-name="Iota" unicode="&#x399;" horiz-adv-x="854" 
d="M688 217l-45 -217h-653l45 217h188l203 950h-188l45 217h653l-45 -217h-189l-202 -950h188z" />
    <glyph glyph-name="Kappa" unicode="&#x39a;" horiz-adv-x="1255" 
d="M1116 0h-323l-258 594l-119 -113l-103 -481h-276l293 1384h276l-106 -503l520 503h352l-631 -602z" />
    <glyph glyph-name="Lambda" unicode="&#x39b;" horiz-adv-x="1219" 
d="M-68 0l715 1384h326l125 -1384h-264l-86 1044l-525 -1044h-291z" />
    <glyph glyph-name="Mu" unicode="&#x39c;" horiz-adv-x="1634" 
d="M1376 0h-266l197 930l-449 -578h-160l-198 578l-197 -930h-266l293 1384h303l215 -657l495 657h326z" />
    <glyph glyph-name="Nu" unicode="&#x39d;" horiz-adv-x="1382" 
d="M1126 0h-317l-293 989l-209 -989h-270l293 1384h342l276 -933l199 933h272z" />
    <glyph glyph-name="Xi" unicode="&#x39e;" horiz-adv-x="1073" 
d="M1104 1135h-877l54 249h876zM932 590h-762l53 250h762zM864 0h-876l53 258h877z" />
    <glyph glyph-name="Omicron" unicode="&#x39f;" horiz-adv-x="1337" 
d="M594 -29q-135 0 -234.5 36.5t-158 104t-86 154.5t-27.5 197q0 267 100 498q44 102 99 180.5t130 141.5t175.5 96.5t222.5 33.5q241 0 372.5 -130.5t131.5 -385.5q0 -161 -66 -377q-170 -549 -659 -549zM375 485q0 -140 55 -202t174 -62q259 0 371 346q55 170 55 312
q0 150 -55.5 217t-179.5 67q-119 0 -201.5 -70.5t-140.5 -209.5q-78 -186 -78 -398z" />
    <glyph glyph-name="Pi" unicode="&#x3a0;" horiz-adv-x="1389" 
d="M319 0h-282l293 1384h1095l-292 -1384h-285l242 1143h-529z" />
    <glyph glyph-name="Rho" unicode="&#x3a1;" horiz-adv-x="1214" 
d="M1239 1036q0 -84 -15 -163.5t-55.5 -162t-101.5 -143.5t-162.5 -100t-230.5 -39h-271l-90 -428h-276l293 1384h508q200 0 300.5 -81.5t100.5 -266.5zM457 674h192q72 0 125 17t85.5 45t52.5 71t27 88.5t7 103.5q0 73 -42 106.5t-138 33.5h-211z" />
    <glyph glyph-name="Sigma" unicode="&#x3a3;" horiz-adv-x="1147" 
d="M952 0h-991l41 211l549 491l-342 478l43 204h958l-47 -227h-590l261 -366l-37 -175l-439 -389h641z" />
    <glyph glyph-name="Tau" unicode="&#x3a4;" horiz-adv-x="1180" 
d="M1274 1126h-418l-238 -1126h-276l238 1126h-418l55 258h1112z" />
    <glyph glyph-name="Upsilon" unicode="&#x3a5;" horiz-adv-x="1163" 
d="M1329 1384l-608 -856l-111 -528h-278l110 522l-241 862h284l142 -589l393 589h309z" />
    <glyph glyph-name="Phi" unicode="&#x3a6;" horiz-adv-x="1458" 
d="M776 104l-37 -182h-272l37 182q-406 49 -406 410q0 103 27 225.5t72 214.5q72 145 203.5 225t353.5 95l39 188h272l-39 -188q404 -49 404 -410q0 -122 -35 -259t-97 -236q-74 -117 -201 -183.5t-321 -81.5zM1051 479q41 81 64.5 178.5t23.5 173.5q0 107 -34.5 156
t-125.5 64l-154 -717q164 17 226 145zM465 879q-27 -57 -50.5 -159.5t-23.5 -162.5q0 -206 162 -223l154 717q-88 -12 -144 -52t-98 -120z" />
    <glyph glyph-name="Chi" unicode="&#x3a7;" horiz-adv-x="1260" 
d="M240 0h-320l604 721l-291 663h297l189 -458l375 458h321l-590 -688l295 -696h-295l-196 492z" />
    <glyph glyph-name="Psi" unicode="&#x3a8;" horiz-adv-x="1456" 
d="M1538 1384l-131 -626q-55 -257 -196 -375.5t-402 -132.5l-59 -275h-277l59 275q-202 21 -298.5 123t-96.5 252q0 80 21 170l125 589h276l-125 -589q-16 -78 -16 -136q0 -76 43.5 -116.5t122.5 -42.5l188 884h277l-189 -886q112 0 179 68t104 243l121 575h274z" />
    <glyph glyph-name="uni03A9" unicode="&#x3a9;" horiz-adv-x="1339" 
d="M805 1413q265 0 394.5 -114.5t129.5 -327.5q0 -126 -47.5 -293t-118.5 -254q-71 -90 -213 -143l-8 -31h242l-51 -250h-490l84 401q118 18 188 117q66 89 99 242q24 119 24 176q-4 122 -60 174.5t-183 52.5q-106 0 -166.5 -30t-114.5 -103q-26 -36 -52 -98t-40 -123
q-35 -152 -35 -236t33 -125t119 -47l-84 -401h-486l51 250h248l8 31q-180 88 -180 313q0 162 57.5 328t149.5 278q177 213 502 213z" />
    <glyph glyph-name="Iotadieresis" unicode="&#x3aa;" horiz-adv-x="854" 
d="M688 217l-45 -217h-653l45 217h188l203 950h-188l45 217h653l-45 -217h-189l-202 -950h188zM579 1677q0 -51 -20 -90q-21 -41 -57 -58t-95 -17q-63 0 -88 20t-25 64q0 43 17 86q18 45 54 64.5t97 19.5q62 0 89.5 -21.5t27.5 -67.5zM1005 1677q0 -51 -20 -90
q-21 -41 -57 -58t-95 -17q-63 0 -88 20t-25 64q0 43 17 86q18 45 54 64.5t97 19.5q62 0 89.5 -21.5t27.5 -67.5z" />
    <glyph glyph-name="Upsilondieresis" unicode="&#x3ab;" horiz-adv-x="1163" 
d="M1329 1384l-608 -856l-111 -528h-278l110 522l-241 862h284l142 -589l393 589h309zM698 1677q0 -51 -20 -90q-21 -41 -57 -58t-95 -17q-63 0 -88 20t-25 64q0 43 17 86q18 45 54 64.5t97 19.5q62 0 89.5 -21.5t27.5 -67.5zM1124 1677q0 -51 -20 -90q-21 -41 -57 -58
t-95 -17q-63 0 -88 20t-25 64q0 43 17 86q18 45 54 64.5t97 19.5q62 0 89.5 -21.5t27.5 -67.5z" />
    <glyph glyph-name="alphatonos" unicode="&#x3ac;" horiz-adv-x="1300" 
d="M1165 195l17 -195q-99 -31 -191 -31q-227 0 -227 187q0 41 2 55q-143 -242 -369 -242q-329 0 -329 393q0 91 31 213t87 224q81 141 202.5 210.5t264.5 69.5q94 0 163.5 -27t123.5 -91l11 30l12 33t10 25h254q-127 -271 -170 -474l-49 -237q-13 -61 -13 -105q0 -57 78 -57
q43 0 92 19zM473 180q116 0 226 163.5t182 422.5q-81 108 -215 108q-166 0 -252 -174q-80 -162 -80 -335q0 -105 34 -145t105 -40zM1145 1569l-357 -361h-213l248 361h322z" />
    <glyph glyph-name="epsilontonos" unicode="&#x3ad;" horiz-adv-x="1042" 
d="M780 281l142 -131q-97 -95 -203 -138t-264 -43q-97 0 -171.5 15.5t-131.5 50t-87 94t-30 141.5q0 75 56 149.5t157 106.5q-117 49 -117 197q0 70 39.5 135t107.5 113.5t165 78t206 29.5q165 0 258.5 -42t159.5 -138l-203 -125q-34 57 -83 83t-148 26q-110 0 -174 -45.5
t-64 -108.5q0 -62 44 -80t157 -18h219l-41 -189h-229q-44 0 -82.5 -6t-76.5 -20.5t-61 -44.5t-24 -72q2 -47 31.5 -78.5t63 -42t67.5 -10.5q113 0 186.5 27t130.5 86zM1069 1569l-357 -361h-213l248 361h322z" />
    <glyph glyph-name="etatonos" unicode="&#x3ae;" 
d="M860 -389h-252l209 967q25 120 25 184q0 90 -90 90q-127 0 -320 -152l-147 -700h-252l221 1049h252l-29 -136q192 166 369 166q136 0 197 -70t61 -180q0 -85 -19 -167zM1145 1569l-357 -361h-213l248 361h322z" />
    <glyph glyph-name="iotatonos" unicode="&#x3af;" horiz-adv-x="668" 
d="M526 195l17 -195q-116 -31 -226 -31q-237 0 -237 228q0 63 18 143l148 709h252l-150 -711q-12 -56 -12 -88q0 -39 18 -56.5t60 -17.5q57 0 112 19zM813 1569l-357 -361h-213l248 361h322z" />
    <glyph glyph-name="upsilondieresistonos" unicode="&#x3b0;" horiz-adv-x="1188" 
d="M106 397l140 652h252l-144 -678q-6 -31 -6 -68q0 -55 35.5 -91t114.5 -36q122 0 207.5 91.5t123.5 269.5q37 172 37 352q0 111 -4 160h248q14 -78 14 -201q0 -152 -28 -291q-62 -309 -217 -448.5t-398 -139.5q-201 0 -294 86.5t-93 231.5q0 49 12 110zM694 1569h283
l-232 -361h-194zM532 1378q0 -51 -20 -90q-21 -41 -57.5 -58.5t-94.5 -17.5q-63 0 -88 20t-25 64q0 41 17 86q18 46 53.5 65t97.5 19t89.5 -21t27.5 -67zM1204 1378q0 -49 -21 -90t-57 -58.5t-94 -17.5q-63 0 -88 20t-25 64t17 86q18 46 53.5 65t97.5 19t89.5 -21t27.5 -67z
" />
    <glyph glyph-name="alpha" unicode="&#x3b1;" horiz-adv-x="1300" 
d="M1165 195l17 -195q-99 -31 -191 -31q-227 0 -227 187q0 41 2 55q-143 -242 -369 -242q-329 0 -329 393q0 91 31 213t87 224q81 141 202.5 210.5t264.5 69.5q94 0 163.5 -27t123.5 -91l11 30l12 33t10 25h254q-127 -271 -170 -474l-49 -237q-13 -61 -13 -105q0 -57 78 -57
q43 0 92 19zM473 180q116 0 226 163.5t182 422.5q-81 108 -215 108q-166 0 -252 -174q-80 -162 -80 -335q0 -105 34 -145t105 -40z" />
    <glyph glyph-name="beta" unicode="&#x3b2;" horiz-adv-x="1225" 
d="M1124 537q0 -100 -35.5 -199t-100.5 -182t-168 -135t-226 -52q-194 0 -303 68l-88 -420h-250l307 1458q21 100 57 177t95 139.5t149.5 95.5t208.5 33q185 0 292 -79t107 -227q0 -122 -89 -217.5t-251 -126.5q295 -62 295 -333zM504 1032l-168 -788q95 -68 244 -68
q53 0 98.5 22.5t77 58t53.5 80.5t32.5 89.5t10.5 85.5q0 69 -19.5 115.5t-59 70.5t-86.5 33.5t-114 9.5l43 205q73 2 137 28t108 83t44 135q0 56 -38.5 91.5t-110.5 35.5q-60 0 -102.5 -18.5t-70.5 -59t-45 -88t-34 -121.5z" />
    <glyph glyph-name="gamma" unicode="&#x3b3;" horiz-adv-x="1133" 
d="M147 1049h256l109 -746q160 189 270.5 383.5t139.5 327.5l6 35h252l-9 -45q-46 -211 -209 -457t-401 -490l-96 -446h-250l96 446z" />
    <glyph glyph-name="delta" unicode="&#x3b4;" horiz-adv-x="1241" 
d="M557 975q-92 62 -130 124t-38 140q0 136 99.5 208.5t283.5 72.5q133 0 250 -34.5t174 -76.5l-129 -203q-190 121 -330 121q-86 0 -86 -61q0 -47 28.5 -81t119.5 -91l52 -33.5t51.5 -36t54.5 -42.5l50 -46.5t48 -55t38.5 -62t32.5 -72.5t19 -81t8 -94q0 -83 -25.5 -167
t-79 -162.5t-127 -139t-178 -97t-223.5 -36.5q-233 0 -342.5 103.5t-109.5 292.5q0 181 131 348.5t358 261.5zM719 864q-159 -62 -271 -197t-112 -294q0 -86 47.5 -141.5t151.5 -55.5q137 0 243.5 125.5t106.5 284.5q0 185 -166 278z" />
    <glyph glyph-name="epsilon" unicode="&#x3b5;" horiz-adv-x="1042" 
d="M780 281l142 -131q-97 -95 -203 -138t-264 -43q-97 0 -171.5 15.5t-131.5 50t-87 94t-30 141.5q0 75 56 149.5t157 106.5q-117 49 -117 197q0 70 39.5 135t107.5 113.5t165 78t206 29.5q165 0 258.5 -42t159.5 -138l-203 -125q-34 57 -83 83t-148 26q-110 0 -174 -45.5
t-64 -108.5q0 -62 44 -80t157 -18h219l-41 -189h-229q-44 0 -82.5 -6t-76.5 -20.5t-61 -44.5t-24 -72q2 -47 31.5 -78.5t63 -42t67.5 -10.5q113 0 186.5 27t130.5 86z" />
    <glyph glyph-name="zeta" unicode="&#x3b6;" horiz-adv-x="952" 
d="M305 1296l41 193h741l-32 -158q-140 -75 -283.5 -207.5t-251.5 -285.5q-180 -265 -180 -486q0 -50 15 -76.5t60.5 -48.5t141.5 -45q45 -11 73 -19.5t63 -25t54.5 -37.5t33.5 -54.5t14 -76.5q0 -85 -62 -211q-38 -73 -59 -107q-6 -10 -29 -46h-246q20 29 37 59
q39 65 66 123q26 61 26 102q0 38 -38 60t-164 49q-80 18 -130.5 43.5t-79.5 66.5t-39.5 93t-10.5 131q0 131 65 283.5t172 297.5q79 106 184.5 206.5t217.5 176.5h-400z" />
    <glyph glyph-name="eta" unicode="&#x3b7;" 
d="M860 -389h-252l209 967q25 120 25 184q0 90 -90 90q-127 0 -320 -152l-147 -700h-252l221 1049h252l-29 -136q192 166 369 166q136 0 197 -70t61 -180q0 -85 -19 -167z" />
    <glyph glyph-name="theta" unicode="&#x3b8;" horiz-adv-x="1206" 
d="M436 860h477q33 160 33 264q0 187 -174 187q-138 0 -208 -98t-128 -353zM786 1520q216 0 315 -102t99 -302q0 -112 -53 -368q-64 -305 -146 -473.5t-194 -237t-287 -68.5q-122 0 -205.5 28.5t-129.5 85.5t-65.5 129.5t-19.5 172.5q0 117 54 363q35 170 74 291t90 216
t117.5 151.5t152.5 85t198 28.5zM872 672h-477q-41 -201 -41 -307q0 -99 38.5 -144t133.5 -45q89 0 150 46t108.5 154t87.5 296z" />
    <glyph glyph-name="iota" unicode="&#x3b9;" horiz-adv-x="668" 
d="M526 195l17 -195q-116 -31 -226 -31q-237 0 -237 228q0 63 18 143l148 709h252l-150 -711q-12 -56 -12 -88q0 -39 18 -56.5t60 -17.5q57 0 112 19z" />
    <glyph glyph-name="kappa" unicode="&#x3ba;" horiz-adv-x="1114" 
d="M977 0h-277l-217 442l-131 -116l-67 -326h-252l221 1049h252l-82 -394l424 394h309l-487 -447z" />
    <glyph glyph-name="lambda" unicode="&#x3bb;" horiz-adv-x="1171" 
d="M819 1214l74 -929q6 -64 19 -85.5t36 -21.5q32 0 80 17l19 -195q-98 -31 -185 -31q-104 0 -148.5 58t-56.5 215l-34 465l-420 -707h-277l670 1049l-10 120q-6 77 -30 108.5t-79 31.5q-48 0 -153 -39l-17 188q119 62 225 62q137 0 205 -68.5t82 -237.5z" />
    <glyph glyph-name="uni03BC" unicode="&#x3bc;" horiz-adv-x="1178" 
d="M1159 1049l-221 -1049h-233l18 111q-65 -72 -128 -107t-136 -35q-104 0 -180 70l-93 -434h-249l303 1444h252l-158 -750q19 -41 66.5 -70.5t103.5 -29.5q70 0 129 29t121 91l153 730h252z" />
    <glyph glyph-name="nu" unicode="&#x3bd;" horiz-adv-x="1133" 
d="M147 1049h256l103 -787q108 137 175.5 234t132.5 228.5t91 256.5l15 68h260l-13 -62q-48 -227 -233 -500t-406 -487h-215z" />
    <glyph glyph-name="xi" unicode="&#x3be;" horiz-adv-x="893" 
d="M487 1300h-204l39 189h739l-41 -193h-88q-134 0 -207.5 -22.5t-118.5 -73.5q-67 -81 -67 -178q0 -39 15.5 -67.5t40.5 -42t48.5 -19.5t46.5 -6h219l-41 -193h-237q-139 0 -223 -108q-72 -92 -72 -230q0 -69 44.5 -105.5t168.5 -70.5l54.5 -15.5t49.5 -16.5t49.5 -21.5
t39 -26.5t34 -35t19 -44.5t8.5 -57.5q0 -77 -49 -182q-27 -58 -64 -121q-22 -38 -33 -55h-239q131 202 131 282q0 53 -66 81q-22 9 -90 28q-183 51 -256.5 123t-73.5 215q0 85 35 179.5t107 164.5q89 86 219 117q-74 26 -112 81.5t-38 129.5q0 123 76 211q54 57 137 83z" />
    <glyph glyph-name="omicron" unicode="&#x3bf;" horiz-adv-x="1165" 
d="M68 381q0 130 46.5 279.5t147.5 254.5q156 164 418 164q196 0 307 -109t111 -321q0 -74 -18.5 -161.5t-69 -192.5t-123.5 -178q-82 -82 -175 -115t-231 -33q-413 0 -413 412zM334 377q0 -90 40.5 -136t133.5 -46q118 0 203 96q53 62 88 167t35 185q0 211 -185 211
q-118 0 -200 -102q-52 -66 -83.5 -171.5t-31.5 -203.5z" />
    <glyph glyph-name="pi" unicode="&#x3c0;" horiz-adv-x="1356" 
d="M1204 195l10 -175q-85 -38 -208 -38q-110 0 -169 55.5t-59 167.5q0 54 13 110l114 541h-278l-117 -555q-24 -109 -43.5 -175.5t-48.5 -125.5h-281q95 183 121 313l115 539q-148 -26 -228 -64l-34 181q67 32 166 56t194 24h944l-41 -193h-217l-108 -514q-9 -37 -9 -72
q0 -49 22 -69.5t64 -20.5q45 0 78 15z" />
    <glyph glyph-name="rho" unicode="&#x3c1;" horiz-adv-x="1227" 
d="M184 -389h-250l195 924q58 270 198.5 407t385.5 137q229 0 337.5 -101.5t108.5 -303.5q0 -111 -36.5 -235.5t-84.5 -209.5q-87 -144 -194.5 -202t-276.5 -58q-173 0 -282 109zM385 555l-55 -264q106 -111 237 -111q157 0 242 158q82 153 82 330q0 103 -46.5 154.5
t-152.5 51.5q-116 0 -194.5 -74.5t-112.5 -244.5z" />
    <glyph glyph-name="sigma1" unicode="&#x3c2;" horiz-adv-x="1036" 
d="M418 -395q131 202 131 282q0 53 -66 81q-22 9 -90 28q-185 51 -252 139.5t-67 267.5q0 50 9 108t30.5 124t53 128.5t79.5 120t107 100.5t139 69t172 26q147 0 239.5 -45t149.5 -139l-213 -133q-28 48 -72 70t-117 22q-65 0 -119 -32.5t-88.5 -82t-59 -111t-34.5 -118
t-10 -104.5q0 -78 46 -132t163 -86q48 -13 76 -22.5t66.5 -28.5t59.5 -40.5t36.5 -56t15.5 -77.5q0 -77 -49 -182q-27 -58 -64 -121q-22 -38 -33 -55h-239z" />
    <glyph glyph-name="sigma" unicode="&#x3c3;" horiz-adv-x="1284" 
d="M729 1049h617l-39 -191h-267q44 -55 65 -119.5t21 -120.5q0 -125 -36.5 -242.5t-102.5 -201.5q-84 -104 -201 -154.5t-292 -50.5q-216 0 -321 105t-105 295q0 81 26 187.5t70 193.5q78 154 217 226.5t348 72.5zM825 858h-145q-200 0 -283 -194q-65 -156 -65 -279
q0 -102 46.5 -155.5t133.5 -53.5q183 0 270 137q44 69 68 155.5t24 160.5q0 155 -49 229z" />
    <glyph glyph-name="tau" unicode="&#x3c4;" horiz-adv-x="1006" 
d="M1079 1049l-39 -191h-350l-110 -520q-9 -35 -9 -78q0 -80 80 -80q53 0 86 15l11 -175q-83 -38 -199 -38q-119 0 -177.5 60t-58.5 159q0 74 13 133l112 524h-76q-119 0 -272 -63l-33 178q154 76 355 76h667z" />
    <glyph glyph-name="upsilon" unicode="&#x3c5;" horiz-adv-x="1188" 
d="M106 397l140 652h252l-144 -678q-6 -31 -6 -68q0 -55 35.5 -91t114.5 -36q122 0 207.5 91.5t123.5 269.5q37 172 37 352q0 111 -4 160h248q14 -78 14 -201q0 -152 -28 -291q-62 -309 -217 -448.5t-398 -139.5q-201 0 -294 86.5t-93 231.5q0 49 12 110z" />
    <glyph glyph-name="phi" unicode="&#x3c6;" horiz-adv-x="1405" 
d="M629 -391h-242l78 368q-210 23 -301.5 130.5t-91.5 289.5q0 62 19.5 156.5t51.5 169.5q68 157 205.5 250t349.5 102l88 414h242l-88 -414q209 -23 301 -133t92 -299q0 -70 -25 -174.5t-67 -183.5q-153 -286 -534 -308zM506 168l153 717q-177 -7 -264 -213
q-59 -147 -59 -287q0 -90 40.5 -143.5t129.5 -73.5zM899 885l-151 -717q156 11 245 178q76 139 76 311q0 187 -170 228z" />
    <glyph glyph-name="chi" unicode="&#x3c7;" horiz-adv-x="1128" 
d="M-174 -389l571 792l-69 306q-24 103 -42.5 132t-60.5 29q-38 0 -86 -16l-16 176q104 49 192 49q96 0 148 -43t76 -164l51 -237l301 414h278l-514 -682l86 -398q17 -77 38 -108t67 -31q35 0 86 16l16 -184q-41 -21 -96 -36t-86 -15q-109 0 -164.5 48t-81.5 167l-67 301
l-359 -516h-268z" />
    <glyph glyph-name="psi" unicode="&#x3c8;" horiz-adv-x="1501" 
d="M838 1475h245l-274 -1291q181 37 272 176q103 157 103 486q0 99 -13 203h254q19 -91 19 -226q0 -351 -137 -567q-48 -73 -111 -125.5t-137 -83t-142.5 -46t-152.5 -24.5l-78 -368h-246l78 366q-412 34 -412 359q0 54 13 117l127 598h252l-125 -592q-11 -46 -11 -78
q0 -93 46 -137t153 -60z" />
    <glyph glyph-name="omega" unicode="&#x3c9;" horiz-adv-x="1683" 
d="M1260 1018l249 45q84 -185 84 -428q0 -329 -139.5 -497.5t-378.5 -168.5q-128 0 -204.5 54t-98.5 153q-130 -207 -360 -207q-189 0 -275 94.5t-86 278.5q0 164 103 371t249 350l230 -45q-309 -400 -309 -680q0 -78 30.5 -120t85.5 -42q200 0 279 367l61 291h254l-61 -291
q-21 -99 -21 -189q0 -87 35 -132.5t96 -45.5q108 0 179 122.5t71 328.5q0 188 -73 391z" />
    <glyph glyph-name="iotadieresis" unicode="&#x3ca;" horiz-adv-x="668" 
d="M526 195l17 -195q-116 -31 -226 -31q-237 0 -237 228q0 63 18 143l148 709h252l-150 -711q-12 -56 -12 -88q0 -39 18 -56.5t60 -17.5q57 0 112 19zM339 1341q0 -51 -20 -90q-21 -41 -57 -58t-95 -17q-63 0 -88 20t-25 64q0 43 17 86q18 45 54 64.5t97 19.5
q62 0 89.5 -21.5t27.5 -67.5zM765 1341q0 -51 -20 -90q-21 -41 -57 -58t-95 -17q-63 0 -88 20t-25 64q0 43 17 86q18 45 54 64.5t97 19.5q62 0 89.5 -21.5t27.5 -67.5z" />
    <glyph glyph-name="upsilondieresis" unicode="&#x3cb;" horiz-adv-x="1188" 
d="M106 397l140 652h252l-144 -678q-6 -31 -6 -68q0 -55 35.5 -91t114.5 -36q122 0 207.5 91.5t123.5 269.5q37 172 37 352q0 111 -4 160h248q14 -78 14 -201q0 -152 -28 -291q-62 -309 -217 -448.5t-398 -139.5q-201 0 -294 86.5t-93 231.5q0 49 12 110zM647 1341
q0 -51 -20 -90q-21 -41 -57 -58t-95 -17q-63 0 -88 20t-25 64q0 43 17 86q18 45 54 64.5t97 19.5q62 0 89.5 -21.5t27.5 -67.5zM1073 1341q0 -51 -20 -90q-21 -41 -57 -58t-95 -17q-63 0 -88 20t-25 64q0 43 17 86q18 45 54 64.5t97 19.5q62 0 89.5 -21.5t27.5 -67.5z" />
    <glyph glyph-name="omicrontonos" unicode="&#x3cc;" horiz-adv-x="1165" 
d="M68 381q0 130 46.5 279.5t147.5 254.5q156 164 418 164q196 0 307 -109t111 -321q0 -74 -18.5 -161.5t-69 -192.5t-123.5 -178q-82 -82 -175 -115t-231 -33q-413 0 -413 412zM334 377q0 -90 40.5 -136t133.5 -46q118 0 203 96q53 62 88 167t35 185q0 211 -185 211
q-118 0 -200 -102q-52 -66 -83.5 -171.5t-31.5 -203.5zM1145 1569l-357 -361h-213l248 361h322z" />
    <glyph glyph-name="upsilontonos" unicode="&#x3cd;" horiz-adv-x="1188" 
d="M106 397l140 652h252l-144 -678q-6 -31 -6 -68q0 -55 35.5 -91t114.5 -36q122 0 207.5 91.5t123.5 269.5q37 172 37 352q0 111 -4 160h248q14 -78 14 -201q0 -152 -28 -291q-62 -309 -217 -448.5t-398 -139.5q-201 0 -294 86.5t-93 231.5q0 49 12 110zM1108 1569
l-357 -361h-213l248 361h322z" />
    <glyph glyph-name="omegatonos" unicode="&#x3ce;" horiz-adv-x="1683" 
d="M1260 1018l249 45q84 -185 84 -428q0 -329 -139.5 -497.5t-378.5 -168.5q-128 0 -204.5 54t-98.5 153q-130 -207 -360 -207q-189 0 -275 94.5t-86 278.5q0 164 103 371t249 350l230 -45q-309 -400 -309 -680q0 -78 30.5 -120t85.5 -42q200 0 279 367l61 291h254l-61 -291
q-21 -99 -21 -189q0 -87 35 -132.5t96 -45.5q108 0 179 122.5t71 328.5q0 188 -73 391zM1387 1569l-357 -361h-213l248 361h322z" />
    <glyph glyph-name="uni0400" unicode="&#x400;" horiz-adv-x="1126" 
d="M918 0h-881l293 1384h880l-53 -249h-604l-61 -295h509l-53 -250h-510l-71 -332h604zM905 1544h-190l-227 361h299z" />
    <glyph glyph-name="uni0401" unicode="&#x401;" horiz-adv-x="1126" 
d="M918 0h-881l293 1384h880l-53 -249h-604l-61 -295h509l-53 -250h-510l-71 -332h604zM731 1677q0 -51 -20 -90q-21 -41 -57 -58t-95 -17q-63 0 -88 20t-25 64q0 43 17 86q18 45 54 64.5t97 19.5q62 0 89.5 -21.5t27.5 -67.5zM1157 1677q0 -51 -20 -90q-21 -41 -57 -58
t-95 -17q-63 0 -88 20t-25 64q0 43 17 86q18 45 54 64.5t97 19.5q62 0 89.5 -21.5t27.5 -67.5z" />
    <glyph glyph-name="uni0402" unicode="&#x402;" horiz-adv-x="1333" 
d="M940 1384l-51 -237h-250l-66 -303h215q242 0 363 -84t121 -271q0 -489 -709 -489l49 233q361 0 361 236q0 77 -50.5 111t-162.5 34h-236l-129 -614h-282l243 1147h-190l51 237h723z" />
    <glyph glyph-name="uni0403" unicode="&#x403;" horiz-adv-x="1044" 
d="M1137 1149h-602l-244 -1149h-277l293 1384h879zM1141 1905l-355 -361h-215l244 361h326z" />
    <glyph glyph-name="uni0404" unicode="&#x404;" horiz-adv-x="1284" 
d="M983 399l195 -170q-231 -258 -580 -258q-257 0 -383.5 127.5t-126.5 395.5q0 111 27 245.5t86 259.5q42 87 98.5 158.5t133 130.5t178.5 92t220 33q366 0 498 -268l-244 -150q-44 94 -103 131t-163 37q-123 0 -210 -67t-138 -185q-26 -61 -33 -86h563l-53 -250h-565
q-2 -19 -2 -77q0 -147 63.5 -212t167.5 -65q116 0 199 40t172 138z" />
    <glyph glyph-name="uni0405" unicode="&#x405;" horiz-adv-x="1204" 
d="M0 229l250 166q41 -86 103.5 -130t183.5 -44q112 0 194 46t82 114q0 56 -13 82.5t-69 57.5t-184 73q-98 32 -160.5 63t-112.5 75.5t-72 105t-22 143.5t37.5 159.5t106 137.5t177 98t240.5 37q169 0 288 -61t200 -185l-248 -168q-42 83 -107 123.5t-174 40.5
q-101 0 -164 -41.5t-63 -113.5q0 -64 53 -100.5t191 -78.5q212 -66 301.5 -161t89.5 -252q0 -199 -163 -322t-429 -123q-408 0 -516 258z" />
    <glyph glyph-name="uni0406" unicode="&#x406;" horiz-adv-x="854" 
d="M688 217l-45 -217h-653l45 217h188l203 950h-188l45 217h653l-45 -217h-189l-202 -950h188z" />
    <glyph glyph-name="uni0407" unicode="&#x407;" horiz-adv-x="854" 
d="M688 217l-45 -217h-653l45 217h188l203 950h-188l45 217h653l-45 -217h-189l-202 -950h188zM579 1677q0 -51 -20 -90q-21 -41 -57 -58t-95 -17q-63 0 -88 20t-25 64q0 43 17 86q18 45 54 64.5t97 19.5q62 0 89.5 -21.5t27.5 -67.5zM1005 1677q0 -51 -20 -90
q-21 -41 -57 -58t-95 -17q-63 0 -88 20t-25 64q0 43 17 86q18 45 54 64.5t97 19.5q62 0 89.5 -21.5t27.5 -67.5z" />
    <glyph glyph-name="uni0408" unicode="&#x408;" horiz-adv-x="905" 
d="M936 1384l-213 -1007q-43 -210 -160 -309t-340 -99q-155 0 -286 54l106 243q88 -47 190 -47q106 0 153 47.5t77 186.5l196 931h277z" />
    <glyph glyph-name="uni0409" unicode="&#x409;" horiz-adv-x="2036" 
d="M1294 0h-458l241 1149h-274l-43 -199q-31 -141 -60 -252.5t-64 -216t-72.5 -182t-83.5 -142t-97.5 -104.5t-114.5 -62t-135 -22q-129 0 -217 62l131 221q47 -27 90 -27q75 0 136 83.5t119.5 268t127.5 506.5l64 301h821l-105 -491h209q236 0 342.5 -80.5t106.5 -261.5
q0 -111 -55 -250q-71 -163 -214.5 -232t-394.5 -69zM1642 401q23 62 23 115q0 70 -42.5 101.5t-145.5 31.5h-228l-86 -401h195q223 0 284 153z" />
    <glyph glyph-name="uni040A" unicode="&#x40a;" horiz-adv-x="1978" 
d="M1348 1384l-105 -491h209q236 0 342.5 -80.5t106.5 -261.5q0 -56 -16.5 -126.5t-39.5 -123.5q-68 -163 -213 -232t-395 -69h-461l137 649h-462l-138 -649h-276l293 1384h276l-104 -491h463l104 491h279zM1419 649h-227l-86 -401h194q224 0 285 153q23 67 23 115
q0 70 -42.5 101.5t-146.5 31.5z" />
    <glyph glyph-name="uni040B" unicode="&#x40b;" horiz-adv-x="1343" 
d="M889 1147h-254l-62 -297q149 41 314 41q179 0 258.5 -76.5t79.5 -230.5q0 -85 -25 -195l-82 -389h-276l71 336q25 125 25 172q0 73 -31 103t-114 30q-121 0 -271 -41l-129 -600h-276l241 1147h-192l51 237h723z" />
    <glyph glyph-name="uni040C" unicode="&#x40c;" horiz-adv-x="1260" 
d="M330 1384h276l-119 -565h146q37 0 72 22t81.5 81.5t105.5 173.5t134 288h297q-141 -322 -240 -471t-206 -204q35 -23 61.5 -53t46 -63t33 -83.5t22 -96t14.5 -119t9 -134.5t6 -160h-270q-16 290 -31 378q-25 144 -94 184q-34 20 -84 20h-154l-123 -582h-276zM1231 1905
l-355 -361h-215l244 361h326z" />
    <glyph glyph-name="uni040D" unicode="&#x40d;" horiz-adv-x="1376" 
d="M332 0h-295l293 1384h258l-197 -927l699 927h323l-293 -1384h-260l209 991zM979 1544h-190l-227 361h299z" />
    <glyph glyph-name="uni040E" unicode="&#x40e;" horiz-adv-x="1237" 
d="M510 1384l174 -675l422 675h307l-739 -1130q-60 -91 -109 -146.5t-100 -86t-99.5 -40.5t-117.5 -10q-136 0 -273 60l127 219q36 -21 84 -35t78 -14q52 0 91 34.5t106 141.5l35 55l-269 952h283zM985 1800h242q-28 -140 -124.5 -209t-273.5 -69q-97 0 -162.5 19.5
t-99.5 59t-47.5 86.5t-13.5 113h237q0 -82 22.5 -115.5t76.5 -33.5t89.5 34.5t53.5 114.5z" />
    <glyph glyph-name="uni040F" unicode="&#x40f;" horiz-adv-x="1331" 
d="M1366 1384l-293 -1384h-379l-57 -262h-275l58 262h-383l293 1384h274l-239 -1126h487l240 1126h274z" />
    <glyph glyph-name="uni0410" unicode="&#x410;" horiz-adv-x="1311" 
d="M201 0h-283l739 1384h361l156 -1384h-273l-31 281h-518zM784 1100l-303 -572h363z" />
    <glyph glyph-name="uni0411" unicode="&#x411;" horiz-adv-x="1276" 
d="M557 1153l-63 -305h188q244 0 361.5 -88t117.5 -271q0 -228 -156 -358.5t-462 -130.5h-506l293 1384h921l-49 -231h-645zM362 231h197q145 0 230 56t85 178q0 39 -12.5 67t-32 44t-50.5 25t-61.5 12t-72.5 3h-201z" />
    <glyph glyph-name="uni0412" unicode="&#x412;" horiz-adv-x="1272" 
d="M905 745q129 -16 205 -90t76 -192q0 -204 -149 -333.5t-412 -129.5h-588l293 1384h452q247 0 351 -65t104 -225q0 -126 -81 -220.5t-251 -128.5zM492 842h167q51 0 97 9t89.5 28.5t69 58t25.5 90.5q0 59 -47 85t-162 26h-176zM367 250h188q30 0 47.5 0.5t52 2.5t56.5 7.5
t52.5 14.5t50 24t38.5 35.5t28 50t9 66.5q0 84 -58.5 114.5t-205.5 30.5h-187z" />
    <glyph glyph-name="uni0413" unicode="&#x413;" horiz-adv-x="1044" 
d="M1137 1149h-602l-244 -1149h-277l293 1384h879z" />
    <glyph glyph-name="uni0414" unicode="&#x414;" horiz-adv-x="1335" 
d="M135 -262h-274l104 493h123q286 429 442 1153h801l-244 -1153h160l-106 -493h-277l58 262h-729zM811 236l195 913h-269q-135 -525 -362 -913h436z" />
    <glyph glyph-name="uni0415" unicode="&#x415;" horiz-adv-x="1126" 
d="M918 0h-881l293 1384h880l-53 -249h-604l-61 -295h509l-53 -250h-510l-71 -332h604z" />
    <glyph glyph-name="uni0416" unicode="&#x416;" horiz-adv-x="1833" 
d="M1237 1384l-119 -565h92q50 0 98.5 44.5t119 169t171.5 351.5h293q-67 -158 -129 -277t-116.5 -196.5t-102 -125.5t-96.5 -76q41 -26 70.5 -60t50 -84t33.5 -99.5t21 -130.5t11.5 -150.5t7.5 -184.5h-270l-6.5 115.5t-6.5 100t-8 89.5t-11 74t-14.5 64.5t-18.5 49.5
t-24.5 40.5t-30.5 26.5t-38 17.5t-47 4.5h-100l-123 -582h-276l123 582h-82q-79 0 -143.5 -53t-134.5 -174t-173 -355h-289l75 161.5l66.5 135t65 120t62.5 95.5t69 84t73 62.5t85 52.5q-75 59 -116.5 214.5t-43.5 458.5h283q3 -177 14 -290.5t31.5 -172.5t44.5 -80.5
t61 -21.5h103l119 565h276z" />
    <glyph glyph-name="uni0417" unicode="&#x417;" 
d="M-25 258l240 131q32 -90 95 -139t147 -49q152 0 243 67.5t91 177.5q0 79 -39 114.5t-144 35.5h-280l51 233h301q88 0 154.5 54t66.5 147q0 78 -58 116t-151 38q-185 0 -368 -121l-101 213q206 137 529 137q225 0 338.5 -94t113.5 -272q0 -96 -77 -195t-199 -145
q166 -76 166 -265q0 -108 -49 -197.5t-133.5 -149t-197.5 -92t-241 -32.5q-111 0 -195.5 20.5t-142.5 60.5t-95.5 89.5t-64.5 116.5z" />
    <glyph glyph-name="uni0418" unicode="&#x418;" horiz-adv-x="1376" 
d="M332 0h-295l293 1384h258l-197 -927l699 927h323l-293 -1384h-260l209 991z" />
    <glyph glyph-name="uni0419" unicode="&#x419;" horiz-adv-x="1376" 
d="M332 0h-295l293 1384h258l-197 -927l699 927h323l-293 -1384h-260l209 991zM1020 1800h242q-28 -140 -124.5 -209t-273.5 -69q-97 0 -162.5 19.5t-99.5 59t-47.5 86.5t-13.5 113h237q0 -82 22.5 -115.5t76.5 -33.5t89.5 34.5t53.5 114.5z" />
    <glyph glyph-name="uni041A" unicode="&#x41a;" horiz-adv-x="1260" 
d="M330 1384h276l-119 -565h146q37 0 72 22t81.5 81.5t105.5 173.5t134 288h297q-141 -322 -240 -471t-206 -204q35 -23 61.5 -53t46 -63t33 -83.5t22 -96t14.5 -119t9 -134.5t6 -160h-270q-16 290 -31 378q-25 144 -94 184q-34 20 -84 20h-154l-123 -582h-276z" />
    <glyph glyph-name="uni041B" unicode="&#x41b;" horiz-adv-x="1423" 
d="M1135 1149h-332l-43 -199q-31 -141 -60 -252.5t-64 -216t-72.5 -182t-83.5 -142t-97.5 -104.5t-114.5 -62t-135 -22q-129 0 -217 62l131 221q47 -27 90 -27q75 0 136 83.5t119.5 268t127.5 506.5l64 301h874l-293 -1384h-274z" />
    <glyph glyph-name="uni041C" unicode="&#x41c;" horiz-adv-x="1634" 
d="M1376 0h-266l197 930l-449 -578h-160l-198 578l-197 -930h-266l293 1384h303l215 -657l495 657h326z" />
    <glyph glyph-name="uni041D" unicode="&#x41d;" horiz-adv-x="1380" 
d="M1124 0h-276l125 588h-535l-125 -588h-276l293 1384h276l-114 -538h534l115 538h276z" />
    <glyph glyph-name="uni041E" unicode="&#x41e;" horiz-adv-x="1337" 
d="M594 -29q-135 0 -234.5 36.5t-158 104t-86 154.5t-27.5 197q0 267 100 498q44 102 99 180.5t130 141.5t175.5 96.5t222.5 33.5q241 0 372.5 -130.5t131.5 -385.5q0 -161 -66 -377q-170 -549 -659 -549zM375 485q0 -140 55 -202t174 -62q259 0 371 346q55 170 55 312
q0 150 -55.5 217t-179.5 67q-119 0 -201.5 -70.5t-140.5 -209.5q-78 -186 -78 -398z" />
    <glyph glyph-name="uni041F" unicode="&#x41f;" horiz-adv-x="1389" 
d="M319 0h-282l293 1384h1095l-292 -1384h-285l242 1143h-529z" />
    <glyph glyph-name="uni0420" unicode="&#x420;" horiz-adv-x="1214" 
d="M1239 1036q0 -84 -15 -163.5t-55.5 -162t-101.5 -143.5t-162.5 -100t-230.5 -39h-271l-90 -428h-276l293 1384h508q200 0 300.5 -81.5t100.5 -266.5zM457 674h192q72 0 125 17t85.5 45t52.5 71t27 88.5t7 103.5q0 73 -42 106.5t-138 33.5h-211z" />
    <glyph glyph-name="uni0421" unicode="&#x421;" horiz-adv-x="1284" 
d="M983 399l195 -170q-231 -258 -580 -258q-257 0 -383.5 127.5t-126.5 395.5q0 111 27 245.5t86 259.5q42 87 98.5 158.5t133 130.5t178.5 92t220 33q366 0 498 -268l-244 -150q-44 94 -103 131t-163 37q-123 0 -210 -67t-138 -185q-90 -205 -90 -413q0 -147 63.5 -212
t167.5 -65q116 0 199 40t172 138z" />
    <glyph glyph-name="uni0422" unicode="&#x422;" horiz-adv-x="1180" 
d="M1274 1126h-418l-238 -1126h-276l238 1126h-418l55 258h1112z" />
    <glyph glyph-name="uni0423" unicode="&#x423;" horiz-adv-x="1237" 
d="M510 1384l174 -675l422 675h307l-739 -1130q-60 -91 -109 -146.5t-100 -86t-99.5 -40.5t-117.5 -10q-136 0 -273 60l127 219q36 -21 84 -35t78 -14q52 0 91 34.5t106 141.5l35 55l-269 952h283z" />
    <glyph glyph-name="uni0424" unicode="&#x424;" horiz-adv-x="1518" 
d="M770 -45h-258l39 188q-240 26 -346.5 134.5t-106.5 312.5q0 74 25 176t74 188q75 132 218 203.5t371 89.5l39 183h258l-39 -183q241 -24 349 -131.5t108 -306.5q0 -85 -29.5 -199t-85.5 -200q-77 -120 -217.5 -184t-359.5 -83zM600 369l139 653q-103 -9 -172.5 -45.5
t-113.5 -112.5q-68 -115 -68 -268q0 -106 50.5 -162.5t164.5 -64.5zM997 1022l-139 -653q187 13 272 139q82 125 82 291q0 101 -51.5 156t-163.5 67z" />
    <glyph glyph-name="uni0425" unicode="&#x425;" horiz-adv-x="1260" 
d="M240 0h-320l604 721l-291 663h297l189 -458l375 458h321l-590 -688l295 -696h-295l-196 492z" />
    <glyph glyph-name="uni0426" unicode="&#x426;" horiz-adv-x="1386" 
d="M973 0h-936l293 1384h276l-239 -1126h499l240 1126h276l-239 -1126h160l-111 -520h-277z" />
    <glyph glyph-name="uni0427" unicode="&#x427;" horiz-adv-x="1262" 
d="M184 975l84 409h277l-76 -356q-25 -125 -25 -172q0 -72 35.5 -102.5t120.5 -30.5q134 0 291 41l131 620h276l-292 -1384h-277l109 514q-159 -41 -332 -41q-180 0 -263 77t-83 230q0 81 24 195z" />
    <glyph glyph-name="uni0428" unicode="&#x428;" horiz-adv-x="1833" 
d="M995 258h357l239 1126h277l-293 -1384h-1538l293 1384h276l-239 -1126h354l240 1126h274z" />
    <glyph glyph-name="uni0429" unicode="&#x429;" horiz-adv-x="1868" 
d="M1454 0h-1417l293 1384h276l-239 -1126h354l240 1126h274l-240 -1126h357l239 1126h277l-240 -1130h158l-111 -516h-278z" />
    <glyph glyph-name="uni042A" unicode="&#x42a;" horiz-adv-x="1530" 
d="M168 1149l49 235h682l-104 -491h209q236 0 342 -80.5t106 -261.5q0 -111 -55 -250q-68 -163 -213 -232t-396 -69h-458l241 1149h-403zM1137 401q22 64 22 115q0 70 -42.5 101.5t-145.5 31.5h-228l-86 -401h195q224 0 285 153z" />
    <glyph glyph-name="uni042B" unicode="&#x42b;" horiz-adv-x="1776" 
d="M496 0h-459l293 1384h276l-104 -491h209q236 0 342 -80.5t106 -261.5q0 -57 -16 -127.5t-39 -122.5q-68 -163 -213 -232t-395 -69zM844 401q22 64 22 115q0 70 -42.5 101.5t-145.5 31.5h-227l-86 -401h194q224 0 285 153zM1520 0h-277l293 1384h276z" />
    <glyph glyph-name="uni042C" unicode="&#x42c;" horiz-adv-x="1237" 
d="M496 0h-459l293 1384h276l-104 -491h209q236 0 342 -80.5t106 -261.5q0 -57 -16 -127.5t-39 -122.5q-68 -163 -213 -232t-395 -69zM844 401q22 64 22 115q0 70 -42.5 101.5t-145.5 31.5h-227l-86 -401h194q224 0 285 153z" />
    <glyph glyph-name="uni042D" unicode="&#x42d;" horiz-adv-x="1245" 
d="M332 985l-195 170q228 258 580 258q257 0 383.5 -127t126.5 -395q0 -111 -27 -246.5t-86 -259.5q-42 -87 -98.5 -158.5t-133 -130.5t-178.5 -92t-221 -33q-364 0 -497 269l243 149q44 -94 103.5 -131t163.5 -37q123 0 210 67.5t138 184.5q18 45 37 102h-566l54 250h563
q2 15 2 62q0 146 -64 211t-168 65q-115 0 -198 -40t-172 -138z" />
    <glyph glyph-name="uni042E" unicode="&#x42e;" horiz-adv-x="1898" 
d="M1165 -29q-487 0 -487 492q0 55 6 112h-250l-121 -575h-276l293 1384h276l-123 -579h242q4 12 11.5 39.5l12.5 44.5t13 40.5t16 41.5q188 442 606 442q237 0 366.5 -133.5t129.5 -400.5q0 -179 -65 -379q-82 -259 -237 -394t-413 -135zM954 485q0 -152 50.5 -218
t169.5 -66q69 0 129.5 30t105 82.5t77 114t54.5 133.5q51 157 51 318q0 154 -53 229.5t-170 75.5q-118 0 -198 -76.5t-140 -224.5q-76 -192 -76 -398z" />
    <glyph glyph-name="uni042F" unicode="&#x42f;" horiz-adv-x="1257" 
d="M260 0h-332l482 565q-215 50 -215 291q0 119 57 260q55 133 182.5 200.5t343.5 67.5h516l-293 -1384h-276l111 524h-140zM684 770h203l80 369h-215q-97 0 -151.5 -21.5t-84.5 -75.5q-16 -28 -26.5 -73t-10.5 -80q0 -65 45.5 -92t159.5 -27z" />
    <glyph glyph-name="uni0430" unicode="&#x430;" horiz-adv-x="1116" 
d="M870 0h-231l23 109q-187 -140 -322 -140q-164 0 -240.5 71t-76.5 216q0 89 41 161.5t113.5 120.5t163.5 77t198 38l223 21l8 47q6 32 6 45q0 58 -45 83t-133 25q-165 0 -252 -108l-170 129q139 184 438 184q221 0 316.5 -66t95.5 -198q0 -79 -16 -153zM678 287l43 200
l-131 -12q-141 -13 -219 -58.5t-78 -137.5q0 -59 30 -82t89 -23q107 0 266 113z" />
    <glyph glyph-name="uni0431" unicode="&#x431;" horiz-adv-x="1219" 
d="M451 915q149 103 333 103q185 0 277 -89t92 -280q0 -83 -32.5 -199t-88.5 -208q-161 -273 -508 -273q-216 0 -319 115t-103 346q0 77 25 214.5t68 264.5q37 113 76 192t98.5 147t134 111.5t184.5 77.5t248.5 53t327.5 30l-45 -211q-112 -10 -188 -18.5t-151.5 -21
t-124 -26.5t-95.5 -35.5t-76 -47t-55.5 -62.5t-44 -81t-33.5 -102zM401 692q-39 -130 -39 -289q0 -112 47 -170.5t130 -58.5q170 0 262 158q86 148 86 309q0 90 -44 132t-136 42q-103 0 -215 -62q-50 -27 -91 -61z" />
    <glyph glyph-name="uni0432" unicode="&#x432;" horiz-adv-x="1135" 
d="M825 569q92 -22 141.5 -73.5t49.5 -145.5q0 -154 -129.5 -252t-341.5 -98h-512l221 1049h448q178 0 262.5 -51t84.5 -175q0 -175 -224 -254zM418 641h172q194 0 194 127q0 98 -129 98h-190zM322 184h186q117 0 181.5 41.5t64.5 124.5q0 63 -47.5 86t-149.5 23h-178z" />
    <glyph glyph-name="uni0433" unicode="&#x433;" horiz-adv-x="1026" 
d="M37 256q0 51 18.5 112t61.5 107q41 46 109 80t126.5 50.5t167.5 41.5q127 32 168 66q13 11 22 31t9 38q0 86 -141 86q-74 0 -127 -25.5t-101 -80.5l-139 160q133 157 381 157q385 0 385 -288q0 -34 -12.5 -85t-40.5 -92q-51 -71 -149 -117t-249 -79q-133 -31 -182 -62
q-51 -32 -51 -84q0 -49 38 -70.5t115 -21.5q75 0 135 23.5t117 83.5l144 -158q-142 -160 -416 -160q-389 0 -389 287z" />
    <glyph glyph-name="uni0434" unicode="&#x434;" horiz-adv-x="1155" 
d="M846 981q0 159 -51.5 221t-145.5 62q-67 0 -116 -22t-97 -66l-151 182q85 66 172 98.5t194 32.5q210 0 328.5 -128.5t118.5 -395.5q0 -291 -82 -543q-145 -453 -547 -453q-401 0 -401 400q0 123 46 268t144 252q148 160 387 160q56 0 110 -18.5t91 -49.5zM334 369
q0 -174 151 -174q179 0 271 239q60 155 80 346q-88 43 -174 43q-133 0 -213 -98q-52 -63 -83.5 -163.5t-31.5 -192.5z" />
    <glyph glyph-name="uni0435" unicode="&#x435;" horiz-adv-x="1120" 
d="M1024 457h-686q-8 -35 -8 -86q0 -91 46 -133.5t138 -42.5q87 0 150.5 25t119.5 75l144 -164q-85 -83 -182 -122.5t-254 -39.5q-113 0 -196.5 30.5t-133 86t-73 126t-23.5 157.5q0 276 161 503q69 97 179 152t256 55q403 0 403 -364q0 -50 -14 -125zM379 635h426
q10 47 10 86q0 79 -37.5 116t-126.5 37q-128 0 -198 -92q-48 -60 -74 -147z" />
    <glyph glyph-name="uni0436" unicode="&#x436;" horiz-adv-x="1982" 
d="M1800 215l45 -215q-91 -31 -174 -31q-193 0 -274.5 106.5t-81.5 323.5q0 115 26 215q-291 -270 -399 -614h-188l112 535q-204 -260 -467 -465q-128 -101 -288 -101q-100 0 -172 29l81 217q45 -20 97 -20q61 0 113 44t85 112.5t51.5 148t18.5 155.5q0 100 -27.5 149.5
t-99.5 49.5q-50 0 -108 -20l-41 213q1 0 31.5 9t43 12t40.5 7t55 4q194 0 275 -106t81 -324q0 -89 -23 -198q140 136 237.5 279t158.5 319h188l-106 -496q120 146 255.5 268.5t253.5 192.5q112 65 240 65q103 0 172 -28l-82 -217q-44 20 -96 20q-61 0 -113 -44t-85 -112.5
t-51.5 -148.5t-18.5 -156q0 -101 27 -149.5t100 -48.5q50 0 108 20z" />
    <glyph glyph-name="uni0437" unicode="&#x437;" horiz-adv-x="987" 
d="M213 442l41 185h219q39 0 73 6t67 19.5t52 40.5t19 65q0 110 -158 110q-143 0 -235 -98l-152 129q74 89 185.5 134.5t246.5 45.5q373 0 373 -286q0 -89 -52.5 -157t-150.5 -110q57 -20 91 -69t34 -111q0 -119 -72.5 -206.5t-185 -129t-246.5 -41.5q-312 0 -395 181
l219 137q30 -56 74 -80.5t111 -24.5q41 0 79 8.5t73.5 26.5t57 52t21.5 79q0 49 -37 71.5t-125 22.5h-227z" />
    <glyph glyph-name="uni0438" unicode="&#x438;" 
d="M248 1049h252l-123 -578q-23 -110 -23 -168t21.5 -82t68.5 -24q126 0 318 151l147 701h252l-221 -1049h-252l29 135q-190 -166 -359 -166q-74 0 -128 20t-83.5 56t-43 79t-13.5 95q0 86 19 168z" />
    <glyph glyph-name="uni0439" unicode="&#x439;" 
d="M248 1049h252l-123 -578q-23 -110 -23 -168t21.5 -82t68.5 -24q126 0 318 151l147 701h252l-221 -1049h-252l29 135q-190 -166 -359 -166q-74 0 -128 20t-83.5 56t-43 79t-13.5 95q0 86 19 168zM868 1466h238q-29 -141 -125.5 -209.5t-272.5 -68.5q-170 0 -246.5 69.5
t-76.5 208.5h235q0 -82 25 -115.5t80 -33.5q47 0 86.5 36.5t56.5 112.5z" />
    <glyph glyph-name="uni043A" unicode="&#x43a;" horiz-adv-x="1087" 
d="M240 1049h249l-88 -416h93q58 0 104.5 32.5t106.5 122t145 261.5h270q-83 -175 -138.5 -269t-110.5 -149t-130 -92q46 -24 77 -59t50.5 -78t31.5 -104.5t19.5 -129.5t16.5 -163v-5h-250q-25 224 -39 284q-27 113 -90 142q-29 14 -70 14h-127l-92 -440h-250z" />
    <glyph glyph-name="uni043B" unicode="&#x43b;" horiz-adv-x="1198" 
d="M891 858h-264l-23 -102q-35 -161 -69.5 -278t-73.5 -204.5t-80 -142.5t-94 -89t-110.5 -47t-133.5 -13q-33 0 -74 8t-61 18l82 187q24 -9 53 -9q70 0 124 57.5t105.5 199t104.5 388.5l45 218h758l-222 -1049h-249z" />
    <glyph glyph-name="uni043C" unicode="&#x43c;" horiz-adv-x="1364" 
d="M1348 1049l-222 -1049h-223l158 748l-361 -486h-137l-164 486l-157 -748h-224l222 1049h268l170 -508l381 508h289z" />
    <glyph glyph-name="uni043D" unicode="&#x43d;" horiz-adv-x="1178" 
d="M1161 1049l-221 -1049h-254l92 442h-416l-92 -442h-252l222 1049h252l-89 -414h416l88 414h254z" />
    <glyph glyph-name="uni043E" unicode="&#x43e;" horiz-adv-x="1165" 
d="M68 381q0 130 46.5 279.5t147.5 254.5q156 164 418 164q196 0 307 -109t111 -321q0 -74 -18.5 -161.5t-69 -192.5t-123.5 -178q-82 -82 -175 -115t-231 -33q-413 0 -413 412zM334 377q0 -90 40.5 -136t133.5 -46q118 0 203 96q53 62 88 167t35 185q0 211 -185 211
q-118 0 -200 -102q-52 -66 -83.5 -171.5t-31.5 -203.5z" />
    <glyph glyph-name="uni043F" unicode="&#x43f;" 
d="M946 0h-252l123 578q25 120 25 184q0 90 -90 90q-127 0 -320 -152l-147 -700h-252l221 1049h252l-29 -136q192 166 369 166q136 0 197 -70t61 -180q0 -85 -19 -167z" />
    <glyph glyph-name="uni0440" unicode="&#x440;" 
d="M301 78l-100 -473h-250l303 1444h231l-20 -103q173 133 330 133q165 0 249 -89.5t84 -284.5q0 -67 -12.5 -142.5t-38.5 -160t-71.5 -160.5t-105 -138t-146 -98.5t-187.5 -36.5q-172 0 -266 109zM442 750l-96 -459q35 -39 89 -66.5t112 -27.5q75 0 137 47.5t98.5 120
t56 152t19.5 151.5q0 97 -35 140.5t-118 43.5q-62 0 -133 -28.5t-130 -73.5z" />
    <glyph glyph-name="uni0441" unicode="&#x441;" horiz-adv-x="1038" 
d="M743 299l168 -149q-78 -86 -190 -133.5t-238 -47.5q-220 0 -317.5 107.5t-97.5 322.5q0 75 18 160t62.5 179t110 168.5t171 123.5t234.5 49q147 0 239.5 -45t149.5 -139l-213 -133q-28 48 -72 70t-117 22q-67 0 -122.5 -33t-90.5 -83.5t-59.5 -114t-34.5 -121.5t-10 -109
q0 -100 38 -149t138 -49q134 0 233 104z" />
    <glyph glyph-name="uni0442" unicode="&#x442;" horiz-adv-x="1755" 
d="M1509 0h-254l131 618q21 95 21 150q0 84 -86 84q-105 0 -277 -152l-147 -700h-254l131 618q21 95 21 136q0 51 -17 74.5t-69 23.5q-58 0 -134 -44.5t-143 -107.5l-147 -700h-252l221 1049h252l-29 -136q183 166 346 166q230 0 240 -188q116 96 200 142t162 46
q135 0 191.5 -62t56.5 -173q0 -85 -20 -166z" />
    <glyph glyph-name="uni0443" unicode="&#x443;" horiz-adv-x="1063" 
d="M-205 -358l88 217q76 -29 152 -29q59 0 112 43.5t119 153.5l37 61l-166 961h252l103 -676l387 676h270l-680 -1121q-106 -178 -205 -250.5t-258 -72.5q-84 0 -211 37z" />
    <glyph glyph-name="uni0444" unicode="&#x444;" horiz-adv-x="1700" 
d="M1442 1497l-60 -223q-68 20 -112 20q-76 0 -114 -32.5t-54 -110.5l-41 -184q134 112 278 112q148 0 221.5 -89t73.5 -285q0 -66 -12.5 -142t-37.5 -160.5t-68.5 -160.5t-100 -138t-137 -98.5t-174.5 -36.5q-133 0 -227 117l-23 -113q-38 -184 -137 -276t-295 -92
q-114 0 -225 41l84 217q101 -33 168 -33q76 0 115 33t54 110l21 113q-148 -117 -279 -117q-148 0 -221 93t-73 303q0 87 20.5 183t63 191t101.5 170.5t143 122.5t179 47q83 0 141.5 -27t110.5 -85l39 184q19 92 48.5 156.5t79 114t125 74t179.5 24.5q64 0 146 -23zM684 299
l96 459q-71 94 -166 94q-76 0 -136.5 -53t-93.5 -131.5t-50 -153.5t-17 -133q0 -96 32.5 -140t105.5 -44q52 0 115.5 29t113.5 73zM1018 758l-96 -459q73 -102 163 -102q88 0 158.5 81t104.5 187t34 203q0 96 -32.5 140t-104.5 44q-54 0 -116.5 -25.5t-110.5 -68.5z" />
    <glyph glyph-name="uni0445" unicode="&#x445;" horiz-adv-x="1057" 
d="M918 0h-281l-148 338l-264 -338h-303l463 547l-238 502h275l143 -326l269 326h303l-467 -533z" />
    <glyph glyph-name="uni0446" unicode="&#x446;" horiz-adv-x="1219" 
d="M872 0h-124v160q-114 -97 -206 -144t-184 -47q-74 0 -128 20t-83.5 56t-43 79t-13.5 95q0 86 19 168l139 662h252l-123 -578q-23 -110 -23 -168t21.5 -82t68.5 -24q126 0 318 151l147 701h252l-182 -861h162l-97 -450h-229z" />
    <glyph glyph-name="uni0447" unicode="&#x447;" horiz-adv-x="1128" 
d="M131 731l68 318h252l-64 -299q-16 -74 -16 -119q0 -57 31 -79t106 -22q125 0 248 21l104 498h250l-221 -1049h-250l78 375q-182 -35 -283 -35q-173 0 -248 59t-75 189q0 47 20 143z" />
    <glyph glyph-name="uni0448" unicode="&#x448;" horiz-adv-x="1755" 
d="M248 1049h254l-131 -619q-21 -95 -21 -149q0 -84 86 -84q56 0 129.5 41.5t147.5 109.5l147 701h254l-131 -619q-20 -91 -20 -135q0 -52 16 -75t70 -23q58 0 133 44t143 107l148 701h251l-221 -1049h-252l29 135q-185 -166 -346 -166q-230 0 -240 189
q-117 -98 -200.5 -143.5t-161.5 -45.5q-135 0 -191.5 62.5t-56.5 173.5q0 82 20 166z" />
    <glyph glyph-name="uni0449" unicode="&#x449;" horiz-adv-x="1782" 
d="M248 1049h254l-131 -619q-21 -95 -21 -149q0 -84 86 -84q56 0 129.5 41.5t147.5 109.5l147 701h254l-131 -619q-20 -91 -20 -135q0 -52 16 -75t70 -23q58 0 133 44t143 107l148 701h251l-182 -861h162l-96 -450h-230l58 262h-125v162q-201 -193 -377 -193
q-230 0 -240 189q-117 -98 -200.5 -143.5t-161.5 -45.5q-135 0 -191.5 62.5t-56.5 173.5q0 82 20 166z" />
    <glyph glyph-name="uni044A" unicode="&#x44a;" horiz-adv-x="1317" 
d="M717 1049l-78 -371h201q193 0 289 -66.5t96 -210.5q0 -82 -29.5 -150t-80 -114t-119 -77.5t-144.5 -45.5t-158 -14h-448l182 862h-340l39 187h590zM535 188h172q45 0 87 9.5t80 29.5t61 58.5t23 89.5q0 64 -45.5 89t-142.5 25h-172z" />
    <glyph glyph-name="uni044B" unicode="&#x44b;" horiz-adv-x="1573" 
d="M504 1049l-78 -371h201q193 0 289 -66.5t96 -210.5q0 -82 -29.5 -150t-80 -114t-119 -77.5t-144.5 -45.5t-158 -14h-448l221 1049h250zM322 188h172q45 0 87 9.5t80 29.5t61 58.5t23 89.5q0 64 -45.5 89t-142.5 25h-172zM1319 0h-252l221 1049h252z" />
    <glyph glyph-name="uni044C" unicode="&#x44c;" horiz-adv-x="1104" 
d="M504 1049l-78 -371h201q193 0 289 -66.5t96 -210.5q0 -82 -29.5 -150t-80 -114t-119 -77.5t-144.5 -45.5t-158 -14h-448l221 1049h250zM322 188h172q45 0 87 9.5t80 29.5t61 58.5t23 89.5q0 64 -45.5 89t-142.5 25h-172z" />
    <glyph glyph-name="uni044D" unicode="&#x44d;" horiz-adv-x="1038" 
d="M295 750l-168 149q78 86 190 133t238 47q220 0 318 -107t98 -323q0 -52 -9 -110.5t-30.5 -125t-53 -129t-80 -120.5t-108 -101t-141 -68.5t-174.5 -25.5q-147 0 -240.5 45.5t-148.5 139.5l213 133q28 -49 71.5 -70.5t116.5 -21.5q104 0 173 69t108 178h-467l41 185h460
q3 11 3 28q0 100 -38 149.5t-139 49.5q-131 0 -233 -104z" />
    <glyph glyph-name="uni044E" unicode="&#x44e;" horiz-adv-x="1677" 
d="M590 381q0 7 1 22t1 23h-232l-90 -426h-252l222 1049h252l-93 -435h224q19 71 49 134.5t78 125.5t109 106t147 71.5t186 27.5q206 0 312 -113.5t106 -328.5q0 -43 -7.5 -95t-27.5 -117.5t-50 -128t-79 -122.5t-110 -105t-147.5 -72.5t-187.5 -27.5q-218 0 -314.5 104.5
t-96.5 307.5zM846 377q0 -96 39.5 -149.5t136.5 -53.5q77 0 141.5 49.5t103 124t59 152.5t20.5 143q0 107 -43.5 169t-133.5 62q-76 0 -139.5 -46t-102.5 -120t-60 -160t-21 -171z" />
    <glyph glyph-name="uni044F" unicode="&#x44f;" horiz-adv-x="1098" 
d="M596 0l86 412h-107l-329 -412h-295l358 432q-174 50 -174 240q0 123 62 210t161.5 127t225.5 40h483l-221 -1049h-250zM778 860h-180q-95 0 -150 -39.5t-55 -122.5q0 -54 36.5 -76t113.5 -22h180z" />
    <glyph glyph-name="uni0450" unicode="&#x450;" horiz-adv-x="1120" 
d="M1024 457h-686q-8 -35 -8 -86q0 -91 46 -133.5t138 -42.5q87 0 150.5 25t119.5 75l144 -164q-85 -83 -182 -122.5t-254 -39.5q-113 0 -196.5 30.5t-133 86t-73 126t-23.5 157.5q0 276 161 503q69 97 179 152t256 55q403 0 403 -364q0 -50 -14 -125zM379 635h426
q10 47 10 86q0 79 -37.5 116t-126.5 37q-128 0 -198 -92q-48 -60 -74 -147zM880 1208h-190l-227 361h299z" />
    <glyph glyph-name="uni0451" unicode="&#x451;" horiz-adv-x="1120" 
d="M1024 457h-686q-8 -35 -8 -86q0 -91 46 -133.5t138 -42.5q87 0 150.5 25t119.5 75l144 -164q-85 -83 -182 -122.5t-254 -39.5q-113 0 -196.5 30.5t-133 86t-73 126t-23.5 157.5q0 276 161 503q69 97 179 152t256 55q403 0 403 -364q0 -50 -14 -125zM379 635h426
q10 47 10 86q0 79 -37.5 116t-126.5 37q-128 0 -198 -92q-48 -60 -74 -147zM614 1341q0 -51 -20 -90q-21 -41 -57 -58t-95 -17q-63 0 -88 20t-25 64q0 43 17 86q18 45 54 64.5t97 19.5q62 0 89.5 -21.5t27.5 -67.5zM1040 1341q0 -51 -20 -90q-21 -41 -57 -58t-95 -17
q-63 0 -88 20t-25 64q0 43 17 86q18 45 54 64.5t97 19.5q62 0 89.5 -21.5t27.5 -67.5z" />
    <glyph glyph-name="uni0452" unicode="&#x452;" horiz-adv-x="1214" 
d="M432 700l-147 -700h-252l254 1198h-142l39 184h142l22 107h252l-22 -107h264l-39 -184h-266l-60 -285q190 166 365 166q146 0 218.5 -81t72.5 -248q0 -237 -91 -512q-56 -172 -125 -291.5t-152.5 -188.5t-170.5 -102.5t-199 -46.5v205q142 38 231 139t156 326
q35 112 57.5 239.5t22.5 198.5q0 73 -29.5 104t-93.5 31q-55 0 -137.5 -40.5t-169.5 -111.5z" />
    <glyph glyph-name="uni0453" unicode="&#x453;" horiz-adv-x="1026" 
d="M37 256q0 51 18.5 112t61.5 107q41 46 109 80t126.5 50.5t167.5 41.5q127 32 168 66q13 11 22 31t9 38q0 86 -141 86q-74 0 -127 -25.5t-101 -80.5l-139 160q133 157 381 157q385 0 385 -288q0 -34 -12.5 -85t-40.5 -92q-51 -71 -149 -117t-249 -79q-133 -31 -182 -62
q-51 -32 -51 -84q0 -49 38 -70.5t115 -21.5q75 0 135 23.5t117 83.5l144 -158q-142 -160 -416 -160q-389 0 -389 287zM1038 1569l-355 -361h-215l244 361h326z" />
    <glyph glyph-name="uni0454" unicode="&#x454;" horiz-adv-x="1038" 
d="M743 299l168 -149q-78 -86 -190 -133.5t-238 -47.5q-220 0 -317.5 107.5t-97.5 322.5q0 75 18 160t62.5 179t110 168.5t171 123.5t234.5 49q147 0 239.5 -45t149.5 -139l-213 -133q-28 48 -72 70t-117 22q-98 0 -166 -64t-106 -163h463l-41 -185h-465q-2 -13 -2 -49
q0 -100 38 -149t138 -49q134 0 233 104z" />
    <glyph glyph-name="uni0455" unicode="&#x455;" horiz-adv-x="1006" 
d="M-6 152l217 135q33 -59 86 -83t127 -24q105 0 156 31t51 84q0 44 -36 71t-153 58q-172 45 -238.5 114t-66.5 189q0 149 120 250.5t335 101.5q140 0 236.5 -43t164.5 -137l-217 -137q-27 50 -81 78t-128 28q-84 0 -128 -32t-44 -68q0 -47 30 -72.5t126 -50.5
q191 -49 264.5 -119t73.5 -192q0 -161 -126 -263t-353 -102q-169 0 -263.5 44.5t-152.5 138.5z" />
    <glyph glyph-name="uni0456" unicode="&#x456;" horiz-adv-x="539" 
d="M285 0h-252l221 1049h252zM295 1300q0 24 7.5 50t24.5 53.5t52.5 45t83.5 17.5q125 0 125 -94q0 -27 -8.5 -54t-26.5 -54t-53 -43.5t-82 -16.5q-67 0 -95 24t-28 72z" />
    <glyph glyph-name="uni0457" unicode="&#x457;" horiz-adv-x="539" 
d="M285 0h-252l221 1049h252zM359 1341q0 -51 -20 -90q-21 -41 -57 -58t-95 -17q-63 0 -88 20t-25 64q0 43 17 86q18 45 54 64.5t97 19.5q62 0 89.5 -21.5t27.5 -67.5zM785 1341q0 -51 -20 -90q-21 -41 -57 -58t-95 -17q-63 0 -88 20t-25 64q0 43 17 86q18 45 54 64.5
t97 19.5q62 0 89.5 -21.5t27.5 -67.5z" />
    <glyph glyph-name="uni0458" unicode="&#x458;" horiz-adv-x="551" 
d="M520 1049l-231 -1094q-40 -188 -138.5 -269t-285.5 -81q-119 0 -209 30l100 224q66 -29 144 -29q70 0 97.5 42.5t53.5 164.5l215 1012h254zM309 1300q0 24 7.5 50t24.5 53.5t52.5 45t83.5 17.5q125 0 125 -94q0 -27 -8.5 -54t-26.5 -54t-53 -43.5t-82 -16.5q-67 0 -95 24
t-28 72z" />
    <glyph glyph-name="uni0459" unicode="&#x459;" horiz-adv-x="1761" 
d="M870 858h-243l-23 -102q-35 -161 -69.5 -278t-73.5 -204.5t-80 -142.5t-94 -89t-110.5 -47t-133.5 -13q-33 0 -74 8t-61 18l82 187q24 -9 53 -9q70 0 124 57.5t105.5 199t104.5 388.5l45 218h739l-78 -371h201q193 0 289 -66.5t96 -210.5q0 -82 -29.5 -150t-80 -114
t-119 -77.5t-144 -45.5t-157.5 -14h-449zM979 188h172q63 0 116.5 15.5t94.5 59.5t41 112q0 64 -46 89t-143 25h-172z" />
    <glyph glyph-name="uni045A" unicode="&#x45a;" horiz-adv-x="1718" 
d="M1139 1049l-82 -385h184q193 0 289 -65t96 -206q0 -100 -45 -177.5t-121 -123t-167.5 -69t-192.5 -23.5h-436l100 475h-393l-101 -475h-252l222 1049h252l-82 -385h393l82 385h254zM1171 475h-153l-62 -287h156q44 0 85 9t79 28t61 55.5t23 86.5q0 61 -45.5 84.5
t-143.5 23.5z" />
    <glyph glyph-name="uni045B" unicode="&#x45b;" 
d="M803 1198h-266l-60 -285q189 166 375 166q133 0 192.5 -70t59.5 -180q0 -85 -19 -167l-139 -662h-252l123 578q25 120 25 178q0 51 -23.5 73.5t-70.5 22.5q-121 0 -316 -152l-147 -700h-252l254 1198h-142l39 184h142l22 107h252l-22 -107h264z" />
    <glyph glyph-name="uni045C" unicode="&#x45c;" horiz-adv-x="1087" 
d="M240 1049h249l-88 -416h93q58 0 104.5 32.5t106.5 122t145 261.5h270q-83 -175 -138.5 -269t-110.5 -149t-130 -92q46 -24 77 -59t50.5 -78t31.5 -104.5t19.5 -129.5t16.5 -163v-5h-250q-25 224 -39 284q-27 113 -90 142q-29 14 -70 14h-127l-92 -440h-250zM1102 1569
l-355 -361h-215l244 361h326z" />
    <glyph glyph-name="uni045D" unicode="&#x45d;" 
d="M248 1049h252l-123 -578q-23 -110 -23 -168t21.5 -82t68.5 -24q126 0 318 151l147 701h252l-221 -1049h-252l29 135q-190 -166 -359 -166q-74 0 -128 20t-83.5 56t-43 79t-13.5 95q0 86 19 168zM807 1208h-190l-227 361h299z" />
    <glyph glyph-name="uni045E" unicode="&#x45e;" horiz-adv-x="1063" 
d="M-205 -358l88 217q76 -29 152 -29q59 0 112 43.5t119 153.5l37 61l-166 961h252l103 -676l387 676h270l-680 -1121q-106 -178 -205 -250.5t-258 -72.5q-84 0 -211 37zM804 1466h238q-29 -141 -125.5 -209.5t-272.5 -68.5q-170 0 -246.5 69.5t-76.5 208.5h235
q0 -82 25 -115.5t80 -33.5q47 0 86.5 36.5t56.5 112.5z" />
    <glyph glyph-name="uni045F" unicode="&#x45f;" horiz-adv-x="1178" 
d="M1161 1049l-221 -1049h-336l-57 -262h-252l57 262h-334l222 1049h252l-183 -861h416l182 861h254z" />
    <glyph glyph-name="uni0490" unicode="&#x490;" horiz-adv-x="979" 
d="M856 1384l53 250h279l-109 -508h-530l-238 -1126h-274l293 1384h526z" />
    <glyph glyph-name="uni0491" unicode="&#x491;" horiz-adv-x="887" 
d="M270 0h-252l222 1049h479l61 286h250l-102 -479h-477z" />
    <glyph glyph-name="Wgrave" unicode="&#x1e80;" horiz-adv-x="1796" 
d="M1937 1384l-645 -1384h-282l-33 915l-424 -915h-279l-49 1384h269l26 -909l414 909h274l33 -909l416 909h280zM1230 1544h-190l-227 361h299z" />
    <glyph glyph-name="wgrave" unicode="&#x1e81;" horiz-adv-x="1534" 
d="M1618 1049l-496 -1049h-231l-90 668l-373 -668h-231l-60 1049h252l17 -676l372 676h191l92 -670l295 670h262zM1001 1208h-190l-227 361h299z" />
    <glyph glyph-name="Wacute" unicode="&#x1e82;" horiz-adv-x="1796" 
d="M1937 1384l-645 -1384h-282l-33 915l-424 -915h-279l-49 1384h269l26 -909l414 909h274l33 -909l416 909h280zM1481 1905l-355 -361h-215l244 361h326z" />
    <glyph glyph-name="wacute" unicode="&#x1e83;" horiz-adv-x="1534" 
d="M1618 1049l-496 -1049h-231l-90 668l-373 -668h-231l-60 1049h252l17 -676l372 676h191l92 -670l295 670h262zM1301 1569l-355 -361h-215l244 361h326z" />
    <glyph glyph-name="Wdieresis" unicode="&#x1e84;" horiz-adv-x="1796" 
d="M1937 1384l-645 -1384h-282l-33 915l-424 -915h-279l-49 1384h269l26 -909l414 909h274l33 -909l416 909h280zM1036 1677q0 -51 -20 -90q-21 -41 -57 -58t-95 -17q-63 0 -88 20t-25 64q0 43 17 86q18 45 54 64.5t97 19.5q62 0 89.5 -21.5t27.5 -67.5zM1462 1677
q0 -51 -20 -90q-21 -41 -57 -58t-95 -17q-63 0 -88 20t-25 64q0 43 17 86q18 45 54 64.5t97 19.5q62 0 89.5 -21.5t27.5 -67.5z" />
    <glyph glyph-name="wdieresis" unicode="&#x1e85;" horiz-adv-x="1534" 
d="M1618 1049l-496 -1049h-231l-90 668l-373 -668h-231l-60 1049h252l17 -676l372 676h191l92 -670l295 670h262zM846 1341q0 -51 -20 -90q-21 -41 -57 -58t-95 -17q-63 0 -88 20t-25 64q0 43 17 86q18 45 54 64.5t97 19.5q62 0 89.5 -21.5t27.5 -67.5zM1272 1341
q0 -51 -20 -90q-21 -41 -57 -58t-95 -17q-63 0 -88 20t-25 64q0 43 17 86q18 45 54 64.5t97 19.5q62 0 89.5 -21.5t27.5 -67.5z" />
    <glyph glyph-name="Eszett" unicode="&#x1e9e;" horiz-adv-x="1442" 
d="M434 229l232 154q33 -82 77.5 -122t124.5 -40q82 0 132.5 45.5t50.5 124.5q0 76 -35.5 124.5t-120.5 98.5q-126 78 -176.5 147.5t-50.5 166.5q0 154 118 233q-21 4 -53 4q-96 0 -145 -49t-78 -184l-197 -932h-276l203 961q50 239 176 346.5t354 107.5q218 0 404 -53
l-54 -229q-78 -6 -118.5 -42.5t-40.5 -82.5q0 -64 31 -102.5t112 -86.5q53 -32 93 -66t75.5 -82t54.5 -112.5t19 -142.5q0 -93 -31.5 -173t-91 -141t-153.5 -96t-212 -35q-334 0 -424 258z" />
    <glyph glyph-name="Adotbelow" unicode="&#x1ea0;" horiz-adv-x="1311" 
d="M201 0h-283l739 1384h361l156 -1384h-273l-31 281h-518zM784 1100l-303 -572h363zM655 -201q0 -62 -28 -108q-40 -70 -150 -70q-117 0 -117 80q0 56 23 102q39 80 149 80q65 0 94 -20t29 -64z" />
    <glyph glyph-name="adotbelow" unicode="&#x1ea1;" 
d="M66 344q0 80 16 164t46 166.5t77.5 155.5t106.5 128.5t137 88t165 32.5q180 0 279 -108l16 78h250l-219 -1049h-211l6 129q-104 -89 -182 -124.5t-168 -35.5q-319 0 -319 375zM758 326l90 432q-35 39 -89 66.5t-112 27.5q-75 0 -137 -47.5t-98.5 -120.5t-56 -152
t-19.5 -151q0 -96 32 -140t101 -44q125 0 289 129zM573 -201q0 -62 -28 -108q-40 -70 -150 -70q-117 0 -117 80q0 56 23 102q39 80 149 80q65 0 94 -20t29 -64z" />
    <glyph glyph-name="Ahookabove" unicode="&#x1ea2;" horiz-adv-x="1311" 
d="M201 0h-283l739 1384h361l156 -1384h-273l-31 281h-518zM784 1100l-303 -572h363zM739 1718l-61 99q72 57 184 57q99 0 154 -42.5t55 -115.5q0 -161 -182 -178l-8 -41h-127l31 135h14q88 0 88 62q0 23 -18 36t-48 13q-48 0 -82 -25z" />
    <glyph glyph-name="ahookabove" unicode="&#x1ea3;" 
d="M66 344q0 80 16 164t46 166.5t77.5 155.5t106.5 128.5t137 88t165 32.5q180 0 279 -108l16 78h250l-219 -1049h-211l6 129q-104 -89 -182 -124.5t-168 -35.5q-319 0 -319 375zM758 326l90 432q-35 39 -89 66.5t-112 27.5q-75 0 -137 -47.5t-98.5 -120.5t-56 -152
t-19.5 -151q0 -96 32 -140t101 -44q125 0 289 129zM574 1382l-62 99q72 57 185 57q99 0 154 -42.5t55 -115.5q0 -161 -183 -178l-8 -41h-127l31 135h14q88 0 88 62q0 49 -65 49q-51 0 -82 -25z" />
    <glyph glyph-name="Acircumflexacute" unicode="&#x1ea4;" horiz-adv-x="1311" 
d="M201 0h-283l739 1384h361l156 -1384h-273l-31 281h-518zM784 1100l-303 -572h363zM1202 1503h-201l-106 144l-182 -144h-211l299 299h239zM1605 2007l-282 -291h-193l172 291h303z" />
    <glyph glyph-name="acircumflexacute" unicode="&#x1ea5;" 
d="M66 344q0 80 16 164t46 166.5t77.5 155.5t106.5 128.5t137 88t165 32.5q180 0 279 -108l16 78h250l-219 -1049h-211l6 129q-104 -89 -182 -124.5t-168 -35.5q-319 0 -319 375zM758 326l90 432q-35 39 -89 66.5t-112 27.5q-75 0 -137 -47.5t-98.5 -120.5t-56 -152
t-19.5 -151q0 -96 32 -140t101 -44q125 0 289 129zM988 1167h-200l-103 144l-186 -144h-211l299 299h240zM1392 1673l-283 -293h-192l172 293h303z" />
    <glyph glyph-name="Acircumflexgrave" unicode="&#x1ea6;" horiz-adv-x="1311" 
d="M201 0h-283l739 1384h361l156 -1384h-273l-31 281h-518zM784 1100l-303 -572h363zM1196 1503h-201l-106 144l-182 -144h-211l299 299h239zM676 1716h-174l-187 291h283z" />
    <glyph glyph-name="acircumflexgrave" unicode="&#x1ea7;" 
d="M66 344q0 80 16 164t46 166.5t77.5 155.5t106.5 128.5t137 88t165 32.5q180 0 279 -108l16 78h250l-219 -1049h-211l6 129q-104 -89 -182 -124.5t-168 -35.5q-319 0 -319 375zM758 326l90 432q-35 39 -89 66.5t-112 27.5q-75 0 -137 -47.5t-98.5 -120.5t-56 -152
t-19.5 -151q0 -96 32 -140t101 -44q125 0 289 129zM1017 1167h-200l-103 144l-186 -144h-211l297 299h240zM495 1380h-174l-186 291h282z" />
    <glyph glyph-name="Acircumflexhookabove" unicode="&#x1ea8;" horiz-adv-x="1311" 
d="M201 0h-283l739 1384h361l156 -1384h-273l-31 281h-518zM784 1100l-303 -572h363zM1196 1503h-201l-106 144l-182 -144h-211l299 299h239zM1122 1892l-61 99q72 57 184 57q99 0 154 -42.5t55 -115.5q0 -161 -182 -178l-8 -41h-127l30 135h15q88 0 88 62q0 49 -66 49
q-48 0 -82 -25z" />
    <glyph glyph-name="acircumflexhookabove" unicode="&#x1ea9;" 
d="M66 344q0 80 16 164t46 166.5t77.5 155.5t106.5 128.5t137 88t165 32.5q180 0 279 -108l16 78h250l-219 -1049h-211l6 129q-104 -89 -182 -124.5t-168 -35.5q-319 0 -319 375zM758 326l90 432q-35 39 -89 66.5t-112 27.5q-75 0 -137 -47.5t-98.5 -120.5t-56 -152
t-19.5 -151q0 -96 32 -140t101 -44q125 0 289 129zM1005 1167h-200l-103 144l-186 -144h-211l299 299h240zM932 1561l-62 98q72 57 185 57q99 0 153.5 -42t54.5 -115q0 -162 -182 -179l-8 -41h-127l31 136h14q88 0 88 61q0 49 -65 49q-49 0 -82 -24z" />
    <glyph glyph-name="Acircumflextilde" unicode="&#x1eaa;" horiz-adv-x="1311" 
d="M201 0h-283l739 1384h361l156 -1384h-273l-31 281h-518zM784 1100l-303 -572h363zM1194 1503h-201l-102 123l-186 -123h-211l301 279h239zM662 1841h-179q36 141 109.5 214t202.5 73q48 0 92 -17.5t70 -38t56.5 -38t55.5 -17.5q44 0 65 20t37 77h179q-36 -147 -108 -219
t-204 -72q-53 0 -98 18t-69.5 39t-53.5 39t-55 18q-41 0 -62.5 -20t-37.5 -76z" />
    <glyph glyph-name="acircumflextilde" unicode="&#x1eab;" 
d="M66 344q0 80 16 164t46 166.5t77.5 155.5t106.5 128.5t137 88t165 32.5q180 0 279 -108l16 78h250l-219 -1049h-211l6 129q-104 -89 -182 -124.5t-168 -35.5q-319 0 -319 375zM758 326l90 432q-35 39 -89 66.5t-112 27.5q-75 0 -137 -47.5t-98.5 -120.5t-56 -152
t-19.5 -151q0 -96 32 -140t101 -44q125 0 289 129zM988 1167h-200l-101 133l-188 -133h-211l305 299h240zM460 1526h-178q36 141 109 213.5t202 72.5q49 0 93 -17t70.5 -38t56.5 -38t55 -17q45 0 65.5 19.5t36.5 76.5h178q-35 -146 -108 -218.5t-203 -72.5q-53 0 -98 18
t-70 39.5t-54 39.5t-55 18q-41 0 -61.5 -19.5t-38.5 -76.5z" />
    <glyph glyph-name="Acircumflexdotbelow" unicode="&#x1eac;" horiz-adv-x="1311" 
d="M201 0h-283l739 1384h361l156 -1384h-273l-31 281h-518zM784 1100l-303 -572h363zM655 -201q0 -62 -28 -108q-40 -70 -150 -70q-117 0 -117 80q0 56 23 102q39 80 149 80q65 0 94 -20t29 -64zM1203 1544h-201l-104 174l-185 -174h-211l307 361h240z" />
    <glyph glyph-name="acircumflexdotbelow" unicode="&#x1ead;" 
d="M66 344q0 80 16 164t46 166.5t77.5 155.5t106.5 128.5t137 88t165 32.5q180 0 279 -108l16 78h250l-219 -1049h-211l6 129q-104 -89 -182 -124.5t-168 -35.5q-319 0 -319 375zM758 326l90 432q-35 39 -89 66.5t-112 27.5q-75 0 -137 -47.5t-98.5 -120.5t-56 -152
t-19.5 -151q0 -96 32 -140t101 -44q125 0 289 129zM1022 1208h-201l-105 174l-184 -174h-211l307 361h240zM573 -201q0 -62 -28 -108q-40 -70 -150 -70q-117 0 -117 80q0 56 23 102q39 80 149 80q65 0 94 -20t29 -64z" />
    <glyph glyph-name="Abreveacute" unicode="&#x1eae;" horiz-adv-x="1311" 
d="M201 0h-283l739 1384h361l156 -1384h-273l-31 281h-518zM784 1100l-303 -572h363zM1251 2068l-283 -249h-192l172 249h303zM1063 1835h184q-28 -152 -129.5 -232.5t-274.5 -80.5q-155 0 -232 67t-77 178q0 33 6 68h187q3 -58 36.5 -84.5t104.5 -26.5q82 0 125.5 27.5
t69.5 83.5z" />
    <glyph glyph-name="abreveacute" unicode="&#x1eaf;" 
d="M66 344q0 80 16 164t46 166.5t77.5 155.5t106.5 128.5t137 88t165 32.5q180 0 279 -108l16 78h250l-219 -1049h-211l6 129q-104 -89 -182 -124.5t-168 -35.5q-319 0 -319 375zM758 326l90 432q-35 39 -89 66.5t-112 27.5q-75 0 -137 -47.5t-98.5 -120.5t-56 -152
t-19.5 -151q0 -96 32 -140t101 -44q125 0 289 129zM1072 1733l-282 -250h-193l172 250h303zM884 1499h184q-28 -152 -129.5 -232.5t-273.5 -80.5q-155 0 -232 67t-77 179q0 34 6 67h186q3 -57 36 -83.5t105 -26.5q81 0 125 27.5t70 82.5z" />
    <glyph glyph-name="Abrevegrave" unicode="&#x1eb0;" horiz-adv-x="1311" 
d="M201 0h-283l739 1384h361l156 -1384h-273l-31 281h-518zM784 1100l-303 -572h363zM975 1819h-174l-181 249h283zM1051 1835h184q-28 -152 -129.5 -232.5t-274.5 -80.5q-155 0 -232 67t-77 178q0 33 6 68h187q3 -58 36.5 -84.5t104.5 -26.5q82 0 125.5 27.5t69.5 83.5z
" />
    <glyph glyph-name="abrevegrave" unicode="&#x1eb1;" 
d="M66 344q0 80 16 164t46 166.5t77.5 155.5t106.5 128.5t137 88t165 32.5q180 0 279 -108l16 78h250l-219 -1049h-211l6 129q-104 -89 -182 -124.5t-168 -35.5q-319 0 -319 375zM758 326l90 432q-35 39 -89 66.5t-112 27.5q-75 0 -137 -47.5t-98.5 -120.5t-56 -152
t-19.5 -151q0 -96 32 -140t101 -44q125 0 289 129zM771 1483h-174l-180 250h282zM847 1499h184q-28 -152 -129.5 -232.5t-273.5 -80.5q-155 0 -232 67t-77 179q0 34 6 67h186q3 -57 36 -83.5t105 -26.5q81 0 125 27.5t70 82.5z" />
    <glyph glyph-name="Abrevehookabove" unicode="&#x1eb2;" horiz-adv-x="1311" 
d="M201 0h-283l739 1384h361l156 -1384h-273l-31 281h-518zM784 1100l-303 -572h363zM786 2048l-62 98q31 25 81 41.5t104 16.5q99 0 154 -42.5t55 -115.5q0 -161 -183 -178l-8 -41h-127l31 135h14q88 0 88 61q0 24 -17.5 37t-47.5 13q-48 0 -82 -25zM1069 1845h184
q-56 -303 -404 -303q-156 0 -232.5 63t-76.5 173q0 34 6 67h187q3 -56 35.5 -78t105.5 -22q84 0 127 23.5t68 76.5z" />
    <glyph glyph-name="abrevehookabove" unicode="&#x1eb3;" 
d="M66 344q0 80 16 164t46 166.5t77.5 155.5t106.5 128.5t137 88t165 32.5q180 0 279 -108l16 78h250l-219 -1049h-211l6 129q-104 -89 -182 -124.5t-168 -35.5q-319 0 -319 375zM758 326l90 432q-35 39 -89 66.5t-112 27.5q-75 0 -137 -47.5t-98.5 -120.5t-56 -152
t-19.5 -151q0 -96 32 -140t101 -44q125 0 289 129zM601 1712l-61 98q73 58 184 58q99 0 154 -42.5t55 -115.5q0 -161 -182 -178l-8 -41h-127l30 135h15q88 0 88 62q0 23 -18 36t-48 13q-48 0 -82 -25zM884 1509h184q-56 -303 -403 -303q-155 0 -232 63.5t-77 172.5
q0 34 6 67h186q3 -55 35.5 -77.5t105.5 -22.5q84 0 127 23.5t68 76.5z" />
    <glyph glyph-name="Abrevetilde" unicode="&#x1eb4;" horiz-adv-x="1311" 
d="M201 0h-283l739 1384h361l156 -1384h-273l-31 281h-518zM784 1100l-303 -572h363zM672 1903h-179q35 141 109.5 213.5t202.5 72.5q48 0 92 -17t70 -38t56.5 -38t55.5 -17q45 0 66 19.5t37 76.5h178q-35 -146 -108 -218.5t-204 -72.5q-53 0 -97.5 18t-69 39.5t-54 39.5
t-55.5 18q-40 0 -62.5 -20.5t-37.5 -75.5zM1055 1825h184q-56 -303 -404 -303q-156 0 -232.5 62.5t-76.5 172.5q0 33 6 68h187q3 -58 36.5 -84.5t104.5 -26.5q82 0 125.5 27.5t69.5 83.5z" />
    <glyph glyph-name="abrevetilde" unicode="&#x1eb5;" 
d="M66 344q0 80 16 164t46 166.5t77.5 155.5t106.5 128.5t137 88t165 32.5q180 0 279 -108l16 78h250l-219 -1049h-211l6 129q-104 -89 -182 -124.5t-168 -35.5q-319 0 -319 375zM758 326l90 432q-35 39 -89 66.5t-112 27.5q-75 0 -137 -47.5t-98.5 -120.5t-56 -152
t-19.5 -151q0 -96 32 -140t101 -44q125 0 289 129zM478 1567h-178q36 141 109 213.5t202 72.5q49 0 93 -17t70.5 -38t56.5 -38t55 -17q45 0 65.5 19.5t36.5 76.5h178q-35 -146 -108 -218.5t-203 -72.5q-53 0 -98 18t-70 39.5t-54 39.5t-55 18q-40 0 -62.5 -20.5t-37.5 -75.5
zM861 1489h184q-56 -303 -403 -303q-156 0 -232.5 62.5t-76.5 172.5q0 33 6 68h186q3 -58 36.5 -84.5t104.5 -26.5q82 0 125.5 27.5t69.5 83.5z" />
    <glyph glyph-name="Abrevedotbelow" unicode="&#x1eb6;" horiz-adv-x="1311" 
d="M201 0h-283l739 1384h361l156 -1384h-273l-31 281h-518zM784 1100l-303 -572h363zM1063 1845h184q-29 -153 -131 -238t-272 -85q-153 0 -231 72t-78 184q0 34 6 67h186q3 -57 36 -83.5t105 -26.5q81 0 125 27.5t70 82.5zM655 -201q0 -62 -28 -108q-40 -70 -150 -70
q-117 0 -117 80q0 56 23 102q39 80 149 80q65 0 94 -20t29 -64z" />
    <glyph glyph-name="abrevedotbelow" unicode="&#x1eb7;" 
d="M66 344q0 80 16 164t46 166.5t77.5 155.5t106.5 128.5t137 88t165 32.5q180 0 279 -108l16 78h250l-219 -1049h-211l6 129q-104 -89 -182 -124.5t-168 -35.5q-319 0 -319 375zM758 326l90 432q-35 39 -89 66.5t-112 27.5q-75 0 -137 -47.5t-98.5 -120.5t-56 -152
t-19.5 -151q0 -96 32 -140t101 -44q125 0 289 129zM901 1509h184q-29 -153 -131 -238t-272 -85q-154 0 -232 72t-78 184q0 27 7 67h186q3 -57 36 -83.5t105 -26.5q81 0 125 27.5t70 82.5zM573 -201q0 -62 -28 -108q-40 -70 -150 -70q-117 0 -117 80q0 56 23 102
q39 80 149 80q65 0 94 -20t29 -64z" />
    <glyph glyph-name="Edotbelow" unicode="&#x1eb8;" horiz-adv-x="1126" 
d="M918 0h-881l293 1384h880l-53 -249h-604l-61 -295h509l-53 -250h-510l-71 -332h604zM587 -201q0 -62 -28 -108q-40 -70 -150 -70q-117 0 -117 80q0 56 23 102q39 80 149 80q65 0 94 -20t29 -64z" />
    <glyph glyph-name="edotbelow" unicode="&#x1eb9;" horiz-adv-x="1120" 
d="M1024 457h-686q-8 -35 -8 -86q0 -91 46 -133.5t138 -42.5q87 0 150.5 25t119.5 75l144 -164q-85 -83 -182 -122.5t-254 -39.5q-113 0 -196.5 30.5t-133 86t-73 126t-23.5 157.5q0 276 161 503q69 97 179 152t256 55q403 0 403 -364q0 -50 -14 -125zM379 635h426
q10 47 10 86q0 79 -37.5 116t-126.5 37q-128 0 -198 -92q-48 -60 -74 -147zM589 -201q0 -62 -28 -108q-40 -70 -150 -70q-117 0 -117 80q0 56 23 102q39 80 149 80q65 0 94 -20t29 -64z" />
    <glyph glyph-name="Ehookabove" unicode="&#x1eba;" horiz-adv-x="1126" 
d="M918 0h-881l293 1384h880l-53 -249h-604l-61 -295h509l-53 -250h-510l-71 -332h604zM649 1718l-61 99q72 57 184 57q99 0 154 -42.5t55 -115.5q0 -161 -182 -178l-8 -41h-127l31 135h14q88 0 88 62q0 23 -18 36t-48 13q-48 0 -82 -25z" />
    <glyph glyph-name="ehookabove" unicode="&#x1ebb;" horiz-adv-x="1120" 
d="M1024 457h-686q-8 -35 -8 -86q0 -91 46 -133.5t138 -42.5q87 0 150.5 25t119.5 75l144 -164q-85 -83 -182 -122.5t-254 -39.5q-113 0 -196.5 30.5t-133 86t-73 126t-23.5 157.5q0 276 161 503q69 97 179 152t256 55q403 0 403 -364q0 -50 -14 -125zM379 635h426
q10 47 10 86q0 79 -37.5 116t-126.5 37q-128 0 -198 -92q-48 -60 -74 -147zM559 1382l-62 99q72 57 185 57q99 0 154 -42.5t55 -115.5q0 -161 -183 -178l-8 -41h-127l31 135h14q88 0 88 62q0 49 -65 49q-51 0 -82 -25z" />
    <glyph glyph-name="Etilde" unicode="&#x1ebc;" horiz-adv-x="1126" 
d="M918 0h-881l293 1384h880l-53 -249h-604l-61 -295h509l-53 -250h-510l-71 -332h604zM557 1567h-178q80 317 311 317q49 0 88 -14.5t63 -35t44 -41.5t40 -35.5t40 -14.5q41 0 63 31.5t39 95.5h178q-37 -153 -110.5 -237.5t-200.5 -84.5q-52 0 -92 15t-63.5 36.5t-42 43
t-38 36.5t-40.5 15q-37 0 -58.5 -31t-42.5 -96z" />
    <glyph glyph-name="etilde" unicode="&#x1ebd;" horiz-adv-x="1120" 
d="M1024 457h-686q-8 -35 -8 -86q0 -91 46 -133.5t138 -42.5q87 0 150.5 25t119.5 75l144 -164q-85 -83 -182 -122.5t-254 -39.5q-113 0 -196.5 30.5t-133 86t-73 126t-23.5 157.5q0 276 161 503q69 97 179 152t256 55q403 0 403 -364q0 -50 -14 -125zM379 635h426
q10 47 10 86q0 79 -37.5 116t-126.5 37q-128 0 -198 -92q-48 -60 -74 -147zM448 1231h-178q80 317 311 317q48 0 87.5 -14.5t63.5 -35t44 -41.5t40 -35.5t40 -14.5q41 0 63 31.5t39 95.5h178q-37 -153 -110.5 -237.5t-200.5 -84.5q-52 0 -92.5 15t-64 36.5t-42 43
t-37.5 36.5t-40 15q-37 0 -58.5 -31t-42.5 -96z" />
    <glyph glyph-name="Ecircumflexacute" unicode="&#x1ebe;" horiz-adv-x="1126" 
d="M918 0h-881l293 1384h880l-53 -249h-604l-61 -295h509l-53 -250h-510l-71 -332h604zM1124 1503h-201l-106 144l-182 -144h-211l299 299h239zM1527 2007l-282 -291h-193l172 291h303z" />
    <glyph glyph-name="ecircumflexacute" unicode="&#x1ebf;" horiz-adv-x="1120" 
d="M1024 457h-686q-8 -35 -8 -86q0 -91 46 -133.5t138 -42.5q87 0 150.5 25t119.5 75l144 -164q-85 -83 -182 -122.5t-254 -39.5q-113 0 -196.5 30.5t-133 86t-73 126t-23.5 157.5q0 276 161 503q69 97 179 152t256 55q403 0 403 -364q0 -50 -14 -125zM379 635h426
q10 47 10 86q0 79 -37.5 116t-126.5 37q-128 0 -198 -92q-48 -60 -74 -147zM999 1167h-200l-103 144l-186 -144h-211l299 299h240zM1403 1673l-283 -293h-192l172 293h303z" />
    <glyph glyph-name="Ecircumflexgrave" unicode="&#x1ec0;" horiz-adv-x="1126" 
d="M918 0h-881l293 1384h880l-53 -249h-604l-61 -295h509l-53 -250h-510l-71 -332h604zM1112 1503h-201l-106 144l-182 -144h-211l299 299h239zM592 1716h-174l-187 291h283z" />
    <glyph glyph-name="ecircumflexgrave" unicode="&#x1ec1;" horiz-adv-x="1120" 
d="M1024 457h-686q-8 -35 -8 -86q0 -91 46 -133.5t138 -42.5q87 0 150.5 25t119.5 75l144 -164q-85 -83 -182 -122.5t-254 -39.5q-113 0 -196.5 30.5t-133 86t-73 126t-23.5 157.5q0 276 161 503q69 97 179 152t256 55q403 0 403 -364q0 -50 -14 -125zM379 635h426
q10 47 10 86q0 79 -37.5 116t-126.5 37q-128 0 -198 -92q-48 -60 -74 -147zM1015 1167h-200l-103 144l-186 -144h-211l297 299h240zM493 1380h-174l-186 291h282z" />
    <glyph glyph-name="Ecircumflexhookabove" unicode="&#x1ec2;" horiz-adv-x="1126" 
d="M918 0h-881l293 1384h880l-53 -249h-604l-61 -295h509l-53 -250h-510l-71 -332h604zM1116 1503h-201l-106 144l-182 -144h-211l299 299h239zM1042 1892l-61 99q72 57 184 57q99 0 154 -42.5t55 -115.5q0 -161 -182 -178l-8 -41h-127l30 135h15q88 0 88 62q0 49 -66 49
q-48 0 -82 -25z" />
    <glyph glyph-name="ecircumflexhookabove" unicode="&#x1ec3;" horiz-adv-x="1120" 
d="M1024 457h-686q-8 -35 -8 -86q0 -91 46 -133.5t138 -42.5q87 0 150.5 25t119.5 75l144 -164q-85 -83 -182 -122.5t-254 -39.5q-113 0 -196.5 30.5t-133 86t-73 126t-23.5 157.5q0 276 161 503q69 97 179 152t256 55q403 0 403 -364q0 -50 -14 -125zM379 635h426
q10 47 10 86q0 79 -37.5 116t-126.5 37q-128 0 -198 -92q-48 -60 -74 -147zM1028 1167h-200l-103 144l-186 -144h-211l299 299h240zM955 1561l-62 98q72 57 185 57q99 0 153.5 -42t54.5 -115q0 -162 -182 -179l-8 -41h-127l31 136h14q88 0 88 61q0 49 -65 49q-49 0 -82 -24z
" />
    <glyph glyph-name="Ecircumflextilde" unicode="&#x1ec4;" horiz-adv-x="1126" 
d="M918 0h-881l293 1384h880l-53 -249h-604l-61 -295h509l-53 -250h-510l-71 -332h604zM1118 1503h-201l-102 123l-186 -123h-211l301 279h239zM586 1841h-179q36 141 109.5 214t202.5 73q48 0 92 -17.5t70 -38t56.5 -38t55.5 -17.5q44 0 65 20t37 77h179
q-36 -147 -108 -219t-204 -72q-53 0 -98 18t-69.5 39t-53.5 39t-55 18q-41 0 -62.5 -20t-37.5 -76z" />
    <glyph glyph-name="ecircumflextilde" unicode="&#x1ec5;" horiz-adv-x="1120" 
d="M1024 457h-686q-8 -35 -8 -86q0 -91 46 -133.5t138 -42.5q87 0 150.5 25t119.5 75l144 -164q-85 -83 -182 -122.5t-254 -39.5q-113 0 -196.5 30.5t-133 86t-73 126t-23.5 157.5q0 276 161 503q69 97 179 152t256 55q403 0 403 -364q0 -50 -14 -125zM379 635h426
q10 47 10 86q0 79 -37.5 116t-126.5 37q-128 0 -198 -92q-48 -60 -74 -147zM1017 1167h-200l-101 133l-188 -133h-211l305 299h240zM489 1526h-178q36 141 109 213.5t202 72.5q49 0 93 -17t70.5 -38t56.5 -38t55 -17q45 0 65.5 19.5t36.5 76.5h178q-35 -146 -108 -218.5
t-203 -72.5q-53 0 -98 18t-70 39.5t-54 39.5t-55 18q-41 0 -61.5 -19.5t-38.5 -76.5z" />
    <glyph glyph-name="Ecircumflexdotbelow" unicode="&#x1ec6;" horiz-adv-x="1126" 
d="M918 0h-881l293 1384h880l-53 -249h-604l-61 -295h509l-53 -250h-510l-71 -332h604zM1129 1544h-201l-105 174l-184 -174h-211l307 361h240zM587 -201q0 -62 -28 -108q-40 -70 -150 -70q-117 0 -117 80q0 56 23 102q39 80 149 80q65 0 94 -20t29 -64z" />
    <glyph glyph-name="ecircumflexdotbelow" unicode="&#x1ec7;" horiz-adv-x="1120" 
d="M1024 457h-686q-8 -35 -8 -86q0 -91 46 -133.5t138 -42.5q87 0 150.5 25t119.5 75l144 -164q-85 -83 -182 -122.5t-254 -39.5q-113 0 -196.5 30.5t-133 86t-73 126t-23.5 157.5q0 276 161 503q69 97 179 152t256 55q403 0 403 -364q0 -50 -14 -125zM379 635h426
q10 47 10 86q0 79 -37.5 116t-126.5 37q-128 0 -198 -92q-48 -60 -74 -147zM1022 1208h-201l-105 174l-184 -174h-211l307 361h240zM706 -201q0 -62 -28 -108q-40 -70 -150 -70q-117 0 -117 80q0 56 23 102q39 80 149 80q65 0 94 -20t29 -64z" />
    <glyph glyph-name="Ihookabove" unicode="&#x1ec8;" horiz-adv-x="854" 
d="M688 217l-45 -217h-653l45 217h188l203 950h-188l45 217h653l-45 -217h-189l-202 -950h188zM511 1718l-61 99q72 57 184 57q99 0 154 -42.5t55 -115.5q0 -161 -182 -178l-8 -41h-127l31 135h14q88 0 88 62q0 23 -18 36t-48 13q-48 0 -82 -25z" />
    <glyph glyph-name="ihookabove" unicode="&#x1ec9;" horiz-adv-x="539" 
d="M285 0h-252l221 1049h252zM292 1382l-62 99q72 57 185 57q99 0 154 -42.5t55 -115.5q0 -161 -183 -178l-8 -41h-127l31 135h14q88 0 88 62q0 49 -65 49q-51 0 -82 -25z" />
    <glyph glyph-name="Idotbelow" unicode="&#x1eca;" horiz-adv-x="854" 
d="M688 217l-45 -217h-653l45 217h188l203 950h-188l45 217h653l-45 -217h-189l-202 -950h188zM411 -201q0 -62 -28 -108q-40 -70 -150 -70q-117 0 -117 80q0 56 23 102q39 80 149 80q65 0 94 -20t29 -64z" />
    <glyph glyph-name="idotbelow" unicode="&#x1ecb;" horiz-adv-x="539" 
d="M285 0h-252l221 1049h252zM295 1300q0 24 7.5 50t24.5 53.5t52.5 45t83.5 17.5q125 0 125 -94q0 -27 -8.5 -54t-26.5 -54t-53 -43.5t-82 -16.5q-67 0 -95 24t-28 72zM256 -201q0 -62 -28 -108q-40 -70 -150 -70q-117 0 -117 80q0 56 23 102q39 80 149 80q65 0 94 -20
t29 -64z" />
    </font>
</defs>
</svg>
